<?xml version="1.0" encoding="UTF-8"?>
<svg xmlns="http://www.w3.org/2000/svg"
     xmlns:xlink="http://www.w3.org/1999/xlink"
     version="1.2"
     width="200mm" height="100mm" viewBox="0 0 200 100"
     stroke="none"
     fill="#000000"
     stroke-width="0.3"
     font-size="3.88"
>
<g stroke-width="0.67" fill="#000000" fill-opacity="0.000" stroke="#D3D3D3" id="img-f69e5c3a-1">
  <g transform="translate(157.14,57.11)">
    <path fill="none" d="M1.05,-23.43 L -1.05 23.43" class="primitive"/>
  </g>
  <g transform="translate(107.41,47.86)">
    <path fill="none" d="M46.98,-15.24 L -46.98 15.24" class="primitive"/>
  </g>
  <g transform="translate(170.81,50.13)">
    <path fill="none" d="M-11.05,-16.56 L 11.05 16.56" class="primitive"/>
  </g>
  <g transform="translate(160.76,41.73)">
    <path fill="none" d="M-1.92,-8.06 L 1.92 8.06" class="primitive"/>
  </g>
  <g transform="translate(146.48,49.95)">
    <path fill="none" d="M10.41,-16.38 L -10.41 16.38" class="primitive"/>
  </g>
  <g transform="translate(121.24,42.19)">
    <path fill="none" d="M33.04,-9.66 L -33.04 9.66" class="primitive"/>
  </g>
  <g transform="translate(110.87,26.56)">
    <path fill="none" d="M42.86,4.33 L -42.86 -4.33" class="primitive"/>
  </g>
  <g transform="translate(144.71,28.9)">
    <path fill="none" d="M9.2,1.66 L -9.2 -1.66" class="primitive"/>
  </g>
  <g transform="translate(112.41,34.82)">
    <path fill="none" d="M41.28,-3.12 L -41.28 3.12" class="primitive"/>
  </g>
  <g transform="translate(124.57,19.84)">
    <path fill="none" d="M29.87,10.2 L -29.87 -10.2" class="primitive"/>
  </g>
  <g transform="translate(103.38,41.5)">
    <path fill="none" d="M-55.46,-9.83 L 55.46 9.83" class="primitive"/>
  </g>
  <g transform="translate(71.41,33.52)">
    <path fill="none" d="M-23.31,-2.19 L 23.31 2.19" class="primitive"/>
  </g>
  <g transform="translate(30.1,35.83)">
    <path fill="none" d="M9.68,-3.56 L -9.68 3.56" class="primitive"/>
  </g>
  <g transform="translate(89.1,49.72)">
    <path fill="none" d="M-41.98,-17.34 L 41.98 17.34" class="primitive"/>
  </g>
  <g transform="translate(31.75,48.4)">
    <path fill="none" d="M10.29,-15.3 L -10.29 15.3" class="primitive"/>
  </g>
  <g transform="translate(54.67,53.41)">
    <path fill="none" d="M-10.03,-20.25 L 10.03 20.25" class="primitive"/>
  </g>
  <g transform="translate(53.49,26.34)">
    <path fill="none" d="M-6.52,2.99 L 6.52 -2.99" class="primitive"/>
  </g>
  <g transform="translate(87.32,28.67)">
    <path fill="none" d="M-39.16,1.99 L 39.16 -1.99" class="primitive"/>
  </g>
  <g transform="translate(55.03,34.59)">
    <path fill="none" d="M-7.58,-2.44 L 7.58 2.44" class="primitive"/>
  </g>
  <g transform="translate(67.19,19.62)">
    <path fill="none" d="M-20.29,9.67 L 20.29 -9.67" class="primitive"/>
  </g>
  <g transform="translate(106.25,73.62)">
    <path fill="none" d="M45.36,8.44 L -45.36 -8.44" class="primitive"/>
  </g>
  <g transform="translate(143.26,63.78)">
    <path fill="none" d="M11.25,16.87 L -11.25 -16.87" class="primitive"/>
  </g>
  <g transform="translate(169.66,75.88)">
    <path fill="none" d="M-10.42,5.32 L 10.42 -5.32" class="primitive"/>
  </g>
  <g transform="translate(139.97,87.27)">
    <path fill="none" d="M11.93,-3.28 L -11.93 3.28" class="primitive"/>
  </g>
  <g transform="translate(145.32,75.71)">
    <path fill="none" d="M7.88,5.29 L -7.88 -5.29" class="primitive"/>
  </g>
  <g transform="translate(110.9,79.39)">
    <path fill="none" d="M40.48,3.12 L -40.48 -3.12" class="primitive"/>
  </g>
  <g transform="translate(129.7,73.23)">
    <path fill="none" d="M22.52,8.26 L -22.52 -8.26" class="primitive"/>
  </g>
  <g transform="translate(143.55,54.66)">
    <path fill="none" d="M11.43,25.93 L -11.43 -25.93" class="primitive"/>
  </g>
  <g transform="translate(120.37,85.59)">
    <path fill="none" d="M31.01,-2.37 L -31.01 2.37" class="primitive"/>
  </g>
  <g transform="translate(90.24,78.02)">
    <path fill="none" d="M-30.1,-12.19 L 30.1 12.19" class="primitive"/>
  </g>
  <g transform="translate(77.91,50.25)">
    <path fill="none" d="M-18.57,12.26 L 18.57 -12.26" class="primitive"/>
  </g>
  <g transform="translate(36.59,52.57)">
    <path fill="none" d="M16.92,10.02 L -16.92 -10.02" class="primitive"/>
  </g>
  <g transform="translate(38.25,65.14)">
    <path fill="none" d="M13.63,-0.58 L -13.63 0.58" class="primitive"/>
  </g>
  <g transform="translate(61.17,70.14)">
    <path fill="none" d="M-2.91,-3.62 L 2.91 3.62" class="primitive"/>
  </g>
  <g transform="translate(59.98,43.07)">
    <path fill="none" d="M-3.08,18.97 L 3.08 -18.97" class="primitive"/>
  </g>
  <g transform="translate(70.64,76.34)">
    <path fill="none" d="M-11.75,-9.97 L 11.75 9.97" class="primitive"/>
  </g>
  <g transform="translate(61.53,51.32)">
    <path fill="none" d="M-4.13,10.75 L 4.13 -10.75" class="primitive"/>
  </g>
  <g transform="translate(156.93,56.8)">
    <path fill="none" d="M-22.97,-10.53 L 22.97 10.53" class="primitive"/>
  </g>
  <g transform="translate(146.88,48.4)">
    <path fill="none" d="M-12.11,-2.74 L 12.11 2.74" class="primitive"/>
  </g>
  <g transform="translate(127.24,68.18)">
    <path fill="none" d="M2.96,-21.16 L -2.96 21.16" class="primitive"/>
  </g>
  <g transform="translate(114.91,40.42)">
    <path fill="none" d="M11.53,3.16 L -11.53 -3.16" class="primitive"/>
  </g>
  <g transform="translate(73.6,42.73)">
    <path fill="none" d="M52.28,1.81 L -52.28 -1.81" class="primitive"/>
  </g>
  <g transform="translate(132.6,56.62)">
    <path fill="none" d="M-1.66,-9.6 L 1.66 9.6" class="primitive"/>
  </g>
  <g transform="translate(96.99,33.24)">
    <path fill="none" d="M29.7,10.15 L -29.7 -10.15" class="primitive"/>
  </g>
  <g transform="translate(98.53,41.49)">
    <path fill="none" d="M27.43,2.75 L -27.43 -2.75" class="primitive"/>
  </g>
  <g transform="translate(110.69,26.52)">
    <path fill="none" d="M17.61,16.14 L -17.61 -16.14" class="primitive"/>
  </g>
  <g transform="translate(173.28,60.5)">
    <path fill="none" d="M7.66,6.4 L -7.66 -6.4" class="primitive"/>
  </g>
  <g transform="translate(153.65,80.28)">
    <path fill="none" d="M25.99,-9.97 L -25.99 9.97" class="primitive"/>
  </g>
  <g transform="translate(159,68.72)">
    <path fill="none" d="M19.68,0.14 L -19.68 -0.14" class="primitive"/>
  </g>
  <g transform="translate(133.76,60.97)">
    <path fill="none" d="M45.14,7.22 L -45.14 -7.22" class="primitive"/>
  </g>
  <g transform="translate(143.38,66.25)">
    <path fill="none" d="M35.34,2.34 L -35.34 -2.34" class="primitive"/>
  </g>
  <g transform="translate(157.23,47.68)">
    <path fill="none" d="M23.67,19.24 L -23.67 -19.24" class="primitive"/>
  </g>
  <g transform="translate(134.05,78.61)">
    <path fill="none" d="M44.95,-8.85 L -44.95 8.85" class="primitive"/>
  </g>
  <g transform="translate(143.59,71.88)">
    <path fill="none" d="M17.56,-17.7 L -17.56 17.7" class="primitive"/>
  </g>
  <g transform="translate(131.26,44.12)">
    <path fill="none" d="M27.8,6.94 L -27.8 -6.94" class="primitive"/>
  </g>
  <g transform="translate(148.95,60.32)">
    <path fill="none" d="M11.23,-6.46 L -11.23 6.46" class="primitive"/>
  </g>
  <g transform="translate(114.52,64.01)">
    <path fill="none" d="M44.52,-10.88 L -44.52 10.88" class="primitive"/>
  </g>
  <g transform="translate(133.33,57.85)">
    <path fill="none" d="M25.55,-4.91 L -25.55 4.91" class="primitive"/>
  </g>
  <g transform="translate(147.17,39.28)">
    <path fill="none" d="M13.58,10.85 L -13.58 -10.85" class="primitive"/>
  </g>
  <g transform="translate(129.31,80.11)">
    <path fill="none" d="M-4.3,9.29 L 4.3 -9.29" class="primitive"/>
  </g>
  <g transform="translate(104.07,72.35)">
    <path fill="none" d="M17.76,17.25 L -17.76 -17.25" class="primitive"/>
  </g>
  <g transform="translate(94.89,83.79)">
    <path fill="none" d="M24.97,6.76 L -24.97 -6.76" class="primitive"/>
  </g>
  <g transform="translate(104.36,89.99)">
    <path fill="none" d="M15.01,1.28 L -15.01 -1.28" class="primitive"/>
  </g>
  <g transform="translate(95.24,64.98)">
    <path fill="none" d="M26.51,24.64 L -26.51 -24.64" class="primitive"/>
  </g>
  <g transform="translate(116.98,52.34)">
    <path fill="none" d="M-15.45,-14.16 L 15.45 14.16" class="primitive"/>
  </g>
  <g transform="translate(91.74,44.58)">
    <path fill="none" d="M5.66,-6.32 L -5.66 6.32" class="primitive"/>
  </g>
  <g transform="translate(82.56,56.03)">
    <path fill="none" d="M14.93,-17.75 L -14.93 17.75" class="primitive"/>
  </g>
  <g transform="translate(92.03,62.23)">
    <path fill="none" d="M6.63,-23.79 L -6.63 23.79" class="primitive"/>
  </g>
  <g transform="translate(82.91,37.21)">
    <path fill="none" d="M11.77,-0.77 L -11.77 0.77" class="primitive"/>
  </g>
  <g transform="translate(95.08,22.23)">
    <path fill="none" d="M3.52,11.6 L -3.52 -11.6" class="primitive"/>
  </g>
  <g transform="translate(50.42,46.9)">
    <path fill="none" d="M-29.38,-5.34 L 29.38 5.34" class="primitive"/>
  </g>
  <g transform="translate(18.32,53.34)">
    <path fill="none" d="M-1.35,-10.25 L 1.35 10.25" class="primitive"/>
  </g>
  <g transform="translate(41.24,58.34)">
    <path fill="none" d="M-21.91,-15.67 L 21.91 15.67" class="primitive"/>
  </g>
  <g transform="translate(40.06,31.27)">
    <path fill="none" d="M-19.77,8.03 L 19.77 -8.03" class="primitive"/>
  </g>
  <g transform="translate(60.04,52.18)">
    <path fill="none" d="M-39.26,-10.33 L 39.26 10.33" class="primitive"/>
  </g>
  <g transform="translate(41.6,39.53)">
    <path fill="none" d="M-20.3,1.01 L 20.3 -1.01" class="primitive"/>
  </g>
  <g transform="translate(53.76,24.55)">
    <path fill="none" d="M-33.59,14.68 L 33.59 -14.68" class="primitive"/>
  </g>
  <g transform="translate(77.32,67.23)">
    <path fill="none" d="M52.69,1.21 L -52.69 -1.21" class="primitive"/>
  </g>
  <g transform="translate(119.04,66.07)">
    <path fill="none" d="M11.18,1.77 L -11.18 -1.77" class="primitive"/>
  </g>
  <g transform="translate(52.08,59.47)">
    <path fill="none" d="M27.78,-5.57 L -27.78 5.57" class="primitive"/>
  </g>
  <g transform="translate(73.81,37.4)">
    <path fill="none" d="M8.9,13.42 L -8.9 -13.42" class="primitive"/>
  </g>
  <g transform="translate(93.8,58.32)">
    <path fill="none" d="M-6.48,-3.56 L 6.48 3.56" class="primitive"/>
  </g>
  <g transform="translate(84.47,70.68)">
    <path fill="none" d="M-0.25,-15.31 L 0.25 15.31" class="primitive"/>
  </g>
  <g transform="translate(87.52,30.68)">
    <path fill="none" d="M-2.99,20.03 L 2.99 -20.03" class="primitive"/>
  </g>
  <g transform="translate(42.9,70.91)">
    <path fill="none" d="M-18.65,-4.07 L 18.65 4.07" class="primitive"/>
  </g>
  <g transform="translate(41.71,43.84)">
    <path fill="none" d="M-19.68,19.98 L 19.68 -19.98" class="primitive"/>
  </g>
  <g transform="translate(61.7,64.75)">
    <path fill="none" d="M-37.07,1.03 L 37.07 -1.03" class="primitive"/>
  </g>
  <g transform="translate(52.37,77.11)">
    <path fill="none" d="M-28.56,-9.88 L 28.56 9.88" class="primitive"/>
  </g>
  <g transform="translate(43.25,52.1)">
    <path fill="none" d="M-20.28,12.03 L 20.28 -12.03" class="primitive"/>
  </g>
  <g transform="translate(98.47,51.19)">
    <path fill="none" d="M-30.09,22.79 L 30.09 -22.79" class="primitive"/>
  </g>
  <g transform="translate(75.29,82.12)">
    <path fill="none" d="M-6.64,-4.35 L 6.64 4.35" class="primitive"/>
  </g>
  <g transform="translate(97.28,24.11)">
    <path fill="none" d="M-29.22,-2.02 L 29.22 2.02" class="primitive"/>
  </g>
  <g transform="translate(74.1,55.05)">
    <path fill="none" d="M-9.92,-30.97 L 9.92 30.97" class="primitive"/>
  </g>
  <g transform="translate(77.15,15.05)">
    <path fill="none" d="M-10.38,5.09 L 10.38 -5.09" class="primitive"/>
  </g>
  <g transform="translate(117.27,45.03)">
    <path fill="none" d="M-12.22,16.39 L 12.22 -16.39" class="primitive"/>
  </g>
  <g transform="translate(94.09,75.96)">
    <path fill="none" d="M7.69,-10.18 L -7.69 10.18" class="primitive"/>
  </g>
  <g transform="translate(97.14,35.97)">
    <path fill="none" d="M5.76,25.32 L -5.76 -25.32" class="primitive"/>
  </g>
  <g transform="translate(98.83,32.37)">
    <path fill="none" d="M27.92,-5.12 L -27.92 5.12" class="primitive"/>
  </g>
  <g transform="translate(110.99,17.39)">
    <path fill="none" d="M16.67,7.5 L -16.67 -7.5" class="primitive"/>
  </g>
  <g transform="translate(78.69,23.31)">
    <path fill="none" d="M-10.41,12.82 L 10.41 -12.82" class="primitive"/>
  </g>
</g>
<g stroke-width="0.67" stroke="#D3D3D3" id="img-f69e5c3a-2">
</g>
<g font-size="4" stroke="#000000" stroke-opacity="0.000" fill="#000000" id="img-f69e5c3a-3">
</g>
<g stroke-width="0" stroke="#000000" stroke-opacity="0.000" fill="#40E0D0" id="img-f69e5c3a-4">
  <g transform="translate(158.3,31.35)">
    <circle cx="0" cy="0" r="4.47" class="primitive"/>
  </g>
  <g transform="translate(43.53,30.9)">
    <circle cx="0" cy="0" r="4.47" class="primitive"/>
  </g>
  <g transform="translate(155.98,82.87)">
    <circle cx="0" cy="0" r="4.47" class="primitive"/>
  </g>
  <g transform="translate(56.52,64.36)">
    <circle cx="0" cy="0" r="4.47" class="primitive"/>
  </g>
  <g transform="translate(130.53,44.7)">
    <circle cx="0" cy="0" r="4.47" class="primitive"/>
  </g>
  <g transform="translate(183.33,68.9)">
    <circle cx="0" cy="0" r="4.47" class="primitive"/>
  </g>
  <g transform="translate(163.23,52.1)">
    <circle cx="0" cy="0" r="4.47" class="primitive"/>
  </g>
  <g transform="translate(123.96,91.67)">
    <circle cx="0" cy="0" r="4.47" class="primitive"/>
  </g>
  <g transform="translate(99.3,36.13)">
    <circle cx="0" cy="0" r="4.47" class="primitive"/>
  </g>
  <g transform="translate(16.67,40.77)">
    <circle cx="0" cy="0" r="4.47" class="primitive"/>
  </g>
  <g transform="translate(134.66,68.55)">
    <circle cx="0" cy="0" r="4.47" class="primitive"/>
  </g>
  <g transform="translate(84.18,53.03)">
    <circle cx="0" cy="0" r="4.47" class="primitive"/>
  </g>
  <g transform="translate(19.97,65.91)">
    <circle cx="0" cy="0" r="4.47" class="primitive"/>
  </g>
  <g transform="translate(65.82,75.92)">
    <circle cx="0" cy="0" r="4.47" class="primitive"/>
  </g>
  <g transform="translate(63.44,21.77)">
    <circle cx="0" cy="0" r="4.47" class="primitive"/>
  </g>
  <g transform="translate(103.42,63.6)">
    <circle cx="0" cy="0" r="4.47" class="primitive"/>
  </g>
  <g transform="translate(131.12,26.45)">
    <circle cx="0" cy="0" r="4.47" class="primitive"/>
  </g>
  <g transform="translate(84.76,88.32)">
    <circle cx="0" cy="0" r="4.47" class="primitive"/>
  </g>
  <g transform="translate(66.53,38.29)">
    <circle cx="0" cy="0" r="4.47" class="primitive"/>
  </g>
  <g transform="translate(90.85,8.33)">
    <circle cx="0" cy="0" r="4.47" class="primitive"/>
  </g>
</g>
<g font-size="4" stroke="#000000" stroke-opacity="0.000" fill="#000000" id="img-f69e5c3a-5">
  <g transform="translate(158.3,31.35)">
    <g class="primitive">
      <text text-anchor="middle" dy="0.35em">1</text>
    </g>
  </g>
  <g transform="translate(43.53,30.9)">
    <g class="primitive">
      <text text-anchor="middle" dy="0.35em">2</text>
    </g>
  </g>
  <g transform="translate(155.98,82.87)">
    <g class="primitive">
      <text text-anchor="middle" dy="0.35em">3</text>
    </g>
  </g>
  <g transform="translate(56.52,64.36)">
    <g class="primitive">
      <text text-anchor="middle" dy="0.35em">4</text>
    </g>
  </g>
  <g transform="translate(130.53,44.7)">
    <g class="primitive">
      <text text-anchor="middle" dy="0.35em">5</text>
    </g>
  </g>
  <g transform="translate(183.33,68.9)">
    <g class="primitive">
      <text text-anchor="middle" dy="0.35em">6</text>
    </g>
  </g>
  <g transform="translate(163.23,52.1)">
    <g class="primitive">
      <text text-anchor="middle" dy="0.35em">7</text>
    </g>
  </g>
  <g transform="translate(123.96,91.67)">
    <g class="primitive">
      <text text-anchor="middle" dy="0.35em">8</text>
    </g>
  </g>
  <g transform="translate(99.3,36.13)">
    <g class="primitive">
      <text text-anchor="middle" dy="0.35em">9</text>
    </g>
  </g>
  <g transform="translate(16.67,40.77)">
    <g class="primitive">
      <text text-anchor="middle" dy="0.35em">10</text>
    </g>
  </g>
  <g transform="translate(134.66,68.55)">
    <g class="primitive">
      <text text-anchor="middle" dy="0.35em">11</text>
    </g>
  </g>
  <g transform="translate(84.18,53.03)">
    <g class="primitive">
      <text text-anchor="middle" dy="0.35em">12</text>
    </g>
  </g>
  <g transform="translate(19.97,65.91)">
    <g class="primitive">
      <text text-anchor="middle" dy="0.35em">13</text>
    </g>
  </g>
  <g transform="translate(65.82,75.92)">
    <g class="primitive">
      <text text-anchor="middle" dy="0.35em">14</text>
    </g>
  </g>
  <g transform="translate(63.44,21.77)">
    <g class="primitive">
      <text text-anchor="middle" dy="0.35em">15</text>
    </g>
  </g>
  <g transform="translate(103.42,63.6)">
    <g class="primitive">
      <text text-anchor="middle" dy="0.35em">16</text>
    </g>
  </g>
  <g transform="translate(131.12,26.45)">
    <g class="primitive">
      <text text-anchor="middle" dy="0.35em">17</text>
    </g>
  </g>
  <g transform="translate(84.76,88.32)">
    <g class="primitive">
      <text text-anchor="middle" dy="0.35em">18</text>
    </g>
  </g>
  <g transform="translate(66.53,38.29)">
    <g class="primitive">
      <text text-anchor="middle" dy="0.35em">19</text>
    </g>
  </g>
  <g transform="translate(90.85,8.33)">
    <g class="primitive">
      <text text-anchor="middle" dy="0.35em">20</text>
    </g>
  </g>
</g>
</svg>
