<?xml version="1.0" encoding="utf-8"?>
<svg xmlns="http://www.w3.org/2000/svg" xmlns:xlink="http://www.w3.org/1999/xlink" width="600" height="400" viewBox="0 0 2400 1600">
<defs>
  <clipPath id="clip0200">
    <rect x="0" y="0" width="2000" height="2000"/>
  </clipPath>
</defs>
<defs>
  <clipPath id="clip0201">
    <rect x="0" y="0" width="2400" height="1600"/>
  </clipPath>
</defs>
<polygon clip-path="url(#clip0201)" points="
0,1600 2400,1600 2400,0 0,0 
  " fill="#ffffff" fill-rule="evenodd" fill-opacity="1"/>
<defs>
  <clipPath id="clip0202">
    <rect x="480" y="0" width="1681" height="1600"/>
  </clipPath>
</defs>
<polygon clip-path="url(#clip0201)" points="
174.775,1503.47 2321.26,1503.47 2321.26,47.2441 174.775,47.2441 
  " fill="#ffffff" fill-rule="evenodd" fill-opacity="1"/>
<defs>
  <clipPath id="clip0203">
    <rect x="174" y="47" width="2147" height="1457"/>
  </clipPath>
</defs>
<polyline clip-path="url(#clip0203)" style="stroke:#000000; stroke-width:2; stroke-opacity:0.1; fill:none" points="
  231.467,1503.47 231.467,47.2441 
  "/>
<polyline clip-path="url(#clip0203)" style="stroke:#000000; stroke-width:2; stroke-opacity:0.1; fill:none" points="
  637.275,1503.47 637.275,47.2441 
  "/>
<polyline clip-path="url(#clip0203)" style="stroke:#000000; stroke-width:2; stroke-opacity:0.1; fill:none" points="
  1043.08,1503.47 1043.08,47.2441 
  "/>
<polyline clip-path="url(#clip0203)" style="stroke:#000000; stroke-width:2; stroke-opacity:0.1; fill:none" points="
  1448.89,1503.47 1448.89,47.2441 
  "/>
<polyline clip-path="url(#clip0203)" style="stroke:#000000; stroke-width:2; stroke-opacity:0.1; fill:none" points="
  1854.7,1503.47 1854.7,47.2441 
  "/>
<polyline clip-path="url(#clip0203)" style="stroke:#000000; stroke-width:2; stroke-opacity:0.1; fill:none" points="
  2260.51,1503.47 2260.51,47.2441 
  "/>
<polyline clip-path="url(#clip0203)" style="stroke:#000000; stroke-width:2; stroke-opacity:0.1; fill:none" points="
  174.775,1462.26 2321.26,1462.26 
  "/>
<polyline clip-path="url(#clip0203)" style="stroke:#000000; stroke-width:2; stroke-opacity:0.1; fill:none" points="
  174.775,1118.81 2321.26,1118.81 
  "/>
<polyline clip-path="url(#clip0203)" style="stroke:#000000; stroke-width:2; stroke-opacity:0.1; fill:none" points="
  174.775,775.359 2321.26,775.359 
  "/>
<polyline clip-path="url(#clip0203)" style="stroke:#000000; stroke-width:2; stroke-opacity:0.1; fill:none" points="
  174.775,431.909 2321.26,431.909 
  "/>
<polyline clip-path="url(#clip0203)" style="stroke:#000000; stroke-width:2; stroke-opacity:0.1; fill:none" points="
  174.775,88.4582 2321.26,88.4582 
  "/>
<polyline clip-path="url(#clip0201)" style="stroke:#000000; stroke-width:4; stroke-opacity:1; fill:none" points="
  174.775,1503.47 2321.26,1503.47 
  "/>
<polyline clip-path="url(#clip0201)" style="stroke:#000000; stroke-width:4; stroke-opacity:1; fill:none" points="
  174.775,1503.47 174.775,47.2441 
  "/>
<polyline clip-path="url(#clip0201)" style="stroke:#000000; stroke-width:4; stroke-opacity:1; fill:none" points="
  231.467,1503.47 231.467,1481.63 
  "/>
<polyline clip-path="url(#clip0201)" style="stroke:#000000; stroke-width:4; stroke-opacity:1; fill:none" points="
  637.275,1503.47 637.275,1481.63 
  "/>
<polyline clip-path="url(#clip0201)" style="stroke:#000000; stroke-width:4; stroke-opacity:1; fill:none" points="
  1043.08,1503.47 1043.08,1481.63 
  "/>
<polyline clip-path="url(#clip0201)" style="stroke:#000000; stroke-width:4; stroke-opacity:1; fill:none" points="
  1448.89,1503.47 1448.89,1481.63 
  "/>
<polyline clip-path="url(#clip0201)" style="stroke:#000000; stroke-width:4; stroke-opacity:1; fill:none" points="
  1854.7,1503.47 1854.7,1481.63 
  "/>
<polyline clip-path="url(#clip0201)" style="stroke:#000000; stroke-width:4; stroke-opacity:1; fill:none" points="
  2260.51,1503.47 2260.51,1481.63 
  "/>
<polyline clip-path="url(#clip0201)" style="stroke:#000000; stroke-width:4; stroke-opacity:1; fill:none" points="
  174.775,1462.26 206.972,1462.26 
  "/>
<polyline clip-path="url(#clip0201)" style="stroke:#000000; stroke-width:4; stroke-opacity:1; fill:none" points="
  174.775,1118.81 206.972,1118.81 
  "/>
<polyline clip-path="url(#clip0201)" style="stroke:#000000; stroke-width:4; stroke-opacity:1; fill:none" points="
  174.775,775.359 206.972,775.359 
  "/>
<polyline clip-path="url(#clip0201)" style="stroke:#000000; stroke-width:4; stroke-opacity:1; fill:none" points="
  174.775,431.909 206.972,431.909 
  "/>
<polyline clip-path="url(#clip0201)" style="stroke:#000000; stroke-width:4; stroke-opacity:1; fill:none" points="
  174.775,88.4582 206.972,88.4582 
  "/>
<g clip-path="url(#clip0201)">
<text style="fill:#000000; fill-opacity:1; font-family:Arial,Helvetica Neue,Helvetica,sans-serif; font-size:48px; text-anchor:middle;" transform="rotate(0, 231.467, 1557.47)" x="231.467" y="1557.47">0</text>
</g>
<g clip-path="url(#clip0201)">
<text style="fill:#000000; fill-opacity:1; font-family:Arial,Helvetica Neue,Helvetica,sans-serif; font-size:48px; text-anchor:middle;" transform="rotate(0, 637.275, 1557.47)" x="637.275" y="1557.47">100</text>
</g>
<g clip-path="url(#clip0201)">
<text style="fill:#000000; fill-opacity:1; font-family:Arial,Helvetica Neue,Helvetica,sans-serif; font-size:48px; text-anchor:middle;" transform="rotate(0, 1043.08, 1557.47)" x="1043.08" y="1557.47">200</text>
</g>
<g clip-path="url(#clip0201)">
<text style="fill:#000000; fill-opacity:1; font-family:Arial,Helvetica Neue,Helvetica,sans-serif; font-size:48px; text-anchor:middle;" transform="rotate(0, 1448.89, 1557.47)" x="1448.89" y="1557.47">300</text>
</g>
<g clip-path="url(#clip0201)">
<text style="fill:#000000; fill-opacity:1; font-family:Arial,Helvetica Neue,Helvetica,sans-serif; font-size:48px; text-anchor:middle;" transform="rotate(0, 1854.7, 1557.47)" x="1854.7" y="1557.47">400</text>
</g>
<g clip-path="url(#clip0201)">
<text style="fill:#000000; fill-opacity:1; font-family:Arial,Helvetica Neue,Helvetica,sans-serif; font-size:48px; text-anchor:middle;" transform="rotate(0, 2260.51, 1557.47)" x="2260.51" y="1557.47">500</text>
</g>
<g clip-path="url(#clip0201)">
<text style="fill:#000000; fill-opacity:1; font-family:Arial,Helvetica Neue,Helvetica,sans-serif; font-size:48px; text-anchor:end;" transform="rotate(0, 150.775, 1479.76)" x="150.775" y="1479.76">0</text>
</g>
<g clip-path="url(#clip0201)">
<text style="fill:#000000; fill-opacity:1; font-family:Arial,Helvetica Neue,Helvetica,sans-serif; font-size:48px; text-anchor:end;" transform="rotate(0, 150.775, 1136.31)" x="150.775" y="1136.31">25</text>
</g>
<g clip-path="url(#clip0201)">
<text style="fill:#000000; fill-opacity:1; font-family:Arial,Helvetica Neue,Helvetica,sans-serif; font-size:48px; text-anchor:end;" transform="rotate(0, 150.775, 792.859)" x="150.775" y="792.859">50</text>
</g>
<g clip-path="url(#clip0201)">
<text style="fill:#000000; fill-opacity:1; font-family:Arial,Helvetica Neue,Helvetica,sans-serif; font-size:48px; text-anchor:end;" transform="rotate(0, 150.775, 449.409)" x="150.775" y="449.409">75</text>
</g>
<g clip-path="url(#clip0201)">
<text style="fill:#000000; fill-opacity:1; font-family:Arial,Helvetica Neue,Helvetica,sans-serif; font-size:48px; text-anchor:end;" transform="rotate(0, 150.775, 105.958)" x="150.775" y="105.958">100</text>
</g>
<polyline clip-path="url(#clip0203)" style="stroke:#009af9; stroke-width:4; stroke-opacity:1; fill:none" points="
  235.525,1462.26 239.583,1459.96 243.641,1457.67 247.699,1455.37 251.757,1453.07 255.815,1450.77 259.873,1448.48 263.931,1446.18 267.989,1443.88 272.048,1441.58 
  276.106,1439.29 280.164,1436.99 284.222,1434.69 288.28,1432.4 292.338,1430.1 296.396,1427.8 300.454,1425.5 304.512,1423.21 308.57,1420.91 312.628,1418.61 
  316.687,1416.31 320.745,1414.02 324.803,1411.72 328.861,1409.42 332.919,1407.12 336.977,1404.83 341.035,1402.53 345.093,1400.23 349.151,1397.94 353.209,1395.64 
  357.267,1393.34 361.325,1391.04 365.384,1388.75 369.442,1386.45 373.5,1384.15 377.558,1381.85 381.616,1379.56 385.674,1377.26 389.732,1374.96 393.79,1372.66 
  397.848,1370.37 401.906,1368.07 405.964,1365.77 410.023,1363.48 414.081,1361.18 418.139,1358.88 422.197,1356.58 426.255,1354.29 430.313,1351.99 434.371,1349.69 
  438.429,1347.39 442.487,1345.1 446.545,1342.8 450.603,1340.5 454.661,1338.2 458.72,1335.91 462.778,1333.61 466.836,1331.31 470.894,1329.02 474.952,1326.72 
  479.01,1324.42 483.068,1322.12 487.126,1319.83 491.184,1317.53 495.242,1315.23 499.3,1312.93 503.359,1310.64 507.417,1308.34 511.475,1306.04 515.533,1303.74 
  519.591,1301.45 523.649,1299.15 527.707,1296.85 531.765,1294.56 535.823,1292.26 539.881,1289.96 543.939,1287.66 547.997,1285.37 552.056,1283.07 556.114,1280.77 
  560.172,1278.47 564.23,1276.18 568.288,1273.88 572.346,1271.58 576.404,1269.29 580.462,1266.99 584.52,1264.69 588.578,1262.39 592.636,1260.1 596.695,1257.8 
  600.753,1255.5 604.811,1253.2 608.869,1250.91 612.927,1248.61 616.985,1246.31 621.043,1244.01 625.101,1241.72 629.159,1239.42 633.217,1237.12 637.275,1234.83 
  641.333,1232.53 645.392,1230.23 649.45,1227.93 653.508,1225.64 657.566,1223.34 661.624,1221.04 665.682,1218.74 669.74,1216.45 673.798,1214.15 677.856,1211.85 
  681.914,1209.55 685.972,1207.26 690.031,1204.96 694.089,1202.66 698.147,1200.37 702.205,1198.07 706.263,1195.77 710.321,1193.47 714.379,1191.18 718.437,1188.88 
  722.495,1186.58 726.553,1184.28 730.611,1181.99 734.669,1179.69 738.728,1177.39 742.786,1175.09 746.844,1172.8 750.902,1170.5 754.96,1168.2 759.018,1165.91 
  763.076,1163.61 767.134,1161.31 771.192,1159.01 775.25,1156.72 779.308,1154.42 783.367,1152.12 787.425,1149.82 791.483,1147.53 795.541,1145.23 799.599,1142.93 
  803.657,1140.63 807.715,1138.34 811.773,1136.04 815.831,1133.74 819.889,1131.45 823.947,1129.15 828.006,1126.85 832.064,1124.55 836.122,1122.26 840.18,1119.96 
  844.238,1117.66 848.296,1115.36 852.354,1113.07 856.412,1110.77 860.47,1108.47 864.528,1106.17 868.586,1103.88 872.644,1101.58 876.703,1099.28 880.761,1096.99 
  884.819,1094.69 888.877,1092.39 892.935,1090.09 896.993,1087.8 901.051,1085.5 905.109,1083.2 909.167,1080.9 913.225,1078.61 917.283,1076.31 921.342,1074.01 
  925.4,1071.71 929.458,1069.42 933.516,1067.12 937.574,1064.82 941.632,1062.53 945.69,1060.23 949.748,1057.93 953.806,1055.63 957.864,1053.34 961.922,1051.04 
  965.98,1048.74 970.039,1046.44 974.097,1044.15 978.155,1041.85 982.213,1039.55 986.271,1037.25 990.329,1034.96 994.387,1032.66 998.445,1030.36 1002.5,1028.07 
  1006.56,1025.77 1010.62,1023.47 1014.68,1021.17 1018.74,1018.88 1022.79,1016.58 1026.85,1014.28 1030.91,1011.98 1034.97,1009.69 1039.03,1007.39 1043.08,1005.09 
  1047.14,1002.79 1051.2,1000.5 1055.26,998.2 1059.32,995.903 1063.37,993.606 1067.43,991.308 1071.49,989.011 1075.55,986.714 1079.61,984.416 1083.66,982.119 
  1087.72,979.822 1091.78,977.524 1095.84,975.227 1099.9,972.93 1103.96,970.632 1108.01,968.335 1112.07,966.038 1116.13,963.74 1120.19,961.443 1124.25,959.146 
  1128.3,956.848 1132.36,954.551 1136.42,952.254 1140.48,949.956 1144.54,947.659 1148.59,945.362 1152.65,943.064 1156.71,940.767 1160.77,938.47 1164.83,936.172 
  1168.88,933.875 1172.94,931.578 1177,929.28 1181.06,926.983 1185.12,924.686 1189.18,922.388 1193.23,920.091 1197.29,917.794 1201.35,915.496 1205.41,913.199 
  1209.47,910.902 1213.52,908.604 1217.58,906.307 1221.64,904.01 1225.7,901.712 1229.76,899.415 1233.81,897.118 1237.87,894.82 1241.93,892.523 1245.99,890.226 
  1250.05,887.929 1254.1,885.631 1258.16,883.334 1262.22,881.037 1266.28,878.739 1270.34,876.442 1274.4,874.145 1278.45,871.847 1282.51,869.55 1286.57,867.253 
  1290.63,864.955 1294.69,862.658 1298.74,860.361 1302.8,858.063 1306.86,855.766 1310.92,853.469 1314.98,851.171 1319.03,848.874 1323.09,846.577 1327.15,844.279 
  1331.21,841.982 1335.27,839.685 1339.32,837.387 1343.38,835.09 1347.44,832.793 1351.5,830.495 1355.56,828.198 1359.61,825.901 1363.67,823.603 1367.73,821.306 
  1371.79,819.009 1375.85,816.711 1379.91,814.414 1383.96,812.117 1388.02,809.819 1392.08,807.522 1396.14,805.225 1400.2,802.927 1404.25,800.63 1408.31,798.333 
  1412.37,796.035 1416.43,793.738 1420.49,791.441 1424.54,789.143 1428.6,786.846 1432.66,784.549 1436.72,782.251 1440.78,779.954 1444.83,777.657 1448.89,775.359 
  1452.95,773.062 1457.01,770.765 1461.07,768.467 1465.13,766.17 1469.18,763.873 1473.24,761.575 1477.3,759.278 1481.36,756.981 1485.42,754.683 1489.47,752.386 
  1493.53,750.089 1497.59,747.791 1501.65,745.494 1505.71,743.197 1509.76,740.899 1513.82,738.602 1517.88,736.305 1521.94,734.007 1526,731.71 1530.05,729.413 
  1534.11,727.116 1538.17,724.818 1542.23,722.521 1546.29,720.224 1550.35,717.926 1554.4,715.629 1558.46,713.332 1562.52,711.034 1566.58,708.737 1570.64,706.44 
  1574.69,704.142 1578.75,701.845 1582.81,699.548 1586.87,697.25 1590.93,694.953 1594.98,692.656 1599.04,690.358 1603.1,688.061 1607.16,685.764 1611.22,683.466 
  1615.27,681.169 1619.33,678.872 1623.39,676.574 1627.45,674.277 1631.51,671.98 1635.56,669.682 1639.62,667.385 1643.68,665.088 1647.74,662.79 1651.8,660.493 
  1655.86,658.196 1659.91,655.898 1663.97,653.601 1668.03,651.304 1672.09,649.006 1676.15,646.709 1680.2,644.412 1684.26,642.114 1688.32,639.817 1692.38,637.52 
  1696.44,635.222 1700.49,632.925 1704.55,630.628 1708.61,628.33 1712.67,626.033 1716.73,623.736 1720.78,621.438 1724.84,619.141 1728.9,616.844 1732.96,614.546 
  1737.02,612.249 1741.08,609.952 1745.13,607.654 1749.19,605.357 1753.25,603.06 1757.31,600.762 1761.37,598.465 1765.42,596.168 1769.48,593.87 1773.54,591.573 
  1777.6,589.276 1781.66,586.978 1785.71,584.681 1789.77,582.384 1793.83,580.086 1797.89,577.789 1801.95,575.492 1806,573.194 1810.06,570.897 1814.12,568.6 
  1818.18,566.303 1822.24,564.005 1826.29,561.708 1830.35,559.411 1834.41,557.113 1838.47,554.816 1842.53,552.519 1846.59,550.221 1850.64,547.924 1854.7,545.627 
  1858.76,543.329 1862.82,541.032 1866.88,538.735 1870.93,536.437 1874.99,534.14 1879.05,531.843 1883.11,529.545 1887.17,527.248 1891.22,524.951 1895.28,522.653 
  1899.34,520.356 1903.4,518.059 1907.46,515.761 1911.51,513.464 1915.57,511.167 1919.63,508.869 1923.69,506.572 1927.75,504.275 1931.81,501.977 1935.86,499.68 
  1939.92,497.383 1943.98,495.085 1948.04,492.788 1952.1,490.491 1956.15,488.193 1960.21,485.896 1964.27,483.599 1968.33,481.301 1972.39,479.004 1976.44,476.707 
  1980.5,474.409 1984.56,472.112 1988.62,469.815 1992.68,467.517 1996.73,465.22 2000.79,462.923 2004.85,460.625 2008.91,458.328 2012.97,456.031 2017.03,453.733 
  2021.08,451.436 2025.14,449.139 2029.2,446.841 2033.26,444.544 2037.32,442.247 2041.37,439.949 2045.43,437.652 2049.49,435.355 2053.55,433.057 2057.61,430.76 
  2061.66,428.463 2065.72,426.165 2069.78,423.868 2073.84,421.571 2077.9,419.273 2081.95,416.976 2086.01,414.679 2090.07,412.381 2094.13,410.084 2098.19,407.787 
  2102.24,405.49 2106.3,403.192 2110.36,400.895 2114.42,398.598 2118.48,396.3 2122.54,394.003 2126.59,391.706 2130.65,389.408 2134.71,387.111 2138.77,384.814 
  2142.83,382.516 2146.88,380.219 2150.94,377.922 2155,375.624 2159.06,373.327 2163.12,371.03 2167.17,368.732 2171.23,366.435 2175.29,364.138 2179.35,361.84 
  2183.41,359.543 2187.46,357.246 2191.52,354.948 2195.58,352.651 2199.64,350.354 2203.7,348.056 2207.76,345.759 2211.81,343.462 2215.87,341.164 2219.93,338.867 
  2223.99,336.57 2228.05,334.272 2232.1,331.975 2236.16,329.678 2240.22,327.38 2244.28,325.083 2248.34,322.786 2252.39,320.488 2256.45,318.191 2260.51,315.894 
  
  "/>
<polyline clip-path="url(#clip0203)" style="stroke:#e26f46; stroke-width:4; stroke-opacity:1; fill:none" points="
  235.525,1234.83 239.583,1232.53 243.641,1230.23 247.699,1227.93 251.757,1225.64 255.815,1223.34 259.873,1221.04 263.931,1218.74 267.989,1216.45 272.048,1214.15 
  276.106,1211.85 280.164,1209.55 284.222,1207.26 288.28,1204.96 292.338,1202.66 296.396,1200.37 300.454,1198.07 304.512,1195.77 308.57,1193.47 312.628,1191.18 
  316.687,1188.88 320.745,1186.58 324.803,1184.28 328.861,1181.99 332.919,1179.69 336.977,1177.39 341.035,1175.09 345.093,1172.8 349.151,1170.5 353.209,1168.2 
  357.267,1165.91 361.325,1163.61 365.384,1161.31 369.442,1159.01 373.5,1156.72 377.558,1154.42 381.616,1152.12 385.674,1149.82 389.732,1147.53 393.79,1145.23 
  397.848,1142.93 401.906,1140.63 405.964,1138.34 410.023,1136.04 414.081,1133.74 418.139,1131.45 422.197,1129.15 426.255,1126.85 430.313,1124.55 434.371,1122.26 
  438.429,1119.96 442.487,1117.66 446.545,1115.36 450.603,1113.07 454.661,1110.77 458.72,1108.47 462.778,1106.17 466.836,1103.88 470.894,1101.58 474.952,1099.28 
  479.01,1096.99 483.068,1094.69 487.126,1092.39 491.184,1090.09 495.242,1087.8 499.3,1085.5 503.359,1083.2 507.417,1080.9 511.475,1078.61 515.533,1076.31 
  519.591,1074.01 523.649,1071.71 527.707,1069.42 531.765,1067.12 535.823,1064.82 539.881,1062.53 543.939,1060.23 547.997,1057.93 552.056,1055.63 556.114,1053.34 
  560.172,1051.04 564.23,1048.74 568.288,1046.44 572.346,1044.15 576.404,1041.85 580.462,1039.55 584.52,1037.25 588.578,1034.96 592.636,1032.66 596.695,1030.36 
  600.753,1028.07 604.811,1025.77 608.869,1023.47 612.927,1021.17 616.985,1018.88 621.043,1016.58 625.101,1014.28 629.159,1011.98 633.217,1009.69 637.275,1007.39 
  641.333,1005.09 645.392,1002.79 649.45,1000.5 653.508,998.2 657.566,995.903 661.624,993.606 665.682,991.308 669.74,989.011 673.798,986.714 677.856,984.416 
  681.914,982.119 685.972,979.822 690.031,977.524 694.089,975.227 698.147,972.93 702.205,970.632 706.263,968.335 710.321,966.038 714.379,963.74 718.437,961.443 
  722.495,959.146 726.553,956.848 730.611,954.551 734.669,952.254 738.728,949.956 742.786,947.659 746.844,945.362 750.902,943.064 754.96,940.767 759.018,938.47 
  763.076,936.172 767.134,933.875 771.192,931.578 775.25,929.28 779.308,926.983 783.367,924.686 787.425,922.388 791.483,920.091 795.541,917.794 799.599,915.496 
  803.657,913.199 807.715,910.902 811.773,908.604 815.831,906.307 819.889,904.01 823.947,901.712 828.006,899.415 832.064,897.118 836.122,894.82 840.18,892.523 
  844.238,890.226 848.296,887.929 852.354,885.631 856.412,883.334 860.47,881.037 864.528,878.739 868.586,876.442 872.644,874.145 876.703,871.847 880.761,869.55 
  884.819,867.253 888.877,864.955 892.935,862.658 896.993,860.361 901.051,858.063 905.109,855.766 909.167,853.469 913.225,851.171 917.283,848.874 921.342,846.577 
  925.4,844.279 929.458,841.982 933.516,839.685 937.574,837.387 941.632,835.09 945.69,832.793 949.748,830.495 953.806,828.198 957.864,825.901 961.922,823.603 
  965.98,821.306 970.039,819.009 974.097,816.711 978.155,814.414 982.213,812.117 986.271,809.819 990.329,807.522 994.387,805.225 998.445,802.927 1002.5,800.63 
  1006.56,798.333 1010.62,796.035 1014.68,793.738 1018.74,791.441 1022.79,789.143 1026.85,786.846 1030.91,784.549 1034.97,782.251 1039.03,779.954 1043.08,777.657 
  1047.14,775.359 1051.2,773.062 1055.26,770.765 1059.32,768.467 1063.37,766.17 1067.43,763.873 1071.49,761.575 1075.55,759.278 1079.61,756.981 1083.66,754.683 
  1087.72,752.386 1091.78,750.089 1095.84,747.791 1099.9,745.494 1103.96,743.197 1108.01,740.899 1112.07,738.602 1116.13,736.305 1120.19,734.007 1124.25,731.71 
  1128.3,729.413 1132.36,727.116 1136.42,724.818 1140.48,722.521 1144.54,720.224 1148.59,717.926 1152.65,715.629 1156.71,713.332 1160.77,711.034 1164.83,708.737 
  1168.88,706.44 1172.94,704.142 1177,701.845 1181.06,699.548 1185.12,697.25 1189.18,694.953 1193.23,692.656 1197.29,690.358 1201.35,688.061 1205.41,685.764 
  1209.47,683.466 1213.52,681.169 1217.58,678.872 1221.64,676.574 1225.7,674.277 1229.76,671.98 1233.81,669.682 1237.87,667.385 1241.93,665.088 1245.99,662.79 
  1250.05,660.493 1254.1,658.196 1258.16,655.898 1262.22,653.601 1266.28,651.304 1270.34,649.006 1274.4,646.709 1278.45,644.412 1282.51,642.114 1286.57,639.817 
  1290.63,637.52 1294.69,635.222 1298.74,632.925 1302.8,630.628 1306.86,628.33 1310.92,626.033 1314.98,623.736 1319.03,621.438 1323.09,619.141 1327.15,616.844 
  1331.21,614.546 1335.27,612.249 1339.32,609.952 1343.38,607.654 1347.44,605.357 1351.5,603.06 1355.56,600.762 1359.61,598.465 1363.67,596.168 1367.73,593.87 
  1371.79,591.573 1375.85,589.276 1379.91,586.978 1383.96,584.681 1388.02,582.384 1392.08,580.086 1396.14,577.789 1400.2,575.492 1404.25,573.194 1408.31,570.897 
  1412.37,568.6 1416.43,566.303 1420.49,564.005 1424.54,561.708 1428.6,559.411 1432.66,557.113 1436.72,554.816 1440.78,552.519 1444.83,550.221 1448.89,547.924 
  1452.95,545.627 1457.01,543.329 1461.07,541.032 1465.13,538.735 1469.18,536.437 1473.24,534.14 1477.3,531.843 1481.36,529.545 1485.42,527.248 1489.47,524.951 
  1493.53,522.653 1497.59,520.356 1501.65,518.059 1505.71,515.761 1509.76,513.464 1513.82,511.167 1517.88,508.869 1521.94,506.572 1526,504.275 1530.05,501.977 
  1534.11,499.68 1538.17,497.383 1542.23,495.085 1546.29,492.788 1550.35,490.491 1554.4,488.193 1558.46,485.896 1562.52,483.599 1566.58,481.301 1570.64,479.004 
  1574.69,476.707 1578.75,474.409 1582.81,472.112 1586.87,469.815 1590.93,467.517 1594.98,465.22 1599.04,462.923 1603.1,460.625 1607.16,458.328 1611.22,456.031 
  1615.27,453.733 1619.33,451.436 1623.39,449.139 1627.45,446.841 1631.51,444.544 1635.56,442.247 1639.62,439.949 1643.68,437.652 1647.74,435.355 1651.8,433.057 
  1655.86,430.76 1659.91,428.463 1663.97,426.165 1668.03,423.868 1672.09,421.571 1676.15,419.273 1680.2,416.976 1684.26,414.679 1688.32,412.381 1692.38,410.084 
  1696.44,407.787 1700.49,405.49 1704.55,403.192 1708.61,400.895 1712.67,398.598 1716.73,396.3 1720.78,394.003 1724.84,391.706 1728.9,389.408 1732.96,387.111 
  1737.02,384.814 1741.08,382.516 1745.13,380.219 1749.19,377.922 1753.25,375.624 1757.31,373.327 1761.37,371.03 1765.42,368.732 1769.48,366.435 1773.54,364.138 
  1777.6,361.84 1781.66,359.543 1785.71,357.246 1789.77,354.948 1793.83,352.651 1797.89,350.354 1801.95,348.056 1806,345.759 1810.06,343.462 1814.12,341.164 
  1818.18,338.867 1822.24,336.57 1826.29,334.272 1830.35,331.975 1834.41,329.678 1838.47,327.38 1842.53,325.083 1846.59,322.786 1850.64,320.488 1854.7,318.191 
  1858.76,315.894 1862.82,313.596 1866.88,311.299 1870.93,309.002 1874.99,306.704 1879.05,304.407 1883.11,302.11 1887.17,299.812 1891.22,297.515 1895.28,295.218 
  1899.34,292.92 1903.4,290.623 1907.46,288.326 1911.51,286.028 1915.57,283.731 1919.63,281.434 1923.69,279.136 1927.75,276.839 1931.81,274.542 1935.86,272.244 
  1939.92,269.947 1943.98,267.65 1948.04,265.352 1952.1,263.055 1956.15,260.758 1960.21,258.46 1964.27,256.163 1968.33,253.866 1972.39,251.568 1976.44,249.271 
  1980.5,246.974 1984.56,244.677 1988.62,242.379 1992.68,240.082 1996.73,237.785 2000.79,235.487 2004.85,233.19 2008.91,230.893 2012.97,228.595 2017.03,226.298 
  2021.08,224.001 2025.14,221.703 2029.2,219.406 2033.26,217.109 2037.32,214.811 2041.37,212.514 2045.43,210.217 2049.49,207.919 2053.55,205.622 2057.61,203.325 
  2061.66,201.027 2065.72,198.73 2069.78,196.433 2073.84,194.135 2077.9,191.838 2081.95,189.541 2086.01,187.243 2090.07,184.946 2094.13,182.649 2098.19,180.351 
  2102.24,178.054 2106.3,175.757 2110.36,173.459 2114.42,171.162 2118.48,168.865 2122.54,166.567 2126.59,164.27 2130.65,161.973 2134.71,159.675 2138.77,157.378 
  2142.83,155.081 2146.88,152.783 2150.94,150.486 2155,148.189 2159.06,145.891 2163.12,143.594 2167.17,141.297 2171.23,138.999 2175.29,136.702 2179.35,134.405 
  2183.41,132.107 2187.46,129.81 2191.52,127.513 2195.58,125.215 2199.64,122.918 2203.7,120.621 2207.76,118.323 2211.81,116.026 2215.87,113.729 2219.93,111.431 
  2223.99,109.134 2228.05,106.837 2232.1,104.539 2236.16,102.242 2240.22,99.9448 2244.28,97.6475 2248.34,95.3502 2252.39,93.0528 2256.45,90.7555 2260.51,88.4582 
  
  "/>
<polyline clip-path="url(#clip0203)" style="stroke:#3da44d; stroke-width:4; stroke-opacity:1; fill:none" points="
  235.525,1462.26 239.583,1455.8 243.641,1449.33 247.699,1442.87 251.757,1436.41 255.815,1429.95 259.873,1423.49 263.931,1417.03 267.989,1410.58 272.048,1404.13 
  276.106,1397.68 280.164,1391.23 284.222,1384.79 288.28,1378.35 292.338,1371.91 296.396,1365.48 300.454,1359.05 304.512,1352.62 308.57,1346.21 312.628,1339.79 
  316.687,1333.39 320.745,1326.98 324.803,1320.59 328.861,1314.2 332.919,1307.82 336.977,1301.44 341.035,1295.08 345.093,1288.71 349.151,1282.37 353.209,1276.02 
  357.267,1269.69 361.325,1263.35 365.384,1257.04 369.442,1250.73 373.5,1244.43 377.558,1238.14 381.616,1231.86 385.674,1225.59 389.732,1219.34 393.79,1213.08 
  397.848,1206.85 401.906,1200.62 405.964,1194.42 410.023,1188.21 414.081,1182.03 418.139,1175.85 422.197,1169.69 426.255,1163.54 430.313,1157.41 434.371,1151.28 
  438.429,1145.18 442.487,1139.08 446.545,1133.01 450.603,1126.93 454.661,1120.89 458.72,1114.85 462.778,1108.84 466.836,1102.83 470.894,1096.85 474.952,1090.87 
  479.01,1084.93 483.068,1078.98 487.126,1073.07 491.184,1067.16 495.242,1061.29 499.3,1055.41 503.359,1049.57 507.417,1043.73 511.475,1037.93 515.533,1032.13 
  519.591,1026.37 523.649,1020.6 527.707,1014.88 531.765,1009.15 535.823,1003.47 539.881,997.786 543.939,992.143 547.997,986.501 552.056,980.9 556.114,975.3 
  560.172,969.742 564.23,964.184 568.288,958.671 572.346,953.157 576.404,947.688 580.462,942.22 584.52,936.797 588.578,931.374 592.636,925.997 596.695,920.621 
  600.753,915.292 604.811,909.963 608.869,904.683 612.927,899.402 616.985,894.171 621.043,888.939 625.101,883.758 629.159,878.576 633.217,873.446 637.275,868.315 
  641.333,868.315 645.392,868.315 649.45,868.315 653.508,868.315 657.566,868.315 661.624,868.315 665.682,868.315 669.74,868.315 673.798,868.315 677.856,868.315 
  681.914,868.315 685.972,868.315 690.031,868.315 694.089,868.315 698.147,868.315 702.205,868.315 706.263,868.315 710.321,868.315 714.379,868.315 718.437,868.315 
  722.495,868.315 726.553,868.315 730.611,868.315 734.669,868.315 738.728,868.315 742.786,868.315 746.844,868.315 750.902,868.315 754.96,868.315 759.018,868.315 
  763.076,868.315 767.134,868.315 771.192,868.315 775.25,868.315 779.308,868.315 783.367,868.315 787.425,868.315 791.483,868.315 795.541,868.315 799.599,868.315 
  803.657,868.315 807.715,868.315 811.773,868.315 815.831,868.315 819.889,868.315 823.947,868.315 828.006,868.315 832.064,868.315 836.122,868.315 840.18,868.315 
  844.238,868.315 848.296,868.315 852.354,868.315 856.412,868.315 860.47,868.315 864.528,868.315 868.586,868.315 872.644,868.315 876.703,868.315 880.761,868.315 
  884.819,868.315 888.877,868.315 892.935,868.315 896.993,868.315 901.051,868.315 905.109,868.315 909.167,868.315 913.225,868.315 917.283,868.315 921.342,868.315 
  925.4,868.315 929.458,868.315 933.516,868.315 937.574,868.315 941.632,868.315 945.69,868.315 949.748,868.315 953.806,868.315 957.864,868.315 961.922,868.315 
  965.98,868.315 970.039,868.315 974.097,868.315 978.155,868.315 982.213,868.315 986.271,868.315 990.329,868.315 994.387,868.315 998.445,868.315 1002.5,868.315 
  1006.56,868.315 1010.62,868.315 1014.68,868.315 1018.74,868.315 1022.79,868.315 1026.85,868.315 1030.91,868.315 1034.97,868.315 1039.03,868.315 1043.08,868.315 
  1047.14,868.315 1051.2,868.315 1055.26,868.315 1059.32,868.315 1063.37,868.315 1067.43,868.315 1071.49,868.315 1075.55,868.315 1079.61,868.315 1083.66,868.315 
  1087.72,868.315 1091.78,868.315 1095.84,868.315 1099.9,868.315 1103.96,868.315 1108.01,868.315 1112.07,868.315 1116.13,868.315 1120.19,868.315 1124.25,868.315 
  1128.3,868.315 1132.36,868.315 1136.42,868.315 1140.48,868.315 1144.54,868.315 1148.59,868.315 1152.65,868.315 1156.71,868.315 1160.77,868.315 1164.83,868.315 
  1168.88,868.315 1172.94,868.315 1177,868.315 1181.06,868.315 1185.12,868.315 1189.18,868.315 1193.23,868.315 1197.29,868.315 1201.35,868.315 1205.41,868.315 
  1209.47,868.315 1213.52,868.315 1217.58,868.315 1221.64,868.315 1225.7,868.315 1229.76,868.315 1233.81,868.315 1237.87,868.315 1241.93,868.315 1245.99,868.315 
  1250.05,868.315 1254.1,868.315 1258.16,868.315 1262.22,868.315 1266.28,868.315 1270.34,868.315 1274.4,868.315 1278.45,868.315 1282.51,868.315 1286.57,868.315 
  1290.63,868.315 1294.69,868.315 1298.74,868.315 1302.8,868.315 1306.86,868.315 1310.92,868.315 1314.98,868.315 1319.03,868.315 1323.09,868.315 1327.15,868.315 
  1331.21,868.315 1335.27,868.315 1339.32,868.315 1343.38,868.315 1347.44,868.315 1351.5,868.315 1355.56,868.315 1359.61,868.315 1363.67,868.315 1367.73,868.315 
  1371.79,868.315 1375.85,868.315 1379.91,868.315 1383.96,868.315 1388.02,868.315 1392.08,868.315 1396.14,868.315 1400.2,868.315 1404.25,868.315 1408.31,868.315 
  1412.37,868.315 1416.43,868.315 1420.49,868.315 1424.54,868.315 1428.6,868.315 1432.66,868.315 1436.72,868.315 1440.78,868.315 1444.83,868.315 1448.89,868.315 
  1452.95,868.315 1457.01,868.315 1461.07,868.315 1465.13,868.315 1469.18,868.315 1473.24,868.315 1477.3,868.315 1481.36,868.315 1485.42,868.315 1489.47,868.315 
  1493.53,868.315 1497.59,868.315 1501.65,868.315 1505.71,868.315 1509.76,868.315 1513.82,868.315 1517.88,868.315 1521.94,868.315 1526,868.315 1530.05,868.315 
  1534.11,868.315 1538.17,868.315 1542.23,868.315 1546.29,868.315 1550.35,868.315 1554.4,868.315 1558.46,868.315 1562.52,868.315 1566.58,868.315 1570.64,868.315 
  1574.69,868.315 1578.75,868.315 1582.81,868.315 1586.87,868.315 1590.93,868.315 1594.98,868.315 1599.04,868.315 1603.1,868.315 1607.16,868.315 1611.22,868.315 
  1615.27,868.315 1619.33,868.315 1623.39,868.315 1627.45,868.315 1631.51,868.315 1635.56,868.315 1639.62,868.315 1643.68,868.315 1647.74,868.315 1651.8,868.315 
  1655.86,868.315 1659.91,868.315 1663.97,868.315 1668.03,868.315 1672.09,868.315 1676.15,868.315 1680.2,868.315 1684.26,868.315 1688.32,868.315 1692.38,868.315 
  1696.44,868.315 1700.49,868.315 1704.55,868.315 1708.61,868.315 1712.67,868.315 1716.73,868.315 1720.78,868.315 1724.84,868.315 1728.9,868.315 1732.96,868.315 
  1737.02,868.315 1741.08,868.315 1745.13,868.315 1749.19,868.315 1753.25,868.315 1757.31,868.315 1761.37,868.315 1765.42,868.315 1769.48,868.315 1773.54,868.315 
  1777.6,868.315 1781.66,868.315 1785.71,868.315 1789.77,868.315 1793.83,868.315 1797.89,868.315 1801.95,868.315 1806,868.315 1810.06,868.315 1814.12,868.315 
  1818.18,868.315 1822.24,868.315 1826.29,868.315 1830.35,868.315 1834.41,868.315 1838.47,868.315 1842.53,868.315 1846.59,868.315 1850.64,868.315 1854.7,868.315 
  1858.76,868.315 1862.82,868.315 1866.88,868.263 1870.93,868.211 1874.99,868.107 1879.05,868.003 1883.11,867.846 1887.17,867.689 1891.22,867.479 1895.28,867.269 
  1899.34,867.004 1903.4,866.74 1907.46,866.422 1911.51,866.104 1915.57,865.731 1919.63,865.358 1923.69,864.93 1927.75,864.502 1931.81,864.018 1935.86,863.535 
  1939.92,862.995 1943.98,862.456 1948.04,861.86 1952.1,861.264 1956.15,860.612 1960.21,859.96 1964.27,859.25 1968.33,858.541 1972.39,857.774 1976.44,857.008 
  1980.5,856.183 1984.56,855.359 1988.62,854.477 1992.68,853.595 1996.73,852.654 2000.79,851.714 2004.85,850.715 2008.91,849.716 2012.97,848.658 2017.03,847.6 
  2021.08,846.484 2025.14,845.367 2029.2,844.191 2033.26,843.015 2037.32,841.78 2041.37,840.544 2045.43,839.249 2049.49,837.954 2053.55,836.599 2057.61,835.245 
  2061.66,833.83 2065.72,832.415 2069.78,830.94 2073.84,829.466 2077.9,827.931 2081.95,826.396 2086.01,824.8 2090.07,823.205 2094.13,821.549 2098.19,819.893 
  2102.24,818.177 2106.3,816.461 2110.36,814.684 2114.42,812.907 2118.48,811.07 2122.54,809.233 2126.59,807.335 2130.65,805.437 2134.71,803.478 2138.77,801.52 
  2142.83,799.501 2146.88,797.482 2150.94,795.402 2155,793.322 2159.06,791.182 2163.12,789.042 2167.17,786.842 2171.23,784.641 2175.29,782.38 2179.35,780.119 
  2183.41,777.798 2187.46,775.477 2191.52,773.095 2195.58,770.714 2199.64,768.273 2203.7,765.832 2207.76,763.33 2211.81,760.829 2215.87,758.268 2219.93,755.708 
  2223.99,753.087 2228.05,750.467 2232.1,747.787 2236.16,745.108 2240.22,742.369 2244.28,739.631 2248.34,736.833 2252.39,734.036 2256.45,731.18 2260.51,728.324 
  
  "/>
<polyline clip-path="url(#clip0203)" style="stroke:#c271d2; stroke-width:4; stroke-opacity:1; fill:none" points="
  235.525,822.395 239.583,819.539 243.641,816.683 247.699,813.886 251.757,811.088 255.815,808.35 259.873,805.611 263.931,802.931 267.989,800.252 272.048,797.632 
  276.106,795.011 280.164,792.45 284.222,789.89 288.28,787.388 292.338,784.887 296.396,782.446 300.454,780.005 304.512,777.623 308.57,775.242 312.628,772.921 
  316.687,770.6 320.745,768.339 324.803,766.078 328.861,763.877 332.919,761.677 336.977,759.537 341.035,757.396 345.093,755.317 349.151,753.237 353.209,751.218 
  357.267,749.199 361.325,747.24 365.384,745.282 369.442,743.384 373.5,741.486 377.558,739.649 381.616,737.811 385.674,736.035 389.732,734.258 393.79,732.542 
  397.848,730.825 401.906,729.17 405.964,727.514 410.023,725.919 414.081,724.323 418.139,722.788 422.197,721.253 426.255,719.778 430.313,718.304 434.371,716.889 
  438.429,715.474 442.487,714.119 446.545,712.765 450.603,711.47 454.661,710.175 458.72,708.939 462.778,707.704 466.836,706.528 470.894,705.352 474.952,704.235 
  479.01,703.118 483.068,702.061 487.126,701.003 491.184,700.004 495.242,699.005 499.3,698.065 503.359,697.124 507.417,696.242 511.475,695.36 515.533,694.535 
  519.591,693.711 523.649,692.944 527.707,692.178 531.765,691.468 535.823,690.759 539.881,690.107 543.939,689.454 547.997,688.859 552.056,688.263 556.114,687.724 
  560.172,687.184 564.23,686.701 568.288,686.217 572.346,685.789 576.404,685.361 580.462,684.988 584.52,684.615 588.578,684.297 592.636,683.978 596.695,683.714 
  600.753,683.45 604.811,683.24 608.869,683.03 612.927,682.873 616.985,682.716 621.043,682.612 625.101,682.507 629.159,682.456 633.217,682.404 637.275,682.404 
  641.333,682.404 645.392,682.404 649.45,682.404 653.508,682.404 657.566,682.404 661.624,682.404 665.682,682.404 669.74,682.404 673.798,682.404 677.856,682.404 
  681.914,682.404 685.972,682.404 690.031,682.404 694.089,682.404 698.147,682.404 702.205,682.404 706.263,682.404 710.321,682.404 714.379,682.404 718.437,682.404 
  722.495,682.404 726.553,682.404 730.611,682.404 734.669,682.404 738.728,682.404 742.786,682.404 746.844,682.404 750.902,682.404 754.96,682.404 759.018,682.404 
  763.076,682.404 767.134,682.404 771.192,682.404 775.25,682.404 779.308,682.404 783.367,682.404 787.425,682.404 791.483,682.404 795.541,682.404 799.599,682.404 
  803.657,682.404 807.715,682.404 811.773,682.404 815.831,682.404 819.889,682.404 823.947,682.404 828.006,682.404 832.064,682.404 836.122,682.404 840.18,682.404 
  844.238,682.404 848.296,682.404 852.354,682.404 856.412,682.404 860.47,682.404 864.528,682.404 868.586,682.404 872.644,682.404 876.703,682.404 880.761,682.404 
  884.819,682.404 888.877,682.404 892.935,682.404 896.993,682.404 901.051,682.404 905.109,682.404 909.167,682.404 913.225,682.404 917.283,682.404 921.342,682.404 
  925.4,682.404 929.458,682.404 933.516,682.404 937.574,682.404 941.632,682.404 945.69,682.404 949.748,682.404 953.806,682.404 957.864,682.404 961.922,682.404 
  965.98,682.404 970.039,682.404 974.097,682.404 978.155,682.404 982.213,682.404 986.271,682.404 990.329,682.404 994.387,682.404 998.445,682.404 1002.5,682.404 
  1006.56,682.404 1010.62,682.404 1014.68,682.404 1018.74,682.404 1022.79,682.404 1026.85,682.404 1030.91,682.404 1034.97,682.404 1039.03,682.404 1043.08,682.404 
  1047.14,682.404 1051.2,682.404 1055.26,682.404 1059.32,682.404 1063.37,682.404 1067.43,682.404 1071.49,682.404 1075.55,682.404 1079.61,682.404 1083.66,682.404 
  1087.72,682.404 1091.78,682.404 1095.84,682.404 1099.9,682.404 1103.96,682.404 1108.01,682.404 1112.07,682.404 1116.13,682.404 1120.19,682.404 1124.25,682.404 
  1128.3,682.404 1132.36,682.404 1136.42,682.404 1140.48,682.404 1144.54,682.404 1148.59,682.404 1152.65,682.404 1156.71,682.404 1160.77,682.404 1164.83,682.404 
  1168.88,682.404 1172.94,682.404 1177,682.404 1181.06,682.404 1185.12,682.404 1189.18,682.404 1193.23,682.404 1197.29,682.404 1201.35,682.404 1205.41,682.404 
  1209.47,682.404 1213.52,682.404 1217.58,682.404 1221.64,682.404 1225.7,682.404 1229.76,682.404 1233.81,682.404 1237.87,682.404 1241.93,682.404 1245.99,682.404 
  1250.05,682.404 1254.1,682.404 1258.16,682.404 1262.22,682.404 1266.28,682.404 1270.34,682.404 1274.4,682.404 1278.45,682.404 1282.51,682.404 1286.57,682.404 
  1290.63,682.404 1294.69,682.404 1298.74,682.404 1302.8,682.404 1306.86,682.404 1310.92,682.404 1314.98,682.404 1319.03,682.404 1323.09,682.404 1327.15,682.404 
  1331.21,682.404 1335.27,682.404 1339.32,682.404 1343.38,682.404 1347.44,682.404 1351.5,682.404 1355.56,682.404 1359.61,682.404 1363.67,682.404 1367.73,682.404 
  1371.79,682.404 1375.85,682.404 1379.91,682.404 1383.96,682.404 1388.02,682.404 1392.08,682.404 1396.14,682.404 1400.2,682.404 1404.25,682.404 1408.31,682.404 
  1412.37,682.404 1416.43,682.404 1420.49,682.404 1424.54,682.404 1428.6,682.404 1432.66,682.404 1436.72,682.404 1440.78,682.404 1444.83,682.404 1448.89,682.404 
  1452.95,682.404 1457.01,682.404 1461.07,682.404 1465.13,682.404 1469.18,682.404 1473.24,682.404 1477.3,682.404 1481.36,682.404 1485.42,682.404 1489.47,682.404 
  1493.53,682.404 1497.59,682.404 1501.65,682.404 1505.71,682.404 1509.76,682.404 1513.82,682.404 1517.88,682.404 1521.94,682.404 1526,682.404 1530.05,682.404 
  1534.11,682.404 1538.17,682.404 1542.23,682.404 1546.29,682.404 1550.35,682.404 1554.4,682.404 1558.46,682.404 1562.52,682.404 1566.58,682.404 1570.64,682.404 
  1574.69,682.404 1578.75,682.404 1582.81,682.404 1586.87,682.404 1590.93,682.404 1594.98,682.404 1599.04,682.404 1603.1,682.404 1607.16,682.404 1611.22,682.404 
  1615.27,682.404 1619.33,682.404 1623.39,682.404 1627.45,682.404 1631.51,682.404 1635.56,682.404 1639.62,682.404 1643.68,682.404 1647.74,682.404 1651.8,682.404 
  1655.86,682.404 1659.91,682.404 1663.97,682.404 1668.03,682.404 1672.09,682.404 1676.15,682.404 1680.2,682.404 1684.26,682.404 1688.32,682.404 1692.38,682.404 
  1696.44,682.404 1700.49,682.404 1704.55,682.404 1708.61,682.404 1712.67,682.404 1716.73,682.404 1720.78,682.404 1724.84,682.404 1728.9,682.404 1732.96,682.404 
  1737.02,682.404 1741.08,682.404 1745.13,682.404 1749.19,682.404 1753.25,682.404 1757.31,682.404 1761.37,682.404 1765.42,682.404 1769.48,682.404 1773.54,682.404 
  1777.6,682.404 1781.66,682.404 1785.71,682.404 1789.77,682.404 1793.83,682.404 1797.89,682.404 1801.95,682.404 1806,682.404 1810.06,682.404 1814.12,682.404 
  1818.18,682.404 1822.24,682.404 1826.29,682.404 1830.35,682.404 1834.41,682.404 1838.47,682.404 1842.53,682.404 1846.59,682.404 1850.64,682.404 1854.7,682.404 
  1858.76,682.404 1862.82,677.273 1866.88,672.142 1870.93,666.961 1874.99,661.78 1879.05,656.548 1883.11,651.317 1887.17,646.036 1891.22,640.756 1895.28,635.427 
  1899.34,630.098 1903.4,624.721 1907.46,619.345 1911.51,613.922 1915.57,608.499 1919.63,603.03 1923.69,597.562 1927.75,592.048 1931.81,586.534 1935.86,580.977 
  1939.92,575.419 1943.98,569.819 1948.04,564.218 1952.1,558.575 1956.15,552.933 1960.21,547.249 1964.27,541.565 1968.33,535.841 1972.39,530.117 1976.44,524.353 
  1980.5,518.59 1984.56,512.788 1988.62,506.986 1992.68,501.147 1996.73,495.308 2000.79,489.433 2004.85,483.558 2008.91,477.647 2012.97,471.736 2017.03,465.791 
  2021.08,459.846 2025.14,453.868 2029.2,447.89 2033.26,441.879 2037.32,435.869 2041.37,429.827 2045.43,423.785 2049.49,417.714 2053.55,411.642 2057.61,405.541 
  2061.66,399.44 2065.72,393.311 2069.78,387.182 2073.84,381.026 2077.9,374.87 2081.95,368.689 2086.01,362.507 2090.07,356.301 2094.13,350.094 2098.19,343.864 
  2102.24,337.634 2106.3,331.381 2110.36,325.129 2114.42,318.855 2118.48,312.581 2122.54,306.286 2126.59,299.992 2130.65,293.679 2134.71,287.365 2138.77,281.034 
  2142.83,274.702 2146.88,268.354 2150.94,262.005 2155,255.641 2159.06,249.277 2163.12,242.898 2167.17,236.519 2171.23,230.127 2175.29,223.735 2179.35,217.33 
  2183.41,210.925 2187.46,204.51 2191.52,198.094 2195.58,191.668 2199.64,185.243 2203.7,178.808 2207.76,172.374 2211.81,165.932 2215.87,159.49 2219.93,153.041 
  2223.99,146.592 2228.05,140.139 2232.1,133.685 2236.16,127.227 2240.22,120.769 2244.28,114.308 2248.34,107.847 2252.39,101.384 2256.45,94.9215 2260.51,88.4582 
  
  "/>
<polyline clip-path="url(#clip0203)" style="stroke:#ac8d18; stroke-width:4; stroke-opacity:1; fill:none" points="
  235.525,1462.26 239.583,1459.72 243.641,1457.19 247.699,1454.65 251.757,1452.11 255.815,1449.58 259.873,1447.04 263.931,1444.5 267.989,1441.96 272.048,1439.42 
  276.106,1436.88 280.164,1434.34 284.222,1431.81 288.28,1429.27 292.338,1426.73 296.396,1424.19 300.454,1421.65 304.512,1419.11 308.57,1416.57 312.628,1414.03 
  316.687,1411.49 320.745,1408.96 324.803,1406.42 328.861,1403.88 332.919,1401.34 336.977,1398.8 341.035,1396.27 345.093,1393.73 349.151,1391.2 353.209,1388.66 
  357.267,1386.13 361.325,1383.59 365.384,1381.06 369.442,1378.52 373.5,1375.99 377.558,1373.46 381.616,1370.93 385.674,1368.4 389.732,1365.87 393.79,1363.34 
  397.848,1360.81 401.906,1358.28 405.964,1355.75 410.023,1353.23 414.081,1350.7 418.139,1348.18 422.197,1345.66 426.255,1343.13 430.313,1340.61 434.371,1338.09 
  438.429,1335.57 442.487,1333.05 446.545,1330.54 450.603,1328.02 454.661,1325.51 458.72,1322.99 462.778,1320.48 466.836,1317.97 470.894,1315.46 474.952,1312.95 
  479.01,1310.44 483.068,1307.94 487.126,1305.43 491.184,1302.93 495.242,1300.43 499.3,1297.93 503.359,1295.43 507.417,1292.93 511.475,1290.44 515.533,1287.94 
  519.591,1285.45 523.649,1282.96 527.707,1280.47 531.765,1277.98 535.823,1275.5 539.881,1273.01 543.939,1270.53 547.997,1268.05 552.056,1265.57 556.114,1263.09 
  560.172,1260.61 564.23,1258.14 568.288,1255.67 572.346,1253.19 576.404,1250.73 580.462,1248.26 584.52,1245.79 588.578,1243.33 592.636,1240.87 596.695,1238.41 
  600.753,1235.95 604.811,1233.5 608.869,1231.04 612.927,1228.59 616.985,1226.14 621.043,1223.69 625.101,1221.25 629.159,1218.8 633.217,1216.36 637.275,1213.92 
  641.333,1211.49 645.392,1209.05 649.45,1206.62 653.508,1204.19 657.566,1201.76 661.624,1199.33 665.682,1196.91 669.74,1194.49 673.798,1192.07 677.856,1189.65 
  681.914,1187.24 685.972,1184.82 690.031,1182.41 694.089,1180 698.147,1177.6 702.205,1175.19 706.263,1172.79 710.321,1170.39 714.379,1168 718.437,1165.6 
  722.495,1163.21 726.553,1160.82 730.611,1158.43 734.669,1156.04 738.728,1153.66 742.786,1151.28 746.844,1148.9 750.902,1146.53 754.96,1144.16 759.018,1141.78 
  763.076,1139.42 767.134,1137.05 771.192,1134.69 775.25,1132.33 779.308,1129.97 783.367,1127.61 787.425,1125.26 791.483,1122.91 795.541,1120.56 799.599,1118.21 
  803.657,1115.87 807.715,1113.53 811.773,1111.19 815.831,1108.85 819.889,1106.52 823.947,1104.19 828.006,1101.86 832.064,1099.53 836.122,1097.21 840.18,1094.89 
  844.238,1092.57 848.296,1090.25 852.354,1087.94 856.412,1085.63 860.47,1083.32 864.528,1081.01 868.586,1078.71 872.644,1076.41 876.703,1074.11 880.761,1071.82 
  884.819,1069.52 888.877,1067.23 892.935,1064.94 896.993,1062.66 901.051,1060.38 905.109,1058.09 909.167,1055.82 913.225,1053.54 917.283,1051.27 921.342,1049 
  925.4,1046.73 929.458,1044.46 933.516,1042.2 937.574,1039.94 941.632,1037.68 945.69,1035.43 949.748,1033.17 953.806,1030.92 957.864,1028.67 961.922,1026.43 
  965.98,1024.18 970.039,1021.94 974.097,1019.71 978.155,1017.47 982.213,1015.24 986.271,1013 990.329,1010.78 994.387,1008.55 998.445,1006.33 1002.5,1004.1 
  1006.56,1001.88 1010.62,999.667 1014.68,997.453 1018.74,995.24 1022.79,993.031 1026.85,990.823 1030.91,988.619 1034.97,986.415 1039.03,984.215 1043.08,982.016 
  1047.14,979.821 1051.2,977.627 1055.26,975.436 1059.32,973.246 1063.37,971.06 1067.43,968.875 1071.49,966.693 1075.55,964.512 1079.61,962.335 1083.66,960.158 
  1087.72,957.985 1091.78,955.813 1095.84,953.644 1099.9,951.476 1103.96,949.312 1108.01,947.148 1112.07,944.988 1116.13,942.828 1120.19,940.672 1124.25,938.516 
  1128.3,936.364 1132.36,934.212 1136.42,932.065 1140.48,929.917 1144.54,927.773 1148.59,925.629 1152.65,923.489 1156.71,921.349 1160.77,919.213 1164.83,917.077 
  1168.88,914.944 1172.94,912.812 1177,910.683 1181.06,908.554 1185.12,906.429 1189.18,904.304 1193.23,902.182 1197.29,900.06 1201.35,897.942 1205.41,895.824 
  1209.47,893.709 1213.52,891.594 1217.58,889.483 1221.64,887.371 1225.7,885.263 1229.76,883.155 1233.81,881.049 1237.87,878.944 1241.93,876.842 1245.99,874.74 
  1250.05,872.641 1254.1,870.542 1258.16,868.446 1262.22,866.35 1266.28,864.256 1270.34,862.163 1274.4,860.072 1278.45,857.982 1282.51,855.894 1286.57,853.806 
  1290.63,851.721 1294.69,849.635 1298.74,847.552 1302.8,845.47 1306.86,843.389 1310.92,841.309 1314.98,839.231 1319.03,837.153 1323.09,835.077 1327.15,833.001 
  1331.21,830.927 1335.27,828.853 1339.32,826.782 1343.38,824.71 1347.44,822.64 1351.5,820.571 1355.56,818.503 1359.61,816.435 1363.67,814.369 1367.73,812.303 
  1371.79,810.239 1375.85,808.174 1379.91,806.112 1383.96,804.049 1388.02,801.988 1392.08,799.926 1396.14,797.866 1400.2,795.807 1404.25,793.748 1408.31,791.69 
  1412.37,789.632 1416.43,787.575 1420.49,785.519 1424.54,783.462 1428.6,781.407 1432.66,779.352 1436.72,777.298 1440.78,775.244 1444.83,773.19 1448.89,771.137 
  1452.95,769.084 1457.01,767.032 1461.07,764.979 1465.13,762.927 1469.18,760.876 1473.24,758.824 1477.3,756.773 1481.36,754.722 1485.42,752.672 1489.47,750.621 
  1493.53,748.57 1497.59,746.52 1501.65,744.47 1505.71,742.419 1509.76,740.369 1513.82,738.319 1517.88,736.269 1521.94,734.218 1526,732.168 1530.05,730.117 
  1534.11,728.067 1538.17,726.016 1542.23,723.965 1546.29,721.914 1550.35,719.862 1554.4,717.811 1558.46,715.759 1562.52,713.707 1566.58,711.654 1570.64,709.602 
  1574.69,707.548 1578.75,705.495 1582.81,703.441 1586.87,701.387 1590.93,699.332 1594.98,697.276 1599.04,695.22 1603.1,693.164 1607.16,691.107 1611.22,689.05 
  1615.27,686.991 1619.33,684.933 1623.39,682.873 1627.45,680.813 1631.51,678.752 1635.56,676.691 1639.62,674.628 1643.68,672.566 1647.74,670.502 1651.8,668.437 
  1655.86,666.372 1659.91,664.306 1663.97,662.238 1668.03,660.17 1672.09,658.101 1676.15,656.031 1680.2,653.96 1684.26,651.889 1688.32,649.815 1692.38,647.742 
  1696.44,645.666 1700.49,643.591 1704.55,641.513 1708.61,639.435 1712.67,637.355 1716.73,635.275 1720.78,633.192 1724.84,631.11 1728.9,629.025 1732.96,626.94 
  1737.02,624.853 1741.08,622.765 1745.13,620.675 1749.19,618.585 1753.25,616.492 1757.31,614.4 1761.37,612.304 1765.42,610.208 1769.48,608.11 1773.54,606.012 
  1777.6,603.91 1781.66,601.809 1785.71,599.704 1789.77,597.6 1793.83,595.492 1797.89,593.385 1801.95,591.274 1806,589.164 1810.06,587.05 1814.12,584.936 
  1818.18,582.819 1822.24,580.701 1826.29,578.581 1830.35,576.46 1834.41,574.336 1838.47,572.212 1842.53,570.084 1846.59,567.957 1850.64,565.826 1854.7,563.695 
  1858.76,561.56 1862.82,559.425 1866.88,557.286 1870.93,555.148 1874.99,553.006 1879.05,550.863 1883.11,548.717 1887.17,546.571 1891.22,544.421 1895.28,542.271 
  1899.34,540.117 1903.4,537.963 1907.46,535.805 1911.51,533.647 1915.57,531.485 1919.63,529.323 1923.69,527.157 1927.75,524.991 1931.81,522.821 1935.86,520.65 
  1939.92,518.476 1943.98,516.301 1948.04,514.123 1952.1,511.944 1956.15,509.761 1960.21,507.578 1964.27,505.39 1968.33,503.203 1972.39,501.011 1976.44,498.82 
  1980.5,496.623 1984.56,494.427 1988.62,492.227 1992.68,490.026 1996.73,487.821 2000.79,485.616 2004.85,483.406 2008.91,481.196 2012.97,478.982 2017.03,476.768 
  2021.08,474.549 2025.14,472.33 2029.2,470.107 2033.26,467.884 2037.32,465.656 2041.37,463.427 2045.43,461.195 2049.49,458.962 2053.55,456.725 2057.61,454.487 
  2061.66,452.245 2065.72,450.003 2069.78,447.756 2073.84,445.509 2077.9,443.258 2081.95,441.006 2086.01,438.75 2090.07,436.494 2094.13,434.233 2098.19,431.971 
  2102.24,429.706 2106.3,427.44 2110.36,425.169 2114.42,422.898 2118.48,420.623 2122.54,418.348 2126.59,416.067 2130.65,413.787 2134.71,411.502 2138.77,409.217 
  2142.83,406.927 2146.88,404.638 2150.94,402.343 2155,400.048 2159.06,397.749 2163.12,395.45 2167.17,393.145 2171.23,390.841 2175.29,388.532 2179.35,386.224 
  2183.41,383.91 2187.46,381.596 2191.52,379.278 2195.58,376.959 2199.64,374.636 2203.7,372.313 2207.76,369.985 2211.81,367.657 2215.87,365.325 2219.93,362.992 
  2223.99,360.655 2228.05,358.318 2232.1,355.976 2236.16,353.634 2240.22,351.288 2244.28,348.942 2248.34,346.59 2252.39,344.239 2256.45,341.884 2260.51,339.528 
  
  "/>
<polyline clip-path="url(#clip0203)" style="stroke:#00a9ad; stroke-width:4; stroke-opacity:1; fill:none" points="
  235.525,1211.19 239.583,1208.83 243.641,1206.48 247.699,1204.13 251.757,1201.78 255.815,1199.43 259.873,1197.08 263.931,1194.74 267.989,1192.4 272.048,1190.06 
  276.106,1187.73 280.164,1185.39 284.222,1183.06 288.28,1180.73 292.338,1178.41 296.396,1176.08 300.454,1173.76 304.512,1171.44 308.57,1169.12 312.628,1166.81 
  316.687,1164.5 320.745,1162.19 324.803,1159.88 328.861,1157.57 332.919,1155.27 336.977,1152.97 341.035,1150.67 345.093,1148.38 349.151,1146.08 353.209,1143.79 
  357.267,1141.5 361.325,1139.22 365.384,1136.93 369.442,1134.65 373.5,1132.37 377.558,1130.1 381.616,1127.82 385.674,1125.55 389.732,1123.28 393.79,1121.01 
  397.848,1118.75 401.906,1116.49 405.964,1114.23 410.023,1111.97 414.081,1109.71 418.139,1107.46 422.197,1105.21 426.255,1102.96 430.313,1100.72 434.371,1098.47 
  438.429,1096.23 442.487,1093.99 446.545,1091.76 450.603,1089.52 454.661,1087.29 458.72,1085.06 462.778,1082.84 466.836,1080.61 470.894,1078.39 474.952,1076.17 
  479.01,1073.95 483.068,1071.74 487.126,1069.52 491.184,1067.31 495.242,1065.1 499.3,1062.9 503.359,1060.69 507.417,1058.49 511.475,1056.29 515.533,1054.1 
  519.591,1051.9 523.649,1049.71 527.707,1047.52 531.765,1045.33 535.823,1043.14 539.881,1040.96 543.939,1038.77 547.997,1036.6 552.056,1034.42 556.114,1032.24 
  560.172,1030.07 564.23,1027.9 568.288,1025.73 572.346,1023.56 576.404,1021.4 580.462,1019.23 584.52,1017.07 588.578,1014.91 592.636,1012.76 596.695,1010.6 
  600.753,1008.45 604.811,1006.3 608.869,1004.15 612.927,1002 616.985,999.855 621.043,997.713 625.101,995.571 629.159,993.432 633.217,991.294 637.275,989.159 
  641.333,987.024 645.392,984.893 649.45,982.762 653.508,980.634 657.566,978.507 661.624,976.383 665.682,974.259 669.74,972.138 673.798,970.017 677.856,967.9 
  681.914,965.783 685.972,963.669 690.031,961.555 694.089,959.445 698.147,957.334 702.205,955.226 706.263,953.119 710.321,951.014 714.379,948.91 718.437,946.809 
  722.495,944.707 726.553,942.609 730.611,940.51 734.669,938.415 738.728,936.319 742.786,934.227 746.844,932.134 750.902,930.044 754.96,927.954 759.018,925.866 
  763.076,923.779 767.134,921.694 771.192,919.609 775.25,917.526 779.308,915.444 783.367,913.364 787.425,911.284 791.483,909.206 795.541,907.128 799.599,905.053 
  803.657,902.977 807.715,900.904 811.773,898.83 815.831,896.759 819.889,894.687 823.947,892.618 828.006,890.548 832.064,888.481 836.122,886.413 840.18,884.347 
  844.238,882.281 848.296,880.217 852.354,878.153 856.412,876.09 860.47,874.028 864.528,871.967 868.586,869.905 872.644,867.846 876.703,865.786 880.761,863.728 
  884.819,861.669 888.877,859.612 892.935,857.555 896.993,855.499 901.051,853.442 905.109,851.387 909.167,849.332 913.225,847.278 917.283,845.224 921.342,843.17 
  925.4,841.117 929.458,839.064 933.516,837.012 937.574,834.96 941.632,832.908 945.69,830.856 949.748,828.805 953.806,826.754 957.864,824.703 961.922,822.652 
  965.98,820.601 970.039,818.551 974.097,816.501 978.155,814.45 982.213,812.4 986.271,810.35 990.329,808.299 994.387,806.249 998.445,804.199 1002.5,802.148 
  1006.56,800.098 1010.62,798.047 1014.68,795.996 1018.74,793.945 1022.79,791.894 1026.85,789.843 1030.91,787.791 1034.97,785.739 1039.03,783.687 1043.08,781.635 
  1047.14,779.582 1051.2,777.529 1055.26,775.475 1059.32,773.421 1063.37,771.367 1067.43,769.312 1071.49,767.256 1075.55,765.2 1079.61,763.144 1083.66,761.087 
  1087.72,759.029 1091.78,756.971 1095.84,754.912 1099.9,752.852 1103.96,750.793 1108.01,748.731 1112.07,746.67 1116.13,744.607 1120.19,742.545 1124.25,740.48 
  1128.3,738.416 1132.36,736.35 1136.42,734.284 1140.48,732.216 1144.54,730.148 1148.59,728.078 1152.65,726.009 1156.71,723.937 1160.77,721.865 1164.83,719.792 
  1168.88,717.718 1172.94,715.642 1177,713.566 1181.06,711.488 1185.12,709.41 1189.18,707.33 1193.23,705.249 1197.29,703.166 1201.35,701.084 1205.41,698.998 
  1209.47,696.913 1213.52,694.825 1217.58,692.737 1221.64,690.646 1225.7,688.556 1229.76,686.463 1233.81,684.369 1237.87,682.273 1241.93,680.177 1245.99,678.078 
  1250.05,675.979 1254.1,673.877 1258.16,671.775 1262.22,669.669 1266.28,667.564 1270.34,665.456 1274.4,663.348 1278.45,661.236 1282.51,659.125 1286.57,657.01 
  1290.63,654.895 1294.69,652.777 1298.74,650.658 1302.8,648.537 1306.86,646.415 1310.92,644.29 1314.98,642.165 1319.03,640.036 1323.09,637.907 1327.15,635.775 
  1331.21,633.642 1335.27,631.506 1339.32,629.37 1343.38,627.23 1347.44,625.09 1351.5,622.946 1355.56,620.802 1359.61,618.654 1363.67,616.506 1367.73,614.355 
  1371.79,612.203 1375.85,610.047 1379.91,607.891 1383.96,605.731 1388.02,603.571 1392.08,601.407 1396.14,599.243 1400.2,597.075 1404.25,594.906 1408.31,592.734 
  1412.37,590.561 1416.43,588.384 1420.49,586.207 1424.54,584.026 1428.6,581.844 1432.66,579.659 1436.72,577.473 1440.78,575.282 1444.83,573.092 1448.89,570.897 
  1452.95,568.703 1457.01,566.503 1461.07,564.304 1465.13,562.1 1469.18,559.896 1473.24,557.687 1477.3,555.479 1481.36,553.266 1485.42,551.052 1489.47,548.834 
  1493.53,546.616 1497.59,544.393 1501.65,542.171 1505.71,539.943 1509.76,537.715 1513.82,535.483 1517.88,533.251 1521.94,531.013 1526,528.776 1530.05,526.534 
  1534.11,524.292 1538.17,522.045 1542.23,519.798 1546.29,517.546 1550.35,515.294 1554.4,513.037 1558.46,510.78 1562.52,508.518 1566.58,506.256 1570.64,503.989 
  1574.69,501.722 1578.75,499.45 1582.81,497.179 1586.87,494.902 1590.93,492.625 1594.98,490.343 1599.04,488.061 1603.1,485.774 1607.16,483.487 1611.22,481.195 
  1615.27,478.903 1619.33,476.606 1623.39,474.309 1627.45,472.007 1631.51,469.705 1635.56,467.397 1639.62,465.09 1643.68,462.778 1647.74,460.466 1651.8,458.148 
  1655.86,455.831 1659.91,453.509 1663.97,451.187 1668.03,448.859 1672.09,446.532 1676.15,444.2 1680.2,441.867 1684.26,439.53 1688.32,437.192 1692.38,434.85 
  1696.44,432.508 1700.49,430.16 1704.55,427.813 1708.61,425.461 1712.67,423.108 1716.73,420.751 1720.78,418.394 1724.84,416.032 1728.9,413.669 1732.96,411.302 
  1737.02,408.935 1741.08,406.563 1745.13,404.191 1749.19,401.815 1753.25,399.438 1757.31,397.056 1761.37,394.675 1765.42,392.288 1769.48,389.902 1773.54,387.511 
  1777.6,385.12 1781.66,382.724 1785.71,380.328 1789.77,377.928 1793.83,375.527 1797.89,373.122 1801.95,370.717 1806,368.307 1810.06,365.897 1814.12,363.483 
  1818.18,361.069 1822.24,358.65 1826.29,356.232 1830.35,353.809 1834.41,351.385 1838.47,348.958 1842.53,346.53 1846.59,344.099 1850.64,341.667 1854.7,339.231 
  1858.76,336.795 1862.82,334.354 1866.88,331.914 1870.93,329.469 1874.99,327.025 1879.05,324.576 1883.11,322.128 1887.17,319.675 1891.22,317.223 1895.28,314.766 
  1899.34,312.31 1903.4,309.849 1907.46,307.389 1911.51,304.925 1915.57,302.46 1919.63,299.992 1923.69,297.525 1927.75,295.053 1931.81,292.581 1935.86,290.106 
  1939.92,287.631 1943.98,285.152 1948.04,282.673 1952.1,280.191 1956.15,277.709 1960.21,275.223 1964.27,272.738 1968.33,270.249 1972.39,267.76 1976.44,265.268 
  1980.5,262.776 1984.56,260.281 1988.62,257.786 1992.68,255.288 1996.73,252.79 2000.79,250.289 2004.85,247.788 2008.91,245.284 2012.97,242.78 2017.03,240.274 
  2021.08,237.767 2025.14,235.258 2029.2,232.749 2033.26,230.238 2037.32,227.726 2041.37,225.212 2045.43,222.698 2049.49,220.181 2053.55,217.665 2057.61,215.146 
  2061.66,212.628 2065.72,210.107 2069.78,207.586 2073.84,205.063 2077.9,202.541 2081.95,200.016 2086.01,197.491 2090.07,194.965 2094.13,192.438 2098.19,189.91 
  2102.24,187.382 2106.3,184.852 2110.36,182.323 2114.42,179.792 2118.48,177.26 2122.54,174.728 2126.59,172.195 2130.65,169.662 2134.71,167.128 2138.77,164.593 
  2142.83,162.059 2146.88,159.523 2150.94,156.987 2155,154.45 2159.06,151.914 2163.12,149.377 2167.17,146.839 2171.23,144.301 2175.29,141.763 2179.35,139.225 
  2183.41,136.686 2187.46,134.148 2191.52,131.609 2195.58,129.07 2199.64,126.531 2203.7,123.992 2207.76,121.453 2211.81,118.914 2215.87,116.375 2219.93,113.836 
  2223.99,111.297 2228.05,108.758 2232.1,106.22 2236.16,103.681 2240.22,101.143 2244.28,98.6056 2248.34,96.068 2252.39,93.5311 2256.45,90.9942 2260.51,88.4582 
  
  "/>
<polyline clip-path="url(#clip0203)" style="stroke:#ed5d92; stroke-width:4; stroke-opacity:1; fill:none" points="
  235.525,1462.26 239.583,1455.8 243.641,1449.33 247.699,1442.87 251.757,1436.41 255.815,1429.95 259.873,1423.49 263.931,1417.03 267.989,1410.58 272.048,1404.13 
  276.106,1397.68 280.164,1391.23 284.222,1384.79 288.28,1378.35 292.338,1371.91 296.396,1365.48 300.454,1359.05 304.512,1352.62 308.57,1346.21 312.628,1339.79 
  316.687,1333.39 320.745,1326.98 324.803,1320.59 328.861,1314.2 332.919,1307.82 336.977,1301.44 341.035,1295.08 345.093,1288.71 349.151,1282.37 353.209,1276.02 
  357.267,1269.69 361.325,1263.35 365.384,1257.04 369.442,1250.73 373.5,1244.43 377.558,1238.14 381.616,1231.86 385.674,1225.59 389.732,1219.34 393.79,1213.08 
  397.848,1206.85 401.906,1200.62 405.964,1194.42 410.023,1188.21 414.081,1182.03 418.139,1175.85 422.197,1169.69 426.255,1163.54 430.313,1157.41 434.371,1151.28 
  438.429,1145.18 442.487,1139.08 446.545,1133.01 450.603,1126.93 454.661,1120.89 458.72,1114.85 462.778,1108.84 466.836,1102.83 470.894,1096.85 474.952,1090.87 
  479.01,1084.93 483.068,1078.98 487.126,1073.07 491.184,1067.16 495.242,1061.29 499.3,1055.41 503.359,1049.57 507.417,1043.73 511.475,1037.93 515.533,1032.13 
  519.591,1026.37 523.649,1020.6 527.707,1014.88 531.765,1009.15 535.823,1003.47 539.881,997.786 543.939,992.143 547.997,986.501 552.056,980.9 556.114,975.3 
  560.172,969.742 564.23,964.184 568.288,958.671 572.346,953.157 576.404,947.688 580.462,942.22 584.52,936.797 588.578,931.374 592.636,925.997 596.695,920.621 
  600.753,915.292 604.811,909.963 608.869,904.683 612.927,899.402 616.985,894.171 621.043,888.939 625.101,883.758 629.159,878.576 633.217,873.446 637.275,868.315 
  641.333,868.315 645.392,868.315 649.45,868.315 653.508,868.315 657.566,868.315 661.624,868.315 665.682,868.315 669.74,868.315 673.798,868.315 677.856,868.315 
  681.914,868.315 685.972,868.315 690.031,868.315 694.089,868.315 698.147,868.315 702.205,868.315 706.263,868.315 710.321,868.315 714.379,868.315 718.437,868.315 
  722.495,868.315 726.553,868.315 730.611,868.315 734.669,868.315 738.728,868.315 742.786,868.315 746.844,868.315 750.902,868.315 754.96,868.315 759.018,868.315 
  763.076,868.315 767.134,868.315 771.192,868.315 775.25,868.315 779.308,868.315 783.367,868.315 787.425,868.315 791.483,868.315 795.541,868.315 799.599,868.315 
  803.657,868.315 807.715,868.315 811.773,868.315 815.831,868.315 819.889,868.315 823.947,868.315 828.006,868.315 832.064,868.315 836.122,868.315 840.18,868.315 
  844.238,868.315 848.296,868.315 852.354,868.315 856.412,868.315 860.47,868.315 864.528,868.315 868.586,868.315 872.644,868.315 876.703,868.315 880.761,868.315 
  884.819,868.315 888.877,868.315 892.935,868.315 896.993,868.315 901.051,868.315 905.109,868.315 909.167,868.315 913.225,868.315 917.283,868.315 921.342,868.315 
  925.4,868.315 929.458,868.315 933.516,868.315 937.574,868.315 941.632,868.315 945.69,868.315 949.748,868.315 953.806,868.315 957.864,868.315 961.922,868.315 
  965.98,868.315 970.039,868.315 974.097,868.315 978.155,868.315 982.213,868.315 986.271,868.315 990.329,868.315 994.387,868.315 998.445,868.315 1002.5,868.315 
  1006.56,868.315 1010.62,868.315 1014.68,868.315 1018.74,868.315 1022.79,868.315 1026.85,868.315 1030.91,868.315 1034.97,868.315 1039.03,868.315 1043.08,868.315 
  1047.14,868.315 1051.2,868.315 1055.26,868.315 1059.32,868.315 1063.37,868.315 1067.43,868.315 1071.49,868.315 1075.55,868.315 1079.61,868.315 1083.66,868.315 
  1087.72,868.315 1091.78,868.315 1095.84,868.315 1099.9,868.315 1103.96,868.315 1108.01,868.315 1112.07,868.315 1116.13,868.315 1120.19,868.315 1124.25,868.315 
  1128.3,868.315 1132.36,868.315 1136.42,868.315 1140.48,868.315 1144.54,868.315 1148.59,868.315 1152.65,868.315 1156.71,868.315 1160.77,868.315 1164.83,868.315 
  1168.88,868.315 1172.94,868.315 1177,868.315 1181.06,868.315 1185.12,868.315 1189.18,868.315 1193.23,868.315 1197.29,868.315 1201.35,868.315 1205.41,868.315 
  1209.47,868.315 1213.52,868.315 1217.58,868.315 1221.64,868.315 1225.7,868.315 1229.76,868.315 1233.81,868.315 1237.87,868.315 1241.93,868.315 1245.99,868.315 
  1250.05,868.315 1254.1,868.315 1258.16,868.315 1262.22,868.315 1266.28,868.315 1270.34,868.315 1274.4,868.315 1278.45,868.315 1282.51,868.315 1286.57,868.315 
  1290.63,868.315 1294.69,868.315 1298.74,868.315 1302.8,868.315 1306.86,868.315 1310.92,868.315 1314.98,868.315 1319.03,868.315 1323.09,868.315 1327.15,868.315 
  1331.21,868.315 1335.27,868.315 1339.32,868.315 1343.38,868.315 1347.44,868.315 1351.5,868.315 1355.56,868.315 1359.61,868.315 1363.67,868.315 1367.73,868.315 
  1371.79,868.315 1375.85,868.315 1379.91,868.315 1383.96,868.315 1388.02,868.315 1392.08,868.315 1396.14,868.315 1400.2,868.315 1404.25,868.315 1408.31,868.315 
  1412.37,868.315 1416.43,868.315 1420.49,868.315 1424.54,868.315 1428.6,868.315 1432.66,868.315 1436.72,868.315 1440.78,868.315 1444.83,868.315 1448.89,868.315 
  1452.95,868.315 1457.01,868.315 1461.07,868.315 1465.13,868.315 1469.18,868.315 1473.24,868.315 1477.3,868.315 1481.36,868.315 1485.42,868.315 1489.47,868.315 
  1493.53,868.315 1497.59,868.315 1501.65,868.315 1505.71,868.315 1509.76,868.315 1513.82,868.315 1517.88,868.315 1521.94,868.315 1526,868.315 1530.05,868.315 
  1534.11,868.315 1538.17,868.315 1542.23,868.315 1546.29,868.315 1550.35,868.315 1554.4,868.315 1558.46,868.315 1562.52,868.315 1566.58,868.315 1570.64,868.315 
  1574.69,868.315 1578.75,868.315 1582.81,868.315 1586.87,868.315 1590.93,868.315 1594.98,868.315 1599.04,868.315 1603.1,868.315 1607.16,868.315 1611.22,868.315 
  1615.27,868.315 1619.33,868.315 1623.39,868.315 1627.45,868.315 1631.51,868.315 1635.56,868.315 1639.62,868.315 1643.68,868.315 1647.74,868.315 1651.8,868.315 
  1655.86,868.315 1659.91,868.315 1663.97,868.315 1668.03,868.315 1672.09,868.315 1676.15,868.315 1680.2,868.315 1684.26,868.315 1688.32,868.315 1692.38,868.315 
  1696.44,868.315 1700.49,868.315 1704.55,868.315 1708.61,868.315 1712.67,868.315 1716.73,868.315 1720.78,868.315 1724.84,868.315 1728.9,868.315 1732.96,868.315 
  1737.02,868.315 1741.08,868.315 1745.13,868.315 1749.19,868.315 1753.25,868.315 1757.31,868.315 1761.37,868.315 1765.42,868.315 1769.48,868.315 1773.54,868.315 
  1777.6,868.315 1781.66,868.315 1785.71,868.315 1789.77,868.315 1793.83,868.315 1797.89,868.315 1801.95,868.315 1806,868.315 1810.06,868.315 1814.12,868.315 
  1818.18,868.315 1822.24,868.315 1826.29,868.315 1830.35,868.315 1834.41,868.315 1838.47,868.315 1842.53,868.315 1846.59,868.315 1850.64,868.315 1854.7,868.315 
  1858.76,868.315 1862.82,868.315 1866.88,868.263 1870.93,868.211 1874.99,868.107 1879.05,868.003 1883.11,867.846 1887.17,867.689 1891.22,867.479 1895.28,867.269 
  1899.34,867.004 1903.4,866.74 1907.46,866.422 1911.51,866.104 1915.57,865.731 1919.63,865.358 1923.69,864.93 1927.75,864.502 1931.81,864.018 1935.86,863.535 
  1939.92,862.995 1943.98,862.456 1948.04,861.86 1952.1,861.264 1956.15,860.612 1960.21,859.96 1964.27,859.25 1968.33,858.541 1972.39,857.774 1976.44,857.008 
  1980.5,856.183 1984.56,855.359 1988.62,854.477 1992.68,853.595 1996.73,852.654 2000.79,851.714 2004.85,850.715 2008.91,849.716 2012.97,848.658 2017.03,847.6 
  2021.08,846.484 2025.14,845.367 2029.2,844.191 2033.26,843.015 2037.32,841.78 2041.37,840.544 2045.43,839.249 2049.49,837.954 2053.55,836.599 2057.61,835.245 
  2061.66,833.83 2065.72,832.415 2069.78,830.94 2073.84,829.466 2077.9,827.931 2081.95,826.396 2086.01,824.8 2090.07,823.205 2094.13,821.549 2098.19,819.893 
  2102.24,818.177 2106.3,816.461 2110.36,814.684 2114.42,812.907 2118.48,811.07 2122.54,809.233 2126.59,807.335 2130.65,805.437 2134.71,803.478 2138.77,801.52 
  2142.83,799.501 2146.88,797.482 2150.94,795.402 2155,793.322 2159.06,791.182 2163.12,789.042 2167.17,786.842 2171.23,784.641 2175.29,782.38 2179.35,780.119 
  2183.41,777.798 2187.46,775.477 2191.52,773.095 2195.58,770.714 2199.64,768.273 2203.7,765.832 2207.76,763.33 2211.81,760.829 2215.87,758.268 2219.93,755.708 
  2223.99,753.087 2228.05,750.467 2232.1,747.787 2236.16,745.108 2240.22,742.369 2244.28,739.631 2248.34,736.833 2252.39,734.036 2256.45,731.18 2260.51,728.324 
  
  "/>
<polyline clip-path="url(#clip0203)" style="stroke:#c68125; stroke-width:4; stroke-opacity:1; fill:none" points="
  235.525,822.395 239.583,819.539 243.641,816.683 247.699,813.886 251.757,811.088 255.815,808.35 259.873,805.611 263.931,802.931 267.989,800.252 272.048,797.632 
  276.106,795.011 280.164,792.45 284.222,789.89 288.28,787.388 292.338,784.887 296.396,782.446 300.454,780.005 304.512,777.623 308.57,775.242 312.628,772.921 
  316.687,770.6 320.745,768.339 324.803,766.078 328.861,763.877 332.919,761.677 336.977,759.537 341.035,757.396 345.093,755.317 349.151,753.237 353.209,751.218 
  357.267,749.199 361.325,747.24 365.384,745.282 369.442,743.384 373.5,741.486 377.558,739.649 381.616,737.811 385.674,736.035 389.732,734.258 393.79,732.542 
  397.848,730.825 401.906,729.17 405.964,727.514 410.023,725.919 414.081,724.323 418.139,722.788 422.197,721.253 426.255,719.778 430.313,718.304 434.371,716.889 
  438.429,715.474 442.487,714.119 446.545,712.765 450.603,711.47 454.661,710.175 458.72,708.939 462.778,707.704 466.836,706.528 470.894,705.352 474.952,704.235 
  479.01,703.118 483.068,702.061 487.126,701.003 491.184,700.004 495.242,699.005 499.3,698.065 503.359,697.124 507.417,696.242 511.475,695.36 515.533,694.535 
  519.591,693.711 523.649,692.944 527.707,692.178 531.765,691.468 535.823,690.759 539.881,690.107 543.939,689.454 547.997,688.859 552.056,688.263 556.114,687.724 
  560.172,687.184 564.23,686.701 568.288,686.217 572.346,685.789 576.404,685.361 580.462,684.988 584.52,684.615 588.578,684.297 592.636,683.978 596.695,683.714 
  600.753,683.45 604.811,683.24 608.869,683.03 612.927,682.873 616.985,682.716 621.043,682.612 625.101,682.507 629.159,682.456 633.217,682.404 637.275,682.404 
  641.333,682.404 645.392,682.404 649.45,682.404 653.508,682.404 657.566,682.404 661.624,682.404 665.682,682.404 669.74,682.404 673.798,682.404 677.856,682.404 
  681.914,682.404 685.972,682.404 690.031,682.404 694.089,682.404 698.147,682.404 702.205,682.404 706.263,682.404 710.321,682.404 714.379,682.404 718.437,682.404 
  722.495,682.404 726.553,682.404 730.611,682.404 734.669,682.404 738.728,682.404 742.786,682.404 746.844,682.404 750.902,682.404 754.96,682.404 759.018,682.404 
  763.076,682.404 767.134,682.404 771.192,682.404 775.25,682.404 779.308,682.404 783.367,682.404 787.425,682.404 791.483,682.404 795.541,682.404 799.599,682.404 
  803.657,682.404 807.715,682.404 811.773,682.404 815.831,682.404 819.889,682.404 823.947,682.404 828.006,682.404 832.064,682.404 836.122,682.404 840.18,682.404 
  844.238,682.404 848.296,682.404 852.354,682.404 856.412,682.404 860.47,682.404 864.528,682.404 868.586,682.404 872.644,682.404 876.703,682.404 880.761,682.404 
  884.819,682.404 888.877,682.404 892.935,682.404 896.993,682.404 901.051,682.404 905.109,682.404 909.167,682.404 913.225,682.404 917.283,682.404 921.342,682.404 
  925.4,682.404 929.458,682.404 933.516,682.404 937.574,682.404 941.632,682.404 945.69,682.404 949.748,682.404 953.806,682.404 957.864,682.404 961.922,682.404 
  965.98,682.404 970.039,682.404 974.097,682.404 978.155,682.404 982.213,682.404 986.271,682.404 990.329,682.404 994.387,682.404 998.445,682.404 1002.5,682.404 
  1006.56,682.404 1010.62,682.404 1014.68,682.404 1018.74,682.404 1022.79,682.404 1026.85,682.404 1030.91,682.404 1034.97,682.404 1039.03,682.404 1043.08,682.404 
  1047.14,682.404 1051.2,682.404 1055.26,682.404 1059.32,682.404 1063.37,682.404 1067.43,682.404 1071.49,682.404 1075.55,682.404 1079.61,682.404 1083.66,682.404 
  1087.72,682.404 1091.78,682.404 1095.84,682.404 1099.9,682.404 1103.96,682.404 1108.01,682.404 1112.07,682.404 1116.13,682.404 1120.19,682.404 1124.25,682.404 
  1128.3,682.404 1132.36,682.404 1136.42,682.404 1140.48,682.404 1144.54,682.404 1148.59,682.404 1152.65,682.404 1156.71,682.404 1160.77,682.404 1164.83,682.404 
  1168.88,682.404 1172.94,682.404 1177,682.404 1181.06,682.404 1185.12,682.404 1189.18,682.404 1193.23,682.404 1197.29,682.404 1201.35,682.404 1205.41,682.404 
  1209.47,682.404 1213.52,682.404 1217.58,682.404 1221.64,682.404 1225.7,682.404 1229.76,682.404 1233.81,682.404 1237.87,682.404 1241.93,682.404 1245.99,682.404 
  1250.05,682.404 1254.1,682.404 1258.16,682.404 1262.22,682.404 1266.28,682.404 1270.34,682.404 1274.4,682.404 1278.45,682.404 1282.51,682.404 1286.57,682.404 
  1290.63,682.404 1294.69,682.404 1298.74,682.404 1302.8,682.404 1306.86,682.404 1310.92,682.404 1314.98,682.404 1319.03,682.404 1323.09,682.404 1327.15,682.404 
  1331.21,682.404 1335.27,682.404 1339.32,682.404 1343.38,682.404 1347.44,682.404 1351.5,682.404 1355.56,682.404 1359.61,682.404 1363.67,682.404 1367.73,682.404 
  1371.79,682.404 1375.85,682.404 1379.91,682.404 1383.96,682.404 1388.02,682.404 1392.08,682.404 1396.14,682.404 1400.2,682.404 1404.25,682.404 1408.31,682.404 
  1412.37,682.404 1416.43,682.404 1420.49,682.404 1424.54,682.404 1428.6,682.404 1432.66,682.404 1436.72,682.404 1440.78,682.404 1444.83,682.404 1448.89,682.404 
  1452.95,682.404 1457.01,682.404 1461.07,682.404 1465.13,682.404 1469.18,682.404 1473.24,682.404 1477.3,682.404 1481.36,682.404 1485.42,682.404 1489.47,682.404 
  1493.53,682.404 1497.59,682.404 1501.65,682.404 1505.71,682.404 1509.76,682.404 1513.82,682.404 1517.88,682.404 1521.94,682.404 1526,682.404 1530.05,682.404 
  1534.11,682.404 1538.17,682.404 1542.23,682.404 1546.29,682.404 1550.35,682.404 1554.4,682.404 1558.46,682.404 1562.52,682.404 1566.58,682.404 1570.64,682.404 
  1574.69,682.404 1578.75,682.404 1582.81,682.404 1586.87,682.404 1590.93,682.404 1594.98,682.404 1599.04,682.404 1603.1,682.404 1607.16,682.404 1611.22,682.404 
  1615.27,682.404 1619.33,682.404 1623.39,682.404 1627.45,682.404 1631.51,682.404 1635.56,682.404 1639.62,682.404 1643.68,682.404 1647.74,682.404 1651.8,682.404 
  1655.86,682.404 1659.91,682.404 1663.97,682.404 1668.03,682.404 1672.09,682.404 1676.15,682.404 1680.2,682.404 1684.26,682.404 1688.32,682.404 1692.38,682.404 
  1696.44,682.404 1700.49,682.404 1704.55,682.404 1708.61,682.404 1712.67,682.404 1716.73,682.404 1720.78,682.404 1724.84,682.404 1728.9,682.404 1732.96,682.404 
  1737.02,682.404 1741.08,682.404 1745.13,682.404 1749.19,682.404 1753.25,682.404 1757.31,682.404 1761.37,682.404 1765.42,682.404 1769.48,682.404 1773.54,682.404 
  1777.6,682.404 1781.66,682.404 1785.71,682.404 1789.77,682.404 1793.83,682.404 1797.89,682.404 1801.95,682.404 1806,682.404 1810.06,682.404 1814.12,682.404 
  1818.18,682.404 1822.24,682.404 1826.29,682.404 1830.35,682.404 1834.41,682.404 1838.47,682.404 1842.53,682.404 1846.59,682.404 1850.64,682.404 1854.7,682.404 
  1858.76,682.404 1862.82,677.273 1866.88,672.142 1870.93,666.961 1874.99,661.78 1879.05,656.548 1883.11,651.317 1887.17,646.036 1891.22,640.756 1895.28,635.427 
  1899.34,630.098 1903.4,624.721 1907.46,619.345 1911.51,613.922 1915.57,608.499 1919.63,603.03 1923.69,597.562 1927.75,592.048 1931.81,586.534 1935.86,580.977 
  1939.92,575.419 1943.98,569.819 1948.04,564.218 1952.1,558.575 1956.15,552.933 1960.21,547.249 1964.27,541.565 1968.33,535.841 1972.39,530.117 1976.44,524.353 
  1980.5,518.59 1984.56,512.788 1988.62,506.986 1992.68,501.147 1996.73,495.308 2000.79,489.433 2004.85,483.558 2008.91,477.647 2012.97,471.736 2017.03,465.791 
  2021.08,459.846 2025.14,453.868 2029.2,447.89 2033.26,441.879 2037.32,435.869 2041.37,429.827 2045.43,423.785 2049.49,417.714 2053.55,411.642 2057.61,405.541 
  2061.66,399.44 2065.72,393.311 2069.78,387.182 2073.84,381.026 2077.9,374.87 2081.95,368.689 2086.01,362.507 2090.07,356.301 2094.13,350.094 2098.19,343.864 
  2102.24,337.634 2106.3,331.381 2110.36,325.129 2114.42,318.855 2118.48,312.581 2122.54,306.286 2126.59,299.992 2130.65,293.679 2134.71,287.365 2138.77,281.034 
  2142.83,274.702 2146.88,268.354 2150.94,262.005 2155,255.641 2159.06,249.277 2163.12,242.898 2167.17,236.519 2171.23,230.127 2175.29,223.735 2179.35,217.33 
  2183.41,210.925 2187.46,204.51 2191.52,198.094 2195.58,191.668 2199.64,185.243 2203.7,178.808 2207.76,172.374 2211.81,165.932 2215.87,159.49 2219.93,153.041 
  2223.99,146.592 2228.05,140.139 2232.1,133.685 2236.16,127.227 2240.22,120.769 2244.28,114.308 2248.34,107.847 2252.39,101.384 2256.45,94.9215 2260.51,88.4582 
  
  "/>
<polygon clip-path="url(#clip0201)" points="
246.775,675.084 641.958,675.084 641.958,130.764 246.775,130.764 
  " fill="#ffffff" fill-rule="evenodd" fill-opacity="1"/>
<polyline clip-path="url(#clip0201)" style="stroke:#000000; stroke-width:4; stroke-opacity:1; fill:none" points="
  246.775,675.084 641.958,675.084 641.958,130.764 246.775,130.764 246.775,675.084 
  "/>
<polyline clip-path="url(#clip0201)" style="stroke:#009af9; stroke-width:4; stroke-opacity:1; fill:none" points="
  270.775,191.244 414.775,191.244 
  "/>
<g clip-path="url(#clip0201)">
<text style="fill:#000000; fill-opacity:1; font-family:Arial,Helvetica Neue,Helvetica,sans-serif; font-size:48px; text-anchor:start;" transform="rotate(0, 438.775, 208.744)" x="438.775" y="208.744">u1 final</text>
</g>
<polyline clip-path="url(#clip0201)" style="stroke:#e26f46; stroke-width:4; stroke-opacity:1; fill:none" points="
  270.775,251.724 414.775,251.724 
  "/>
<g clip-path="url(#clip0201)">
<text style="fill:#000000; fill-opacity:1; font-family:Arial,Helvetica Neue,Helvetica,sans-serif; font-size:48px; text-anchor:start;" transform="rotate(0, 438.775, 269.224)" x="438.775" y="269.224">u2 final</text>
</g>
<polyline clip-path="url(#clip0201)" style="stroke:#3da44d; stroke-width:4; stroke-opacity:1; fill:none" points="
  270.775,312.204 414.775,312.204 
  "/>
<g clip-path="url(#clip0201)">
<text style="fill:#000000; fill-opacity:1; font-family:Arial,Helvetica Neue,Helvetica,sans-serif; font-size:48px; text-anchor:start;" transform="rotate(0, 438.775, 329.704)" x="438.775" y="329.704">u1 100</text>
</g>
<polyline clip-path="url(#clip0201)" style="stroke:#c271d2; stroke-width:4; stroke-opacity:1; fill:none" points="
  270.775,372.684 414.775,372.684 
  "/>
<g clip-path="url(#clip0201)">
<text style="fill:#000000; fill-opacity:1; font-family:Arial,Helvetica Neue,Helvetica,sans-serif; font-size:48px; text-anchor:start;" transform="rotate(0, 438.775, 390.184)" x="438.775" y="390.184">u2 100</text>
</g>
<polyline clip-path="url(#clip0201)" style="stroke:#ac8d18; stroke-width:4; stroke-opacity:1; fill:none" points="
  270.775,433.164 414.775,433.164 
  "/>
<g clip-path="url(#clip0201)">
<text style="fill:#000000; fill-opacity:1; font-family:Arial,Helvetica Neue,Helvetica,sans-serif; font-size:48px; text-anchor:start;" transform="rotate(0, 438.775, 450.664)" x="438.775" y="450.664">u1 500</text>
</g>
<polyline clip-path="url(#clip0201)" style="stroke:#00a9ad; stroke-width:4; stroke-opacity:1; fill:none" points="
  270.775,493.644 414.775,493.644 
  "/>
<g clip-path="url(#clip0201)">
<text style="fill:#000000; fill-opacity:1; font-family:Arial,Helvetica Neue,Helvetica,sans-serif; font-size:48px; text-anchor:start;" transform="rotate(0, 438.775, 511.144)" x="438.775" y="511.144">u2 500</text>
</g>
<polyline clip-path="url(#clip0201)" style="stroke:#ed5d92; stroke-width:4; stroke-opacity:1; fill:none" points="
  270.775,554.124 414.775,554.124 
  "/>
<g clip-path="url(#clip0201)">
<text style="fill:#000000; fill-opacity:1; font-family:Arial,Helvetica Neue,Helvetica,sans-serif; font-size:48px; text-anchor:start;" transform="rotate(0, 438.775, 571.624)" x="438.775" y="571.624">u1 100</text>
</g>
<polyline clip-path="url(#clip0201)" style="stroke:#c68125; stroke-width:4; stroke-opacity:1; fill:none" points="
  270.775,614.604 414.775,614.604 
  "/>
<g clip-path="url(#clip0201)">
<text style="fill:#000000; fill-opacity:1; font-family:Arial,Helvetica Neue,Helvetica,sans-serif; font-size:48px; text-anchor:start;" transform="rotate(0, 438.775, 632.104)" x="438.775" y="632.104">u2 100</text>
</g>
</svg>
