<?xml version="1.0" encoding="utf-8"?>
<svg xmlns="http://www.w3.org/2000/svg" xmlns:xlink="http://www.w3.org/1999/xlink" width="600" height="400" viewBox="0 0 2400 1600">
<defs>
  <clipPath id="clip7100">
    <rect x="0" y="0" width="2000" height="2000"/>
  </clipPath>
</defs>
<defs>
  <clipPath id="clip7101">
    <rect x="0" y="0" width="2400" height="1600"/>
  </clipPath>
</defs>
<polygon clip-path="url(#clip7101)" points="
0,1600 2400,1600 2400,0 0,0 
  " fill="#ffffff" fill-rule="evenodd" fill-opacity="1"/>
<defs>
  <clipPath id="clip7102">
    <rect x="480" y="0" width="1681" height="1600"/>
  </clipPath>
</defs>
<polygon clip-path="url(#clip7101)" points="
174.775,1440.48 2321.26,1440.48 2321.26,47.2441 174.775,47.2441 
  " fill="#ffffff" fill-rule="evenodd" fill-opacity="1"/>
<defs>
  <clipPath id="clip7103">
    <rect x="174" y="47" width="2147" height="1394"/>
  </clipPath>
</defs>
<polyline clip-path="url(#clip7103)" style="stroke:#000000; stroke-width:2; stroke-opacity:0.1; fill:none" points="
  235.525,1440.48 235.525,47.2441 
  "/>
<polyline clip-path="url(#clip7103)" style="stroke:#000000; stroke-width:2; stroke-opacity:0.1; fill:none" points="
  640.522,1440.48 640.522,47.2441 
  "/>
<polyline clip-path="url(#clip7103)" style="stroke:#000000; stroke-width:2; stroke-opacity:0.1; fill:none" points="
  1045.52,1440.48 1045.52,47.2441 
  "/>
<polyline clip-path="url(#clip7103)" style="stroke:#000000; stroke-width:2; stroke-opacity:0.1; fill:none" points="
  1450.52,1440.48 1450.52,47.2441 
  "/>
<polyline clip-path="url(#clip7103)" style="stroke:#000000; stroke-width:2; stroke-opacity:0.1; fill:none" points="
  1855.51,1440.48 1855.51,47.2441 
  "/>
<polyline clip-path="url(#clip7103)" style="stroke:#000000; stroke-width:2; stroke-opacity:0.1; fill:none" points="
  2260.51,1440.48 2260.51,47.2441 
  "/>
<polyline clip-path="url(#clip7103)" style="stroke:#000000; stroke-width:2; stroke-opacity:0.1; fill:none" points="
  174.775,1401.05 2321.26,1401.05 
  "/>
<polyline clip-path="url(#clip7103)" style="stroke:#000000; stroke-width:2; stroke-opacity:0.1; fill:none" points="
  174.775,1072.46 2321.26,1072.46 
  "/>
<polyline clip-path="url(#clip7103)" style="stroke:#000000; stroke-width:2; stroke-opacity:0.1; fill:none" points="
  174.775,743.863 2321.26,743.863 
  "/>
<polyline clip-path="url(#clip7103)" style="stroke:#000000; stroke-width:2; stroke-opacity:0.1; fill:none" points="
  174.775,415.269 2321.26,415.269 
  "/>
<polyline clip-path="url(#clip7103)" style="stroke:#000000; stroke-width:2; stroke-opacity:0.1; fill:none" points="
  174.775,86.6754 2321.26,86.6754 
  "/>
<polyline clip-path="url(#clip7101)" style="stroke:#000000; stroke-width:4; stroke-opacity:1; fill:none" points="
  174.775,1440.48 2321.26,1440.48 
  "/>
<polyline clip-path="url(#clip7101)" style="stroke:#000000; stroke-width:4; stroke-opacity:1; fill:none" points="
  174.775,1440.48 174.775,47.2441 
  "/>
<polyline clip-path="url(#clip7101)" style="stroke:#000000; stroke-width:4; stroke-opacity:1; fill:none" points="
  235.525,1440.48 235.525,1419.58 
  "/>
<polyline clip-path="url(#clip7101)" style="stroke:#000000; stroke-width:4; stroke-opacity:1; fill:none" points="
  640.522,1440.48 640.522,1419.58 
  "/>
<polyline clip-path="url(#clip7101)" style="stroke:#000000; stroke-width:4; stroke-opacity:1; fill:none" points="
  1045.52,1440.48 1045.52,1419.58 
  "/>
<polyline clip-path="url(#clip7101)" style="stroke:#000000; stroke-width:4; stroke-opacity:1; fill:none" points="
  1450.52,1440.48 1450.52,1419.58 
  "/>
<polyline clip-path="url(#clip7101)" style="stroke:#000000; stroke-width:4; stroke-opacity:1; fill:none" points="
  1855.51,1440.48 1855.51,1419.58 
  "/>
<polyline clip-path="url(#clip7101)" style="stroke:#000000; stroke-width:4; stroke-opacity:1; fill:none" points="
  2260.51,1440.48 2260.51,1419.58 
  "/>
<polyline clip-path="url(#clip7101)" style="stroke:#000000; stroke-width:4; stroke-opacity:1; fill:none" points="
  174.775,1401.05 206.972,1401.05 
  "/>
<polyline clip-path="url(#clip7101)" style="stroke:#000000; stroke-width:4; stroke-opacity:1; fill:none" points="
  174.775,1072.46 206.972,1072.46 
  "/>
<polyline clip-path="url(#clip7101)" style="stroke:#000000; stroke-width:4; stroke-opacity:1; fill:none" points="
  174.775,743.863 206.972,743.863 
  "/>
<polyline clip-path="url(#clip7101)" style="stroke:#000000; stroke-width:4; stroke-opacity:1; fill:none" points="
  174.775,415.269 206.972,415.269 
  "/>
<polyline clip-path="url(#clip7101)" style="stroke:#000000; stroke-width:4; stroke-opacity:1; fill:none" points="
  174.775,86.6754 206.972,86.6754 
  "/>
<g clip-path="url(#clip7101)">
<text style="fill:#000000; fill-opacity:1; font-family:Arial,Helvetica Neue,Helvetica,sans-serif; font-size:48px; text-anchor:middle;" transform="rotate(0, 235.525, 1494.48)" x="235.525" y="1494.48">0</text>
</g>
<g clip-path="url(#clip7101)">
<text style="fill:#000000; fill-opacity:1; font-family:Arial,Helvetica Neue,Helvetica,sans-serif; font-size:48px; text-anchor:middle;" transform="rotate(0, 640.522, 1494.48)" x="640.522" y="1494.48">10</text>
</g>
<g clip-path="url(#clip7101)">
<text style="fill:#000000; fill-opacity:1; font-family:Arial,Helvetica Neue,Helvetica,sans-serif; font-size:48px; text-anchor:middle;" transform="rotate(0, 1045.52, 1494.48)" x="1045.52" y="1494.48">20</text>
</g>
<g clip-path="url(#clip7101)">
<text style="fill:#000000; fill-opacity:1; font-family:Arial,Helvetica Neue,Helvetica,sans-serif; font-size:48px; text-anchor:middle;" transform="rotate(0, 1450.52, 1494.48)" x="1450.52" y="1494.48">30</text>
</g>
<g clip-path="url(#clip7101)">
<text style="fill:#000000; fill-opacity:1; font-family:Arial,Helvetica Neue,Helvetica,sans-serif; font-size:48px; text-anchor:middle;" transform="rotate(0, 1855.51, 1494.48)" x="1855.51" y="1494.48">40</text>
</g>
<g clip-path="url(#clip7101)">
<text style="fill:#000000; fill-opacity:1; font-family:Arial,Helvetica Neue,Helvetica,sans-serif; font-size:48px; text-anchor:middle;" transform="rotate(0, 2260.51, 1494.48)" x="2260.51" y="1494.48">50</text>
</g>
<g clip-path="url(#clip7101)">
<text style="fill:#000000; fill-opacity:1; font-family:Arial,Helvetica Neue,Helvetica,sans-serif; font-size:48px; text-anchor:end;" transform="rotate(0, 150.775, 1418.55)" x="150.775" y="1418.55">0</text>
</g>
<g clip-path="url(#clip7101)">
<text style="fill:#000000; fill-opacity:1; font-family:Arial,Helvetica Neue,Helvetica,sans-serif; font-size:48px; text-anchor:end;" transform="rotate(0, 150.775, 1089.96)" x="150.775" y="1089.96">25</text>
</g>
<g clip-path="url(#clip7101)">
<text style="fill:#000000; fill-opacity:1; font-family:Arial,Helvetica Neue,Helvetica,sans-serif; font-size:48px; text-anchor:end;" transform="rotate(0, 150.775, 761.363)" x="150.775" y="761.363">50</text>
</g>
<g clip-path="url(#clip7101)">
<text style="fill:#000000; fill-opacity:1; font-family:Arial,Helvetica Neue,Helvetica,sans-serif; font-size:48px; text-anchor:end;" transform="rotate(0, 150.775, 432.769)" x="150.775" y="432.769">75</text>
</g>
<g clip-path="url(#clip7101)">
<text style="fill:#000000; fill-opacity:1; font-family:Arial,Helvetica Neue,Helvetica,sans-serif; font-size:48px; text-anchor:end;" transform="rotate(0, 150.775, 104.175)" x="150.775" y="104.175">100</text>
</g>
<g clip-path="url(#clip7101)">
<text style="fill:#000000; fill-opacity:1; font-family:Arial,Helvetica Neue,Helvetica,sans-serif; font-size:66px; text-anchor:middle;" transform="rotate(0, 1248.02, 1590.4)" x="1248.02" y="1590.4">x (m)</text>
</g>
<polyline clip-path="url(#clip7103)" style="stroke:#009af9; stroke-width:4; stroke-opacity:1; fill:none" points="
  235.525,1401.05 239.583,1398.85 243.641,1396.66 247.699,1394.46 251.757,1392.26 255.815,1390.06 259.873,1387.86 263.931,1385.67 267.989,1383.47 272.048,1381.27 
  276.106,1379.07 280.164,1376.87 284.222,1374.68 288.28,1372.48 292.338,1370.28 296.396,1368.08 300.454,1365.88 304.512,1363.69 308.57,1361.49 312.628,1359.29 
  316.687,1357.09 320.745,1354.89 324.803,1352.7 328.861,1350.5 332.919,1348.3 336.977,1346.1 341.035,1343.9 345.093,1341.71 349.151,1339.51 353.209,1337.31 
  357.267,1335.11 361.325,1332.91 365.384,1330.72 369.442,1328.52 373.5,1326.32 377.558,1324.12 381.616,1321.93 385.674,1319.73 389.732,1317.53 393.79,1315.33 
  397.848,1313.13 401.906,1310.94 405.964,1308.74 410.023,1306.54 414.081,1304.34 418.139,1302.14 422.197,1299.95 426.255,1297.75 430.313,1295.55 434.371,1293.35 
  438.429,1291.15 442.487,1288.96 446.545,1286.76 450.603,1284.56 454.661,1282.36 458.72,1280.16 462.778,1277.97 466.836,1275.77 470.894,1273.57 474.952,1271.37 
  479.01,1269.17 483.068,1266.98 487.126,1264.78 491.184,1262.58 495.242,1260.38 499.3,1258.18 503.359,1255.99 507.417,1253.79 511.475,1251.59 515.533,1249.39 
  519.591,1247.19 523.649,1245 527.707,1242.8 531.765,1240.6 535.823,1238.4 539.881,1236.2 543.939,1234.01 547.997,1231.81 552.056,1229.61 556.114,1227.41 
  560.172,1225.22 564.23,1223.02 568.288,1220.82 572.346,1218.62 576.404,1216.42 580.462,1214.23 584.52,1212.03 588.578,1209.83 592.636,1207.63 596.695,1205.43 
  600.753,1203.24 604.811,1201.04 608.869,1198.84 612.927,1196.64 616.985,1194.44 621.043,1192.25 625.101,1190.05 629.159,1187.85 633.217,1185.65 637.275,1183.45 
  641.333,1181.26 645.392,1179.06 649.45,1176.86 653.508,1174.66 657.566,1172.46 661.624,1170.27 665.682,1168.07 669.74,1165.87 673.798,1163.67 677.856,1161.47 
  681.914,1159.28 685.972,1157.08 690.031,1154.88 694.089,1152.68 698.147,1150.48 702.205,1148.29 706.263,1146.09 710.321,1143.89 714.379,1141.69 718.437,1139.49 
  722.495,1137.3 726.553,1135.1 730.611,1132.9 734.669,1130.7 738.728,1128.51 742.786,1126.31 746.844,1124.11 750.902,1121.91 754.96,1119.71 759.018,1117.52 
  763.076,1115.32 767.134,1113.12 771.192,1110.92 775.25,1108.72 779.308,1106.53 783.367,1104.33 787.425,1102.13 791.483,1099.93 795.541,1097.73 799.599,1095.54 
  803.657,1093.34 807.715,1091.14 811.773,1088.94 815.831,1086.74 819.889,1084.55 823.947,1082.35 828.006,1080.15 832.064,1077.95 836.122,1075.75 840.18,1073.56 
  844.238,1071.36 848.296,1069.16 852.354,1066.96 856.412,1064.76 860.47,1062.57 864.528,1060.37 868.586,1058.17 872.644,1055.97 876.703,1053.77 880.761,1051.58 
  884.819,1049.38 888.877,1047.18 892.935,1044.98 896.993,1042.78 901.051,1040.59 905.109,1038.39 909.167,1036.19 913.225,1033.99 917.283,1031.8 921.342,1029.6 
  925.4,1027.4 929.458,1025.2 933.516,1023 937.574,1020.81 941.632,1018.61 945.69,1016.41 949.748,1014.21 953.806,1012.01 957.864,1009.82 961.922,1007.62 
  965.98,1005.42 970.039,1003.22 974.097,1001.02 978.155,998.826 982.213,996.628 986.271,994.43 990.329,992.232 994.387,990.034 998.445,987.836 1002.5,985.638 
  1006.56,983.44 1010.62,981.242 1014.68,979.044 1018.74,976.846 1022.79,974.648 1026.85,972.45 1030.91,970.253 1034.97,968.055 1039.03,965.857 1043.08,963.659 
  1047.14,961.461 1051.2,959.263 1055.26,957.065 1059.32,954.867 1063.37,952.669 1067.43,950.471 1071.49,948.273 1075.55,946.075 1079.61,943.877 1083.66,941.679 
  1087.72,939.481 1091.78,937.283 1095.84,935.085 1099.9,932.887 1103.96,930.689 1108.01,928.491 1112.07,926.293 1116.13,924.096 1120.19,921.898 1124.25,919.7 
  1128.3,917.502 1132.36,915.304 1136.42,913.106 1140.48,910.908 1144.54,908.71 1148.59,906.512 1152.65,904.314 1156.71,902.116 1160.77,899.918 1164.83,897.72 
  1168.88,895.522 1172.94,893.324 1177,891.126 1181.06,888.928 1185.12,886.73 1189.18,884.532 1193.23,882.334 1197.29,880.136 1201.35,877.938 1205.41,875.741 
  1209.47,873.543 1213.52,871.345 1217.58,869.147 1221.64,866.949 1225.7,864.751 1229.76,862.553 1233.81,860.355 1237.87,858.157 1241.93,855.959 1245.99,853.761 
  1250.05,851.563 1254.1,849.365 1258.16,847.167 1262.22,844.969 1266.28,842.771 1270.34,840.573 1274.4,838.375 1278.45,836.177 1282.51,833.979 1286.57,831.781 
  1290.63,829.584 1294.69,827.386 1298.74,825.188 1302.8,822.99 1306.86,820.792 1310.92,818.594 1314.98,816.396 1319.03,814.198 1323.09,812 1327.15,809.802 
  1331.21,807.604 1335.27,805.406 1339.32,803.208 1343.38,801.01 1347.44,798.812 1351.5,796.614 1355.56,794.416 1359.61,792.218 1363.67,790.02 1367.73,787.822 
  1371.79,785.624 1375.85,783.427 1379.91,781.229 1383.96,779.031 1388.02,776.833 1392.08,774.635 1396.14,772.437 1400.2,770.239 1404.25,768.041 1408.31,765.843 
  1412.37,763.645 1416.43,761.447 1420.49,759.249 1424.54,757.051 1428.6,754.853 1432.66,752.655 1436.72,750.457 1440.78,748.259 1444.83,746.061 1448.89,743.863 
  1452.95,741.665 1457.01,739.467 1461.07,737.269 1465.13,735.072 1469.18,732.874 1473.24,730.676 1477.3,728.478 1481.36,726.28 1485.42,724.082 1489.47,721.884 
  1493.53,719.686 1497.59,717.488 1501.65,715.29 1505.71,713.092 1509.76,710.894 1513.82,708.696 1517.88,706.498 1521.94,704.3 1526,702.102 1530.05,699.904 
  1534.11,697.706 1538.17,695.508 1542.23,693.31 1546.29,691.112 1550.35,688.915 1554.4,686.717 1558.46,684.519 1562.52,682.321 1566.58,680.123 1570.64,677.925 
  1574.69,675.727 1578.75,673.529 1582.81,671.331 1586.87,669.133 1590.93,666.935 1594.98,664.737 1599.04,662.539 1603.1,660.341 1607.16,658.143 1611.22,655.945 
  1615.27,653.747 1619.33,651.549 1623.39,649.351 1627.45,647.153 1631.51,644.955 1635.56,642.758 1639.62,640.56 1643.68,638.362 1647.74,636.164 1651.8,633.966 
  1655.86,631.768 1659.91,629.57 1663.97,627.372 1668.03,625.174 1672.09,622.976 1676.15,620.778 1680.2,618.58 1684.26,616.382 1688.32,614.184 1692.38,611.986 
  1696.44,609.788 1700.49,607.59 1704.55,605.392 1708.61,603.194 1712.67,600.996 1716.73,598.798 1720.78,596.6 1724.84,594.403 1728.9,592.205 1732.96,590.007 
  1737.02,587.809 1741.08,585.611 1745.13,583.413 1749.19,581.215 1753.25,579.017 1757.31,576.819 1761.37,574.621 1765.42,572.423 1769.48,570.225 1773.54,568.027 
  1777.6,565.829 1781.66,563.631 1785.71,561.433 1789.77,559.235 1793.83,557.037 1797.89,554.839 1801.95,552.641 1806,550.443 1810.06,548.246 1814.12,546.048 
  1818.18,543.85 1822.24,541.652 1826.29,539.454 1830.35,537.256 1834.41,535.058 1838.47,532.86 1842.53,530.662 1846.59,528.464 1850.64,526.266 1854.7,524.068 
  1858.76,521.87 1862.82,519.672 1866.88,517.474 1870.93,515.276 1874.99,513.078 1879.05,510.88 1883.11,508.682 1887.17,506.484 1891.22,504.286 1895.28,502.089 
  1899.34,499.891 1903.4,497.693 1907.46,495.495 1911.51,493.297 1915.57,491.099 1919.63,488.901 1923.69,486.703 1927.75,484.505 1931.81,482.307 1935.86,480.109 
  1939.92,477.911 1943.98,475.713 1948.04,473.515 1952.1,471.317 1956.15,469.119 1960.21,466.921 1964.27,464.723 1968.33,462.525 1972.39,460.327 1976.44,458.129 
  1980.5,455.931 1984.56,453.734 1988.62,451.536 1992.68,449.338 1996.73,447.14 2000.79,444.942 2004.85,442.744 2008.91,440.546 2012.97,438.348 2017.03,436.15 
  2021.08,433.952 2025.14,431.754 2029.2,429.556 2033.26,427.358 2037.32,425.16 2041.37,422.962 2045.43,420.764 2049.49,418.566 2053.55,416.368 2057.61,414.17 
  2061.66,411.972 2065.72,409.774 2069.78,407.577 2073.84,405.379 2077.9,403.181 2081.95,400.983 2086.01,398.785 2090.07,396.587 2094.13,394.389 2098.19,392.191 
  2102.24,389.993 2106.3,387.795 2110.36,385.597 2114.42,383.399 2118.48,381.201 2122.54,379.003 2126.59,376.805 2130.65,374.607 2134.71,372.409 2138.77,370.211 
  2142.83,368.013 2146.88,365.815 2150.94,363.617 2155,361.42 2159.06,359.222 2163.12,357.024 2167.17,354.826 2171.23,352.628 2175.29,350.43 2179.35,348.232 
  2183.41,346.034 2187.46,343.836 2191.52,341.638 2195.58,339.44 2199.64,337.242 2203.7,335.044 2207.76,332.846 2211.81,330.648 2215.87,328.45 2219.93,326.252 
  2223.99,324.054 2228.05,321.856 2232.1,319.658 2236.16,317.46 2240.22,315.262 2244.28,313.065 2248.34,310.867 2252.39,308.669 2256.45,306.471 2260.51,304.273 
  
  "/>
<polyline clip-path="url(#clip7103)" style="stroke:#e26f46; stroke-width:4; stroke-opacity:1; fill:none" points="
  235.525,1183.45 239.583,1181.26 243.641,1179.06 247.699,1176.86 251.757,1174.66 255.815,1172.46 259.873,1170.27 263.931,1168.07 267.989,1165.87 272.048,1163.67 
  276.106,1161.47 280.164,1159.28 284.222,1157.08 288.28,1154.88 292.338,1152.68 296.396,1150.48 300.454,1148.29 304.512,1146.09 308.57,1143.89 312.628,1141.69 
  316.687,1139.49 320.745,1137.3 324.803,1135.1 328.861,1132.9 332.919,1130.7 336.977,1128.51 341.035,1126.31 345.093,1124.11 349.151,1121.91 353.209,1119.71 
  357.267,1117.52 361.325,1115.32 365.384,1113.12 369.442,1110.92 373.5,1108.72 377.558,1106.53 381.616,1104.33 385.674,1102.13 389.732,1099.93 393.79,1097.73 
  397.848,1095.54 401.906,1093.34 405.964,1091.14 410.023,1088.94 414.081,1086.74 418.139,1084.55 422.197,1082.35 426.255,1080.15 430.313,1077.95 434.371,1075.75 
  438.429,1073.56 442.487,1071.36 446.545,1069.16 450.603,1066.96 454.661,1064.76 458.72,1062.57 462.778,1060.37 466.836,1058.17 470.894,1055.97 474.952,1053.77 
  479.01,1051.58 483.068,1049.38 487.126,1047.18 491.184,1044.98 495.242,1042.78 499.3,1040.59 503.359,1038.39 507.417,1036.19 511.475,1033.99 515.533,1031.8 
  519.591,1029.6 523.649,1027.4 527.707,1025.2 531.765,1023 535.823,1020.81 539.881,1018.61 543.939,1016.41 547.997,1014.21 552.056,1012.01 556.114,1009.82 
  560.172,1007.62 564.23,1005.42 568.288,1003.22 572.346,1001.02 576.404,998.826 580.462,996.628 584.52,994.43 588.578,992.232 592.636,990.034 596.695,987.836 
  600.753,985.638 604.811,983.44 608.869,981.242 612.927,979.044 616.985,976.846 621.043,974.648 625.101,972.45 629.159,970.253 633.217,968.055 637.275,965.857 
  641.333,963.659 645.392,961.461 649.45,959.263 653.508,957.065 657.566,954.867 661.624,952.669 665.682,950.471 669.74,948.273 673.798,946.075 677.856,943.877 
  681.914,941.679 685.972,939.481 690.031,937.283 694.089,935.085 698.147,932.887 702.205,930.689 706.263,928.491 710.321,926.293 714.379,924.096 718.437,921.898 
  722.495,919.7 726.553,917.502 730.611,915.304 734.669,913.106 738.728,910.908 742.786,908.71 746.844,906.512 750.902,904.314 754.96,902.116 759.018,899.918 
  763.076,897.72 767.134,895.522 771.192,893.324 775.25,891.126 779.308,888.928 783.367,886.73 787.425,884.532 791.483,882.334 795.541,880.136 799.599,877.938 
  803.657,875.741 807.715,873.543 811.773,871.345 815.831,869.147 819.889,866.949 823.947,864.751 828.006,862.553 832.064,860.355 836.122,858.157 840.18,855.959 
  844.238,853.761 848.296,851.563 852.354,849.365 856.412,847.167 860.47,844.969 864.528,842.771 868.586,840.573 872.644,838.375 876.703,836.177 880.761,833.979 
  884.819,831.781 888.877,829.584 892.935,827.386 896.993,825.188 901.051,822.99 905.109,820.792 909.167,818.594 913.225,816.396 917.283,814.198 921.342,812 
  925.4,809.802 929.458,807.604 933.516,805.406 937.574,803.208 941.632,801.01 945.69,798.812 949.748,796.614 953.806,794.416 957.864,792.218 961.922,790.02 
  965.98,787.822 970.039,785.624 974.097,783.427 978.155,781.229 982.213,779.031 986.271,776.833 990.329,774.635 994.387,772.437 998.445,770.239 1002.5,768.041 
  1006.56,765.843 1010.62,763.645 1014.68,761.447 1018.74,759.249 1022.79,757.051 1026.85,754.853 1030.91,752.655 1034.97,750.457 1039.03,748.259 1043.08,746.061 
  1047.14,743.863 1051.2,741.665 1055.26,739.467 1059.32,737.269 1063.37,735.072 1067.43,732.874 1071.49,730.676 1075.55,728.478 1079.61,726.28 1083.66,724.082 
  1087.72,721.884 1091.78,719.686 1095.84,717.488 1099.9,715.29 1103.96,713.092 1108.01,710.894 1112.07,708.696 1116.13,706.498 1120.19,704.3 1124.25,702.102 
  1128.3,699.904 1132.36,697.706 1136.42,695.508 1140.48,693.31 1144.54,691.112 1148.59,688.915 1152.65,686.717 1156.71,684.519 1160.77,682.321 1164.83,680.123 
  1168.88,677.925 1172.94,675.727 1177,673.529 1181.06,671.331 1185.12,669.133 1189.18,666.935 1193.23,664.737 1197.29,662.539 1201.35,660.341 1205.41,658.143 
  1209.47,655.945 1213.52,653.747 1217.58,651.549 1221.64,649.351 1225.7,647.153 1229.76,644.955 1233.81,642.758 1237.87,640.56 1241.93,638.362 1245.99,636.164 
  1250.05,633.966 1254.1,631.768 1258.16,629.57 1262.22,627.372 1266.28,625.174 1270.34,622.976 1274.4,620.778 1278.45,618.58 1282.51,616.382 1286.57,614.184 
  1290.63,611.986 1294.69,609.788 1298.74,607.59 1302.8,605.392 1306.86,603.194 1310.92,600.996 1314.98,598.798 1319.03,596.6 1323.09,594.403 1327.15,592.205 
  1331.21,590.007 1335.27,587.809 1339.32,585.611 1343.38,583.413 1347.44,581.215 1351.5,579.017 1355.56,576.819 1359.61,574.621 1363.67,572.423 1367.73,570.225 
  1371.79,568.027 1375.85,565.829 1379.91,563.631 1383.96,561.433 1388.02,559.235 1392.08,557.037 1396.14,554.839 1400.2,552.641 1404.25,550.443 1408.31,548.246 
  1412.37,546.048 1416.43,543.85 1420.49,541.652 1424.54,539.454 1428.6,537.256 1432.66,535.058 1436.72,532.86 1440.78,530.662 1444.83,528.464 1448.89,526.266 
  1452.95,524.068 1457.01,521.87 1461.07,519.672 1465.13,517.474 1469.18,515.276 1473.24,513.078 1477.3,510.88 1481.36,508.682 1485.42,506.484 1489.47,504.286 
  1493.53,502.089 1497.59,499.891 1501.65,497.693 1505.71,495.495 1509.76,493.297 1513.82,491.099 1517.88,488.901 1521.94,486.703 1526,484.505 1530.05,482.307 
  1534.11,480.109 1538.17,477.911 1542.23,475.713 1546.29,473.515 1550.35,471.317 1554.4,469.119 1558.46,466.921 1562.52,464.723 1566.58,462.525 1570.64,460.327 
  1574.69,458.129 1578.75,455.931 1582.81,453.734 1586.87,451.536 1590.93,449.338 1594.98,447.14 1599.04,444.942 1603.1,442.744 1607.16,440.546 1611.22,438.348 
  1615.27,436.15 1619.33,433.952 1623.39,431.754 1627.45,429.556 1631.51,427.358 1635.56,425.16 1639.62,422.962 1643.68,420.764 1647.74,418.566 1651.8,416.368 
  1655.86,414.17 1659.91,411.972 1663.97,409.774 1668.03,407.577 1672.09,405.379 1676.15,403.181 1680.2,400.983 1684.26,398.785 1688.32,396.587 1692.38,394.389 
  1696.44,392.191 1700.49,389.993 1704.55,387.795 1708.61,385.597 1712.67,383.399 1716.73,381.201 1720.78,379.003 1724.84,376.805 1728.9,374.607 1732.96,372.409 
  1737.02,370.211 1741.08,368.013 1745.13,365.815 1749.19,363.617 1753.25,361.42 1757.31,359.222 1761.37,357.024 1765.42,354.826 1769.48,352.628 1773.54,350.43 
  1777.6,348.232 1781.66,346.034 1785.71,343.836 1789.77,341.638 1793.83,339.44 1797.89,337.242 1801.95,335.044 1806,332.846 1810.06,330.648 1814.12,328.45 
  1818.18,326.252 1822.24,324.054 1826.29,321.856 1830.35,319.658 1834.41,317.46 1838.47,315.262 1842.53,313.065 1846.59,310.867 1850.64,308.669 1854.7,306.471 
  1858.76,304.273 1862.82,302.075 1866.88,299.877 1870.93,297.679 1874.99,295.481 1879.05,293.283 1883.11,291.085 1887.17,288.887 1891.22,286.689 1895.28,284.491 
  1899.34,282.293 1903.4,280.095 1907.46,277.897 1911.51,275.699 1915.57,273.501 1919.63,271.303 1923.69,269.105 1927.75,266.908 1931.81,264.71 1935.86,262.512 
  1939.92,260.314 1943.98,258.116 1948.04,255.918 1952.1,253.72 1956.15,251.522 1960.21,249.324 1964.27,247.126 1968.33,244.928 1972.39,242.73 1976.44,240.532 
  1980.5,238.334 1984.56,236.136 1988.62,233.938 1992.68,231.74 1996.73,229.542 2000.79,227.344 2004.85,225.146 2008.91,222.948 2012.97,220.751 2017.03,218.553 
  2021.08,216.355 2025.14,214.157 2029.2,211.959 2033.26,209.761 2037.32,207.563 2041.37,205.365 2045.43,203.167 2049.49,200.969 2053.55,198.771 2057.61,196.573 
  2061.66,194.375 2065.72,192.177 2069.78,189.979 2073.84,187.781 2077.9,185.583 2081.95,183.385 2086.01,181.187 2090.07,178.989 2094.13,176.791 2098.19,174.593 
  2102.24,172.396 2106.3,170.198 2110.36,168 2114.42,165.802 2118.48,163.604 2122.54,161.406 2126.59,159.208 2130.65,157.01 2134.71,154.812 2138.77,152.614 
  2142.83,150.416 2146.88,148.218 2150.94,146.02 2155,143.822 2159.06,141.624 2163.12,139.426 2167.17,137.228 2171.23,135.03 2175.29,132.832 2179.35,130.634 
  2183.41,128.436 2187.46,126.239 2191.52,124.041 2195.58,121.843 2199.64,119.645 2203.7,117.447 2207.76,115.249 2211.81,113.051 2215.87,110.853 2219.93,108.655 
  2223.99,106.457 2228.05,104.259 2232.1,102.061 2236.16,99.8631 2240.22,97.6651 2244.28,95.4672 2248.34,93.2692 2252.39,91.0713 2256.45,88.8733 2260.51,86.6754 
  
  "/>
<polyline clip-path="url(#clip7103)" style="stroke:#3da44d; stroke-width:4; stroke-opacity:1; fill:none" points="
  235.525,1401.05 239.583,1394.87 243.641,1388.68 247.699,1382.5 251.757,1376.32 255.815,1370.14 259.873,1363.96 263.931,1357.78 267.989,1351.61 272.048,1345.43 
  276.106,1339.26 280.164,1333.09 284.222,1326.93 288.28,1320.77 292.338,1314.61 296.396,1308.45 300.454,1302.31 304.512,1296.16 308.57,1290.02 312.628,1283.88 
  316.687,1277.75 320.745,1271.63 324.803,1265.51 328.861,1259.4 332.919,1253.29 336.977,1247.19 341.035,1241.1 345.093,1235.01 349.151,1228.94 353.209,1222.86 
  357.267,1216.81 361.325,1210.75 365.384,1204.71 369.442,1198.67 373.5,1192.65 377.558,1186.62 381.616,1180.62 385.674,1174.62 389.732,1168.64 393.79,1162.65 
  397.848,1156.69 401.906,1150.73 405.964,1144.79 410.023,1138.86 414.081,1132.94 418.139,1127.03 422.197,1121.14 426.255,1115.25 430.313,1109.39 434.371,1103.52 
  438.429,1097.68 442.487,1091.85 446.545,1086.04 450.603,1080.23 454.661,1074.45 458.72,1068.67 462.778,1062.92 466.836,1057.17 470.894,1051.45 474.952,1045.73 
  479.01,1040.04 483.068,1034.35 487.126,1028.7 491.184,1023.04 495.242,1017.42 499.3,1011.8 503.359,1006.21 507.417,1000.63 511.475,995.077 515.533,989.526 
  519.591,984.012 523.649,978.498 527.707,973.021 531.765,967.545 535.823,962.107 539.881,956.669 543.939,951.27 547.997,945.871 552.056,940.513 556.114,935.155 
  560.172,929.838 564.23,924.52 568.288,919.245 572.346,913.97 576.404,908.738 580.462,903.506 584.52,898.317 588.578,893.129 592.636,887.985 596.695,882.841 
  600.753,877.743 604.811,872.645 608.869,867.592 612.927,862.54 616.985,857.535 621.043,852.53 625.101,847.573 629.159,842.615 633.217,837.707 637.275,832.798 
  641.333,832.798 645.392,832.798 649.45,832.798 653.508,832.798 657.566,832.798 661.624,832.798 665.682,832.798 669.74,832.798 673.798,832.798 677.856,832.798 
  681.914,832.798 685.972,832.798 690.031,832.798 694.089,832.798 698.147,832.798 702.205,832.798 706.263,832.798 710.321,832.798 714.379,832.798 718.437,832.798 
  722.495,832.798 726.553,832.798 730.611,832.798 734.669,832.798 738.728,832.798 742.786,832.798 746.844,832.798 750.902,832.798 754.96,832.798 759.018,832.798 
  763.076,832.798 767.134,832.798 771.192,832.798 775.25,832.798 779.308,832.798 783.367,832.798 787.425,832.798 791.483,832.798 795.541,832.798 799.599,832.798 
  803.657,832.798 807.715,832.798 811.773,832.798 815.831,832.798 819.889,832.798 823.947,832.798 828.006,832.798 832.064,832.798 836.122,832.798 840.18,832.798 
  844.238,832.798 848.296,832.798 852.354,832.798 856.412,832.798 860.47,832.798 864.528,832.798 868.586,832.798 872.644,832.798 876.703,832.798 880.761,832.798 
  884.819,832.798 888.877,832.798 892.935,832.798 896.993,832.798 901.051,832.798 905.109,832.798 909.167,832.798 913.225,832.798 917.283,832.798 921.342,832.798 
  925.4,832.798 929.458,832.798 933.516,832.798 937.574,832.798 941.632,832.798 945.69,832.798 949.748,832.798 953.806,832.798 957.864,832.798 961.922,832.798 
  965.98,832.798 970.039,832.798 974.097,832.798 978.155,832.798 982.213,832.798 986.271,832.798 990.329,832.798 994.387,832.798 998.445,832.798 1002.5,832.798 
  1006.56,832.798 1010.62,832.798 1014.68,832.798 1018.74,832.798 1022.79,832.798 1026.85,832.798 1030.91,832.798 1034.97,832.798 1039.03,832.798 1043.08,832.798 
  1047.14,832.798 1051.2,832.798 1055.26,832.798 1059.32,832.798 1063.37,832.798 1067.43,832.798 1071.49,832.798 1075.55,832.798 1079.61,832.798 1083.66,832.798 
  1087.72,832.798 1091.78,832.798 1095.84,832.798 1099.9,832.798 1103.96,832.798 1108.01,832.798 1112.07,832.798 1116.13,832.798 1120.19,832.798 1124.25,832.798 
  1128.3,832.798 1132.36,832.798 1136.42,832.798 1140.48,832.798 1144.54,832.798 1148.59,832.798 1152.65,832.798 1156.71,832.798 1160.77,832.798 1164.83,832.798 
  1168.88,832.798 1172.94,832.798 1177,832.798 1181.06,832.798 1185.12,832.798 1189.18,832.798 1193.23,832.798 1197.29,832.798 1201.35,832.798 1205.41,832.798 
  1209.47,832.798 1213.52,832.798 1217.58,832.798 1221.64,832.798 1225.7,832.798 1229.76,832.798 1233.81,832.798 1237.87,832.798 1241.93,832.798 1245.99,832.798 
  1250.05,832.798 1254.1,832.798 1258.16,832.798 1262.22,832.798 1266.28,832.798 1270.34,832.798 1274.4,832.798 1278.45,832.798 1282.51,832.798 1286.57,832.798 
  1290.63,832.798 1294.69,832.798 1298.74,832.798 1302.8,832.798 1306.86,832.798 1310.92,832.798 1314.98,832.798 1319.03,832.798 1323.09,832.798 1327.15,832.798 
  1331.21,832.798 1335.27,832.798 1339.32,832.798 1343.38,832.798 1347.44,832.798 1351.5,832.798 1355.56,832.798 1359.61,832.798 1363.67,832.798 1367.73,832.798 
  1371.79,832.798 1375.85,832.798 1379.91,832.798 1383.96,832.798 1388.02,832.798 1392.08,832.798 1396.14,832.798 1400.2,832.798 1404.25,832.798 1408.31,832.798 
  1412.37,832.798 1416.43,832.798 1420.49,832.798 1424.54,832.798 1428.6,832.798 1432.66,832.798 1436.72,832.798 1440.78,832.798 1444.83,832.798 1448.89,832.798 
  1452.95,832.798 1457.01,832.798 1461.07,832.798 1465.13,832.798 1469.18,832.798 1473.24,832.798 1477.3,832.798 1481.36,832.798 1485.42,832.798 1489.47,832.798 
  1493.53,832.798 1497.59,832.798 1501.65,832.798 1505.71,832.798 1509.76,832.798 1513.82,832.798 1517.88,832.798 1521.94,832.798 1526,832.798 1530.05,832.798 
  1534.11,832.798 1538.17,832.798 1542.23,832.798 1546.29,832.798 1550.35,832.798 1554.4,832.798 1558.46,832.798 1562.52,832.798 1566.58,832.798 1570.64,832.798 
  1574.69,832.798 1578.75,832.798 1582.81,832.798 1586.87,832.798 1590.93,832.798 1594.98,832.798 1599.04,832.798 1603.1,832.798 1607.16,832.798 1611.22,832.798 
  1615.27,832.798 1619.33,832.798 1623.39,832.798 1627.45,832.798 1631.51,832.798 1635.56,832.798 1639.62,832.798 1643.68,832.798 1647.74,832.798 1651.8,832.798 
  1655.86,832.798 1659.91,832.798 1663.97,832.798 1668.03,832.798 1672.09,832.798 1676.15,832.798 1680.2,832.798 1684.26,832.798 1688.32,832.798 1692.38,832.798 
  1696.44,832.798 1700.49,832.798 1704.55,832.798 1708.61,832.798 1712.67,832.798 1716.73,832.798 1720.78,832.798 1724.84,832.798 1728.9,832.798 1732.96,832.798 
  1737.02,832.798 1741.08,832.798 1745.13,832.798 1749.19,832.798 1753.25,832.798 1757.31,832.798 1761.37,832.798 1765.42,832.798 1769.48,832.798 1773.54,832.798 
  1777.6,832.798 1781.66,832.798 1785.71,832.798 1789.77,832.798 1793.83,832.798 1797.89,832.798 1801.95,832.798 1806,832.798 1810.06,832.798 1814.12,832.798 
  1818.18,832.798 1822.24,832.798 1826.29,832.798 1830.35,832.798 1834.41,832.798 1838.47,832.798 1842.53,832.798 1846.59,832.798 1850.64,832.798 1854.7,832.798 
  1858.76,832.798 1862.82,832.798 1866.88,832.748 1870.93,832.699 1874.99,832.599 1879.05,832.5 1883.11,832.349 1887.17,832.199 1891.22,831.998 1895.28,831.797 
  1899.34,831.544 1903.4,831.291 1907.46,830.987 1911.51,830.682 1915.57,830.326 1919.63,829.969 1923.69,829.559 1927.75,829.15 1931.81,828.687 1935.86,828.224 
  1939.92,827.708 1943.98,827.192 1948.04,826.622 1952.1,826.052 1956.15,825.428 1960.21,824.804 1964.27,824.125 1968.33,823.447 1972.39,822.713 1976.44,821.98 
  1980.5,821.191 1984.56,820.403 1988.62,819.558 1992.68,818.714 1996.73,817.815 2000.79,816.915 2004.85,815.959 2008.91,815.003 2012.97,813.991 2017.03,812.979 
  2021.08,811.911 2025.14,810.843 2029.2,809.717 2033.26,808.592 2037.32,807.41 2041.37,806.228 2045.43,804.989 2049.49,803.751 2053.55,802.454 2057.61,801.158 
  2061.66,799.805 2065.72,798.451 2069.78,797.04 2073.84,795.629 2077.9,794.16 2081.95,792.692 2086.01,791.165 2090.07,789.639 2094.13,788.055 2098.19,786.471 
  2102.24,784.829 2106.3,783.187 2110.36,781.487 2114.42,779.787 2118.48,778.029 2122.54,776.271 2126.59,774.456 2130.65,772.64 2134.71,770.766 2138.77,768.892 
  2142.83,766.96 2146.88,765.029 2150.94,763.039 2155,761.049 2159.06,759.002 2163.12,756.954 2167.17,754.849 2171.23,752.743 2175.29,750.58 2179.35,748.417 
  2183.41,746.196 2187.46,743.976 2191.52,741.697 2195.58,739.419 2199.64,737.083 2203.7,734.748 2207.76,732.355 2211.81,729.962 2215.87,727.512 2219.93,725.062 
  2223.99,722.555 2228.05,720.048 2232.1,717.484 2236.16,714.92 2240.22,712.3 2244.28,709.68 2248.34,707.004 2252.39,704.327 2256.45,701.595 2260.51,698.862 
  
  "/>
<polyline clip-path="url(#clip7103)" style="stroke:#c271d2; stroke-width:4; stroke-opacity:1; fill:none" points="
  235.525,788.865 239.583,786.132 243.641,783.4 247.699,780.723 251.757,778.047 255.815,775.427 259.873,772.806 263.931,770.243 267.989,767.679 272.048,765.172 
  276.106,762.665 280.164,760.215 284.222,757.765 288.28,755.372 292.338,752.979 296.396,750.643 300.454,748.308 304.512,746.029 308.57,743.751 312.628,741.53 
  316.687,739.309 320.745,737.146 324.803,734.983 328.861,732.878 332.919,730.772 336.977,728.725 341.035,726.677 345.093,724.688 349.151,722.698 353.209,720.766 
  357.267,718.834 361.325,716.961 365.384,715.087 369.442,713.271 373.5,711.455 377.558,709.697 381.616,707.94 385.674,706.24 389.732,704.54 393.79,702.898 
  397.848,701.256 401.906,699.672 405.964,698.088 410.023,696.561 414.081,695.035 418.139,693.566 422.197,692.098 426.255,690.687 430.313,689.276 434.371,687.922 
  438.429,686.569 442.487,685.272 446.545,683.976 450.603,682.737 454.661,681.498 458.72,680.316 462.778,679.134 466.836,678.009 470.894,676.884 474.952,675.816 
  479.01,674.747 483.068,673.735 487.126,672.723 491.184,671.768 495.242,670.812 499.3,669.912 503.359,669.012 507.417,668.168 511.475,667.324 515.533,666.535 
  519.591,665.747 523.649,665.013 527.707,664.28 531.765,663.601 535.823,662.923 539.881,662.298 543.939,661.674 547.997,661.104 552.056,660.534 556.114,660.018 
  560.172,659.502 564.23,659.04 568.288,658.577 572.346,658.167 576.404,657.758 580.462,657.401 584.52,657.044 588.578,656.74 592.636,656.435 596.695,656.183 
  600.753,655.93 604.811,655.729 608.869,655.528 612.927,655.377 616.985,655.227 621.043,655.127 625.101,655.028 629.159,654.978 633.217,654.929 637.275,654.929 
  641.333,654.929 645.392,654.929 649.45,654.929 653.508,654.929 657.566,654.929 661.624,654.929 665.682,654.929 669.74,654.929 673.798,654.929 677.856,654.929 
  681.914,654.929 685.972,654.929 690.031,654.929 694.089,654.929 698.147,654.929 702.205,654.929 706.263,654.929 710.321,654.929 714.379,654.929 718.437,654.929 
  722.495,654.929 726.553,654.929 730.611,654.929 734.669,654.929 738.728,654.929 742.786,654.929 746.844,654.929 750.902,654.929 754.96,654.929 759.018,654.929 
  763.076,654.929 767.134,654.929 771.192,654.929 775.25,654.929 779.308,654.929 783.367,654.929 787.425,654.929 791.483,654.929 795.541,654.929 799.599,654.929 
  803.657,654.929 807.715,654.929 811.773,654.929 815.831,654.929 819.889,654.929 823.947,654.929 828.006,654.929 832.064,654.929 836.122,654.929 840.18,654.929 
  844.238,654.929 848.296,654.929 852.354,654.929 856.412,654.929 860.47,654.929 864.528,654.929 868.586,654.929 872.644,654.929 876.703,654.929 880.761,654.929 
  884.819,654.929 888.877,654.929 892.935,654.929 896.993,654.929 901.051,654.929 905.109,654.929 909.167,654.929 913.225,654.929 917.283,654.929 921.342,654.929 
  925.4,654.929 929.458,654.929 933.516,654.929 937.574,654.929 941.632,654.929 945.69,654.929 949.748,654.929 953.806,654.929 957.864,654.929 961.922,654.929 
  965.98,654.929 970.039,654.929 974.097,654.929 978.155,654.929 982.213,654.929 986.271,654.929 990.329,654.929 994.387,654.929 998.445,654.929 1002.5,654.929 
  1006.56,654.929 1010.62,654.929 1014.68,654.929 1018.74,654.929 1022.79,654.929 1026.85,654.929 1030.91,654.929 1034.97,654.929 1039.03,654.929 1043.08,654.929 
  1047.14,654.929 1051.2,654.929 1055.26,654.929 1059.32,654.929 1063.37,654.929 1067.43,654.929 1071.49,654.929 1075.55,654.929 1079.61,654.929 1083.66,654.929 
  1087.72,654.929 1091.78,654.929 1095.84,654.929 1099.9,654.929 1103.96,654.929 1108.01,654.929 1112.07,654.929 1116.13,654.929 1120.19,654.929 1124.25,654.929 
  1128.3,654.929 1132.36,654.929 1136.42,654.929 1140.48,654.929 1144.54,654.929 1148.59,654.929 1152.65,654.929 1156.71,654.929 1160.77,654.929 1164.83,654.929 
  1168.88,654.929 1172.94,654.929 1177,654.929 1181.06,654.929 1185.12,654.929 1189.18,654.929 1193.23,654.929 1197.29,654.929 1201.35,654.929 1205.41,654.929 
  1209.47,654.929 1213.52,654.929 1217.58,654.929 1221.64,654.929 1225.7,654.929 1229.76,654.929 1233.81,654.929 1237.87,654.929 1241.93,654.929 1245.99,654.929 
  1250.05,654.929 1254.1,654.929 1258.16,654.929 1262.22,654.929 1266.28,654.929 1270.34,654.929 1274.4,654.929 1278.45,654.929 1282.51,654.929 1286.57,654.929 
  1290.63,654.929 1294.69,654.929 1298.74,654.929 1302.8,654.929 1306.86,654.929 1310.92,654.929 1314.98,654.929 1319.03,654.929 1323.09,654.929 1327.15,654.929 
  1331.21,654.929 1335.27,654.929 1339.32,654.929 1343.38,654.929 1347.44,654.929 1351.5,654.929 1355.56,654.929 1359.61,654.929 1363.67,654.929 1367.73,654.929 
  1371.79,654.929 1375.85,654.929 1379.91,654.929 1383.96,654.929 1388.02,654.929 1392.08,654.929 1396.14,654.929 1400.2,654.929 1404.25,654.929 1408.31,654.929 
  1412.37,654.929 1416.43,654.929 1420.49,654.929 1424.54,654.929 1428.6,654.929 1432.66,654.929 1436.72,654.929 1440.78,654.929 1444.83,654.929 1448.89,654.929 
  1452.95,654.929 1457.01,654.929 1461.07,654.929 1465.13,654.929 1469.18,654.929 1473.24,654.929 1477.3,654.929 1481.36,654.929 1485.42,654.929 1489.47,654.929 
  1493.53,654.929 1497.59,654.929 1501.65,654.929 1505.71,654.929 1509.76,654.929 1513.82,654.929 1517.88,654.929 1521.94,654.929 1526,654.929 1530.05,654.929 
  1534.11,654.929 1538.17,654.929 1542.23,654.929 1546.29,654.929 1550.35,654.929 1554.4,654.929 1558.46,654.929 1562.52,654.929 1566.58,654.929 1570.64,654.929 
  1574.69,654.929 1578.75,654.929 1582.81,654.929 1586.87,654.929 1590.93,654.929 1594.98,654.929 1599.04,654.929 1603.1,654.929 1607.16,654.929 1611.22,654.929 
  1615.27,654.929 1619.33,654.929 1623.39,654.929 1627.45,654.929 1631.51,654.929 1635.56,654.929 1639.62,654.929 1643.68,654.929 1647.74,654.929 1651.8,654.929 
  1655.86,654.929 1659.91,654.929 1663.97,654.929 1668.03,654.929 1672.09,654.929 1676.15,654.929 1680.2,654.929 1684.26,654.929 1688.32,654.929 1692.38,654.929 
  1696.44,654.929 1700.49,654.929 1704.55,654.929 1708.61,654.929 1712.67,654.929 1716.73,654.929 1720.78,654.929 1724.84,654.929 1728.9,654.929 1732.96,654.929 
  1737.02,654.929 1741.08,654.929 1745.13,654.929 1749.19,654.929 1753.25,654.929 1757.31,654.929 1761.37,654.929 1765.42,654.929 1769.48,654.929 1773.54,654.929 
  1777.6,654.929 1781.66,654.929 1785.71,654.929 1789.77,654.929 1793.83,654.929 1797.89,654.929 1801.95,654.929 1806,654.929 1810.06,654.929 1814.12,654.929 
  1818.18,654.929 1822.24,654.929 1826.29,654.929 1830.35,654.929 1834.41,654.929 1838.47,654.929 1842.53,654.929 1846.59,654.929 1850.64,654.929 1854.7,654.929 
  1858.76,654.929 1862.82,650.02 1866.88,645.111 1870.93,640.154 1874.99,635.197 1879.05,630.191 1883.11,625.186 1887.17,620.134 1891.22,615.082 1895.28,609.984 
  1899.34,604.885 1903.4,599.742 1907.46,594.598 1911.51,589.409 1915.57,584.221 1919.63,578.989 1923.69,573.757 1927.75,568.481 1931.81,563.206 1935.86,557.889 
  1939.92,552.572 1943.98,547.214 1948.04,541.855 1952.1,536.457 1956.15,531.058 1960.21,525.62 1964.27,520.182 1968.33,514.706 1972.39,509.229 1976.44,503.715 
  1980.5,498.201 1984.56,492.65 1988.62,487.099 1992.68,481.513 1996.73,475.926 2000.79,470.305 2004.85,464.684 2008.91,459.029 2012.97,453.374 2017.03,447.686 
  2021.08,441.998 2025.14,436.279 2029.2,430.559 2033.26,424.809 2037.32,419.058 2041.37,413.278 2045.43,407.497 2049.49,401.688 2053.55,395.879 2057.61,390.042 
  2061.66,384.205 2065.72,378.341 2069.78,372.477 2073.84,366.588 2077.9,360.698 2081.95,354.784 2086.01,348.87 2090.07,342.932 2094.13,336.994 2098.19,331.033 
  2102.24,325.073 2106.3,319.091 2110.36,313.108 2114.42,307.106 2118.48,301.103 2122.54,295.081 2126.59,289.059 2130.65,283.019 2134.71,276.978 2138.77,270.92 
  2142.83,264.863 2146.88,258.789 2150.94,252.715 2155,246.626 2159.06,240.537 2163.12,234.435 2167.17,228.332 2171.23,222.216 2175.29,216.1 2179.35,209.973 
  2183.41,203.845 2187.46,197.707 2191.52,191.569 2195.58,185.421 2199.64,179.273 2203.7,173.117 2207.76,166.961 2211.81,160.798 2215.87,154.634 2219.93,148.465 
  2223.99,142.295 2228.05,136.12 2232.1,129.946 2236.16,123.767 2240.22,117.588 2244.28,111.407 2248.34,105.225 2252.39,99.0422 2256.45,92.8591 2260.51,86.6754 
  
  "/>
<polyline clip-path="url(#clip7103)" style="stroke:#ac8d18; stroke-width:4; stroke-opacity:1; fill:none" points="
  235.525,1401.05 239.583,1398.62 243.641,1396.2 247.699,1393.77 251.757,1391.34 255.815,1388.91 259.873,1386.49 263.931,1384.06 267.989,1381.63 272.048,1379.2 
  276.106,1376.77 280.164,1374.34 284.222,1371.91 288.28,1369.48 292.338,1367.05 296.396,1364.63 300.454,1362.2 304.512,1359.77 308.57,1357.34 312.628,1354.91 
  316.687,1352.48 320.745,1350.05 324.803,1347.62 328.861,1345.2 332.919,1342.77 336.977,1340.34 341.035,1337.91 345.093,1335.49 349.151,1333.06 353.209,1330.63 
  357.267,1328.21 361.325,1325.78 365.384,1323.36 369.442,1320.94 373.5,1318.51 377.558,1316.09 381.616,1313.67 385.674,1311.25 389.732,1308.83 393.79,1306.41 
  397.848,1303.99 401.906,1301.57 405.964,1299.15 410.023,1296.73 414.081,1294.32 418.139,1291.9 422.197,1289.49 426.255,1287.08 430.313,1284.66 434.371,1282.25 
  438.429,1279.84 442.487,1277.43 446.545,1275.03 450.603,1272.62 454.661,1270.21 458.72,1267.81 462.778,1265.4 466.836,1263 470.894,1260.6 474.952,1258.2 
  479.01,1255.8 483.068,1253.4 487.126,1251.01 491.184,1248.61 495.242,1246.22 499.3,1243.83 503.359,1241.44 507.417,1239.05 511.475,1236.66 515.533,1234.27 
  519.591,1231.89 523.649,1229.51 527.707,1227.12 531.765,1224.74 535.823,1222.36 539.881,1219.99 543.939,1217.61 547.997,1215.24 552.056,1212.87 556.114,1210.49 
  560.172,1208.13 564.23,1205.76 568.288,1203.39 572.346,1201.03 576.404,1198.67 580.462,1196.31 584.52,1193.95 588.578,1191.59 592.636,1189.24 596.695,1186.88 
  600.753,1184.53 604.811,1182.18 608.869,1179.84 612.927,1177.49 616.985,1175.15 621.043,1172.8 625.101,1170.47 629.159,1168.13 633.217,1165.79 637.275,1163.46 
  641.333,1161.13 645.392,1158.8 649.45,1156.47 653.508,1154.14 657.566,1151.82 661.624,1149.5 665.682,1147.18 669.74,1144.86 673.798,1142.55 677.856,1140.23 
  681.914,1137.92 685.972,1135.61 690.031,1133.31 694.089,1131 698.147,1128.7 702.205,1126.4 706.263,1124.1 710.321,1121.81 714.379,1119.51 718.437,1117.22 
  722.495,1114.93 726.553,1112.65 730.611,1110.36 734.669,1108.08 738.728,1105.8 742.786,1103.52 746.844,1101.25 750.902,1098.98 754.96,1096.71 759.018,1094.44 
  763.076,1092.17 767.134,1089.91 771.192,1087.65 775.25,1085.39 779.308,1083.13 783.367,1080.88 787.425,1078.63 791.483,1076.38 795.541,1074.13 799.599,1071.88 
  803.657,1069.64 807.715,1067.4 811.773,1065.17 815.831,1062.93 819.889,1060.7 823.947,1058.47 828.006,1056.24 832.064,1054.01 836.122,1051.79 840.18,1049.57 
  844.238,1047.35 848.296,1045.14 852.354,1042.92 856.412,1040.71 860.47,1038.5 864.528,1036.3 868.586,1034.09 872.644,1031.89 876.703,1029.69 880.761,1027.5 
  884.819,1025.3 888.877,1023.11 892.935,1020.92 896.993,1018.73 901.051,1016.55 905.109,1014.37 909.167,1012.19 913.225,1010.01 917.283,1007.84 921.342,1005.66 
  925.4,1003.49 929.458,1001.33 933.516,999.162 937.574,996.998 941.632,994.839 945.69,992.679 949.748,990.525 953.806,988.37 957.864,986.22 961.922,984.071 
  965.98,981.925 970.039,979.78 974.097,977.64 978.155,975.499 982.213,973.363 986.271,971.228 990.329,969.096 994.387,966.965 998.445,964.838 1002.5,962.712 
  1006.56,960.59 1010.62,958.468 1014.68,956.35 1018.74,954.233 1022.79,952.119 1026.85,950.006 1030.91,947.898 1034.97,945.789 1039.03,943.685 1043.08,941.581 
  1047.14,939.481 1051.2,937.381 1055.26,935.286 1059.32,933.19 1063.37,931.099 1067.43,929.008 1071.49,926.921 1075.55,924.834 1079.61,922.751 1083.66,920.668 
  1087.72,918.589 1091.78,916.511 1095.84,914.436 1099.9,912.362 1103.96,910.291 1108.01,908.221 1112.07,906.154 1116.13,904.088 1120.19,902.025 1124.25,899.962 
  1128.3,897.904 1132.36,895.845 1136.42,893.79 1140.48,891.735 1144.54,889.684 1148.59,887.633 1152.65,885.585 1156.71,883.538 1160.77,881.494 1164.83,879.45 
  1168.88,877.41 1172.94,875.37 1177,873.333 1181.06,871.296 1185.12,869.263 1189.18,867.23 1193.23,865.2 1197.29,863.17 1201.35,861.144 1205.41,859.117 
  1209.47,857.094 1213.52,855.07 1217.58,853.05 1221.64,851.03 1225.7,849.013 1229.76,846.996 1233.81,844.982 1237.87,842.967 1241.93,840.956 1245.99,838.945 
  1250.05,836.937 1254.1,834.929 1258.16,832.923 1262.22,830.918 1266.28,828.915 1270.34,826.912 1274.4,824.912 1278.45,822.912 1282.51,820.914 1286.57,818.917 
  1290.63,816.921 1294.69,814.926 1298.74,812.934 1302.8,810.941 1306.86,808.95 1310.92,806.96 1314.98,804.972 1319.03,802.984 1323.09,800.997 1327.15,799.011 
  1331.21,797.027 1335.27,795.043 1339.32,793.061 1343.38,791.079 1347.44,789.099 1351.5,787.119 1355.56,785.141 1359.61,783.162 1363.67,781.186 1367.73,779.209 
  1371.79,777.234 1375.85,775.259 1379.91,773.285 1383.96,771.312 1388.02,769.34 1392.08,767.368 1396.14,765.397 1400.2,763.426 1404.25,761.457 1408.31,759.487 
  1412.37,757.519 1416.43,755.55 1420.49,753.583 1424.54,751.616 1428.6,749.65 1432.66,747.683 1436.72,745.718 1440.78,743.753 1444.83,741.788 1448.89,739.823 
  1452.95,737.86 1457.01,735.896 1461.07,733.932 1465.13,731.969 1469.18,730.006 1473.24,728.044 1477.3,726.081 1481.36,724.119 1485.42,722.157 1489.47,720.195 
  1493.53,718.233 1497.59,716.271 1501.65,714.31 1505.71,712.348 1509.76,710.387 1513.82,708.425 1517.88,706.463 1521.94,704.502 1526,702.54 1530.05,700.578 
  1534.11,698.616 1538.17,696.654 1542.23,694.692 1546.29,692.73 1550.35,690.767 1554.4,688.804 1558.46,686.841 1562.52,684.878 1566.58,682.914 1570.64,680.95 
  1574.69,678.986 1578.75,677.021 1582.81,675.056 1586.87,673.09 1590.93,671.124 1594.98,669.158 1599.04,667.191 1603.1,665.224 1607.16,663.255 1611.22,661.287 
  1615.27,659.318 1619.33,657.348 1623.39,655.378 1627.45,653.407 1631.51,651.435 1635.56,649.463 1639.62,647.49 1643.68,645.516 1647.74,643.541 1651.8,641.566 
  1655.86,639.59 1659.91,637.613 1663.97,635.635 1668.03,633.657 1672.09,631.677 1676.15,629.697 1680.2,627.715 1684.26,625.734 1688.32,623.75 1692.38,621.766 
  1696.44,619.78 1700.49,617.794 1704.55,615.806 1708.61,613.819 1712.67,611.829 1716.73,609.838 1720.78,607.846 1724.84,605.854 1728.9,603.859 1732.96,601.864 
  1737.02,599.867 1741.08,597.87 1745.13,595.87 1749.19,593.871 1753.25,591.868 1757.31,589.866 1761.37,587.861 1765.42,585.856 1769.48,583.849 1773.54,581.841 
  1777.6,579.83 1781.66,577.82 1785.71,575.807 1789.77,573.793 1793.83,571.777 1797.89,569.761 1801.95,567.741 1806,565.722 1810.06,563.699 1814.12,561.677 
  1818.18,559.651 1822.24,557.626 1826.29,555.597 1830.35,553.568 1834.41,551.536 1838.47,549.504 1842.53,547.468 1846.59,545.432 1850.64,543.393 1854.7,541.355 
  1858.76,539.312 1862.82,537.27 1866.88,535.224 1870.93,533.178 1874.99,531.128 1879.05,529.078 1883.11,527.025 1887.17,524.972 1891.22,522.915 1895.28,520.858 
  1899.34,518.797 1903.4,516.736 1907.46,514.672 1911.51,512.607 1915.57,510.538 1919.63,508.47 1923.69,506.397 1927.75,504.325 1931.81,502.249 1935.86,500.172 
  1939.92,498.092 1943.98,496.011 1948.04,493.927 1952.1,491.842 1956.15,489.754 1960.21,487.665 1964.27,485.572 1968.33,483.48 1972.39,481.383 1976.44,479.286 
  1980.5,477.185 1984.56,475.083 1988.62,472.978 1992.68,470.873 1996.73,468.763 2000.79,466.653 2004.85,464.539 2008.91,462.425 2012.97,460.306 2017.03,458.188 
  2021.08,456.065 2025.14,453.942 2029.2,451.815 2033.26,449.688 2037.32,447.556 2041.37,445.425 2045.43,443.289 2049.49,441.152 2053.55,439.012 2057.61,436.871 
  2061.66,434.726 2065.72,432.581 2069.78,430.431 2073.84,428.282 2077.9,426.127 2081.95,423.973 2086.01,421.815 2090.07,419.656 2094.13,417.493 2098.19,415.329 
  2102.24,413.161 2106.3,410.994 2110.36,408.821 2114.42,406.649 2118.48,404.472 2122.54,402.295 2126.59,400.113 2130.65,397.932 2134.71,395.745 2138.77,393.559 
  2142.83,391.369 2146.88,389.178 2150.94,386.982 2155,384.787 2159.06,382.587 2163.12,380.387 2167.17,378.183 2171.23,375.978 2175.29,373.769 2179.35,371.56 
  2183.41,369.347 2187.46,367.133 2191.52,364.915 2195.58,362.697 2199.64,360.474 2203.7,358.252 2207.76,356.024 2211.81,353.797 2215.87,351.566 2219.93,349.334 
  2223.99,347.098 2228.05,344.862 2232.1,342.621 2236.16,340.381 2240.22,338.136 2244.28,335.891 2248.34,333.642 2252.39,331.392 2256.45,329.139 2260.51,326.885 
  
  "/>
<polyline clip-path="url(#clip7103)" style="stroke:#00a9ad; stroke-width:4; stroke-opacity:1; fill:none" points="
  235.525,1160.84 239.583,1158.59 243.641,1156.33 247.699,1154.09 251.757,1151.84 255.815,1149.59 259.873,1147.35 263.931,1145.11 267.989,1142.86 272.048,1140.63 
  276.106,1138.39 280.164,1136.16 284.222,1133.93 288.28,1131.7 292.338,1129.48 296.396,1127.25 300.454,1125.03 304.512,1122.81 308.57,1120.59 312.628,1118.38 
  316.687,1116.17 320.745,1113.96 324.803,1111.75 328.861,1109.54 332.919,1107.34 336.977,1105.14 341.035,1102.94 345.093,1100.74 349.151,1098.55 353.209,1096.36 
  357.267,1094.17 361.325,1091.98 365.384,1089.8 369.442,1087.61 373.5,1085.43 377.558,1083.25 381.616,1081.08 385.674,1078.91 389.732,1076.73 393.79,1074.57 
  397.848,1072.4 401.906,1070.23 405.964,1068.07 410.023,1065.91 414.081,1063.75 418.139,1061.6 422.197,1059.45 426.255,1057.3 430.313,1055.15 434.371,1053 
  438.429,1050.86 442.487,1048.71 446.545,1046.57 450.603,1044.44 454.661,1042.3 458.72,1040.17 462.778,1038.04 466.836,1035.91 470.894,1033.78 474.952,1031.66 
  479.01,1029.54 483.068,1027.42 487.126,1025.3 491.184,1023.19 495.242,1021.07 499.3,1018.96 503.359,1016.85 507.417,1014.75 511.475,1012.64 515.533,1010.54 
  519.591,1008.44 523.649,1006.34 527.707,1004.25 531.765,1002.15 535.823,1000.06 539.881,997.973 543.939,995.884 547.997,993.8 552.056,991.715 556.114,989.635 
  560.172,987.554 564.23,985.478 568.288,983.402 572.346,981.329 576.404,979.257 580.462,977.188 584.52,975.12 588.578,973.055 592.636,970.991 596.695,968.93 
  600.753,966.869 604.811,964.812 608.869,962.755 612.927,960.702 616.985,958.648 621.043,956.599 625.101,954.549 629.159,952.503 633.217,950.457 637.275,948.415 
  641.333,946.372 645.392,944.333 649.45,942.294 653.508,940.259 657.566,938.223 661.624,936.191 665.682,934.159 669.74,932.13 673.798,930.101 677.856,928.075 
  681.914,926.05 685.972,924.027 690.031,922.005 694.089,919.986 698.147,917.966 702.205,915.95 706.263,913.933 710.321,911.92 714.379,909.907 718.437,907.896 
  722.495,905.886 726.553,903.878 730.611,901.87 734.669,899.866 738.728,897.861 742.786,895.858 746.844,893.856 750.902,891.856 754.96,889.857 759.018,887.86 
  763.076,885.862 767.134,883.868 771.192,881.873 775.25,879.881 779.308,877.888 783.367,875.898 787.425,873.908 791.483,871.92 795.541,869.932 799.599,867.947 
  803.657,865.961 807.715,863.977 811.773,861.993 815.831,860.011 819.889,858.03 823.947,856.05 828.006,854.07 832.064,852.091 836.122,850.113 840.18,848.137 
  844.238,846.16 848.296,844.185 852.354,842.21 856.412,840.237 860.47,838.264 864.528,836.292 868.586,834.32 872.644,832.349 876.703,830.378 880.761,828.409 
  884.819,826.44 888.877,824.471 892.935,822.503 896.993,820.536 901.051,818.569 905.109,816.603 909.167,814.636 913.225,812.671 917.283,810.706 921.342,808.741 
  925.4,806.777 929.458,804.813 933.516,802.849 937.574,800.886 941.632,798.922 945.69,796.96 949.748,794.997 953.806,793.035 957.864,791.072 961.922,789.11 
  965.98,787.148 970.039,785.187 974.097,783.225 978.155,781.263 982.213,779.302 986.271,777.34 990.329,775.378 994.387,773.417 998.445,771.455 1002.5,769.493 
  1006.56,767.532 1010.62,765.57 1014.68,763.608 1018.74,761.645 1022.79,759.683 1026.85,757.72 1030.91,755.758 1034.97,753.794 1039.03,751.831 1043.08,749.867 
  1047.14,747.903 1051.2,745.939 1055.26,743.974 1059.32,742.009 1063.37,740.043 1067.43,738.077 1071.49,736.111 1075.55,734.144 1079.61,732.176 1083.66,730.208 
  1087.72,728.24 1091.78,726.27 1095.84,724.301 1099.9,722.33 1103.96,720.359 1108.01,718.387 1112.07,716.415 1116.13,714.441 1120.19,712.468 1124.25,710.493 
  1128.3,708.518 1132.36,706.541 1136.42,704.564 1140.48,702.586 1144.54,700.608 1148.59,698.628 1152.65,696.647 1156.71,694.665 1160.77,692.683 1164.83,690.699 
  1168.88,688.715 1172.94,686.729 1177,684.743 1181.06,682.755 1185.12,680.767 1189.18,678.776 1193.23,676.786 1197.29,674.793 1201.35,672.8 1205.41,670.805 
  1209.47,668.81 1213.52,666.813 1217.58,664.815 1221.64,662.815 1225.7,660.815 1229.76,658.812 1233.81,656.809 1237.87,654.804 1241.93,652.798 1245.99,650.79 
  1250.05,648.782 1254.1,646.77 1258.16,644.759 1262.22,642.745 1266.28,640.731 1270.34,638.714 1274.4,636.697 1278.45,634.677 1282.51,632.656 1286.57,630.633 
  1290.63,628.61 1294.69,626.583 1298.74,624.557 1302.8,622.527 1306.86,620.497 1310.92,618.463 1314.98,616.43 1319.03,614.393 1323.09,612.357 1327.15,610.317 
  1331.21,608.276 1335.27,606.233 1339.32,604.189 1343.38,602.141 1347.44,600.094 1351.5,598.043 1355.56,595.992 1359.61,593.937 1363.67,591.882 1367.73,589.823 
  1371.79,587.764 1375.85,585.702 1379.91,583.639 1383.96,581.573 1388.02,579.506 1392.08,577.436 1396.14,575.365 1400.2,573.291 1404.25,571.216 1408.31,569.137 
  1412.37,567.059 1416.43,564.976 1420.49,562.893 1424.54,560.806 1428.6,558.719 1432.66,556.628 1436.72,554.537 1440.78,552.441 1444.83,550.346 1448.89,548.246 
  1452.95,546.146 1457.01,544.042 1461.07,541.938 1465.13,539.829 1469.18,537.72 1473.24,535.607 1477.3,533.494 1481.36,531.377 1485.42,529.259 1489.47,527.137 
  1493.53,525.015 1497.59,522.888 1501.65,520.762 1505.71,518.63 1509.76,516.499 1513.82,514.363 1517.88,512.227 1521.94,510.087 1526,507.946 1530.05,505.801 
  1534.11,503.656 1538.17,501.506 1542.23,499.356 1546.29,497.202 1550.35,495.047 1554.4,492.888 1558.46,490.729 1562.52,488.565 1566.58,486.401 1570.64,484.232 
  1574.69,482.063 1578.75,479.889 1582.81,477.716 1586.87,475.537 1590.93,473.359 1594.98,471.176 1599.04,468.992 1603.1,466.804 1607.16,464.616 1611.22,462.423 
  1615.27,460.231 1619.33,458.033 1623.39,455.835 1627.45,453.633 1631.51,451.43 1635.56,449.223 1639.62,447.015 1643.68,444.803 1647.74,442.591 1651.8,440.374 
  1655.86,438.157 1659.91,435.935 1663.97,433.713 1668.03,431.487 1672.09,429.26 1676.15,427.028 1680.2,424.797 1684.26,422.561 1688.32,420.324 1692.38,418.083 
  1696.44,415.842 1700.49,413.597 1704.55,411.351 1708.61,409.1 1712.67,406.85 1716.73,404.594 1720.78,402.339 1724.84,400.079 1728.9,397.819 1732.96,395.554 
  1737.02,393.29 1741.08,391.02 1745.13,388.751 1749.19,386.477 1753.25,384.203 1757.31,381.924 1761.37,379.646 1765.42,377.363 1769.48,375.08 1773.54,372.792 
  1777.6,370.504 1781.66,368.212 1785.71,365.92 1789.77,363.623 1793.83,361.327 1797.89,359.025 1801.95,356.724 1806,354.419 1810.06,352.114 1814.12,349.804 
  1818.18,347.494 1822.24,345.18 1826.29,342.866 1830.35,340.548 1834.41,338.229 1838.47,335.907 1842.53,333.584 1846.59,331.258 1850.64,328.931 1854.7,326.6 
  1858.76,324.269 1862.82,321.935 1866.88,319.6 1870.93,317.261 1874.99,314.923 1879.05,312.58 1883.11,310.237 1887.17,307.891 1891.22,305.544 1895.28,303.194 
  1899.34,300.844 1903.4,298.49 1907.46,296.136 1911.51,293.778 1915.57,291.421 1919.63,289.059 1923.69,286.698 1927.75,284.333 1931.81,281.969 1935.86,279.601 
  1939.92,277.232 1943.98,274.861 1948.04,272.489 1952.1,270.115 1956.15,267.74 1960.21,265.362 1964.27,262.984 1968.33,260.603 1972.39,258.221 1976.44,255.837 
  1980.5,253.453 1984.56,251.066 1988.62,248.679 1992.68,246.289 1996.73,243.899 2000.79,241.506 2004.85,239.113 2008.91,236.718 2012.97,234.322 2017.03,231.924 
  2021.08,229.526 2025.14,227.125 2029.2,224.725 2033.26,222.322 2037.32,219.919 2041.37,217.513 2045.43,215.108 2049.49,212.7 2053.55,210.293 2057.61,207.883 
  2061.66,205.474 2065.72,203.062 2069.78,200.65 2073.84,198.236 2077.9,195.823 2081.95,193.407 2086.01,190.992 2090.07,188.575 2094.13,186.158 2098.19,183.739 
  2102.24,181.32 2106.3,178.9 2110.36,176.48 2114.42,174.058 2118.48,171.636 2122.54,169.213 2126.59,166.79 2130.65,164.366 2134.71,161.942 2138.77,159.517 
  2142.83,157.092 2146.88,154.666 2150.94,152.24 2155,149.813 2159.06,147.386 2163.12,144.959 2167.17,142.531 2171.23,140.103 2175.29,137.675 2179.35,135.246 
  2183.41,132.817 2187.46,130.388 2191.52,127.96 2195.58,125.53 2199.64,123.101 2203.7,120.672 2207.76,118.243 2211.81,115.813 2215.87,113.384 2219.93,110.955 
  2223.99,108.526 2228.05,106.097 2232.1,103.668 2236.16,101.24 2240.22,98.8117 2244.28,96.3839 2248.34,93.9561 2252.39,91.5289 2256.45,89.1017 2260.51,86.6754 
  
  "/>
<polygon clip-path="url(#clip7101)" points="
246.775,554.124 641.958,554.124 641.958,130.764 246.775,130.764 
  " fill="#ffffff" fill-rule="evenodd" fill-opacity="1"/>
<polyline clip-path="url(#clip7101)" style="stroke:#000000; stroke-width:4; stroke-opacity:1; fill:none" points="
  246.775,554.124 641.958,554.124 641.958,130.764 246.775,130.764 246.775,554.124 
  "/>
<polyline clip-path="url(#clip7101)" style="stroke:#009af9; stroke-width:4; stroke-opacity:1; fill:none" points="
  270.775,191.244 414.775,191.244 
  "/>
<g clip-path="url(#clip7101)">
<text style="fill:#000000; fill-opacity:1; font-family:Arial,Helvetica Neue,Helvetica,sans-serif; font-size:48px; text-anchor:start;" transform="rotate(0, 438.775, 208.744)" x="438.775" y="208.744">u1 final</text>
</g>
<polyline clip-path="url(#clip7101)" style="stroke:#e26f46; stroke-width:4; stroke-opacity:1; fill:none" points="
  270.775,251.724 414.775,251.724 
  "/>
<g clip-path="url(#clip7101)">
<text style="fill:#000000; fill-opacity:1; font-family:Arial,Helvetica Neue,Helvetica,sans-serif; font-size:48px; text-anchor:start;" transform="rotate(0, 438.775, 269.224)" x="438.775" y="269.224">u2 final</text>
</g>
<polyline clip-path="url(#clip7101)" style="stroke:#3da44d; stroke-width:4; stroke-opacity:1; fill:none" points="
  270.775,312.204 414.775,312.204 
  "/>
<g clip-path="url(#clip7101)">
<text style="fill:#000000; fill-opacity:1; font-family:Arial,Helvetica Neue,Helvetica,sans-serif; font-size:48px; text-anchor:start;" transform="rotate(0, 438.775, 329.704)" x="438.775" y="329.704">u1 100</text>
</g>
<polyline clip-path="url(#clip7101)" style="stroke:#c271d2; stroke-width:4; stroke-opacity:1; fill:none" points="
  270.775,372.684 414.775,372.684 
  "/>
<g clip-path="url(#clip7101)">
<text style="fill:#000000; fill-opacity:1; font-family:Arial,Helvetica Neue,Helvetica,sans-serif; font-size:48px; text-anchor:start;" transform="rotate(0, 438.775, 390.184)" x="438.775" y="390.184">u2 100</text>
</g>
<polyline clip-path="url(#clip7101)" style="stroke:#ac8d18; stroke-width:4; stroke-opacity:1; fill:none" points="
  270.775,433.164 414.775,433.164 
  "/>
<g clip-path="url(#clip7101)">
<text style="fill:#000000; fill-opacity:1; font-family:Arial,Helvetica Neue,Helvetica,sans-serif; font-size:48px; text-anchor:start;" transform="rotate(0, 438.775, 450.664)" x="438.775" y="450.664">u1 500</text>
</g>
<polyline clip-path="url(#clip7101)" style="stroke:#00a9ad; stroke-width:4; stroke-opacity:1; fill:none" points="
  270.775,493.644 414.775,493.644 
  "/>
<g clip-path="url(#clip7101)">
<text style="fill:#000000; fill-opacity:1; font-family:Arial,Helvetica Neue,Helvetica,sans-serif; font-size:48px; text-anchor:start;" transform="rotate(0, 438.775, 511.144)" x="438.775" y="511.144">u2 500</text>
</g>
</svg>
