<?xml version="1.0" encoding="utf-8"?>
<svg xmlns="http://www.w3.org/2000/svg" xmlns:xlink="http://www.w3.org/1999/xlink" width="600" height="400" viewBox="0 0 2400 1600">
<defs>
  <clipPath id="clip2100">
    <rect x="0" y="0" width="2000" height="2000"/>
  </clipPath>
</defs>
<defs>
  <clipPath id="clip2101">
    <rect x="0" y="0" width="2400" height="1600"/>
  </clipPath>
</defs>
<polygon clip-path="url(#clip2101)" points="
0,1600 2400,1600 2400,0 0,0 
  " fill="#ffffff" fill-rule="evenodd" fill-opacity="1"/>
<defs>
  <clipPath id="clip2102">
    <rect x="480" y="0" width="1681" height="1600"/>
  </clipPath>
</defs>
<polygon clip-path="url(#clip2101)" points="
237.767,1440.48 2321.26,1440.48 2321.26,125.984 237.767,125.984 
  " fill="#ffffff" fill-rule="evenodd" fill-opacity="1"/>
<defs>
  <clipPath id="clip2103">
    <rect x="237" y="125" width="2084" height="1315"/>
  </clipPath>
</defs>
<polyline clip-path="url(#clip2103)" style="stroke:#000000; stroke-width:2; stroke-opacity:0.1; fill:none" points="
  237.767,1440.48 237.767,125.984 
  "/>
<polyline clip-path="url(#clip2103)" style="stroke:#000000; stroke-width:2; stroke-opacity:0.1; fill:none" points="
  654.466,1440.48 654.466,125.984 
  "/>
<polyline clip-path="url(#clip2103)" style="stroke:#000000; stroke-width:2; stroke-opacity:0.1; fill:none" points="
  1071.16,1440.48 1071.16,125.984 
  "/>
<polyline clip-path="url(#clip2103)" style="stroke:#000000; stroke-width:2; stroke-opacity:0.1; fill:none" points="
  1487.86,1440.48 1487.86,125.984 
  "/>
<polyline clip-path="url(#clip2103)" style="stroke:#000000; stroke-width:2; stroke-opacity:0.1; fill:none" points="
  1904.56,1440.48 1904.56,125.984 
  "/>
<polyline clip-path="url(#clip2103)" style="stroke:#000000; stroke-width:2; stroke-opacity:0.1; fill:none" points="
  2321.26,1440.48 2321.26,125.984 
  "/>
<polyline clip-path="url(#clip2103)" style="stroke:#000000; stroke-width:2; stroke-opacity:0.1; fill:none" points="
  237.767,1403.28 2321.26,1403.28 
  "/>
<polyline clip-path="url(#clip2103)" style="stroke:#000000; stroke-width:2; stroke-opacity:0.1; fill:none" points="
  237.767,1093.26 2321.26,1093.26 
  "/>
<polyline clip-path="url(#clip2103)" style="stroke:#000000; stroke-width:2; stroke-opacity:0.1; fill:none" points="
  237.767,783.233 2321.26,783.233 
  "/>
<polyline clip-path="url(#clip2103)" style="stroke:#000000; stroke-width:2; stroke-opacity:0.1; fill:none" points="
  237.767,473.21 2321.26,473.21 
  "/>
<polyline clip-path="url(#clip2103)" style="stroke:#000000; stroke-width:2; stroke-opacity:0.1; fill:none" points="
  237.767,163.187 2321.26,163.187 
  "/>
<polyline clip-path="url(#clip2101)" style="stroke:#000000; stroke-width:4; stroke-opacity:1; fill:none" points="
  237.767,1440.48 2321.26,1440.48 
  "/>
<polyline clip-path="url(#clip2101)" style="stroke:#000000; stroke-width:4; stroke-opacity:1; fill:none" points="
  237.767,1440.48 237.767,125.984 
  "/>
<polyline clip-path="url(#clip2101)" style="stroke:#000000; stroke-width:4; stroke-opacity:1; fill:none" points="
  237.767,1440.48 237.767,1420.77 
  "/>
<polyline clip-path="url(#clip2101)" style="stroke:#000000; stroke-width:4; stroke-opacity:1; fill:none" points="
  654.466,1440.48 654.466,1420.77 
  "/>
<polyline clip-path="url(#clip2101)" style="stroke:#000000; stroke-width:4; stroke-opacity:1; fill:none" points="
  1071.16,1440.48 1071.16,1420.77 
  "/>
<polyline clip-path="url(#clip2101)" style="stroke:#000000; stroke-width:4; stroke-opacity:1; fill:none" points="
  1487.86,1440.48 1487.86,1420.77 
  "/>
<polyline clip-path="url(#clip2101)" style="stroke:#000000; stroke-width:4; stroke-opacity:1; fill:none" points="
  1904.56,1440.48 1904.56,1420.77 
  "/>
<polyline clip-path="url(#clip2101)" style="stroke:#000000; stroke-width:4; stroke-opacity:1; fill:none" points="
  2321.26,1440.48 2321.26,1420.77 
  "/>
<polyline clip-path="url(#clip2101)" style="stroke:#000000; stroke-width:4; stroke-opacity:1; fill:none" points="
  237.767,1403.28 269.02,1403.28 
  "/>
<polyline clip-path="url(#clip2101)" style="stroke:#000000; stroke-width:4; stroke-opacity:1; fill:none" points="
  237.767,1093.26 269.02,1093.26 
  "/>
<polyline clip-path="url(#clip2101)" style="stroke:#000000; stroke-width:4; stroke-opacity:1; fill:none" points="
  237.767,783.233 269.02,783.233 
  "/>
<polyline clip-path="url(#clip2101)" style="stroke:#000000; stroke-width:4; stroke-opacity:1; fill:none" points="
  237.767,473.21 269.02,473.21 
  "/>
<polyline clip-path="url(#clip2101)" style="stroke:#000000; stroke-width:4; stroke-opacity:1; fill:none" points="
  237.767,163.187 269.02,163.187 
  "/>
<g clip-path="url(#clip2101)">
<text style="fill:#000000; fill-opacity:1; font-family:Arial,Helvetica Neue,Helvetica,sans-serif; font-size:48px; text-anchor:middle;" transform="rotate(0, 237.767, 1494.48)" x="237.767" y="1494.48">0</text>
</g>
<g clip-path="url(#clip2101)">
<text style="fill:#000000; fill-opacity:1; font-family:Arial,Helvetica Neue,Helvetica,sans-serif; font-size:48px; text-anchor:middle;" transform="rotate(0, 654.466, 1494.48)" x="654.466" y="1494.48">10</text>
</g>
<g clip-path="url(#clip2101)">
<text style="fill:#000000; fill-opacity:1; font-family:Arial,Helvetica Neue,Helvetica,sans-serif; font-size:48px; text-anchor:middle;" transform="rotate(0, 1071.16, 1494.48)" x="1071.16" y="1494.48">20</text>
</g>
<g clip-path="url(#clip2101)">
<text style="fill:#000000; fill-opacity:1; font-family:Arial,Helvetica Neue,Helvetica,sans-serif; font-size:48px; text-anchor:middle;" transform="rotate(0, 1487.86, 1494.48)" x="1487.86" y="1494.48">30</text>
</g>
<g clip-path="url(#clip2101)">
<text style="fill:#000000; fill-opacity:1; font-family:Arial,Helvetica Neue,Helvetica,sans-serif; font-size:48px; text-anchor:middle;" transform="rotate(0, 1904.56, 1494.48)" x="1904.56" y="1494.48">40</text>
</g>
<g clip-path="url(#clip2101)">
<text style="fill:#000000; fill-opacity:1; font-family:Arial,Helvetica Neue,Helvetica,sans-serif; font-size:48px; text-anchor:middle;" transform="rotate(0, 2321.26, 1494.48)" x="2321.26" y="1494.48">50</text>
</g>
<g clip-path="url(#clip2101)">
<text style="fill:#000000; fill-opacity:1; font-family:Arial,Helvetica Neue,Helvetica,sans-serif; font-size:48px; text-anchor:end;" transform="rotate(0, 213.767, 1420.78)" x="213.767" y="1420.78">0</text>
</g>
<g clip-path="url(#clip2101)">
<text style="fill:#000000; fill-opacity:1; font-family:Arial,Helvetica Neue,Helvetica,sans-serif; font-size:48px; text-anchor:end;" transform="rotate(0, 213.767, 1110.76)" x="213.767" y="1110.76">25</text>
</g>
<g clip-path="url(#clip2101)">
<text style="fill:#000000; fill-opacity:1; font-family:Arial,Helvetica Neue,Helvetica,sans-serif; font-size:48px; text-anchor:end;" transform="rotate(0, 213.767, 800.733)" x="213.767" y="800.733">50</text>
</g>
<g clip-path="url(#clip2101)">
<text style="fill:#000000; fill-opacity:1; font-family:Arial,Helvetica Neue,Helvetica,sans-serif; font-size:48px; text-anchor:end;" transform="rotate(0, 213.767, 490.71)" x="213.767" y="490.71">75</text>
</g>
<g clip-path="url(#clip2101)">
<text style="fill:#000000; fill-opacity:1; font-family:Arial,Helvetica Neue,Helvetica,sans-serif; font-size:48px; text-anchor:end;" transform="rotate(0, 213.767, 180.687)" x="213.767" y="180.687">100</text>
</g>
<g clip-path="url(#clip2101)">
<text style="fill:#000000; fill-opacity:1; font-family:Arial,Helvetica Neue,Helvetica,sans-serif; font-size:84px; text-anchor:middle;" transform="rotate(0, 1279.51, 73.2)" x="1279.51" y="73.2">Parallel flow with ratio 10.0</text>
</g>
<g clip-path="url(#clip2101)">
<text style="fill:#000000; fill-opacity:1; font-family:Arial,Helvetica Neue,Helvetica,sans-serif; font-size:66px; text-anchor:middle;" transform="rotate(0, 1279.51, 1590.4)" x="1279.51" y="1590.4">x (m)</text>
</g>
<g clip-path="url(#clip2101)">
<text style="fill:#000000; fill-opacity:1; font-family:Arial,Helvetica Neue,Helvetica,sans-serif; font-size:66px; text-anchor:middle;" transform="rotate(-90, 57.6, 783.233)" x="57.6" y="783.233">T °C</text>
</g>
<polyline clip-path="url(#clip2103)" style="stroke:#009af9; stroke-width:12; stroke-opacity:1; fill:none" points="
  237.767,1403.28 239.853,1400.18 241.938,1397.09 244.024,1394.01 246.11,1390.93 248.195,1387.87 250.281,1384.81 252.366,1381.76 254.452,1378.72 256.538,1375.69 
  258.623,1372.67 260.709,1369.65 262.794,1366.65 264.88,1363.65 266.965,1360.66 269.051,1357.68 271.137,1354.7 273.222,1351.74 275.308,1348.78 277.393,1345.83 
  279.479,1342.89 281.564,1339.96 283.65,1337.03 285.736,1334.12 287.821,1331.21 289.907,1328.31 291.992,1325.41 294.078,1322.53 296.164,1319.65 298.249,1316.78 
  300.335,1313.92 302.42,1311.07 304.506,1308.22 306.591,1305.38 308.677,1302.55 310.763,1299.73 312.848,1296.92 314.934,1294.11 317.019,1291.31 319.105,1288.52 
  321.19,1285.74 323.276,1282.96 325.362,1280.19 327.447,1277.43 329.533,1274.68 331.618,1271.93 333.704,1269.19 335.79,1266.46 337.875,1263.74 339.961,1261.03 
  342.046,1258.32 344.132,1255.62 346.217,1252.92 348.303,1250.24 350.389,1247.56 352.474,1244.89 354.56,1242.23 356.645,1239.57 358.731,1236.92 360.816,1234.28 
  362.902,1231.64 364.988,1229.02 367.073,1226.4 369.159,1223.78 371.244,1221.18 373.33,1218.58 375.415,1215.99 377.501,1213.4 379.587,1210.83 381.672,1208.26 
  383.758,1205.69 385.843,1203.14 387.929,1200.59 390.015,1198.05 392.1,1195.51 394.186,1192.98 396.271,1190.46 398.357,1187.95 400.442,1185.44 402.528,1182.94 
  404.614,1180.45 406.699,1177.96 408.785,1175.48 410.87,1173.01 412.956,1170.54 415.041,1168.08 417.127,1165.63 419.213,1163.19 421.298,1160.75 423.384,1158.31 
  425.469,1155.89 427.555,1153.47 429.641,1151.06 431.726,1148.65 433.812,1146.25 435.897,1143.86 437.983,1141.47 440.068,1139.09 442.154,1136.72 444.24,1134.36 
  446.325,1132 448.411,1129.64 450.496,1127.3 452.582,1124.96 454.667,1122.62 456.753,1120.29 458.839,1117.97 460.924,1115.66 463.01,1113.35 465.095,1111.05 
  467.181,1108.75 469.267,1106.46 471.352,1104.18 473.438,1101.9 475.523,1099.63 477.609,1097.37 479.694,1095.11 481.78,1092.86 483.866,1090.61 485.951,1088.37 
  488.037,1086.14 490.122,1083.91 492.208,1081.69 494.293,1079.48 496.379,1077.27 498.465,1075.06 500.55,1072.87 502.636,1070.68 504.721,1068.49 506.807,1066.31 
  508.892,1064.14 510.978,1061.97 513.064,1059.81 515.149,1057.66 517.235,1055.51 519.32,1053.37 521.406,1051.23 523.492,1049.1 525.577,1046.97 527.663,1044.85 
  529.748,1042.74 531.834,1040.63 533.919,1038.53 536.005,1036.43 538.091,1034.34 540.176,1032.26 542.262,1030.18 544.347,1028.1 546.433,1026.04 548.518,1023.97 
  550.604,1021.92 552.69,1019.87 554.775,1017.82 556.861,1015.78 558.946,1013.75 561.032,1011.72 563.118,1009.7 565.203,1007.68 567.289,1005.67 569.374,1003.66 
  571.46,1001.66 573.545,999.667 575.631,997.677 577.717,995.693 579.802,993.715 581.888,991.742 583.973,989.774 586.059,987.811 588.144,985.855 590.23,983.903 
  592.316,981.957 594.401,980.016 596.487,978.08 598.572,976.15 600.658,974.225 602.743,972.306 604.829,970.391 606.915,968.482 609,966.578 611.086,964.68 
  613.171,962.786 615.257,960.898 617.343,959.015 619.428,957.137 621.514,955.265 623.599,953.397 625.685,951.535 627.77,949.678 629.856,947.826 631.942,945.978 
  634.027,944.136 636.113,942.3 638.198,940.468 640.284,938.641 642.369,936.819 644.455,935.002 646.541,933.19 648.626,931.384 650.712,929.582 652.797,927.785 
  654.883,925.993 656.969,924.206 659.054,922.424 661.14,920.647 663.225,918.874 665.311,917.107 667.396,915.344 669.482,913.586 671.568,911.833 673.653,910.085 
  675.739,908.342 677.824,906.604 679.91,904.87 681.995,903.141 684.081,901.417 686.167,899.697 688.252,897.982 690.338,896.272 692.423,894.567 694.509,892.866 
  696.595,891.17 698.68,889.479 700.766,887.793 702.851,886.111 704.937,884.433 707.022,882.76 709.108,881.092 711.194,879.429 713.279,877.77 715.365,876.115 
  717.45,874.465 719.536,872.82 721.621,871.179 723.707,869.543 725.793,867.911 727.878,866.284 729.964,864.661 732.049,863.042 734.135,861.428 736.22,859.819 
  738.306,858.214 740.392,856.613 742.477,855.017 744.563,853.425 746.648,851.837 748.734,850.254 750.82,848.675 752.905,847.101 754.991,845.531 757.076,843.965 
  759.162,842.403 761.247,840.846 763.333,839.293 765.419,837.745 767.504,836.2 769.59,834.66 771.675,833.124 773.761,831.592 775.846,830.065 777.932,828.541 
  780.018,827.022 782.103,825.507 784.189,823.997 786.274,822.49 788.36,820.987 790.446,819.489 792.531,817.995 794.617,816.505 796.702,815.019 798.788,813.537 
  800.873,812.059 802.959,810.585 805.045,809.115 807.13,807.65 809.216,806.188 811.301,804.73 813.387,803.277 815.472,801.827 817.558,800.381 819.644,798.939 
  821.729,797.502 823.815,796.068 825.9,794.638 827.986,793.212 830.072,791.79 832.157,790.372 834.243,788.958 836.328,787.547 838.414,786.141 840.499,784.738 
  842.585,783.34 844.671,781.945 846.756,780.554 848.842,779.167 850.927,777.783 853.013,776.404 855.098,775.028 857.184,773.656 859.27,772.287 861.355,770.923 
  863.441,769.562 865.526,768.205 867.612,766.852 869.697,765.502 871.783,764.156 873.869,762.814 875.954,761.476 878.04,760.141 880.125,758.81 882.211,757.482 
  884.297,756.158 886.382,754.838 888.468,753.522 890.553,752.209 892.639,750.899 894.724,749.594 896.81,748.291 898.896,746.993 900.981,745.698 903.067,744.406 
  905.152,743.119 907.238,741.834 909.323,740.553 911.409,739.276 913.495,738.002 915.58,736.732 917.666,735.465 919.751,734.202 921.837,732.942 923.923,731.686 
  926.008,730.433 928.094,729.184 930.179,727.938 932.265,726.695 934.35,725.456 936.436,724.22 938.522,722.988 940.607,721.759 942.693,720.533 944.778,719.311 
  946.864,718.092 948.949,716.876 951.035,715.664 953.121,714.455 955.206,713.25 957.292,712.048 959.377,710.849 961.463,709.653 963.549,708.461 965.634,707.272 
  967.72,706.086 969.805,704.904 971.891,703.724 973.976,702.548 976.062,701.376 978.148,700.206 980.233,699.04 982.319,697.877 984.404,696.717 986.49,695.56 
  988.575,694.406 990.661,693.256 992.747,692.109 994.832,690.965 996.918,689.824 999.003,688.686 1001.09,687.551 1003.17,686.42 1005.26,685.291 1007.35,684.166 
  1009.43,683.044 1011.52,681.925 1013.6,680.809 1015.69,679.696 1017.77,678.586 1019.86,677.479 1021.94,676.375 1024.03,675.274 1026.12,674.176 1028.2,673.082 
  1030.29,671.99 1032.37,670.901 1034.46,669.815 1036.54,668.733 1038.63,667.653 1040.71,666.576 1042.8,665.502 1044.89,664.431 1046.97,663.363 1049.06,662.298 
  1051.14,661.236 1053.23,660.177 1055.31,659.121 1057.4,658.067 1059.49,657.017 1061.57,655.969 1063.66,654.924 1065.74,653.883 1067.83,652.844 1069.91,651.808 
  1072,650.774 1074.08,649.744 1076.17,648.716 1078.26,647.691 1080.34,646.67 1082.43,645.65 1084.51,644.634 1086.6,643.62 1088.68,642.61 1090.77,641.602 
  1092.85,640.596 1094.94,639.594 1097.03,638.594 1099.11,637.597 1101.2,636.603 1103.28,635.612 1105.37,634.623 1107.45,633.637 1109.54,632.653 1111.62,631.673 
  1113.71,630.695 1115.8,629.72 1117.88,628.747 1119.97,627.777 1122.05,626.81 1124.14,625.845 1126.22,624.883 1128.31,623.924 1130.39,622.968 1132.48,622.014 
  1134.57,621.062 1136.65,620.113 1138.74,619.167 1140.82,618.224 1142.91,617.283 1144.99,616.344 1147.08,615.408 1149.16,614.475 1151.25,613.544 1153.34,612.616 
  1155.42,611.691 1157.51,610.768 1159.59,609.847 1161.68,608.929 1163.76,608.014 1165.85,607.101 1167.94,606.19 1170.02,605.282 1172.11,604.377 1174.19,603.474 
  1176.28,602.573 1178.36,601.675 1180.45,600.78 1182.53,599.887 1184.62,598.996 1186.71,598.108 1188.79,597.222 1190.88,596.339 1192.96,595.458 1195.05,594.58 
  1197.13,593.704 1199.22,592.83 1201.3,591.959 1203.39,591.09 1205.48,590.223 1207.56,589.359 1209.65,588.498 1211.73,587.638 1213.82,586.781 1215.9,585.927 
  1217.99,585.075 1220.07,584.225 1222.16,583.377 1224.25,582.532 1226.33,581.689 1228.42,580.848 1230.5,580.01 1232.59,579.174 1234.67,578.34 1236.76,577.509 
  1238.84,576.68 1240.93,575.853 1243.02,575.029 1245.1,574.206 1247.19,573.386 1249.27,572.568 1251.36,571.753 1253.44,570.94 1255.53,570.129 1257.62,569.32 
  1259.7,568.513 1261.79,567.709 1263.87,566.907 1265.96,566.107 1268.04,565.309 1270.13,564.514 1272.21,563.72 1274.3,562.929 1276.39,562.14 1278.47,561.353 
  1280.56,560.569 1282.64,559.786 1284.73,559.006 1286.81,558.228 1288.9,557.452 1290.98,556.678 1293.07,555.906 1295.16,555.136 1297.24,554.369 1299.33,553.603 
  1301.41,552.84 1303.5,552.079 1305.58,551.32 1307.67,550.563 1309.75,549.808 1311.84,549.055 1313.93,548.304 1316.01,547.555 1318.1,546.808 1320.18,546.064 
  1322.27,545.321 1324.35,544.581 1326.44,543.842 1328.52,543.106 1330.61,542.371 1332.7,541.639 1334.78,540.908 1336.87,540.18 1338.95,539.454 1341.04,538.729 
  1343.12,538.007 1345.21,537.286 1347.29,536.568 1349.38,535.851 1351.47,535.137 1353.55,534.424 1355.64,533.714 1357.72,533.005 1359.81,532.299 1361.89,531.594 
  1363.98,530.891 1366.07,530.19 1368.15,529.491 1370.24,528.794 1372.32,528.099 1374.41,527.406 1376.49,526.715 1378.58,526.025 1380.66,525.338 1382.75,524.652 
  1384.84,523.969 1386.92,523.287 1389.01,522.607 1391.09,521.929 1393.18,521.253 1395.26,520.578 1397.35,519.906 1399.43,519.235 1401.52,518.566 1403.61,517.899 
  1405.69,517.234 1407.78,516.571 1409.86,515.909 1411.95,515.25 1414.03,514.592 1416.12,513.936 1418.2,513.281 1420.29,512.629 1422.38,511.978 1424.46,511.329 
  1426.55,510.682 1428.63,510.037 1430.72,509.394 1432.8,508.752 1434.89,508.112 1436.97,507.474 1439.06,506.837 1441.15,506.202 1443.23,505.569 1445.32,504.938 
  1447.4,504.309 1449.49,503.681 1451.57,503.055 1453.66,502.43 1455.74,501.808 1457.83,501.187 1459.92,500.568 1462,499.95 1464.09,499.334 1466.17,498.72 
  1468.26,498.108 1470.34,497.497 1472.43,496.888 1474.52,496.28 1476.6,495.675 1478.69,495.071 1480.77,494.468 1482.86,493.867 1484.94,493.268 1487.03,492.671 
  1489.11,492.075 1491.2,491.481 1493.29,490.888 1495.37,490.297 1497.46,489.708 1499.54,489.12 1501.63,488.534 1503.71,487.95 1505.8,487.367 1507.88,486.786 
  1509.97,486.206 1512.06,485.628 1514.14,485.051 1516.23,484.476 1518.31,483.903 1520.4,483.331 1522.48,482.761 1524.57,482.192 1526.65,481.625 1528.74,481.06 
  1530.83,480.496 1532.91,479.933 1535,479.373 1537.08,478.813 1539.17,478.255 1541.25,477.699 1543.34,477.144 1545.42,476.591 1547.51,476.039 1549.6,475.489 
  1551.68,474.941 1553.77,474.393 1555.85,473.848 1557.94,473.304 1560.02,472.761 1562.11,472.22 1564.19,471.68 1566.28,471.142 1568.37,470.605 1570.45,470.07 
  1572.54,469.536 1574.62,469.004 1576.71,468.473 1578.79,467.943 1580.88,467.415 1582.97,466.889 1585.05,466.364 1587.14,465.84 1589.22,465.318 1591.31,464.797 
  1593.39,464.278 1595.48,463.76 1597.56,463.244 1599.65,462.729 1601.74,462.215 1603.82,461.703 1605.91,461.192 1607.99,460.683 1610.08,460.175 1612.16,459.668 
  1614.25,459.163 1616.33,458.659 1618.42,458.157 1620.51,457.656 1622.59,457.156 1624.68,456.658 1626.76,456.161 1628.85,455.665 1630.93,455.171 1633.02,454.678 
  1635.1,454.187 1637.19,453.697 1639.28,453.208 1641.36,452.72 1643.45,452.234 1645.53,451.75 1647.62,451.266 1649.7,450.784 1651.79,450.303 1653.87,449.824 
  1655.96,449.346 1658.05,448.869 1660.13,448.394 1662.22,447.92 1664.3,447.447 1666.39,446.975 1668.47,446.505 1670.56,446.036 1672.65,445.568 1674.73,445.102 
  1676.82,444.637 1678.9,444.173 1680.99,443.71 1683.07,443.249 1685.16,442.789 1687.24,442.33 1689.33,441.873 1691.42,441.417 1693.5,440.962 1695.59,440.508 
  1697.67,440.056 1699.76,439.605 1701.84,439.155 1703.93,438.706 1706.01,438.258 1708.1,437.812 1710.19,437.367 1712.27,436.923 1714.36,436.481 1716.44,436.039 
  1718.53,435.599 1720.61,435.16 1722.7,434.723 1724.78,434.286 1726.87,433.851 1728.96,433.417 1731.04,432.984 1733.13,432.552 1735.21,432.122 1737.3,431.692 
  1739.38,431.264 1741.47,430.837 1743.55,430.411 1745.64,429.987 1747.73,429.563 1749.81,429.141 1751.9,428.72 1753.98,428.3 1756.07,427.881 1758.15,427.463 
  1760.24,427.047 1762.32,426.631 1764.41,426.217 1766.5,425.804 1768.58,425.392 1770.67,424.981 1772.75,424.571 1774.84,424.163 1776.92,423.755 1779.01,423.349 
  1781.1,422.944 1783.18,422.54 1785.27,422.137 1787.35,421.735 1789.44,421.334 1791.52,420.935 1793.61,420.536 1795.69,420.139 1797.78,419.742 1799.87,419.347 
  1801.95,418.953 1804.04,418.56 1806.12,418.168 1808.21,417.777 1810.29,417.387 1812.38,416.998 1814.46,416.61 1816.55,416.224 1818.64,415.838 1820.72,415.453 
  1822.81,415.07 1824.89,414.687 1826.98,414.306 1829.06,413.926 1831.15,413.546 1833.23,413.168 1835.32,412.791 1837.41,412.415 1839.49,412.04 1841.58,411.666 
  1843.66,411.292 1845.75,410.92 1847.83,410.549 1849.92,410.179 1852,409.81 1854.09,409.442 1856.18,409.075 1858.26,408.709 1860.35,408.345 1862.43,407.981 
  1864.52,407.618 1866.6,407.256 1868.69,406.895 1870.77,406.535 1872.86,406.176 1874.95,405.818 1877.03,405.461 1879.12,405.105 1881.2,404.75 1883.29,404.396 
  1885.37,404.042 1887.46,403.69 1889.55,403.339 1891.63,402.989 1893.72,402.64 1895.8,402.291 1897.89,401.944 1899.97,401.598 1902.06,401.252 1904.14,400.908 
  1906.23,400.564 1908.32,400.222 1910.4,399.88 1912.49,399.539 1914.57,399.199 1916.66,398.861 1918.74,398.523 1920.83,398.186 1922.91,397.85 1925,397.514 
  1927.09,397.18 1929.17,396.847 1931.26,396.514 1933.34,396.183 1935.43,395.852 1937.51,395.523 1939.6,395.194 1941.68,394.866 1943.77,394.539 1945.86,394.213 
  1947.94,393.888 1950.03,393.564 1952.11,393.24 1954.2,392.918 1956.28,392.596 1958.37,392.275 1960.45,391.955 1962.54,391.636 1964.63,391.318 1966.71,391.001 
  1968.8,390.685 1970.88,390.369 1972.97,390.055 1975.05,389.741 1977.14,389.428 1979.23,389.116 1981.31,388.805 1983.4,388.494 1985.48,388.185 1987.57,387.876 
  1989.65,387.568 1991.74,387.262 1993.82,386.955 1995.91,386.65 1998,386.346 2000.08,386.042 2002.17,385.739 2004.25,385.438 2006.34,385.137 2008.42,384.836 
  2010.51,384.537 2012.59,384.238 2014.68,383.94 2016.77,383.643 2018.85,383.347 2020.94,383.052 2023.02,382.757 2025.11,382.464 2027.19,382.171 2029.28,381.879 
  2031.36,381.587 2033.45,381.297 2035.54,381.007 2037.62,380.718 2039.71,380.43 2041.79,380.143 2043.88,379.856 2045.96,379.571 2048.05,379.286 2050.13,379.002 
  2052.22,378.718 2054.31,378.436 2056.39,378.154 2058.48,377.873 2060.56,377.593 2062.65,377.313 2064.73,377.034 2066.82,376.756 2068.9,376.479 2070.99,376.203 
  2073.08,375.927 2075.16,375.652 2077.25,375.378 2079.33,375.105 2081.42,374.832 2083.5,374.56 2085.59,374.289 2087.68,374.018 2089.76,373.749 2091.85,373.48 
  2093.93,373.212 2096.02,372.944 2098.1,372.677 2100.19,372.411 2102.27,372.146 2104.36,371.882 2106.45,371.618 2108.53,371.355 2110.62,371.093 2112.7,370.831 
  2114.79,370.57 2116.87,370.31 2118.96,370.05 2121.04,369.792 2123.13,369.534 2125.22,369.276 2127.3,369.02 2129.39,368.764 2131.47,368.508 2133.56,368.254 
  2135.64,368 2137.73,367.747 2139.81,367.495 2141.9,367.243 2143.99,366.992 2146.07,366.742 2148.16,366.492 2150.24,366.243 2152.33,365.995 2154.41,365.747 
  2156.5,365.5 2158.58,365.254 2160.67,365.008 2162.76,364.764 2164.84,364.519 2166.93,364.276 2169.01,364.033 2171.1,363.791 2173.18,363.549 2175.27,363.308 
  2177.35,363.068 2179.44,362.829 2181.53,362.59 2183.61,362.351 2185.7,362.114 2187.78,361.877 2189.87,361.641 2191.95,361.405 2194.04,361.17 2196.13,360.936 
  2198.21,360.702 2200.3,360.469 2202.38,360.237 2204.47,360.005 2206.55,359.774 2208.64,359.543 2210.72,359.313 2212.81,359.084 2214.9,358.856 2216.98,358.628 
  2219.07,358.4 2221.15,358.174 2223.24,357.948 2225.32,357.722 2227.41,357.497 2229.49,357.273 2231.58,357.049 2233.67,356.826 2235.75,356.604 2237.84,356.382 
  2239.92,356.161 2242.01,355.941 2244.09,355.721 2246.18,355.501 2248.26,355.283 2250.35,355.064 2252.44,354.847 2254.52,354.63 2256.61,354.414 2258.69,354.198 
  2260.78,353.983 2262.86,353.768 2264.95,353.554 2267.03,353.341 2269.12,353.128 2271.21,352.916 2273.29,352.704 2275.38,352.493 2277.46,352.282 2279.55,352.073 
  2281.63,351.863 2283.72,351.655 2285.81,351.446 2287.89,351.239 2289.98,351.032 2292.06,350.825 2294.15,350.619 2296.23,350.414 2298.32,350.209 2300.4,350.005 
  2302.49,349.801 2304.58,349.598 2306.66,349.396 2308.75,349.194 2310.83,348.992 2312.92,348.792 2315,348.591 2317.09,348.391 2319.17,348.192 2321.26,347.994 
  
  "/>
<polyline clip-path="url(#clip2103)" style="stroke:#e26f46; stroke-width:12; stroke-opacity:1; fill:none" points="
  237.767,163.187 239.853,163.497 241.938,163.806 244.024,164.114 246.11,164.422 248.195,164.728 250.281,165.034 252.366,165.339 254.452,165.643 256.538,165.946 
  258.623,166.248 260.709,166.55 262.794,166.85 264.88,167.15 266.965,167.449 269.051,167.747 271.137,168.045 273.222,168.341 275.308,168.637 277.393,168.932 
  279.479,169.226 281.564,169.519 283.65,169.812 285.736,170.103 287.821,170.394 289.907,170.684 291.992,170.974 294.078,171.262 296.164,171.55 298.249,171.837 
  300.335,172.123 302.42,172.408 304.506,172.693 306.591,172.977 308.677,173.26 310.763,173.542 312.848,173.823 314.934,174.104 317.019,174.384 319.105,174.663 
  321.19,174.941 323.276,175.219 325.362,175.496 327.447,175.772 329.533,176.047 331.618,176.322 333.704,176.596 335.79,176.869 337.875,177.141 339.961,177.412 
  342.046,177.683 344.132,177.953 346.217,178.223 348.303,178.491 350.389,178.759 352.474,179.026 354.56,179.292 356.645,179.558 358.731,179.823 360.816,180.087 
  362.902,180.351 364.988,180.613 367.073,180.875 369.159,181.137 371.244,181.397 373.33,181.657 375.415,181.916 377.501,182.175 379.587,182.432 381.672,182.689 
  383.758,182.946 385.843,183.201 387.929,183.456 390.015,183.71 392.1,183.964 394.186,184.217 396.271,184.469 398.357,184.72 400.442,184.971 402.528,185.221 
  404.614,185.47 406.699,185.719 408.785,185.967 410.87,186.214 412.956,186.461 415.041,186.707 417.127,186.952 419.213,187.196 421.298,187.44 423.384,187.684 
  425.469,187.926 427.555,188.168 429.641,188.409 431.726,188.65 433.812,188.89 435.897,189.129 437.983,189.368 440.068,189.606 442.154,189.843 444.24,190.079 
  446.325,190.315 448.411,190.551 450.496,190.785 452.582,191.019 454.667,191.253 456.753,191.486 458.839,191.718 460.924,191.949 463.01,192.18 465.095,192.41 
  467.181,192.64 469.267,192.869 471.352,193.097 473.438,193.325 475.523,193.552 477.609,193.778 479.694,194.004 481.78,194.229 483.866,194.454 485.951,194.678 
  488.037,194.901 490.122,195.124 492.208,195.346 494.293,195.567 496.379,195.788 498.465,196.009 500.55,196.228 502.636,196.447 504.721,196.666 506.807,196.884 
  508.892,197.101 510.978,197.318 513.064,197.534 515.149,197.749 517.235,197.964 519.32,198.179 521.406,198.392 523.492,198.605 525.577,198.818 527.663,199.03 
  529.748,199.241 531.834,199.452 533.919,199.662 536.005,199.872 538.091,200.081 540.176,200.289 542.262,200.497 544.347,200.705 546.433,200.911 548.518,201.118 
  550.604,201.323 552.69,201.528 554.775,201.733 556.861,201.937 558.946,202.14 561.032,202.343 563.118,202.545 565.203,202.747 567.289,202.948 569.374,203.149 
  571.46,203.349 573.545,203.548 575.631,203.747 577.717,203.946 579.802,204.144 581.888,204.341 583.973,204.538 586.059,204.734 588.144,204.93 590.23,205.125 
  592.316,205.319 594.401,205.513 596.487,205.707 598.572,205.9 600.658,206.092 602.743,206.284 604.829,206.476 606.915,206.667 609,206.857 611.086,207.047 
  613.171,207.236 615.257,207.425 617.343,207.613 619.428,207.801 621.514,207.989 623.599,208.175 625.685,208.362 627.77,208.547 629.856,208.732 631.942,208.917 
  634.027,209.101 636.113,209.285 638.198,209.468 640.284,209.651 642.369,209.833 644.455,210.015 646.541,210.196 648.626,210.377 650.712,210.557 652.797,210.737 
  654.883,210.916 656.969,211.094 659.054,211.273 661.14,211.45 663.225,211.628 665.311,211.804 667.396,211.981 669.482,212.156 671.568,212.332 673.653,212.506 
  675.739,212.681 677.824,212.855 679.91,213.028 681.995,213.201 684.081,213.373 686.167,213.545 688.252,213.717 690.338,213.888 692.423,214.058 694.509,214.228 
  696.595,214.398 698.68,214.567 700.766,214.736 702.851,214.904 704.937,215.072 707.022,215.239 709.108,215.406 711.194,215.572 713.279,215.738 715.365,215.904 
  717.45,216.068 719.536,216.233 721.621,216.397 723.707,216.561 725.793,216.724 727.878,216.887 729.964,217.049 732.049,217.211 734.135,217.372 736.22,217.533 
  738.306,217.694 740.392,217.854 742.477,218.013 744.563,218.173 746.648,218.331 748.734,218.49 750.82,218.647 752.905,218.805 754.991,218.962 757.076,219.119 
  759.162,219.275 761.247,219.43 763.333,219.586 765.419,219.741 767.504,219.895 769.59,220.049 771.675,220.203 773.761,220.356 775.846,220.509 777.932,220.661 
  780.018,220.813 782.103,220.964 784.189,221.115 786.274,221.266 788.36,221.416 790.446,221.566 792.531,221.716 794.617,221.865 796.702,222.013 798.788,222.161 
  800.873,222.309 802.959,222.457 805.045,222.603 807.13,222.75 809.216,222.896 811.301,223.042 813.387,223.187 815.472,223.332 817.558,223.477 819.644,223.621 
  821.729,223.765 823.815,223.908 825.9,224.051 827.986,224.194 830.072,224.336 832.157,224.478 834.243,224.619 836.328,224.76 838.414,224.901 840.499,225.041 
  842.585,225.181 844.671,225.321 846.756,225.46 848.842,225.598 850.927,225.737 853.013,225.875 855.098,226.012 857.184,226.149 859.27,226.286 861.355,226.423 
  863.441,226.559 865.526,226.695 867.612,226.83 869.697,226.965 871.783,227.099 873.869,227.234 875.954,227.367 878.04,227.501 880.125,227.634 882.211,227.767 
  884.297,227.899 886.382,228.031 888.468,228.163 890.553,228.294 892.639,228.425 894.724,228.556 896.81,228.686 898.896,228.816 900.981,228.945 903.067,229.074 
  905.152,229.203 907.238,229.332 909.323,229.46 911.409,229.587 913.495,229.715 915.58,229.842 917.666,229.968 919.751,230.095 921.837,230.221 923.923,230.346 
  926.008,230.472 928.094,230.597 930.179,230.721 932.265,230.846 934.35,230.969 936.436,231.093 938.522,231.216 940.607,231.339 942.693,231.462 944.778,231.584 
  946.864,231.706 948.949,231.827 951.035,231.949 953.121,232.069 955.206,232.19 957.292,232.31 959.377,232.43 961.463,232.55 963.549,232.669 965.634,232.788 
  967.72,232.906 969.805,233.025 971.891,233.143 973.976,233.26 976.062,233.377 978.148,233.494 980.233,233.611 982.319,233.727 984.404,233.843 986.49,233.959 
  988.575,234.074 990.661,234.189 992.747,234.304 994.832,234.419 996.918,234.533 999.003,234.646 1001.09,234.76 1003.17,234.873 1005.26,234.986 1007.35,235.098 
  1009.43,235.211 1011.52,235.323 1013.6,235.434 1015.69,235.545 1017.77,235.656 1019.86,235.767 1021.94,235.878 1024.03,235.988 1026.12,236.097 1028.2,236.207 
  1030.29,236.316 1032.37,236.425 1034.46,236.533 1036.54,236.642 1038.63,236.75 1040.71,236.857 1042.8,236.965 1044.89,237.072 1046.97,237.179 1049.06,237.285 
  1051.14,237.391 1053.23,237.497 1055.31,237.603 1057.4,237.708 1059.49,237.813 1061.57,237.918 1063.66,238.023 1065.74,238.127 1067.83,238.231 1069.91,238.334 
  1072,238.438 1074.08,238.541 1076.17,238.643 1078.26,238.746 1080.34,238.848 1082.43,238.95 1084.51,239.052 1086.6,239.153 1088.68,239.254 1090.77,239.355 
  1092.85,239.455 1094.94,239.556 1097.03,239.656 1099.11,239.755 1101.2,239.855 1103.28,239.954 1105.37,240.053 1107.45,240.151 1109.54,240.25 1111.62,240.348 
  1113.71,240.446 1115.8,240.543 1117.88,240.64 1119.97,240.737 1122.05,240.834 1124.14,240.93 1126.22,241.027 1128.31,241.123 1130.39,241.218 1132.48,241.314 
  1134.57,241.409 1136.65,241.504 1138.74,241.598 1140.82,241.693 1142.91,241.787 1144.99,241.881 1147.08,241.974 1149.16,242.068 1151.25,242.161 1153.34,242.253 
  1155.42,242.346 1157.51,242.438 1159.59,242.53 1161.68,242.622 1163.76,242.714 1165.85,242.805 1167.94,242.896 1170.02,242.987 1172.11,243.077 1174.19,243.168 
  1176.28,243.258 1178.36,243.347 1180.45,243.437 1182.53,243.526 1184.62,243.615 1186.71,243.704 1188.79,243.793 1190.88,243.881 1192.96,243.969 1195.05,244.057 
  1197.13,244.145 1199.22,244.232 1201.3,244.319 1203.39,244.406 1205.48,244.493 1207.56,244.579 1209.65,244.665 1211.73,244.751 1213.82,244.837 1215.9,244.922 
  1217.99,245.008 1220.07,245.093 1222.16,245.177 1224.25,245.262 1226.33,245.346 1228.42,245.43 1230.5,245.514 1232.59,245.598 1234.67,245.681 1236.76,245.764 
  1238.84,245.847 1240.93,245.93 1243.02,246.012 1245.1,246.094 1247.19,246.176 1249.27,246.258 1251.36,246.34 1253.44,246.421 1255.53,246.502 1257.62,246.583 
  1259.7,246.664 1261.79,246.744 1263.87,246.824 1265.96,246.904 1268.04,246.984 1270.13,247.064 1272.21,247.143 1274.3,247.222 1276.39,247.301 1278.47,247.38 
  1280.56,247.458 1282.64,247.536 1284.73,247.614 1286.81,247.692 1288.9,247.77 1290.98,247.847 1293.07,247.924 1295.16,248.001 1297.24,248.078 1299.33,248.155 
  1301.41,248.231 1303.5,248.307 1305.58,248.383 1307.67,248.459 1309.75,248.534 1311.84,248.61 1313.93,248.685 1316.01,248.76 1318.1,248.834 1320.18,248.909 
  1322.27,248.983 1324.35,249.057 1326.44,249.131 1328.52,249.204 1330.61,249.278 1332.7,249.351 1334.78,249.424 1336.87,249.497 1338.95,249.57 1341.04,249.642 
  1343.12,249.714 1345.21,249.786 1347.29,249.858 1349.38,249.93 1351.47,250.001 1353.55,250.073 1355.64,250.144 1357.72,250.214 1359.81,250.285 1361.89,250.356 
  1363.98,250.426 1366.07,250.496 1368.15,250.566 1370.24,250.636 1372.32,250.705 1374.41,250.774 1376.49,250.844 1378.58,250.912 1380.66,250.981 1382.75,251.05 
  1384.84,251.118 1386.92,251.186 1389.01,251.254 1391.09,251.322 1393.18,251.39 1395.26,251.457 1397.35,251.524 1399.43,251.592 1401.52,251.658 1403.61,251.725 
  1405.69,251.792 1407.78,251.858 1409.86,251.924 1411.95,251.99 1414.03,252.056 1416.12,252.121 1418.2,252.187 1420.29,252.252 1422.38,252.317 1424.46,252.382 
  1426.55,252.447 1428.63,252.511 1430.72,252.576 1432.8,252.64 1434.89,252.704 1436.97,252.768 1439.06,252.831 1441.15,252.895 1443.23,252.958 1445.32,253.021 
  1447.4,253.084 1449.49,253.147 1451.57,253.21 1453.66,253.272 1455.74,253.334 1457.83,253.396 1459.92,253.458 1462,253.52 1464.09,253.582 1466.17,253.643 
  1468.26,253.704 1470.34,253.765 1472.43,253.826 1474.52,253.887 1476.6,253.948 1478.69,254.008 1480.77,254.068 1482.86,254.128 1484.94,254.188 1487.03,254.248 
  1489.11,254.308 1491.2,254.367 1493.29,254.426 1495.37,254.485 1497.46,254.544 1499.54,254.603 1501.63,254.662 1503.71,254.72 1505.8,254.778 1507.88,254.836 
  1509.97,254.894 1512.06,254.952 1514.14,255.01 1516.23,255.067 1518.31,255.125 1520.4,255.182 1522.48,255.239 1524.57,255.296 1526.65,255.352 1528.74,255.409 
  1530.83,255.465 1532.91,255.522 1535,255.578 1537.08,255.634 1539.17,255.689 1541.25,255.745 1543.34,255.801 1545.42,255.856 1547.51,255.911 1549.6,255.966 
  1551.68,256.021 1553.77,256.076 1555.85,256.13 1557.94,256.185 1560.02,256.239 1562.11,256.293 1564.19,256.347 1566.28,256.401 1568.37,256.455 1570.45,256.508 
  1572.54,256.561 1574.62,256.615 1576.71,256.668 1578.79,256.721 1580.88,256.773 1582.97,256.826 1585.05,256.879 1587.14,256.931 1589.22,256.983 1591.31,257.035 
  1593.39,257.087 1595.48,257.139 1597.56,257.191 1599.65,257.242 1601.74,257.294 1603.82,257.345 1605.91,257.396 1607.99,257.447 1610.08,257.498 1612.16,257.548 
  1614.25,257.599 1616.33,257.649 1618.42,257.699 1620.51,257.749 1622.59,257.799 1624.68,257.849 1626.76,257.899 1628.85,257.948 1630.93,257.998 1633.02,258.047 
  1635.1,258.096 1637.19,258.145 1639.28,258.194 1641.36,258.243 1643.45,258.292 1645.53,258.34 1647.62,258.388 1649.7,258.437 1651.79,258.485 1653.87,258.533 
  1655.96,258.58 1658.05,258.628 1660.13,258.676 1662.22,258.723 1664.3,258.77 1666.39,258.818 1668.47,258.865 1670.56,258.911 1672.65,258.958 1674.73,259.005 
  1676.82,259.051 1678.9,259.098 1680.99,259.144 1683.07,259.19 1685.16,259.236 1687.24,259.282 1689.33,259.328 1691.42,259.373 1693.5,259.419 1695.59,259.464 
  1697.67,259.509 1699.76,259.555 1701.84,259.6 1703.93,259.644 1706.01,259.689 1708.1,259.734 1710.19,259.778 1712.27,259.823 1714.36,259.867 1716.44,259.911 
  1718.53,259.955 1720.61,259.999 1722.7,260.043 1724.78,260.086 1726.87,260.13 1728.96,260.173 1731.04,260.217 1733.13,260.26 1735.21,260.303 1737.3,260.346 
  1739.38,260.389 1741.47,260.431 1743.55,260.474 1745.64,260.516 1747.73,260.559 1749.81,260.601 1751.9,260.643 1753.98,260.685 1756.07,260.727 1758.15,260.769 
  1760.24,260.81 1762.32,260.852 1764.41,260.893 1766.5,260.935 1768.58,260.976 1770.67,261.017 1772.75,261.058 1774.84,261.099 1776.92,261.139 1779.01,261.18 
  1781.1,261.221 1783.18,261.261 1785.27,261.301 1787.35,261.342 1789.44,261.382 1791.52,261.422 1793.61,261.461 1795.69,261.501 1797.78,261.541 1799.87,261.58 
  1801.95,261.62 1804.04,261.659 1806.12,261.698 1808.21,261.737 1810.29,261.776 1812.38,261.815 1814.46,261.854 1816.55,261.893 1818.64,261.931 1820.72,261.97 
  1822.81,262.008 1824.89,262.046 1826.98,262.084 1829.06,262.122 1831.15,262.16 1833.23,262.198 1835.32,262.236 1837.41,262.274 1839.49,262.311 1841.58,262.348 
  1843.66,262.386 1845.75,262.423 1847.83,262.46 1849.92,262.497 1852,262.534 1854.09,262.571 1856.18,262.607 1858.26,262.644 1860.35,262.681 1862.43,262.717 
  1864.52,262.753 1866.6,262.789 1868.69,262.826 1870.77,262.862 1872.86,262.897 1874.95,262.933 1877.03,262.969 1879.12,263.005 1881.2,263.04 1883.29,263.075 
  1885.37,263.111 1887.46,263.146 1889.55,263.181 1891.63,263.216 1893.72,263.251 1895.8,263.286 1897.89,263.321 1899.97,263.355 1902.06,263.39 1904.14,263.424 
  1906.23,263.459 1908.32,263.493 1910.4,263.527 1912.49,263.561 1914.57,263.595 1916.66,263.629 1918.74,263.663 1920.83,263.696 1922.91,263.73 1925,263.764 
  1927.09,263.797 1929.17,263.83 1931.26,263.864 1933.34,263.897 1935.43,263.93 1937.51,263.963 1939.6,263.996 1941.68,264.028 1943.77,264.061 1945.86,264.094 
  1947.94,264.126 1950.03,264.159 1952.11,264.191 1954.2,264.223 1956.28,264.255 1958.37,264.287 1960.45,264.319 1962.54,264.351 1964.63,264.383 1966.71,264.415 
  1968.8,264.447 1970.88,264.478 1972.97,264.51 1975.05,264.541 1977.14,264.572 1979.23,264.603 1981.31,264.635 1983.4,264.666 1985.48,264.697 1987.57,264.727 
  1989.65,264.758 1991.74,264.789 1993.82,264.819 1995.91,264.85 1998,264.88 2000.08,264.911 2002.17,264.941 2004.25,264.971 2006.34,265.001 2008.42,265.031 
  2010.51,265.061 2012.59,265.091 2014.68,265.121 2016.77,265.151 2018.85,265.18 2020.94,265.21 2023.02,265.239 2025.11,265.269 2027.19,265.298 2029.28,265.327 
  2031.36,265.356 2033.45,265.385 2035.54,265.414 2037.62,265.443 2039.71,265.472 2041.79,265.501 2043.88,265.529 2045.96,265.558 2048.05,265.586 2050.13,265.615 
  2052.22,265.643 2054.31,265.671 2056.39,265.7 2058.48,265.728 2060.56,265.756 2062.65,265.784 2064.73,265.812 2066.82,265.839 2068.9,265.867 2070.99,265.895 
  2073.08,265.922 2075.16,265.95 2077.25,265.977 2079.33,266.005 2081.42,266.032 2083.5,266.059 2085.59,266.086 2087.68,266.113 2089.76,266.14 2091.85,266.167 
  2093.93,266.194 2096.02,266.221 2098.1,266.247 2100.19,266.274 2102.27,266.3 2104.36,266.327 2106.45,266.353 2108.53,266.38 2110.62,266.406 2112.7,266.432 
  2114.79,266.458 2116.87,266.484 2118.96,266.51 2121.04,266.536 2123.13,266.562 2125.22,266.587 2127.3,266.613 2129.39,266.639 2131.47,266.664 2133.56,266.69 
  2135.64,266.715 2137.73,266.74 2139.81,266.766 2141.9,266.791 2143.99,266.816 2146.07,266.841 2148.16,266.866 2150.24,266.891 2152.33,266.916 2154.41,266.94 
  2156.5,266.965 2158.58,266.99 2160.67,267.014 2162.76,267.039 2164.84,267.063 2166.93,267.087 2169.01,267.112 2171.1,267.136 2173.18,267.16 2175.27,267.184 
  2177.35,267.208 2179.44,267.232 2181.53,267.256 2183.61,267.28 2185.7,267.304 2187.78,267.327 2189.87,267.351 2191.95,267.375 2194.04,267.398 2196.13,267.421 
  2198.21,267.445 2200.3,267.468 2202.38,267.491 2204.47,267.515 2206.55,267.538 2208.64,267.561 2210.72,267.584 2212.81,267.607 2214.9,267.629 2216.98,267.652 
  2219.07,267.675 2221.15,267.698 2223.24,267.72 2225.32,267.743 2227.41,267.765 2229.49,267.788 2231.58,267.81 2233.67,267.832 2235.75,267.855 2237.84,267.877 
  2239.92,267.899 2242.01,267.921 2244.09,267.943 2246.18,267.965 2248.26,267.987 2250.35,268.009 2252.44,268.03 2254.52,268.052 2256.61,268.074 2258.69,268.095 
  2260.78,268.117 2262.86,268.138 2264.95,268.16 2267.03,268.181 2269.12,268.202 2271.21,268.223 2273.29,268.245 2275.38,268.266 2277.46,268.287 2279.55,268.308 
  2281.63,268.329 2283.72,268.35 2285.81,268.37 2287.89,268.391 2289.98,268.412 2292.06,268.432 2294.15,268.453 2296.23,268.474 2298.32,268.494 2300.4,268.515 
  2302.49,268.535 2304.58,268.555 2306.66,268.575 2308.75,268.596 2310.83,268.616 2312.92,268.636 2315,268.656 2317.09,268.676 2319.17,268.696 2321.26,268.716 
  
  "/>
<polygon clip-path="url(#clip2101)" points="
1910.3,390.944 2249.26,390.944 2249.26,209.504 1910.3,209.504 
  " fill="#ffffff" fill-rule="evenodd" fill-opacity="1"/>
<polyline clip-path="url(#clip2101)" style="stroke:#000000; stroke-width:4; stroke-opacity:1; fill:none" points="
  1910.3,390.944 2249.26,390.944 2249.26,209.504 1910.3,209.504 1910.3,390.944 
  "/>
<polyline clip-path="url(#clip2101)" style="stroke:#009af9; stroke-width:12; stroke-opacity:1; fill:none" points="
  1934.3,269.984 2078.3,269.984 
  "/>
<g clip-path="url(#clip2101)">
<text style="fill:#000000; fill-opacity:1; font-family:Arial,Helvetica Neue,Helvetica,sans-serif; font-size:48px; text-anchor:start;" transform="rotate(0, 2102.3, 287.484)" x="2102.3" y="287.484">u1(t)</text>
</g>
<polyline clip-path="url(#clip2101)" style="stroke:#e26f46; stroke-width:12; stroke-opacity:1; fill:none" points="
  1934.3,330.464 2078.3,330.464 
  "/>
<g clip-path="url(#clip2101)">
<text style="fill:#000000; fill-opacity:1; font-family:Arial,Helvetica Neue,Helvetica,sans-serif; font-size:48px; text-anchor:start;" transform="rotate(0, 2102.3, 347.964)" x="2102.3" y="347.964">u2(t)</text>
</g>
</svg>
