<?xml version="1.0" encoding="utf-8"?>
<svg xmlns="http://www.w3.org/2000/svg" xmlns:xlink="http://www.w3.org/1999/xlink" width="600" height="400" viewBox="0 0 2400 1600">
<defs>
  <clipPath id="clip2300">
    <rect x="0" y="0" width="2000" height="2000"/>
  </clipPath>
</defs>
<defs>
  <clipPath id="clip2301">
    <rect x="0" y="0" width="2400" height="1600"/>
  </clipPath>
</defs>
<polygon clip-path="url(#clip2301)" points="
0,1600 2400,1600 2400,0 0,0 
  " fill="#ffffff" fill-rule="evenodd" fill-opacity="1"/>
<defs>
  <clipPath id="clip2302">
    <rect x="480" y="0" width="1681" height="1600"/>
  </clipPath>
</defs>
<polygon clip-path="url(#clip2301)" points="
237.767,1440.48 2321.26,1440.48 2321.26,125.984 237.767,125.984 
  " fill="#ffffff" fill-rule="evenodd" fill-opacity="1"/>
<defs>
  <clipPath id="clip2303">
    <rect x="237" y="125" width="2084" height="1315"/>
  </clipPath>
</defs>
<polyline clip-path="url(#clip2303)" style="stroke:#000000; stroke-width:2; stroke-opacity:0.1; fill:none" points="
  237.767,1440.48 237.767,125.984 
  "/>
<polyline clip-path="url(#clip2303)" style="stroke:#000000; stroke-width:2; stroke-opacity:0.1; fill:none" points="
  654.466,1440.48 654.466,125.984 
  "/>
<polyline clip-path="url(#clip2303)" style="stroke:#000000; stroke-width:2; stroke-opacity:0.1; fill:none" points="
  1071.16,1440.48 1071.16,125.984 
  "/>
<polyline clip-path="url(#clip2303)" style="stroke:#000000; stroke-width:2; stroke-opacity:0.1; fill:none" points="
  1487.86,1440.48 1487.86,125.984 
  "/>
<polyline clip-path="url(#clip2303)" style="stroke:#000000; stroke-width:2; stroke-opacity:0.1; fill:none" points="
  1904.56,1440.48 1904.56,125.984 
  "/>
<polyline clip-path="url(#clip2303)" style="stroke:#000000; stroke-width:2; stroke-opacity:0.1; fill:none" points="
  2321.26,1440.48 2321.26,125.984 
  "/>
<polyline clip-path="url(#clip2303)" style="stroke:#000000; stroke-width:2; stroke-opacity:0.1; fill:none" points="
  237.767,1403.28 2321.26,1403.28 
  "/>
<polyline clip-path="url(#clip2303)" style="stroke:#000000; stroke-width:2; stroke-opacity:0.1; fill:none" points="
  237.767,1093.26 2321.26,1093.26 
  "/>
<polyline clip-path="url(#clip2303)" style="stroke:#000000; stroke-width:2; stroke-opacity:0.1; fill:none" points="
  237.767,783.233 2321.26,783.233 
  "/>
<polyline clip-path="url(#clip2303)" style="stroke:#000000; stroke-width:2; stroke-opacity:0.1; fill:none" points="
  237.767,473.21 2321.26,473.21 
  "/>
<polyline clip-path="url(#clip2303)" style="stroke:#000000; stroke-width:2; stroke-opacity:0.1; fill:none" points="
  237.767,163.187 2321.26,163.187 
  "/>
<polyline clip-path="url(#clip2301)" style="stroke:#000000; stroke-width:4; stroke-opacity:1; fill:none" points="
  237.767,1440.48 2321.26,1440.48 
  "/>
<polyline clip-path="url(#clip2301)" style="stroke:#000000; stroke-width:4; stroke-opacity:1; fill:none" points="
  237.767,1440.48 237.767,125.984 
  "/>
<polyline clip-path="url(#clip2301)" style="stroke:#000000; stroke-width:4; stroke-opacity:1; fill:none" points="
  237.767,1440.48 237.767,1420.77 
  "/>
<polyline clip-path="url(#clip2301)" style="stroke:#000000; stroke-width:4; stroke-opacity:1; fill:none" points="
  654.466,1440.48 654.466,1420.77 
  "/>
<polyline clip-path="url(#clip2301)" style="stroke:#000000; stroke-width:4; stroke-opacity:1; fill:none" points="
  1071.16,1440.48 1071.16,1420.77 
  "/>
<polyline clip-path="url(#clip2301)" style="stroke:#000000; stroke-width:4; stroke-opacity:1; fill:none" points="
  1487.86,1440.48 1487.86,1420.77 
  "/>
<polyline clip-path="url(#clip2301)" style="stroke:#000000; stroke-width:4; stroke-opacity:1; fill:none" points="
  1904.56,1440.48 1904.56,1420.77 
  "/>
<polyline clip-path="url(#clip2301)" style="stroke:#000000; stroke-width:4; stroke-opacity:1; fill:none" points="
  2321.26,1440.48 2321.26,1420.77 
  "/>
<polyline clip-path="url(#clip2301)" style="stroke:#000000; stroke-width:4; stroke-opacity:1; fill:none" points="
  237.767,1403.28 269.02,1403.28 
  "/>
<polyline clip-path="url(#clip2301)" style="stroke:#000000; stroke-width:4; stroke-opacity:1; fill:none" points="
  237.767,1093.26 269.02,1093.26 
  "/>
<polyline clip-path="url(#clip2301)" style="stroke:#000000; stroke-width:4; stroke-opacity:1; fill:none" points="
  237.767,783.233 269.02,783.233 
  "/>
<polyline clip-path="url(#clip2301)" style="stroke:#000000; stroke-width:4; stroke-opacity:1; fill:none" points="
  237.767,473.21 269.02,473.21 
  "/>
<polyline clip-path="url(#clip2301)" style="stroke:#000000; stroke-width:4; stroke-opacity:1; fill:none" points="
  237.767,163.187 269.02,163.187 
  "/>
<g clip-path="url(#clip2301)">
<text style="fill:#000000; fill-opacity:1; font-family:Arial,Helvetica Neue,Helvetica,sans-serif; font-size:48px; text-anchor:middle;" transform="rotate(0, 237.767, 1494.48)" x="237.767" y="1494.48">0</text>
</g>
<g clip-path="url(#clip2301)">
<text style="fill:#000000; fill-opacity:1; font-family:Arial,Helvetica Neue,Helvetica,sans-serif; font-size:48px; text-anchor:middle;" transform="rotate(0, 654.466, 1494.48)" x="654.466" y="1494.48">10</text>
</g>
<g clip-path="url(#clip2301)">
<text style="fill:#000000; fill-opacity:1; font-family:Arial,Helvetica Neue,Helvetica,sans-serif; font-size:48px; text-anchor:middle;" transform="rotate(0, 1071.16, 1494.48)" x="1071.16" y="1494.48">20</text>
</g>
<g clip-path="url(#clip2301)">
<text style="fill:#000000; fill-opacity:1; font-family:Arial,Helvetica Neue,Helvetica,sans-serif; font-size:48px; text-anchor:middle;" transform="rotate(0, 1487.86, 1494.48)" x="1487.86" y="1494.48">30</text>
</g>
<g clip-path="url(#clip2301)">
<text style="fill:#000000; fill-opacity:1; font-family:Arial,Helvetica Neue,Helvetica,sans-serif; font-size:48px; text-anchor:middle;" transform="rotate(0, 1904.56, 1494.48)" x="1904.56" y="1494.48">40</text>
</g>
<g clip-path="url(#clip2301)">
<text style="fill:#000000; fill-opacity:1; font-family:Arial,Helvetica Neue,Helvetica,sans-serif; font-size:48px; text-anchor:middle;" transform="rotate(0, 2321.26, 1494.48)" x="2321.26" y="1494.48">50</text>
</g>
<g clip-path="url(#clip2301)">
<text style="fill:#000000; fill-opacity:1; font-family:Arial,Helvetica Neue,Helvetica,sans-serif; font-size:48px; text-anchor:end;" transform="rotate(0, 213.767, 1420.78)" x="213.767" y="1420.78">0</text>
</g>
<g clip-path="url(#clip2301)">
<text style="fill:#000000; fill-opacity:1; font-family:Arial,Helvetica Neue,Helvetica,sans-serif; font-size:48px; text-anchor:end;" transform="rotate(0, 213.767, 1110.76)" x="213.767" y="1110.76">25</text>
</g>
<g clip-path="url(#clip2301)">
<text style="fill:#000000; fill-opacity:1; font-family:Arial,Helvetica Neue,Helvetica,sans-serif; font-size:48px; text-anchor:end;" transform="rotate(0, 213.767, 800.733)" x="213.767" y="800.733">50</text>
</g>
<g clip-path="url(#clip2301)">
<text style="fill:#000000; fill-opacity:1; font-family:Arial,Helvetica Neue,Helvetica,sans-serif; font-size:48px; text-anchor:end;" transform="rotate(0, 213.767, 490.71)" x="213.767" y="490.71">75</text>
</g>
<g clip-path="url(#clip2301)">
<text style="fill:#000000; fill-opacity:1; font-family:Arial,Helvetica Neue,Helvetica,sans-serif; font-size:48px; text-anchor:end;" transform="rotate(0, 213.767, 180.687)" x="213.767" y="180.687">100</text>
</g>
<g clip-path="url(#clip2301)">
<text style="fill:#000000; fill-opacity:1; font-family:Arial,Helvetica Neue,Helvetica,sans-serif; font-size:84px; text-anchor:middle;" transform="rotate(0, 1279.51, 73.2)" x="1279.51" y="73.2">Parallel flow with ratio 500.0</text>
</g>
<g clip-path="url(#clip2301)">
<text style="fill:#000000; fill-opacity:1; font-family:Arial,Helvetica Neue,Helvetica,sans-serif; font-size:66px; text-anchor:middle;" transform="rotate(0, 1279.51, 1590.4)" x="1279.51" y="1590.4">x (m)</text>
</g>
<g clip-path="url(#clip2301)">
<text style="fill:#000000; fill-opacity:1; font-family:Arial,Helvetica Neue,Helvetica,sans-serif; font-size:66px; text-anchor:middle;" transform="rotate(-90, 57.6, 783.233)" x="57.6" y="783.233">T °C</text>
</g>
<polyline clip-path="url(#clip2303)" style="stroke:#009af9; stroke-width:12; stroke-opacity:1; fill:none" points="
  237.767,1403.28 239.853,1400.18 241.938,1397.09 244.024,1394 246.11,1390.93 248.195,1387.86 250.281,1384.8 252.366,1381.75 254.452,1378.7 256.538,1375.66 
  258.623,1372.63 260.709,1369.61 262.794,1366.59 264.88,1363.59 266.965,1360.59 269.051,1357.59 271.137,1354.61 273.222,1351.63 275.308,1348.66 277.393,1345.7 
  279.479,1342.74 281.564,1339.8 283.65,1336.86 285.736,1333.92 287.821,1331 289.907,1328.08 291.992,1325.17 294.078,1322.26 296.164,1319.37 298.249,1316.48 
  300.335,1313.6 302.42,1310.72 304.506,1307.85 306.591,1304.99 308.677,1302.14 310.763,1299.29 312.848,1296.45 314.934,1293.62 317.019,1290.8 319.105,1287.98 
  321.19,1285.17 323.276,1282.37 325.362,1279.57 327.447,1276.78 329.533,1274 331.618,1271.22 333.704,1268.45 335.79,1265.69 337.875,1262.94 339.961,1260.19 
  342.046,1257.45 344.132,1254.71 346.217,1251.98 348.303,1249.26 350.389,1246.55 352.474,1243.84 354.56,1241.14 356.645,1238.45 358.731,1235.76 360.816,1233.08 
  362.902,1230.41 364.988,1227.74 367.073,1225.08 369.159,1222.43 371.244,1219.78 373.33,1217.14 375.415,1214.51 377.501,1211.88 379.587,1209.26 381.672,1206.65 
  383.758,1204.04 385.843,1201.44 387.929,1198.85 390.015,1196.26 392.1,1193.68 394.186,1191.11 396.271,1188.54 398.357,1185.98 400.442,1183.42 402.528,1180.87 
  404.614,1178.33 406.699,1175.79 408.785,1173.26 410.87,1170.74 412.956,1168.22 415.041,1165.71 417.127,1163.21 419.213,1160.71 421.298,1158.22 423.384,1155.73 
  425.469,1153.25 427.555,1150.78 429.641,1148.31 431.726,1145.85 433.812,1143.4 435.897,1140.95 437.983,1138.51 440.068,1136.07 442.154,1133.64 444.24,1131.21 
  446.325,1128.8 448.411,1126.38 450.496,1123.98 452.582,1121.58 454.667,1119.18 456.753,1116.8 458.839,1114.41 460.924,1112.04 463.01,1109.67 465.095,1107.3 
  467.181,1104.95 469.267,1102.59 471.352,1100.25 473.438,1097.91 475.523,1095.57 477.609,1093.24 479.694,1090.92 481.78,1088.6 483.866,1086.29 485.951,1083.99 
  488.037,1081.69 490.122,1079.39 492.208,1077.1 494.293,1074.82 496.379,1072.54 498.465,1070.27 500.55,1068.01 502.636,1065.75 504.721,1063.49 506.807,1061.25 
  508.892,1059 510.978,1056.77 513.064,1054.53 515.149,1052.31 517.235,1050.09 519.32,1047.87 521.406,1045.66 523.492,1043.46 525.577,1041.26 527.663,1039.07 
  529.748,1036.88 531.834,1034.7 533.919,1032.52 536.005,1030.35 538.091,1028.19 540.176,1026.03 542.262,1023.87 544.347,1021.72 546.433,1019.58 548.518,1017.44 
  550.604,1015.31 552.69,1013.18 554.775,1011.06 556.861,1008.94 558.946,1006.83 561.032,1004.72 563.118,1002.62 565.203,1000.52 567.289,998.432 569.374,996.346 
  571.46,994.266 573.545,992.191 575.631,990.121 577.717,988.056 579.802,985.997 581.888,983.942 583.973,981.893 586.059,979.849 588.144,977.81 590.23,975.776 
  592.316,973.747 594.401,971.723 596.487,969.705 598.572,967.691 600.658,965.683 602.743,963.679 604.829,961.681 606.915,959.687 609,957.699 611.086,955.715 
  613.171,953.736 615.257,951.763 617.343,949.794 619.428,947.83 621.514,945.871 623.599,943.918 625.685,941.969 627.77,940.024 629.856,938.085 631.942,936.151 
  634.027,934.221 636.113,932.296 638.198,930.376 640.284,928.461 642.369,926.551 644.455,924.645 646.541,922.745 648.626,920.849 650.712,918.957 652.797,917.071 
  654.883,915.189 656.969,913.312 659.054,911.439 661.14,909.572 663.225,907.709 665.311,905.85 667.396,903.997 669.482,902.148 671.568,900.303 673.653,898.463 
  675.739,896.628 677.824,894.797 679.91,892.971 681.995,891.15 684.081,889.333 686.167,887.521 688.252,885.713 690.338,883.91 692.423,882.111 694.509,880.317 
  696.595,878.527 698.68,876.741 700.766,874.961 702.851,873.184 704.937,871.412 707.022,869.645 709.108,867.882 711.194,866.123 713.279,864.369 715.365,862.619 
  717.45,860.874 719.536,859.133 721.621,857.396 723.707,855.664 725.793,853.936 727.878,852.212 729.964,850.493 732.049,848.777 734.135,847.067 736.22,845.36 
  738.306,843.658 740.392,841.96 742.477,840.266 744.563,838.577 746.648,836.892 748.734,835.211 750.82,833.534 752.905,831.861 754.991,830.193 757.076,828.529 
  759.162,826.869 761.247,825.213 763.333,823.561 765.419,821.913 767.504,820.27 769.59,818.631 771.675,816.995 773.761,815.364 775.846,813.737 777.932,812.114 
  780.018,810.495 782.103,808.88 784.189,807.269 786.274,805.663 788.36,804.06 790.446,802.461 792.531,800.866 794.617,799.275 796.702,797.689 798.788,796.106 
  800.873,794.527 802.959,792.952 805.045,791.381 807.13,789.814 809.216,788.251 811.301,786.692 813.387,785.137 815.472,783.585 817.558,782.038 819.644,780.494 
  821.729,778.954 823.815,777.418 825.9,775.886 827.986,774.358 830.072,772.834 832.157,771.313 834.243,769.796 836.328,768.283 838.414,766.774 840.499,765.269 
  842.585,763.767 844.671,762.269 846.756,760.775 848.842,759.285 850.927,757.798 853.013,756.315 855.098,754.836 857.184,753.361 859.27,751.889 861.355,750.421 
  863.441,748.956 865.526,747.495 867.612,746.038 869.697,744.585 871.783,743.135 873.869,741.689 875.954,740.246 878.04,738.807 880.125,737.372 882.211,735.94 
  884.297,734.512 886.382,733.087 888.468,731.666 890.553,730.249 892.639,728.835 894.724,727.424 896.81,726.018 898.896,724.614 900.981,723.214 903.067,721.818 
  905.152,720.425 907.238,719.036 909.323,717.65 911.409,716.268 913.495,714.889 915.58,713.513 917.666,712.141 919.751,710.772 921.837,709.407 923.923,708.046 
  926.008,706.687 928.094,705.332 930.179,703.981 932.265,702.632 934.35,701.288 936.436,699.946 938.522,698.608 940.607,697.273 942.693,695.942 944.778,694.614 
  946.864,693.289 948.949,691.968 951.035,690.65 953.121,689.335 955.206,688.023 957.292,686.715 959.377,685.41 961.463,684.109 963.549,682.81 965.634,681.515 
  967.72,680.223 969.805,678.934 971.891,677.649 973.976,676.367 976.062,675.088 978.148,673.812 980.233,672.539 982.319,671.27 984.404,670.004 986.49,668.741 
  988.575,667.481 990.661,666.224 992.747,664.97 994.832,663.72 996.918,662.473 999.003,661.228 1001.09,659.987 1003.17,658.749 1005.26,657.514 1007.35,656.283 
  1009.43,655.054 1011.52,653.828 1013.6,652.606 1015.69,651.386 1017.77,650.17 1019.86,648.956 1021.94,647.746 1024.03,646.539 1026.12,645.334 1028.2,644.133 
  1030.29,642.935 1032.37,641.74 1034.46,640.547 1036.54,639.358 1038.63,638.172 1040.71,636.988 1042.8,635.808 1044.89,634.631 1046.97,633.456 1049.06,632.285 
  1051.14,631.116 1053.23,629.951 1055.31,628.788 1057.4,627.628 1059.49,626.471 1061.57,625.317 1063.66,624.166 1065.74,623.018 1067.83,621.872 1069.91,620.73 
  1072,619.59 1074.08,618.453 1076.17,617.319 1078.26,616.188 1080.34,615.06 1082.43,613.935 1084.51,612.812 1086.6,611.692 1088.68,610.575 1090.77,609.461 
  1092.85,608.35 1094.94,607.241 1097.03,606.135 1099.11,605.032 1101.2,603.932 1103.28,602.834 1105.37,601.739 1107.45,600.647 1109.54,599.558 1111.62,598.471 
  1113.71,597.388 1115.8,596.306 1117.88,595.228 1119.97,594.152 1122.05,593.079 1124.14,592.009 1126.22,590.941 1128.31,589.876 1130.39,588.814 1132.48,587.754 
  1134.57,586.697 1136.65,585.642 1138.74,584.591 1140.82,583.542 1142.91,582.495 1144.99,581.451 1147.08,580.41 1149.16,579.371 1151.25,578.335 1153.34,577.302 
  1155.42,576.271 1157.51,575.243 1159.59,574.217 1161.68,573.194 1163.76,572.173 1165.85,571.155 1167.94,570.14 1170.02,569.127 1172.11,568.116 1174.19,567.108 
  1176.28,566.103 1178.36,565.1 1180.45,564.1 1182.53,563.102 1184.62,562.107 1186.71,561.114 1188.79,560.123 1190.88,559.136 1192.96,558.15 1195.05,557.167 
  1197.13,556.187 1199.22,555.209 1201.3,554.233 1203.39,553.26 1205.48,552.289 1207.56,551.321 1209.65,550.355 1211.73,549.392 1213.82,548.431 1215.9,547.472 
  1217.99,546.516 1220.07,545.562 1222.16,544.611 1224.25,543.662 1226.33,542.715 1228.42,541.771 1230.5,540.829 1232.59,539.889 1234.67,538.952 1236.76,538.017 
  1238.84,537.085 1240.93,536.154 1243.02,535.226 1245.1,534.301 1247.19,533.378 1249.27,532.457 1251.36,531.538 1253.44,530.622 1255.53,529.708 1257.62,528.796 
  1259.7,527.886 1261.79,526.979 1263.87,526.074 1265.96,525.172 1268.04,524.271 1270.13,523.373 1272.21,522.477 1274.3,521.584 1276.39,520.692 1278.47,519.803 
  1280.56,518.916 1282.64,518.031 1284.73,517.149 1286.81,516.268 1288.9,515.39 1290.98,514.514 1293.07,513.641 1295.16,512.769 1297.24,511.9 1299.33,511.033 
  1301.41,510.168 1303.5,509.305 1305.58,508.444 1307.67,507.586 1309.75,506.729 1311.84,505.875 1313.93,505.023 1316.01,504.173 1318.1,503.325 1320.18,502.48 
  1322.27,501.636 1324.35,500.795 1326.44,499.955 1328.52,499.118 1330.61,498.283 1332.7,497.45 1334.78,496.619 1336.87,495.79 1338.95,494.963 1341.04,494.138 
  1343.12,493.316 1345.21,492.495 1347.29,491.677 1349.38,490.86 1351.47,490.046 1353.55,489.233 1355.64,488.423 1357.72,487.615 1359.81,486.808 1361.89,486.004 
  1363.98,485.202 1366.07,484.402 1368.15,483.603 1370.24,482.807 1372.32,482.013 1374.41,481.221 1376.49,480.43 1378.58,479.642 1380.66,478.856 1382.75,478.071 
  1384.84,477.289 1386.92,476.508 1389.01,475.73 1391.09,474.954 1393.18,474.179 1395.26,473.406 1397.35,472.636 1399.43,471.867 1401.52,471.1 1403.61,470.335 
  1405.69,469.572 1407.78,468.811 1409.86,468.052 1411.95,467.295 1414.03,466.539 1416.12,465.786 1418.2,465.034 1420.29,464.284 1422.38,463.537 1424.46,462.791 
  1426.55,462.047 1428.63,461.304 1430.72,460.564 1432.8,459.825 1434.89,459.089 1436.97,458.354 1439.06,457.621 1441.15,456.89 1443.23,456.161 1445.32,455.433 
  1447.4,454.707 1449.49,453.984 1451.57,453.262 1453.66,452.541 1455.74,451.823 1457.83,451.106 1459.92,450.392 1462,449.679 1464.09,448.967 1466.17,448.258 
  1468.26,447.55 1470.34,446.844 1472.43,446.14 1474.52,445.438 1476.6,444.737 1478.69,444.038 1480.77,443.341 1482.86,442.646 1484.94,441.952 1487.03,441.26 
  1489.11,440.57 1491.2,439.882 1493.29,439.195 1495.37,438.51 1497.46,437.827 1499.54,437.145 1501.63,436.465 1503.71,435.787 1505.8,435.111 1507.88,434.436 
  1509.97,433.763 1512.06,433.092 1514.14,432.422 1516.23,431.754 1518.31,431.088 1520.4,430.423 1522.48,429.76 1524.57,429.098 1526.65,428.439 1528.74,427.781 
  1530.83,427.124 1532.91,426.47 1535,425.816 1537.08,425.165 1539.17,424.515 1541.25,423.867 1543.34,423.22 1545.42,422.575 1547.51,421.932 1549.6,421.29 
  1551.68,420.65 1553.77,420.011 1555.85,419.374 1557.94,418.739 1560.02,418.105 1562.11,417.473 1564.19,416.843 1566.28,416.214 1568.37,415.586 1570.45,414.96 
  1572.54,414.336 1574.62,413.713 1576.71,413.092 1578.79,412.472 1580.88,411.854 1582.97,411.238 1585.05,410.623 1587.14,410.009 1589.22,409.397 1591.31,408.787 
  1593.39,408.178 1595.48,407.571 1597.56,406.965 1599.65,406.361 1601.74,405.758 1603.82,405.157 1605.91,404.557 1607.99,403.958 1610.08,403.362 1612.16,402.766 
  1614.25,402.173 1616.33,401.58 1618.42,400.989 1620.51,400.4 1622.59,399.812 1624.68,399.226 1626.76,398.641 1628.85,398.057 1630.93,397.475 1633.02,396.895 
  1635.1,396.315 1637.19,395.738 1639.28,395.161 1641.36,394.587 1643.45,394.013 1645.53,393.441 1647.62,392.871 1649.7,392.302 1651.79,391.734 1653.87,391.168 
  1655.96,390.603 1658.05,390.04 1660.13,389.478 1662.22,388.917 1664.3,388.358 1666.39,387.8 1668.47,387.244 1670.56,386.689 1672.65,386.135 1674.73,385.583 
  1676.82,385.032 1678.9,384.482 1680.99,383.934 1683.07,383.388 1685.16,382.842 1687.24,382.298 1689.33,381.756 1691.42,381.214 1693.5,380.674 1695.59,380.136 
  1697.67,379.599 1699.76,379.063 1701.84,378.528 1703.93,377.995 1706.01,377.463 1708.1,376.933 1710.19,376.404 1712.27,375.876 1714.36,375.349 1716.44,374.824 
  1718.53,374.3 1720.61,373.777 1722.7,373.256 1724.78,372.736 1726.87,372.217 1728.96,371.7 1731.04,371.184 1733.13,370.669 1735.21,370.156 1737.3,369.644 
  1739.38,369.133 1741.47,368.623 1743.55,368.115 1745.64,367.608 1747.73,367.102 1749.81,366.597 1751.9,366.094 1753.98,365.592 1756.07,365.091 1758.15,364.592 
  1760.24,364.093 1762.32,363.596 1764.41,363.101 1766.5,362.606 1768.58,362.113 1770.67,361.621 1772.75,361.13 1774.84,360.64 1776.92,360.152 1779.01,359.665 
  1781.1,359.179 1783.18,358.694 1785.27,358.211 1787.35,357.729 1789.44,357.248 1791.52,356.768 1793.61,356.289 1795.69,355.812 1797.78,355.335 1799.87,354.86 
  1801.95,354.387 1804.04,353.914 1806.12,353.442 1808.21,352.972 1810.29,352.503 1812.38,352.035 1814.46,351.568 1816.55,351.103 1818.64,350.638 1820.72,350.175 
  1822.81,349.713 1824.89,349.252 1826.98,348.792 1829.06,348.334 1831.15,347.876 1833.23,347.42 1835.32,346.965 1837.41,346.511 1839.49,346.058 1841.58,345.606 
  1843.66,345.155 1845.75,344.706 1847.83,344.258 1849.92,343.81 1852,343.364 1854.09,342.919 1856.18,342.475 1858.26,342.032 1860.35,341.591 1862.43,341.15 
  1864.52,340.711 1866.6,340.272 1868.69,339.835 1870.77,339.399 1872.86,338.964 1874.95,338.53 1877.03,338.097 1879.12,337.665 1881.2,337.235 1883.29,336.805 
  1885.37,336.376 1887.46,335.949 1889.55,335.523 1891.63,335.097 1893.72,334.673 1895.8,334.25 1897.89,333.828 1899.97,333.407 1902.06,332.986 1904.14,332.568 
  1906.23,332.15 1908.32,331.733 1910.4,331.317 1912.49,330.902 1914.57,330.488 1916.66,330.076 1918.74,329.664 1920.83,329.253 1922.91,328.844 1925,328.435 
  1927.09,328.027 1929.17,327.621 1931.26,327.215 1933.34,326.811 1935.43,326.407 1937.51,326.005 1939.6,325.603 1941.68,325.203 1943.77,324.803 1945.86,324.405 
  1947.94,324.007 1950.03,323.611 1952.11,323.216 1954.2,322.821 1956.28,322.428 1958.37,322.035 1960.45,321.643 1962.54,321.253 1964.63,320.863 1966.71,320.475 
  1968.8,320.087 1970.88,319.7 1972.97,319.315 1975.05,318.93 1977.14,318.546 1979.23,318.163 1981.31,317.782 1983.4,317.401 1985.48,317.021 1987.57,316.642 
  1989.65,316.264 1991.74,315.887 1993.82,315.511 1995.91,315.135 1998,314.761 2000.08,314.388 2002.17,314.015 2004.25,313.644 2006.34,313.273 2008.42,312.904 
  2010.51,312.535 2012.59,312.167 2014.68,311.8 2016.77,311.434 2018.85,311.069 2020.94,310.705 2023.02,310.342 2025.11,309.98 2027.19,309.619 2029.28,309.258 
  2031.36,308.899 2033.45,308.54 2035.54,308.182 2037.62,307.825 2039.71,307.469 2041.79,307.114 2043.88,306.76 2045.96,306.407 2048.05,306.054 2050.13,305.703 
  2052.22,305.352 2054.31,305.002 2056.39,304.653 2058.48,304.305 2060.56,303.958 2062.65,303.612 2064.73,303.266 2066.82,302.922 2068.9,302.578 2070.99,302.235 
  2073.08,301.893 2075.16,301.552 2077.25,301.212 2079.33,300.872 2081.42,300.534 2083.5,300.196 2085.59,299.859 2087.68,299.523 2089.76,299.188 2091.85,298.853 
  2093.93,298.52 2096.02,298.187 2098.1,297.855 2100.19,297.524 2102.27,297.194 2104.36,296.864 2106.45,296.536 2108.53,296.208 2110.62,295.881 2112.7,295.555 
  2114.79,295.23 2116.87,294.905 2118.96,294.581 2121.04,294.259 2123.13,293.937 2125.22,293.615 2127.3,293.295 2129.39,292.975 2131.47,292.656 2133.56,292.338 
  2135.64,292.021 2137.73,291.705 2139.81,291.389 2141.9,291.074 2143.99,290.76 2146.07,290.447 2148.16,290.134 2150.24,289.822 2152.33,289.512 2154.41,289.201 
  2156.5,288.892 2158.58,288.583 2160.67,288.276 2162.76,287.968 2164.84,287.662 2166.93,287.357 2169.01,287.052 2171.1,286.748 2173.18,286.445 2175.27,286.142 
  2177.35,285.84 2179.44,285.539 2181.53,285.239 2183.61,284.94 2185.7,284.641 2187.78,284.343 2189.87,284.046 2191.95,283.749 2194.04,283.454 2196.13,283.159 
  2198.21,282.864 2200.3,282.571 2202.38,282.278 2204.47,281.986 2206.55,281.695 2208.64,281.404 2210.72,281.114 2212.81,280.825 2214.9,280.537 2216.98,280.249 
  2219.07,279.962 2221.15,279.676 2223.24,279.39 2225.32,279.105 2227.41,278.821 2229.49,278.538 2231.58,278.255 2233.67,277.973 2235.75,277.692 2237.84,277.412 
  2239.92,277.132 2242.01,276.852 2244.09,276.574 2246.18,276.296 2248.26,276.019 2250.35,275.743 2252.44,275.467 2254.52,275.192 2256.61,274.918 2258.69,274.644 
  2260.78,274.371 2262.86,274.099 2264.95,273.828 2267.03,273.557 2269.12,273.286 2271.21,273.017 2273.29,272.748 2275.38,272.48 2277.46,272.212 2279.55,271.945 
  2281.63,271.679 2283.72,271.414 2285.81,271.149 2287.89,270.885 2289.98,270.621 2292.06,270.358 2294.15,270.096 2296.23,269.835 2298.32,269.574 2300.4,269.314 
  2302.49,269.054 2304.58,268.795 2306.66,268.537 2308.75,268.279 2310.83,268.022 2312.92,267.766 2315,267.51 2317.09,267.255 2319.17,267.001 2321.26,266.747 
  
  "/>
<polyline clip-path="url(#clip2303)" style="stroke:#e26f46; stroke-width:12; stroke-opacity:1; fill:none" points="
  237.767,163.187 239.853,163.193 241.938,163.199 244.024,163.206 246.11,163.212 248.195,163.218 250.281,163.224 252.366,163.23 254.452,163.236 256.538,163.242 
  258.623,163.248 260.709,163.254 262.794,163.26 264.88,163.266 266.965,163.272 269.051,163.278 271.137,163.284 273.222,163.29 275.308,163.296 277.393,163.302 
  279.479,163.308 281.564,163.314 283.65,163.32 285.736,163.326 287.821,163.332 289.907,163.337 291.992,163.343 294.078,163.349 296.164,163.355 298.249,163.361 
  300.335,163.366 302.42,163.372 304.506,163.378 306.591,163.384 308.677,163.389 310.763,163.395 312.848,163.401 314.934,163.406 317.019,163.412 319.105,163.418 
  321.19,163.423 323.276,163.429 325.362,163.434 327.447,163.44 329.533,163.446 331.618,163.451 333.704,163.457 335.79,163.462 337.875,163.468 339.961,163.473 
  342.046,163.479 344.132,163.484 346.217,163.49 348.303,163.495 350.389,163.5 352.474,163.506 354.56,163.511 356.645,163.517 358.731,163.522 360.816,163.527 
  362.902,163.533 364.988,163.538 367.073,163.543 369.159,163.549 371.244,163.554 373.33,163.559 375.415,163.565 377.501,163.57 379.587,163.575 381.672,163.58 
  383.758,163.586 385.843,163.591 387.929,163.596 390.015,163.601 392.1,163.606 394.186,163.611 396.271,163.617 398.357,163.622 400.442,163.627 402.528,163.632 
  404.614,163.637 406.699,163.642 408.785,163.647 410.87,163.652 412.956,163.657 415.041,163.662 417.127,163.667 419.213,163.672 421.298,163.677 423.384,163.682 
  425.469,163.687 427.555,163.692 429.641,163.697 431.726,163.702 433.812,163.707 435.897,163.712 437.983,163.717 440.068,163.721 442.154,163.726 444.24,163.731 
  446.325,163.736 448.411,163.741 450.496,163.746 452.582,163.75 454.667,163.755 456.753,163.76 458.839,163.765 460.924,163.77 463.01,163.774 465.095,163.779 
  467.181,163.784 469.267,163.788 471.352,163.793 473.438,163.798 475.523,163.802 477.609,163.807 479.694,163.812 481.78,163.816 483.866,163.821 485.951,163.826 
  488.037,163.83 490.122,163.835 492.208,163.839 494.293,163.844 496.379,163.849 498.465,163.853 500.55,163.858 502.636,163.862 504.721,163.867 506.807,163.871 
  508.892,163.876 510.978,163.88 513.064,163.885 515.149,163.889 517.235,163.893 519.32,163.898 521.406,163.902 523.492,163.907 525.577,163.911 527.663,163.915 
  529.748,163.92 531.834,163.924 533.919,163.929 536.005,163.933 538.091,163.937 540.176,163.942 542.262,163.946 544.347,163.95 546.433,163.954 548.518,163.959 
  550.604,163.963 552.69,163.967 554.775,163.971 556.861,163.976 558.946,163.98 561.032,163.984 563.118,163.988 565.203,163.993 567.289,163.997 569.374,164.001 
  571.46,164.005 573.545,164.009 575.631,164.013 577.717,164.017 579.802,164.022 581.888,164.026 583.973,164.03 586.059,164.034 588.144,164.038 590.23,164.042 
  592.316,164.046 594.401,164.05 596.487,164.054 598.572,164.058 600.658,164.062 602.743,164.066 604.829,164.07 606.915,164.074 609,164.078 611.086,164.082 
  613.171,164.086 615.257,164.09 617.343,164.094 619.428,164.098 621.514,164.102 623.599,164.106 625.685,164.11 627.77,164.114 629.856,164.117 631.942,164.121 
  634.027,164.125 636.113,164.129 638.198,164.133 640.284,164.137 642.369,164.14 644.455,164.144 646.541,164.148 648.626,164.152 650.712,164.156 652.797,164.159 
  654.883,164.163 656.969,164.167 659.054,164.171 661.14,164.174 663.225,164.178 665.311,164.182 667.396,164.186 669.482,164.189 671.568,164.193 673.653,164.197 
  675.739,164.2 677.824,164.204 679.91,164.208 681.995,164.211 684.081,164.215 686.167,164.219 688.252,164.222 690.338,164.226 692.423,164.229 694.509,164.233 
  696.595,164.237 698.68,164.24 700.766,164.244 702.851,164.247 704.937,164.251 707.022,164.254 709.108,164.258 711.194,164.261 713.279,164.265 715.365,164.268 
  717.45,164.272 719.536,164.275 721.621,164.279 723.707,164.282 725.793,164.286 727.878,164.289 729.964,164.293 732.049,164.296 734.135,164.299 736.22,164.303 
  738.306,164.306 740.392,164.31 742.477,164.313 744.563,164.316 746.648,164.32 748.734,164.323 750.82,164.327 752.905,164.33 754.991,164.333 757.076,164.337 
  759.162,164.34 761.247,164.343 763.333,164.346 765.419,164.35 767.504,164.353 769.59,164.356 771.675,164.36 773.761,164.363 775.846,164.366 777.932,164.369 
  780.018,164.373 782.103,164.376 784.189,164.379 786.274,164.382 788.36,164.385 790.446,164.389 792.531,164.392 794.617,164.395 796.702,164.398 798.788,164.401 
  800.873,164.405 802.959,164.408 805.045,164.411 807.13,164.414 809.216,164.417 811.301,164.42 813.387,164.423 815.472,164.426 817.558,164.43 819.644,164.433 
  821.729,164.436 823.815,164.439 825.9,164.442 827.986,164.445 830.072,164.448 832.157,164.451 834.243,164.454 836.328,164.457 838.414,164.46 840.499,164.463 
  842.585,164.466 844.671,164.469 846.756,164.472 848.842,164.475 850.927,164.478 853.013,164.481 855.098,164.484 857.184,164.487 859.27,164.49 861.355,164.493 
  863.441,164.496 865.526,164.499 867.612,164.502 869.697,164.504 871.783,164.507 873.869,164.51 875.954,164.513 878.04,164.516 880.125,164.519 882.211,164.522 
  884.297,164.525 886.382,164.527 888.468,164.53 890.553,164.533 892.639,164.536 894.724,164.539 896.81,164.542 898.896,164.544 900.981,164.547 903.067,164.55 
  905.152,164.553 907.238,164.556 909.323,164.558 911.409,164.561 913.495,164.564 915.58,164.567 917.666,164.569 919.751,164.572 921.837,164.575 923.923,164.578 
  926.008,164.58 928.094,164.583 930.179,164.586 932.265,164.588 934.35,164.591 936.436,164.594 938.522,164.596 940.607,164.599 942.693,164.602 944.778,164.604 
  946.864,164.607 948.949,164.61 951.035,164.612 953.121,164.615 955.206,164.618 957.292,164.62 959.377,164.623 961.463,164.625 963.549,164.628 965.634,164.631 
  967.72,164.633 969.805,164.636 971.891,164.638 973.976,164.641 976.062,164.643 978.148,164.646 980.233,164.649 982.319,164.651 984.404,164.654 986.49,164.656 
  988.575,164.659 990.661,164.661 992.747,164.664 994.832,164.666 996.918,164.669 999.003,164.671 1001.09,164.674 1003.17,164.676 1005.26,164.679 1007.35,164.681 
  1009.43,164.683 1011.52,164.686 1013.6,164.688 1015.69,164.691 1017.77,164.693 1019.86,164.696 1021.94,164.698 1024.03,164.701 1026.12,164.703 1028.2,164.705 
  1030.29,164.708 1032.37,164.71 1034.46,164.713 1036.54,164.715 1038.63,164.717 1040.71,164.72 1042.8,164.722 1044.89,164.724 1046.97,164.727 1049.06,164.729 
  1051.14,164.731 1053.23,164.734 1055.31,164.736 1057.4,164.738 1059.49,164.741 1061.57,164.743 1063.66,164.745 1065.74,164.748 1067.83,164.75 1069.91,164.752 
  1072,164.754 1074.08,164.757 1076.17,164.759 1078.26,164.761 1080.34,164.763 1082.43,164.766 1084.51,164.768 1086.6,164.77 1088.68,164.772 1090.77,164.775 
  1092.85,164.777 1094.94,164.779 1097.03,164.781 1099.11,164.784 1101.2,164.786 1103.28,164.788 1105.37,164.79 1107.45,164.792 1109.54,164.794 1111.62,164.797 
  1113.71,164.799 1115.8,164.801 1117.88,164.803 1119.97,164.805 1122.05,164.807 1124.14,164.81 1126.22,164.812 1128.31,164.814 1130.39,164.816 1132.48,164.818 
  1134.57,164.82 1136.65,164.822 1138.74,164.824 1140.82,164.827 1142.91,164.829 1144.99,164.831 1147.08,164.833 1149.16,164.835 1151.25,164.837 1153.34,164.839 
  1155.42,164.841 1157.51,164.843 1159.59,164.845 1161.68,164.847 1163.76,164.849 1165.85,164.851 1167.94,164.853 1170.02,164.855 1172.11,164.857 1174.19,164.859 
  1176.28,164.861 1178.36,164.863 1180.45,164.865 1182.53,164.867 1184.62,164.869 1186.71,164.871 1188.79,164.873 1190.88,164.875 1192.96,164.877 1195.05,164.879 
  1197.13,164.881 1199.22,164.883 1201.3,164.885 1203.39,164.887 1205.48,164.889 1207.56,164.891 1209.65,164.893 1211.73,164.895 1213.82,164.897 1215.9,164.899 
  1217.99,164.901 1220.07,164.902 1222.16,164.904 1224.25,164.906 1226.33,164.908 1228.42,164.91 1230.5,164.912 1232.59,164.914 1234.67,164.916 1236.76,164.918 
  1238.84,164.919 1240.93,164.921 1243.02,164.923 1245.1,164.925 1247.19,164.927 1249.27,164.929 1251.36,164.931 1253.44,164.932 1255.53,164.934 1257.62,164.936 
  1259.7,164.938 1261.79,164.94 1263.87,164.941 1265.96,164.943 1268.04,164.945 1270.13,164.947 1272.21,164.949 1274.3,164.95 1276.39,164.952 1278.47,164.954 
  1280.56,164.956 1282.64,164.958 1284.73,164.959 1286.81,164.961 1288.9,164.963 1290.98,164.965 1293.07,164.966 1295.16,164.968 1297.24,164.97 1299.33,164.972 
  1301.41,164.973 1303.5,164.975 1305.58,164.977 1307.67,164.978 1309.75,164.98 1311.84,164.982 1313.93,164.984 1316.01,164.985 1318.1,164.987 1320.18,164.989 
  1322.27,164.99 1324.35,164.992 1326.44,164.994 1328.52,164.995 1330.61,164.997 1332.7,164.999 1334.78,165 1336.87,165.002 1338.95,165.004 1341.04,165.005 
  1343.12,165.007 1345.21,165.009 1347.29,165.01 1349.38,165.012 1351.47,165.014 1353.55,165.015 1355.64,165.017 1357.72,165.018 1359.81,165.02 1361.89,165.022 
  1363.98,165.023 1366.07,165.025 1368.15,165.026 1370.24,165.028 1372.32,165.03 1374.41,165.031 1376.49,165.033 1378.58,165.034 1380.66,165.036 1382.75,165.037 
  1384.84,165.039 1386.92,165.041 1389.01,165.042 1391.09,165.044 1393.18,165.045 1395.26,165.047 1397.35,165.048 1399.43,165.05 1401.52,165.051 1403.61,165.053 
  1405.69,165.054 1407.78,165.056 1409.86,165.057 1411.95,165.059 1414.03,165.061 1416.12,165.062 1418.2,165.064 1420.29,165.065 1422.38,165.067 1424.46,165.068 
  1426.55,165.07 1428.63,165.071 1430.72,165.072 1432.8,165.074 1434.89,165.075 1436.97,165.077 1439.06,165.078 1441.15,165.08 1443.23,165.081 1445.32,165.083 
  1447.4,165.084 1449.49,165.086 1451.57,165.087 1453.66,165.089 1455.74,165.09 1457.83,165.091 1459.92,165.093 1462,165.094 1464.09,165.096 1466.17,165.097 
  1468.26,165.098 1470.34,165.1 1472.43,165.101 1474.52,165.103 1476.6,165.104 1478.69,165.106 1480.77,165.107 1482.86,165.108 1484.94,165.11 1487.03,165.111 
  1489.11,165.112 1491.2,165.114 1493.29,165.115 1495.37,165.117 1497.46,165.118 1499.54,165.119 1501.63,165.121 1503.71,165.122 1505.8,165.123 1507.88,165.125 
  1509.97,165.126 1512.06,165.127 1514.14,165.129 1516.23,165.13 1518.31,165.131 1520.4,165.133 1522.48,165.134 1524.57,165.135 1526.65,165.137 1528.74,165.138 
  1530.83,165.139 1532.91,165.141 1535,165.142 1537.08,165.143 1539.17,165.145 1541.25,165.146 1543.34,165.147 1545.42,165.148 1547.51,165.15 1549.6,165.151 
  1551.68,165.152 1553.77,165.154 1555.85,165.155 1557.94,165.156 1560.02,165.157 1562.11,165.159 1564.19,165.16 1566.28,165.161 1568.37,165.162 1570.45,165.164 
  1572.54,165.165 1574.62,165.166 1576.71,165.167 1578.79,165.169 1580.88,165.17 1582.97,165.171 1585.05,165.172 1587.14,165.174 1589.22,165.175 1591.31,165.176 
  1593.39,165.177 1595.48,165.178 1597.56,165.18 1599.65,165.181 1601.74,165.182 1603.82,165.183 1605.91,165.184 1607.99,165.186 1610.08,165.187 1612.16,165.188 
  1614.25,165.189 1616.33,165.19 1618.42,165.192 1620.51,165.193 1622.59,165.194 1624.68,165.195 1626.76,165.196 1628.85,165.197 1630.93,165.199 1633.02,165.2 
  1635.1,165.201 1637.19,165.202 1639.28,165.203 1641.36,165.204 1643.45,165.206 1645.53,165.207 1647.62,165.208 1649.7,165.209 1651.79,165.21 1653.87,165.211 
  1655.96,165.212 1658.05,165.214 1660.13,165.215 1662.22,165.216 1664.3,165.217 1666.39,165.218 1668.47,165.219 1670.56,165.22 1672.65,165.221 1674.73,165.222 
  1676.82,165.224 1678.9,165.225 1680.99,165.226 1683.07,165.227 1685.16,165.228 1687.24,165.229 1689.33,165.23 1691.42,165.231 1693.5,165.232 1695.59,165.233 
  1697.67,165.234 1699.76,165.235 1701.84,165.237 1703.93,165.238 1706.01,165.239 1708.1,165.24 1710.19,165.241 1712.27,165.242 1714.36,165.243 1716.44,165.244 
  1718.53,165.245 1720.61,165.246 1722.7,165.247 1724.78,165.248 1726.87,165.249 1728.96,165.25 1731.04,165.251 1733.13,165.252 1735.21,165.253 1737.3,165.254 
  1739.38,165.255 1741.47,165.256 1743.55,165.257 1745.64,165.258 1747.73,165.259 1749.81,165.26 1751.9,165.261 1753.98,165.262 1756.07,165.263 1758.15,165.264 
  1760.24,165.265 1762.32,165.266 1764.41,165.267 1766.5,165.268 1768.58,165.269 1770.67,165.27 1772.75,165.271 1774.84,165.272 1776.92,165.273 1779.01,165.274 
  1781.1,165.275 1783.18,165.276 1785.27,165.277 1787.35,165.278 1789.44,165.279 1791.52,165.28 1793.61,165.281 1795.69,165.282 1797.78,165.283 1799.87,165.284 
  1801.95,165.285 1804.04,165.286 1806.12,165.287 1808.21,165.288 1810.29,165.289 1812.38,165.29 1814.46,165.29 1816.55,165.291 1818.64,165.292 1820.72,165.293 
  1822.81,165.294 1824.89,165.295 1826.98,165.296 1829.06,165.297 1831.15,165.298 1833.23,165.299 1835.32,165.3 1837.41,165.301 1839.49,165.301 1841.58,165.302 
  1843.66,165.303 1845.75,165.304 1847.83,165.305 1849.92,165.306 1852,165.307 1854.09,165.308 1856.18,165.309 1858.26,165.31 1860.35,165.31 1862.43,165.311 
  1864.52,165.312 1866.6,165.313 1868.69,165.314 1870.77,165.315 1872.86,165.316 1874.95,165.317 1877.03,165.317 1879.12,165.318 1881.2,165.319 1883.29,165.32 
  1885.37,165.321 1887.46,165.322 1889.55,165.323 1891.63,165.323 1893.72,165.324 1895.8,165.325 1897.89,165.326 1899.97,165.327 1902.06,165.328 1904.14,165.328 
  1906.23,165.329 1908.32,165.33 1910.4,165.331 1912.49,165.332 1914.57,165.333 1916.66,165.333 1918.74,165.334 1920.83,165.335 1922.91,165.336 1925,165.337 
  1927.09,165.338 1929.17,165.338 1931.26,165.339 1933.34,165.34 1935.43,165.341 1937.51,165.342 1939.6,165.342 1941.68,165.343 1943.77,165.344 1945.86,165.345 
  1947.94,165.346 1950.03,165.346 1952.11,165.347 1954.2,165.348 1956.28,165.349 1958.37,165.35 1960.45,165.35 1962.54,165.351 1964.63,165.352 1966.71,165.353 
  1968.8,165.353 1970.88,165.354 1972.97,165.355 1975.05,165.356 1977.14,165.357 1979.23,165.357 1981.31,165.358 1983.4,165.359 1985.48,165.36 1987.57,165.36 
  1989.65,165.361 1991.74,165.362 1993.82,165.363 1995.91,165.363 1998,165.364 2000.08,165.365 2002.17,165.366 2004.25,165.366 2006.34,165.367 2008.42,165.368 
  2010.51,165.369 2012.59,165.369 2014.68,165.37 2016.77,165.371 2018.85,165.371 2020.94,165.372 2023.02,165.373 2025.11,165.374 2027.19,165.374 2029.28,165.375 
  2031.36,165.376 2033.45,165.377 2035.54,165.377 2037.62,165.378 2039.71,165.379 2041.79,165.379 2043.88,165.38 2045.96,165.381 2048.05,165.381 2050.13,165.382 
  2052.22,165.383 2054.31,165.384 2056.39,165.384 2058.48,165.385 2060.56,165.386 2062.65,165.386 2064.73,165.387 2066.82,165.388 2068.9,165.388 2070.99,165.389 
  2073.08,165.39 2075.16,165.39 2077.25,165.391 2079.33,165.392 2081.42,165.393 2083.5,165.393 2085.59,165.394 2087.68,165.395 2089.76,165.395 2091.85,165.396 
  2093.93,165.397 2096.02,165.397 2098.1,165.398 2100.19,165.399 2102.27,165.399 2104.36,165.4 2106.45,165.401 2108.53,165.401 2110.62,165.402 2112.7,165.402 
  2114.79,165.403 2116.87,165.404 2118.96,165.404 2121.04,165.405 2123.13,165.406 2125.22,165.406 2127.3,165.407 2129.39,165.408 2131.47,165.408 2133.56,165.409 
  2135.64,165.41 2137.73,165.41 2139.81,165.411 2141.9,165.411 2143.99,165.412 2146.07,165.413 2148.16,165.413 2150.24,165.414 2152.33,165.415 2154.41,165.415 
  2156.5,165.416 2158.58,165.416 2160.67,165.417 2162.76,165.418 2164.84,165.418 2166.93,165.419 2169.01,165.419 2171.1,165.42 2173.18,165.421 2175.27,165.421 
  2177.35,165.422 2179.44,165.423 2181.53,165.423 2183.61,165.424 2185.7,165.424 2187.78,165.425 2189.87,165.426 2191.95,165.426 2194.04,165.427 2196.13,165.427 
  2198.21,165.428 2200.3,165.428 2202.38,165.429 2204.47,165.43 2206.55,165.43 2208.64,165.431 2210.72,165.431 2212.81,165.432 2214.9,165.433 2216.98,165.433 
  2219.07,165.434 2221.15,165.434 2223.24,165.435 2225.32,165.435 2227.41,165.436 2229.49,165.437 2231.58,165.437 2233.67,165.438 2235.75,165.438 2237.84,165.439 
  2239.92,165.439 2242.01,165.44 2244.09,165.44 2246.18,165.441 2248.26,165.442 2250.35,165.442 2252.44,165.443 2254.52,165.443 2256.61,165.444 2258.69,165.444 
  2260.78,165.445 2262.86,165.445 2264.95,165.446 2267.03,165.446 2269.12,165.447 2271.21,165.448 2273.29,165.448 2275.38,165.449 2277.46,165.449 2279.55,165.45 
  2281.63,165.45 2283.72,165.451 2285.81,165.451 2287.89,165.452 2289.98,165.452 2292.06,165.453 2294.15,165.453 2296.23,165.454 2298.32,165.454 2300.4,165.455 
  2302.49,165.455 2304.58,165.456 2306.66,165.457 2308.75,165.457 2310.83,165.458 2312.92,165.458 2315,165.459 2317.09,165.459 2319.17,165.46 2321.26,165.46 
  
  "/>
<polygon clip-path="url(#clip2301)" points="
1910.3,390.944 2249.26,390.944 2249.26,209.504 1910.3,209.504 
  " fill="#ffffff" fill-rule="evenodd" fill-opacity="1"/>
<polyline clip-path="url(#clip2301)" style="stroke:#000000; stroke-width:4; stroke-opacity:1; fill:none" points="
  1910.3,390.944 2249.26,390.944 2249.26,209.504 1910.3,209.504 1910.3,390.944 
  "/>
<polyline clip-path="url(#clip2301)" style="stroke:#009af9; stroke-width:12; stroke-opacity:1; fill:none" points="
  1934.3,269.984 2078.3,269.984 
  "/>
<g clip-path="url(#clip2301)">
<text style="fill:#000000; fill-opacity:1; font-family:Arial,Helvetica Neue,Helvetica,sans-serif; font-size:48px; text-anchor:start;" transform="rotate(0, 2102.3, 287.484)" x="2102.3" y="287.484">u1(t)</text>
</g>
<polyline clip-path="url(#clip2301)" style="stroke:#e26f46; stroke-width:12; stroke-opacity:1; fill:none" points="
  1934.3,330.464 2078.3,330.464 
  "/>
<g clip-path="url(#clip2301)">
<text style="fill:#000000; fill-opacity:1; font-family:Arial,Helvetica Neue,Helvetica,sans-serif; font-size:48px; text-anchor:start;" transform="rotate(0, 2102.3, 347.964)" x="2102.3" y="347.964">u2(t)</text>
</g>
</svg>
