<?xml version="1.0" encoding="utf-8"?>
<svg xmlns="http://www.w3.org/2000/svg" xmlns:xlink="http://www.w3.org/1999/xlink" width="600" height="400" viewBox="0 0 2400 1600">
<defs>
  <clipPath id="clip1700">
    <rect x="0" y="0" width="2000" height="2000"/>
  </clipPath>
</defs>
<defs>
  <clipPath id="clip1701">
    <rect x="0" y="0" width="2400" height="1600"/>
  </clipPath>
</defs>
<polygon clip-path="url(#clip1701)" points="
0,1600 2400,1600 2400,0 0,0 
  " fill="#ffffff" fill-rule="evenodd" fill-opacity="1"/>
<defs>
  <clipPath id="clip1702">
    <rect x="480" y="0" width="1681" height="1600"/>
  </clipPath>
</defs>
<polygon clip-path="url(#clip1701)" points="
237.767,1440.48 2321.26,1440.48 2321.26,125.984 237.767,125.984 
  " fill="#ffffff" fill-rule="evenodd" fill-opacity="1"/>
<defs>
  <clipPath id="clip1703">
    <rect x="237" y="125" width="2084" height="1315"/>
  </clipPath>
</defs>
<polyline clip-path="url(#clip1703)" style="stroke:#000000; stroke-width:2; stroke-opacity:0.1; fill:none" points="
  237.767,1440.48 237.767,125.984 
  "/>
<polyline clip-path="url(#clip1703)" style="stroke:#000000; stroke-width:2; stroke-opacity:0.1; fill:none" points="
  654.466,1440.48 654.466,125.984 
  "/>
<polyline clip-path="url(#clip1703)" style="stroke:#000000; stroke-width:2; stroke-opacity:0.1; fill:none" points="
  1071.16,1440.48 1071.16,125.984 
  "/>
<polyline clip-path="url(#clip1703)" style="stroke:#000000; stroke-width:2; stroke-opacity:0.1; fill:none" points="
  1487.86,1440.48 1487.86,125.984 
  "/>
<polyline clip-path="url(#clip1703)" style="stroke:#000000; stroke-width:2; stroke-opacity:0.1; fill:none" points="
  1904.56,1440.48 1904.56,125.984 
  "/>
<polyline clip-path="url(#clip1703)" style="stroke:#000000; stroke-width:2; stroke-opacity:0.1; fill:none" points="
  2321.26,1440.48 2321.26,125.984 
  "/>
<polyline clip-path="url(#clip1703)" style="stroke:#000000; stroke-width:2; stroke-opacity:0.1; fill:none" points="
  237.767,1403.28 2321.26,1403.28 
  "/>
<polyline clip-path="url(#clip1703)" style="stroke:#000000; stroke-width:2; stroke-opacity:0.1; fill:none" points="
  237.767,1093.26 2321.26,1093.26 
  "/>
<polyline clip-path="url(#clip1703)" style="stroke:#000000; stroke-width:2; stroke-opacity:0.1; fill:none" points="
  237.767,783.233 2321.26,783.233 
  "/>
<polyline clip-path="url(#clip1703)" style="stroke:#000000; stroke-width:2; stroke-opacity:0.1; fill:none" points="
  237.767,473.21 2321.26,473.21 
  "/>
<polyline clip-path="url(#clip1703)" style="stroke:#000000; stroke-width:2; stroke-opacity:0.1; fill:none" points="
  237.767,163.187 2321.26,163.187 
  "/>
<polyline clip-path="url(#clip1701)" style="stroke:#000000; stroke-width:4; stroke-opacity:1; fill:none" points="
  237.767,1440.48 2321.26,1440.48 
  "/>
<polyline clip-path="url(#clip1701)" style="stroke:#000000; stroke-width:4; stroke-opacity:1; fill:none" points="
  237.767,1440.48 237.767,125.984 
  "/>
<polyline clip-path="url(#clip1701)" style="stroke:#000000; stroke-width:4; stroke-opacity:1; fill:none" points="
  237.767,1440.48 237.767,1420.77 
  "/>
<polyline clip-path="url(#clip1701)" style="stroke:#000000; stroke-width:4; stroke-opacity:1; fill:none" points="
  654.466,1440.48 654.466,1420.77 
  "/>
<polyline clip-path="url(#clip1701)" style="stroke:#000000; stroke-width:4; stroke-opacity:1; fill:none" points="
  1071.16,1440.48 1071.16,1420.77 
  "/>
<polyline clip-path="url(#clip1701)" style="stroke:#000000; stroke-width:4; stroke-opacity:1; fill:none" points="
  1487.86,1440.48 1487.86,1420.77 
  "/>
<polyline clip-path="url(#clip1701)" style="stroke:#000000; stroke-width:4; stroke-opacity:1; fill:none" points="
  1904.56,1440.48 1904.56,1420.77 
  "/>
<polyline clip-path="url(#clip1701)" style="stroke:#000000; stroke-width:4; stroke-opacity:1; fill:none" points="
  2321.26,1440.48 2321.26,1420.77 
  "/>
<polyline clip-path="url(#clip1701)" style="stroke:#000000; stroke-width:4; stroke-opacity:1; fill:none" points="
  237.767,1403.28 269.02,1403.28 
  "/>
<polyline clip-path="url(#clip1701)" style="stroke:#000000; stroke-width:4; stroke-opacity:1; fill:none" points="
  237.767,1093.26 269.02,1093.26 
  "/>
<polyline clip-path="url(#clip1701)" style="stroke:#000000; stroke-width:4; stroke-opacity:1; fill:none" points="
  237.767,783.233 269.02,783.233 
  "/>
<polyline clip-path="url(#clip1701)" style="stroke:#000000; stroke-width:4; stroke-opacity:1; fill:none" points="
  237.767,473.21 269.02,473.21 
  "/>
<polyline clip-path="url(#clip1701)" style="stroke:#000000; stroke-width:4; stroke-opacity:1; fill:none" points="
  237.767,163.187 269.02,163.187 
  "/>
<g clip-path="url(#clip1701)">
<text style="fill:#000000; fill-opacity:1; font-family:Arial,Helvetica Neue,Helvetica,sans-serif; font-size:48px; text-anchor:middle;" transform="rotate(0, 237.767, 1494.48)" x="237.767" y="1494.48">0</text>
</g>
<g clip-path="url(#clip1701)">
<text style="fill:#000000; fill-opacity:1; font-family:Arial,Helvetica Neue,Helvetica,sans-serif; font-size:48px; text-anchor:middle;" transform="rotate(0, 654.466, 1494.48)" x="654.466" y="1494.48">10</text>
</g>
<g clip-path="url(#clip1701)">
<text style="fill:#000000; fill-opacity:1; font-family:Arial,Helvetica Neue,Helvetica,sans-serif; font-size:48px; text-anchor:middle;" transform="rotate(0, 1071.16, 1494.48)" x="1071.16" y="1494.48">20</text>
</g>
<g clip-path="url(#clip1701)">
<text style="fill:#000000; fill-opacity:1; font-family:Arial,Helvetica Neue,Helvetica,sans-serif; font-size:48px; text-anchor:middle;" transform="rotate(0, 1487.86, 1494.48)" x="1487.86" y="1494.48">30</text>
</g>
<g clip-path="url(#clip1701)">
<text style="fill:#000000; fill-opacity:1; font-family:Arial,Helvetica Neue,Helvetica,sans-serif; font-size:48px; text-anchor:middle;" transform="rotate(0, 1904.56, 1494.48)" x="1904.56" y="1494.48">40</text>
</g>
<g clip-path="url(#clip1701)">
<text style="fill:#000000; fill-opacity:1; font-family:Arial,Helvetica Neue,Helvetica,sans-serif; font-size:48px; text-anchor:middle;" transform="rotate(0, 2321.26, 1494.48)" x="2321.26" y="1494.48">50</text>
</g>
<g clip-path="url(#clip1701)">
<text style="fill:#000000; fill-opacity:1; font-family:Arial,Helvetica Neue,Helvetica,sans-serif; font-size:48px; text-anchor:end;" transform="rotate(0, 213.767, 1420.78)" x="213.767" y="1420.78">0</text>
</g>
<g clip-path="url(#clip1701)">
<text style="fill:#000000; fill-opacity:1; font-family:Arial,Helvetica Neue,Helvetica,sans-serif; font-size:48px; text-anchor:end;" transform="rotate(0, 213.767, 1110.76)" x="213.767" y="1110.76">25</text>
</g>
<g clip-path="url(#clip1701)">
<text style="fill:#000000; fill-opacity:1; font-family:Arial,Helvetica Neue,Helvetica,sans-serif; font-size:48px; text-anchor:end;" transform="rotate(0, 213.767, 800.733)" x="213.767" y="800.733">50</text>
</g>
<g clip-path="url(#clip1701)">
<text style="fill:#000000; fill-opacity:1; font-family:Arial,Helvetica Neue,Helvetica,sans-serif; font-size:48px; text-anchor:end;" transform="rotate(0, 213.767, 490.71)" x="213.767" y="490.71">75</text>
</g>
<g clip-path="url(#clip1701)">
<text style="fill:#000000; fill-opacity:1; font-family:Arial,Helvetica Neue,Helvetica,sans-serif; font-size:48px; text-anchor:end;" transform="rotate(0, 213.767, 180.687)" x="213.767" y="180.687">100</text>
</g>
<g clip-path="url(#clip1701)">
<text style="fill:#000000; fill-opacity:1; font-family:Arial,Helvetica Neue,Helvetica,sans-serif; font-size:84px; text-anchor:middle;" transform="rotate(0, 1279.51, 73.2)" x="1279.51" y="73.2">Parallel flow with ratio 1.0</text>
</g>
<g clip-path="url(#clip1701)">
<text style="fill:#000000; fill-opacity:1; font-family:Arial,Helvetica Neue,Helvetica,sans-serif; font-size:66px; text-anchor:middle;" transform="rotate(0, 1279.51, 1590.4)" x="1279.51" y="1590.4">x (m)</text>
</g>
<g clip-path="url(#clip1701)">
<text style="fill:#000000; fill-opacity:1; font-family:Arial,Helvetica Neue,Helvetica,sans-serif; font-size:66px; text-anchor:middle;" transform="rotate(-90, 57.6, 783.233)" x="57.6" y="783.233">T °C</text>
</g>
<polyline clip-path="url(#clip1703)" style="stroke:#009af9; stroke-width:12; stroke-opacity:1; fill:none" points="
  237.767,1403.28 239.853,1400.18 241.938,1397.1 244.024,1394.04 246.11,1390.99 248.195,1387.96 250.281,1384.94 252.366,1381.93 254.452,1378.94 256.538,1375.97 
  258.623,1373.01 260.709,1370.07 262.794,1367.14 264.88,1364.22 266.965,1361.32 269.051,1358.43 271.137,1355.56 273.222,1352.71 275.308,1349.86 277.393,1347.03 
  279.479,1344.22 281.564,1341.42 283.65,1338.63 285.736,1335.86 287.821,1333.1 289.907,1330.35 291.992,1327.62 294.078,1324.9 296.164,1322.2 298.249,1319.51 
  300.335,1316.83 302.42,1314.17 304.506,1311.52 306.591,1308.88 308.677,1306.26 310.763,1303.64 312.848,1301.05 314.934,1298.46 317.019,1295.89 319.105,1293.33 
  321.19,1290.78 323.276,1288.25 325.362,1285.73 327.447,1283.22 329.533,1280.72 331.618,1278.24 333.704,1275.77 335.79,1273.31 337.875,1270.86 339.961,1268.43 
  342.046,1266.01 344.132,1263.59 346.217,1261.2 348.303,1258.81 350.389,1256.44 352.474,1254.07 354.56,1251.72 356.645,1249.38 358.731,1247.06 360.816,1244.74 
  362.902,1242.44 364.988,1240.14 367.073,1237.86 369.159,1235.59 371.244,1233.34 373.33,1231.09 375.415,1228.85 377.501,1226.63 379.587,1224.41 381.672,1222.21 
  383.758,1220.02 385.843,1217.84 387.929,1215.67 390.015,1213.51 392.1,1211.36 394.186,1209.22 396.271,1207.1 398.357,1204.98 400.442,1202.88 402.528,1200.78 
  404.614,1198.7 406.699,1196.62 408.785,1194.56 410.87,1192.5 412.956,1190.46 415.041,1188.43 417.127,1186.41 419.213,1184.39 421.298,1182.39 423.384,1180.4 
  425.469,1178.41 427.555,1176.44 429.641,1174.48 431.726,1172.53 433.812,1170.58 435.897,1168.65 437.983,1166.72 440.068,1164.81 442.154,1162.9 444.24,1161.01 
  446.325,1159.12 448.411,1157.25 450.496,1155.38 452.582,1153.52 454.667,1151.67 456.753,1149.83 458.839,1148 460.924,1146.18 463.01,1144.37 465.095,1142.57 
  467.181,1140.77 469.267,1138.99 471.352,1137.21 473.438,1135.44 475.523,1133.69 477.609,1131.94 479.694,1130.19 481.78,1128.46 483.866,1126.74 485.951,1125.02 
  488.037,1123.32 490.122,1121.62 492.208,1119.93 494.293,1118.25 496.379,1116.58 498.465,1114.91 500.55,1113.26 502.636,1111.61 504.721,1109.97 506.807,1108.34 
  508.892,1106.72 510.978,1105.1 513.064,1103.49 515.149,1101.89 517.235,1100.3 519.32,1098.72 521.406,1097.15 523.492,1095.58 525.577,1094.02 527.663,1092.47 
  529.748,1090.92 531.834,1089.39 533.919,1087.86 536.005,1086.34 538.091,1084.82 540.176,1083.32 542.262,1081.82 544.347,1080.33 546.433,1078.85 548.518,1077.37 
  550.604,1075.9 552.69,1074.44 554.775,1072.99 556.861,1071.54 558.946,1070.1 561.032,1068.67 563.118,1067.24 565.203,1065.83 567.289,1064.42 569.374,1063.01 
  571.46,1061.62 573.545,1060.23 575.631,1058.84 577.717,1057.47 579.802,1056.1 581.888,1054.74 583.973,1053.38 586.059,1052.03 588.144,1050.69 590.23,1049.35 
  592.316,1048.03 594.401,1046.7 596.487,1045.39 598.572,1044.08 600.658,1042.78 602.743,1041.48 604.829,1040.19 606.915,1038.91 609,1037.63 611.086,1036.36 
  613.171,1035.1 615.257,1033.84 617.343,1032.59 619.428,1031.34 621.514,1030.11 623.599,1028.87 625.685,1027.65 627.77,1026.43 629.856,1025.21 631.942,1024 
  634.027,1022.8 636.113,1021.61 638.198,1020.42 640.284,1019.23 642.369,1018.05 644.455,1016.88 646.541,1015.71 648.626,1014.55 650.712,1013.4 652.797,1012.25 
  654.883,1011.11 656.969,1009.97 659.054,1008.84 661.14,1007.71 663.225,1006.59 665.311,1005.47 667.396,1004.37 669.482,1003.26 671.568,1002.16 673.653,1001.07 
  675.739,999.982 677.824,998.9 679.91,997.823 681.995,996.752 684.081,995.686 686.167,994.626 688.252,993.57 690.338,992.52 692.423,991.475 694.509,990.436 
  696.595,989.401 698.68,988.372 700.766,987.348 702.851,986.329 704.937,985.315 707.022,984.306 709.108,983.302 711.194,982.303 713.279,981.309 715.365,980.321 
  717.45,979.337 719.536,978.358 721.621,977.384 723.707,976.414 725.793,975.45 727.878,974.49 729.964,973.535 732.049,972.585 734.135,971.64 736.22,970.699 
  738.306,969.764 740.392,968.832 742.477,967.906 744.563,966.984 746.648,966.066 748.734,965.154 750.82,964.245 752.905,963.342 754.991,962.443 757.076,961.548 
  759.162,960.658 761.247,959.772 763.333,958.891 765.419,958.014 767.504,957.141 769.59,956.273 771.675,955.409 773.761,954.549 775.846,953.694 777.932,952.843 
  780.018,951.996 782.103,951.154 784.189,950.315 786.274,949.481 788.36,948.651 790.446,947.825 792.531,947.003 794.617,946.186 796.702,945.372 798.788,944.563 
  800.873,943.757 802.959,942.956 805.045,942.158 807.13,941.365 809.216,940.575 811.301,939.789 813.387,939.008 815.472,938.23 817.558,937.456 819.644,936.686 
  821.729,935.92 823.815,935.158 825.9,934.399 827.986,933.644 830.072,932.893 832.157,932.146 834.243,931.403 836.328,930.663 838.414,929.927 840.499,929.194 
  842.585,928.466 844.671,927.74 846.756,927.019 848.842,926.301 850.927,925.587 853.013,924.876 855.098,924.169 857.184,923.465 859.27,922.765 861.355,922.069 
  863.441,921.375 865.526,920.686 867.612,919.999 869.697,919.317 871.783,918.637 873.869,917.961 875.954,917.289 878.04,916.619 880.125,915.954 882.211,915.291 
  884.297,914.632 886.382,913.976 888.468,913.323 890.553,912.674 892.639,912.027 894.724,911.384 896.81,910.745 898.896,910.108 900.981,909.475 903.067,908.844 
  905.152,908.217 907.238,907.593 909.323,906.973 911.409,906.355 913.495,905.74 915.58,905.129 917.666,904.52 919.751,903.915 921.837,903.312 923.923,902.713 
  926.008,902.116 928.094,901.523 930.179,900.932 932.265,900.345 934.35,899.76 936.436,899.179 938.522,898.6 940.607,898.024 942.693,897.451 944.778,896.881 
  946.864,896.313 948.949,895.749 951.035,895.187 953.121,894.628 955.206,894.072 957.292,893.519 959.377,892.968 961.463,892.42 963.549,891.875 965.634,891.333 
  967.72,890.793 969.805,890.256 971.891,889.722 973.976,889.19 976.062,888.661 978.148,888.135 980.233,887.611 982.319,887.09 984.404,886.572 986.49,886.056 
  988.575,885.542 990.661,885.032 992.747,884.523 994.832,884.018 996.918,883.514 999.003,883.014 1001.09,882.515 1003.17,882.02 1005.26,881.526 1007.35,881.036 
  1009.43,880.547 1011.52,880.061 1013.6,879.578 1015.69,879.097 1017.77,878.618 1019.86,878.142 1021.94,877.668 1024.03,877.196 1026.12,876.727 1028.2,876.26 
  1030.29,875.796 1032.37,875.334 1034.46,874.874 1036.54,874.416 1038.63,873.961 1040.71,873.508 1042.8,873.057 1044.89,872.608 1046.97,872.162 1049.06,871.718 
  1051.14,871.276 1053.23,870.837 1055.31,870.399 1057.4,869.964 1059.49,869.531 1061.57,869.1 1063.66,868.671 1065.74,868.245 1067.83,867.82 1069.91,867.398 
  1072,866.977 1074.08,866.559 1076.17,866.143 1078.26,865.729 1080.34,865.317 1082.43,864.908 1084.51,864.5 1086.6,864.094 1088.68,863.69 1090.77,863.289 
  1092.85,862.889 1094.94,862.491 1097.03,862.096 1099.11,861.702 1101.2,861.31 1103.28,860.92 1105.37,860.533 1107.45,860.147 1109.54,859.763 1111.62,859.381 
  1113.71,859 1115.8,858.622 1117.88,858.246 1119.97,857.871 1122.05,857.499 1124.14,857.128 1126.22,856.759 1128.31,856.392 1130.39,856.027 1132.48,855.664 
  1134.57,855.302 1136.65,854.942 1138.74,854.584 1140.82,854.228 1142.91,853.874 1144.99,853.521 1147.08,853.17 1149.16,852.821 1151.25,852.474 1153.34,852.128 
  1155.42,851.784 1157.51,851.442 1159.59,851.102 1161.68,850.763 1163.76,850.426 1165.85,850.091 1167.94,849.757 1170.02,849.425 1172.11,849.095 1174.19,848.766 
  1176.28,848.439 1178.36,848.113 1180.45,847.789 1182.53,847.467 1184.62,847.147 1186.71,846.828 1188.79,846.51 1190.88,846.194 1192.96,845.88 1195.05,845.567 
  1197.13,845.256 1199.22,844.947 1201.3,844.638 1203.39,844.332 1205.48,844.027 1207.56,843.724 1209.65,843.422 1211.73,843.121 1213.82,842.822 1215.9,842.525 
  1217.99,842.229 1220.07,841.934 1222.16,841.641 1224.25,841.35 1226.33,841.059 1228.42,840.771 1230.5,840.484 1232.59,840.198 1234.67,839.913 1236.76,839.63 
  1238.84,839.349 1240.93,839.069 1243.02,838.79 1245.1,838.512 1247.19,838.236 1249.27,837.962 1251.36,837.688 1253.44,837.416 1255.53,837.146 1257.62,836.877 
  1259.7,836.609 1261.79,836.342 1263.87,836.077 1265.96,835.813 1268.04,835.55 1270.13,835.289 1272.21,835.029 1274.3,834.77 1276.39,834.513 1278.47,834.257 
  1280.56,834.002 1282.64,833.749 1284.73,833.496 1286.81,833.245 1288.9,832.995 1290.98,832.747 1293.07,832.5 1295.16,832.253 1297.24,832.009 1299.33,831.765 
  1301.41,831.523 1303.5,831.281 1305.58,831.041 1307.67,830.803 1309.75,830.565 1311.84,830.329 1313.93,830.093 1316.01,829.859 1318.1,829.627 1320.18,829.395 
  1322.27,829.164 1324.35,828.935 1326.44,828.707 1328.52,828.48 1330.61,828.254 1332.7,828.029 1334.78,827.805 1336.87,827.582 1338.95,827.361 1341.04,827.141 
  1343.12,826.921 1345.21,826.703 1347.29,826.486 1349.38,826.27 1351.47,826.055 1353.55,825.841 1355.64,825.629 1357.72,825.417 1359.81,825.206 1361.89,824.997 
  1363.98,824.788 1366.07,824.581 1368.15,824.374 1370.24,824.169 1372.32,823.965 1374.41,823.761 1376.49,823.559 1378.58,823.358 1380.66,823.157 1382.75,822.958 
  1384.84,822.76 1386.92,822.562 1389.01,822.366 1391.09,822.171 1393.18,821.976 1395.26,821.783 1397.35,821.591 1399.43,821.399 1401.52,821.209 1403.61,821.019 
  1405.69,820.831 1407.78,820.643 1409.86,820.456 1411.95,820.27 1414.03,820.086 1416.12,819.902 1418.2,819.719 1420.29,819.537 1422.38,819.355 1424.46,819.175 
  1426.55,818.996 1428.63,818.817 1430.72,818.64 1432.8,818.463 1434.89,818.287 1436.97,818.112 1439.06,817.938 1441.15,817.765 1443.23,817.593 1445.32,817.421 
  1447.4,817.251 1449.49,817.081 1451.57,816.912 1453.66,816.744 1455.74,816.577 1457.83,816.411 1459.92,816.245 1462,816.08 1464.09,815.916 1466.17,815.753 
  1468.26,815.591 1470.34,815.43 1472.43,815.269 1474.52,815.109 1476.6,814.95 1478.69,814.792 1480.77,814.634 1482.86,814.478 1484.94,814.322 1487.03,814.167 
  1489.11,814.012 1491.2,813.859 1493.29,813.706 1495.37,813.554 1497.46,813.402 1499.54,813.252 1501.63,813.102 1503.71,812.953 1505.8,812.805 1507.88,812.657 
  1509.97,812.51 1512.06,812.364 1514.14,812.219 1516.23,812.074 1518.31,811.93 1520.4,811.787 1522.48,811.644 1524.57,811.502 1526.65,811.361 1528.74,811.221 
  1530.83,811.081 1532.91,810.942 1535,810.804 1537.08,810.666 1539.17,810.529 1541.25,810.393 1543.34,810.257 1545.42,810.122 1547.51,809.988 1549.6,809.854 
  1551.68,809.721 1553.77,809.589 1555.85,809.457 1557.94,809.326 1560.02,809.196 1562.11,809.066 1564.19,808.937 1566.28,808.809 1568.37,808.681 1570.45,808.554 
  1572.54,808.427 1574.62,808.301 1576.71,808.176 1578.79,808.051 1580.88,807.927 1582.97,807.804 1585.05,807.681 1587.14,807.559 1589.22,807.437 1591.31,807.317 
  1593.39,807.196 1595.48,807.076 1597.56,806.957 1599.65,806.839 1601.74,806.721 1603.82,806.603 1605.91,806.487 1607.99,806.37 1610.08,806.255 1612.16,806.14 
  1614.25,806.025 1616.33,805.911 1618.42,805.798 1620.51,805.685 1622.59,805.573 1624.68,805.461 1626.76,805.35 1628.85,805.24 1630.93,805.13 1633.02,805.02 
  1635.1,804.912 1637.19,804.803 1639.28,804.695 1641.36,804.588 1643.45,804.482 1645.53,804.375 1647.62,804.27 1649.7,804.165 1651.79,804.06 1653.87,803.956 
  1655.96,803.853 1658.05,803.75 1660.13,803.647 1662.22,803.545 1664.3,803.444 1666.39,803.343 1668.47,803.242 1670.56,803.142 1672.65,803.043 1674.73,802.944 
  1676.82,802.846 1678.9,802.748 1680.99,802.65 1683.07,802.553 1685.16,802.457 1687.24,802.361 1689.33,802.265 1691.42,802.17 1693.5,802.076 1695.59,801.982 
  1697.67,801.888 1699.76,801.795 1701.84,801.702 1703.93,801.61 1706.01,801.518 1708.1,801.427 1710.19,801.336 1712.27,801.246 1714.36,801.156 1716.44,801.067 
  1718.53,800.978 1720.61,800.889 1722.7,800.801 1724.78,800.713 1726.87,800.626 1728.96,800.539 1731.04,800.453 1733.13,800.367 1735.21,800.282 1737.3,800.197 
  1739.38,800.112 1741.47,800.028 1743.55,799.944 1745.64,799.861 1747.73,799.778 1749.81,799.695 1751.9,799.613 1753.98,799.531 1756.07,799.45 1758.15,799.369 
  1760.24,799.289 1762.32,799.209 1764.41,799.129 1766.5,799.05 1768.58,798.971 1770.67,798.893 1772.75,798.814 1774.84,798.737 1776.92,798.659 1779.01,798.583 
  1781.1,798.506 1783.18,798.43 1785.27,798.354 1787.35,798.279 1789.44,798.204 1791.52,798.129 1793.61,798.055 1795.69,797.981 1797.78,797.907 1799.87,797.834 
  1801.95,797.761 1804.04,797.689 1806.12,797.617 1808.21,797.545 1810.29,797.474 1812.38,797.403 1814.46,797.332 1816.55,797.262 1818.64,797.192 1820.72,797.122 
  1822.81,797.053 1824.89,796.984 1826.98,796.916 1829.06,796.847 1831.15,796.78 1833.23,796.712 1835.32,796.645 1837.41,796.578 1839.49,796.511 1841.58,796.445 
  1843.66,796.379 1845.75,796.314 1847.83,796.248 1849.92,796.184 1852,796.119 1854.09,796.055 1856.18,795.991 1858.26,795.927 1860.35,795.864 1862.43,795.801 
  1864.52,795.738 1866.6,795.676 1868.69,795.613 1870.77,795.552 1872.86,795.49 1874.95,795.429 1877.03,795.368 1879.12,795.307 1881.2,795.247 1883.29,795.187 
  1885.37,795.127 1887.46,795.068 1889.55,795.009 1891.63,794.95 1893.72,794.891 1895.8,794.833 1897.89,794.775 1899.97,794.718 1902.06,794.66 1904.14,794.603 
  1906.23,794.546 1908.32,794.49 1910.4,794.433 1912.49,794.377 1914.57,794.322 1916.66,794.266 1918.74,794.211 1920.83,794.156 1922.91,794.101 1925,794.047 
  1927.09,793.993 1929.17,793.939 1931.26,793.886 1933.34,793.832 1935.43,793.779 1937.51,793.727 1939.6,793.674 1941.68,793.622 1943.77,793.57 1945.86,793.518 
  1947.94,793.467 1950.03,793.415 1952.11,793.364 1954.2,793.314 1956.28,793.263 1958.37,793.213 1960.45,793.163 1962.54,793.114 1964.63,793.064 1966.71,793.015 
  1968.8,792.966 1970.88,792.917 1972.97,792.869 1975.05,792.821 1977.14,792.773 1979.23,792.725 1981.31,792.677 1983.4,792.63 1985.48,792.583 1987.57,792.536 
  1989.65,792.49 1991.74,792.444 1993.82,792.397 1995.91,792.352 1998,792.306 2000.08,792.261 2002.17,792.215 2004.25,792.171 2006.34,792.126 2008.42,792.081 
  2010.51,792.037 2012.59,791.993 2014.68,791.949 2016.77,791.906 2018.85,791.862 2020.94,791.819 2023.02,791.776 2025.11,791.734 2027.19,791.691 2029.28,791.649 
  2031.36,791.607 2033.45,791.565 2035.54,791.523 2037.62,791.482 2039.71,791.441 2041.79,791.4 2043.88,791.359 2045.96,791.318 2048.05,791.278 2050.13,791.238 
  2052.22,791.198 2054.31,791.158 2056.39,791.118 2058.48,791.079 2060.56,791.04 2062.65,791.001 2064.73,790.962 2066.82,790.923 2068.9,790.885 2070.99,790.847 
  2073.08,790.809 2075.16,790.771 2077.25,790.733 2079.33,790.696 2081.42,790.659 2083.5,790.622 2085.59,790.585 2087.68,790.548 2089.76,790.512 2091.85,790.475 
  2093.93,790.439 2096.02,790.403 2098.1,790.367 2100.19,790.332 2102.27,790.296 2104.36,790.261 2106.45,790.226 2108.53,790.191 2110.62,790.157 2112.7,790.122 
  2114.79,790.088 2116.87,790.054 2118.96,790.02 2121.04,789.986 2123.13,789.952 2125.22,789.919 2127.3,789.885 2129.39,789.852 2131.47,789.819 2133.56,789.787 
  2135.64,789.754 2137.73,789.721 2139.81,789.689 2141.9,789.657 2143.99,789.625 2146.07,789.593 2148.16,789.562 2150.24,789.53 2152.33,789.499 2154.41,789.467 
  2156.5,789.436 2158.58,789.406 2160.67,789.375 2162.76,789.344 2164.84,789.314 2166.93,789.284 2169.01,789.254 2171.1,789.224 2173.18,789.194 2175.27,789.164 
  2177.35,789.135 2179.44,789.105 2181.53,789.076 2183.61,789.047 2185.7,789.018 2187.78,788.989 2189.87,788.961 2191.95,788.932 2194.04,788.904 2196.13,788.876 
  2198.21,788.848 2200.3,788.82 2202.38,788.792 2204.47,788.764 2206.55,788.737 2208.64,788.709 2210.72,788.682 2212.81,788.655 2214.9,788.628 2216.98,788.601 
  2219.07,788.574 2221.15,788.548 2223.24,788.521 2225.32,788.495 2227.41,788.469 2229.49,788.443 2231.58,788.417 2233.67,788.391 2235.75,788.365 2237.84,788.34 
  2239.92,788.315 2242.01,788.289 2244.09,788.264 2246.18,788.239 2248.26,788.214 2250.35,788.189 2252.44,788.165 2254.52,788.14 2256.61,788.116 2258.69,788.091 
  2260.78,788.067 2262.86,788.043 2264.95,788.019 2267.03,787.995 2269.12,787.971 2271.21,787.948 2273.29,787.924 2275.38,787.901 2277.46,787.877 2279.55,787.854 
  2281.63,787.831 2283.72,787.808 2285.81,787.785 2287.89,787.763 2289.98,787.74 2292.06,787.718 2294.15,787.695 2296.23,787.673 2298.32,787.651 2300.4,787.629 
  2302.49,787.607 2304.58,787.585 2306.66,787.563 2308.75,787.542 2310.83,787.52 2312.92,787.499 2315,787.477 2317.09,787.456 2319.17,787.435 2321.26,787.414 
  
  "/>
<polyline clip-path="url(#clip1703)" style="stroke:#e26f46; stroke-width:12; stroke-opacity:1; fill:none" points="
  237.767,163.187 239.853,166.283 241.938,169.363 244.024,172.427 246.11,175.477 248.195,178.511 250.281,181.53 252.366,184.534 254.452,187.523 256.538,190.497 
  258.623,193.457 260.709,196.401 262.794,199.331 264.88,202.246 266.965,205.147 269.051,208.033 271.137,210.904 273.222,213.762 275.308,216.605 277.393,219.434 
  279.479,222.248 281.564,225.049 283.65,227.836 285.736,230.609 287.821,233.368 289.907,236.113 291.992,238.844 294.078,241.562 296.164,244.267 298.249,246.957 
  300.335,249.635 302.42,252.299 304.506,254.949 306.591,257.587 308.677,260.211 310.763,262.822 312.848,265.42 314.934,268.006 317.019,270.578 319.105,273.137 
  321.19,275.684 323.276,278.218 325.362,280.739 327.447,283.248 329.533,285.744 331.618,288.228 333.704,290.699 335.79,293.158 337.875,295.605 339.961,298.039 
  342.046,300.462 344.132,302.872 346.217,305.27 348.303,307.656 350.389,310.031 352.474,312.393 354.56,314.744 356.645,317.083 358.731,319.41 360.816,321.726 
  362.902,324.03 364.988,326.322 367.073,328.603 369.159,330.873 371.244,333.132 373.33,335.379 375.415,337.615 377.501,339.839 379.587,342.053 381.672,344.256 
  383.758,346.447 385.843,348.628 387.929,350.798 390.015,352.957 392.1,355.105 394.186,357.242 396.271,359.369 398.357,361.485 400.442,363.591 402.528,365.686 
  404.614,367.77 406.699,369.845 408.785,371.908 410.87,373.962 412.956,376.005 415.041,378.038 417.127,380.061 419.213,382.074 421.298,384.077 423.384,386.07 
  425.469,388.052 427.555,390.025 429.641,391.989 431.726,393.942 433.812,395.885 435.897,397.819 437.983,399.743 440.068,401.658 442.154,403.563 444.24,405.458 
  446.325,407.344 448.411,409.221 450.496,411.088 452.582,412.946 454.667,414.795 456.753,416.634 458.839,418.465 460.924,420.286 463.01,422.098 465.095,423.901 
  467.181,425.695 469.267,427.48 471.352,429.256 473.438,431.023 475.523,432.781 477.609,434.531 479.694,436.272 481.78,438.004 483.866,439.728 485.951,441.443 
  488.037,443.149 490.122,444.847 492.208,446.536 494.293,448.217 496.379,449.89 498.465,451.554 500.55,453.21 502.636,454.858 504.721,456.497 506.807,458.129 
  508.892,459.752 510.978,461.367 513.064,462.974 515.149,464.572 517.235,466.163 519.32,467.746 521.406,469.321 523.492,470.889 525.577,472.448 527.663,474 
  529.748,475.543 531.834,477.08 533.919,478.608 536.005,480.129 538.091,481.642 540.176,483.148 542.262,484.646 544.347,486.137 546.433,487.62 548.518,489.096 
  550.604,490.564 552.69,492.025 554.775,493.479 556.861,494.926 558.946,496.365 561.032,497.797 563.118,499.222 565.203,500.64 567.289,502.051 569.374,503.455 
  571.46,504.852 573.545,506.241 575.631,507.624 577.717,509 579.802,510.369 581.888,511.732 583.973,513.087 586.059,514.436 588.144,515.778 590.23,517.113 
  592.316,518.442 594.401,519.764 596.487,521.079 598.572,522.388 600.658,523.69 602.743,524.986 604.829,526.275 606.915,527.558 609,528.835 611.086,530.105 
  613.171,531.368 615.257,532.626 617.343,533.877 619.428,535.122 621.514,536.361 623.599,537.593 625.685,538.82 627.77,540.04 629.856,541.254 631.942,542.462 
  634.027,543.664 636.113,544.86 638.198,546.051 640.284,547.235 642.369,548.413 644.455,549.585 646.541,550.752 648.626,551.913 650.712,553.067 652.797,554.217 
  654.883,555.36 656.969,556.498 659.054,557.63 661.14,558.756 663.225,559.877 665.311,560.992 667.396,562.101 669.482,563.205 671.568,564.304 673.653,565.397 
  675.739,566.485 677.824,567.567 679.91,568.643 681.995,569.715 684.081,570.781 686.167,571.841 688.252,572.897 690.338,573.947 692.423,574.992 694.509,576.031 
  696.595,577.066 698.68,578.095 700.766,579.119 702.851,580.138 704.937,581.152 707.022,582.161 709.108,583.165 711.194,584.164 713.279,585.157 715.365,586.146 
  717.45,587.13 719.536,588.109 721.621,589.083 723.707,590.053 725.793,591.017 727.878,591.977 729.964,592.931 732.049,593.881 734.135,594.827 736.22,595.767 
  738.306,596.703 740.392,597.635 742.477,598.561 744.563,599.483 746.648,600.4 748.734,601.313 750.82,602.221 752.905,603.125 754.991,604.024 757.076,604.919 
  759.162,605.809 761.247,606.695 763.333,607.576 765.419,608.453 767.504,609.326 769.59,610.194 771.675,611.058 773.761,611.918 775.846,612.773 777.932,613.624 
  780.018,614.471 782.103,615.313 784.189,616.152 786.274,616.986 788.36,617.816 790.446,618.642 792.531,619.463 794.617,620.281 796.702,621.095 798.788,621.904 
  800.873,622.71 802.959,623.511 805.045,624.309 807.13,625.102 809.216,625.892 811.301,626.677 813.387,627.459 815.472,628.237 817.558,629.011 819.644,629.781 
  821.729,630.547 823.815,631.309 825.9,632.068 827.986,632.823 830.072,633.574 832.157,634.321 834.243,635.064 836.328,635.804 838.414,636.54 840.499,637.273 
  842.585,638.001 844.671,638.726 846.756,639.448 848.842,640.166 850.927,640.88 853.013,641.591 855.098,642.298 857.184,643.002 859.27,643.702 861.355,644.398 
  863.441,645.091 865.526,645.781 867.612,646.467 869.697,647.15 871.783,647.83 873.869,648.506 875.954,649.178 878.04,649.847 880.125,650.513 882.211,651.176 
  884.297,651.835 886.382,652.491 888.468,653.144 890.553,653.793 892.639,654.44 894.724,655.082 896.81,655.722 898.896,656.359 900.981,656.992 903.067,657.622 
  905.152,658.249 907.238,658.873 909.323,659.494 911.409,660.112 913.495,660.727 915.58,661.338 917.666,661.947 919.751,662.552 921.837,663.155 923.923,663.754 
  926.008,664.35 928.094,664.944 930.179,665.534 932.265,666.122 934.35,666.707 936.436,667.288 938.522,667.867 940.607,668.443 942.693,669.016 944.778,669.586 
  946.864,670.154 948.949,670.718 951.035,671.28 953.121,671.839 955.206,672.395 957.292,672.948 959.377,673.499 961.463,674.047 963.549,674.592 965.634,675.134 
  967.72,675.674 969.805,676.211 971.891,676.745 973.976,677.277 976.062,677.806 978.148,678.332 980.233,678.856 982.319,679.377 984.404,679.895 986.49,680.411 
  988.575,680.924 990.661,681.435 992.747,681.944 994.832,682.449 996.918,682.952 999.003,683.453 1001.09,683.951 1003.17,684.447 1005.26,684.94 1007.35,685.431 
  1009.43,685.92 1011.52,686.405 1013.6,686.889 1015.69,687.37 1017.77,687.849 1019.86,688.325 1021.94,688.799 1024.03,689.27 1026.12,689.74 1028.2,690.207 
  1030.29,690.671 1032.37,691.133 1034.46,691.593 1036.54,692.051 1038.63,692.506 1040.71,692.959 1042.8,693.41 1044.89,693.858 1046.97,694.305 1049.06,694.749 
  1051.14,695.191 1053.23,695.63 1055.31,696.068 1057.4,696.503 1059.49,696.936 1061.57,697.367 1063.66,697.796 1065.74,698.222 1067.83,698.647 1069.91,699.069 
  1072,699.489 1074.08,699.908 1076.17,700.324 1078.26,700.738 1080.34,701.149 1082.43,701.559 1084.51,701.967 1086.6,702.373 1088.68,702.776 1090.77,703.178 
  1092.85,703.578 1094.94,703.976 1097.03,704.371 1099.11,704.765 1101.2,705.157 1103.28,705.546 1105.37,705.934 1107.45,706.32 1109.54,706.704 1111.62,707.086 
  1113.71,707.466 1115.8,707.845 1117.88,708.221 1119.97,708.595 1122.05,708.968 1124.14,709.339 1126.22,709.708 1128.31,710.075 1130.39,710.44 1132.48,710.803 
  1134.57,711.165 1136.65,711.525 1138.74,711.882 1140.82,712.239 1142.91,712.593 1144.99,712.946 1147.08,713.296 1149.16,713.646 1151.25,713.993 1153.34,714.338 
  1155.42,714.682 1157.51,715.025 1159.59,715.365 1161.68,715.704 1163.76,716.041 1165.85,716.376 1167.94,716.71 1170.02,717.042 1172.11,717.372 1174.19,717.701 
  1176.28,718.028 1178.36,718.354 1180.45,718.677 1182.53,719 1184.62,719.32 1186.71,719.639 1188.79,719.957 1190.88,720.273 1192.96,720.587 1195.05,720.9 
  1197.13,721.211 1199.22,721.52 1201.3,721.828 1203.39,722.135 1205.48,722.44 1207.56,722.743 1209.65,723.045 1211.73,723.346 1213.82,723.645 1215.9,723.942 
  1217.99,724.238 1220.07,724.533 1222.16,724.826 1224.25,725.117 1226.33,725.407 1228.42,725.696 1230.5,725.983 1232.59,726.269 1234.67,726.554 1236.76,726.837 
  1238.84,727.118 1240.93,727.398 1243.02,727.677 1245.1,727.954 1247.19,728.23 1249.27,728.505 1251.36,728.778 1253.44,729.05 1255.53,729.321 1257.62,729.59 
  1259.7,729.858 1261.79,730.125 1263.87,730.39 1265.96,730.654 1268.04,730.916 1270.13,731.178 1272.21,731.438 1274.3,731.696 1276.39,731.954 1278.47,732.21 
  1280.56,732.465 1282.64,732.718 1284.73,732.971 1286.81,733.222 1288.9,733.471 1290.98,733.72 1293.07,733.967 1295.16,734.213 1297.24,734.458 1299.33,734.702 
  1301.41,734.944 1303.5,735.185 1305.58,735.425 1307.67,735.664 1309.75,735.902 1311.84,736.138 1313.93,736.373 1316.01,736.607 1318.1,736.84 1320.18,737.072 
  1322.27,737.303 1324.35,737.532 1326.44,737.76 1328.52,737.987 1330.61,738.213 1332.7,738.438 1334.78,738.662 1336.87,738.884 1338.95,739.106 1341.04,739.326 
  1343.12,739.546 1345.21,739.764 1347.29,739.981 1349.38,740.197 1351.47,740.412 1353.55,740.625 1355.64,740.838 1357.72,741.05 1359.81,741.26 1361.89,741.47 
  1363.98,741.679 1366.07,741.886 1368.15,742.092 1370.24,742.298 1372.32,742.502 1374.41,742.706 1376.49,742.908 1378.58,743.109 1380.66,743.31 1382.75,743.509 
  1384.84,743.707 1386.92,743.904 1389.01,744.101 1391.09,744.296 1393.18,744.49 1395.26,744.684 1397.35,744.876 1399.43,745.068 1401.52,745.258 1403.61,745.448 
  1405.69,745.636 1407.78,745.824 1409.86,746.011 1411.95,746.196 1414.03,746.381 1416.12,746.565 1418.2,746.748 1420.29,746.93 1422.38,747.111 1424.46,747.292 
  1426.55,747.471 1428.63,747.649 1430.72,747.827 1432.8,748.004 1434.89,748.179 1436.97,748.354 1439.06,748.528 1441.15,748.702 1443.23,748.874 1445.32,749.045 
  1447.4,749.216 1449.49,749.386 1451.57,749.555 1453.66,749.723 1455.74,749.89 1457.83,750.056 1459.92,750.222 1462,750.387 1464.09,750.55 1466.17,750.713 
  1468.26,750.876 1470.34,751.037 1472.43,751.198 1474.52,751.358 1476.6,751.517 1478.69,751.675 1480.77,751.833 1482.86,751.989 1484.94,752.145 1487.03,752.3 
  1489.11,752.455 1491.2,752.608 1493.29,752.761 1495.37,752.913 1497.46,753.064 1499.54,753.215 1501.63,753.365 1503.71,753.514 1505.8,753.662 1507.88,753.81 
  1509.97,753.957 1512.06,754.103 1514.14,754.248 1516.23,754.393 1518.31,754.537 1520.4,754.68 1522.48,754.823 1524.57,754.964 1526.65,755.106 1528.74,755.246 
  1530.83,755.386 1532.91,755.525 1535,755.663 1537.08,755.801 1539.17,755.938 1541.25,756.074 1543.34,756.21 1545.42,756.345 1547.51,756.479 1549.6,756.613 
  1551.68,756.746 1553.77,756.878 1555.85,757.01 1557.94,757.141 1560.02,757.271 1562.11,757.401 1564.19,757.53 1566.28,757.658 1568.37,757.786 1570.45,757.913 
  1572.54,758.04 1574.62,758.166 1576.71,758.291 1578.79,758.415 1580.88,758.539 1582.97,758.663 1585.05,758.786 1587.14,758.908 1589.22,759.029 1591.31,759.15 
  1593.39,759.271 1595.48,759.39 1597.56,759.51 1599.65,759.628 1601.74,759.746 1603.82,759.863 1605.91,759.98 1607.99,760.096 1610.08,760.212 1612.16,760.327 
  1614.25,760.442 1616.33,760.556 1618.42,760.669 1620.51,760.782 1622.59,760.894 1624.68,761.005 1626.76,761.117 1628.85,761.227 1630.93,761.337 1633.02,761.446 
  1635.1,761.555 1637.19,761.664 1639.28,761.771 1641.36,761.879 1643.45,761.985 1645.53,762.091 1647.62,762.197 1649.7,762.302 1651.79,762.407 1653.87,762.511 
  1655.96,762.614 1658.05,762.717 1660.13,762.82 1662.22,762.922 1664.3,763.023 1666.39,763.124 1668.47,763.225 1670.56,763.324 1672.65,763.424 1674.73,763.523 
  1676.82,763.621 1678.9,763.719 1680.99,763.817 1683.07,763.914 1685.16,764.01 1687.24,764.106 1689.33,764.202 1691.42,764.297 1693.5,764.391 1695.59,764.485 
  1697.67,764.579 1699.76,764.672 1701.84,764.765 1703.93,764.857 1706.01,764.948 1708.1,765.04 1710.19,765.13 1712.27,765.221 1714.36,765.311 1716.44,765.4 
  1718.53,765.489 1720.61,765.578 1722.7,765.666 1724.78,765.753 1726.87,765.841 1728.96,765.927 1731.04,766.014 1733.13,766.1 1735.21,766.185 1737.3,766.27 
  1739.38,766.355 1741.47,766.439 1743.55,766.523 1745.64,766.606 1747.73,766.689 1749.81,766.772 1751.9,766.854 1753.98,766.935 1756.07,767.017 1758.15,767.098 
  1760.24,767.178 1762.32,767.258 1764.41,767.338 1766.5,767.417 1768.58,767.496 1770.67,767.574 1772.75,767.652 1774.84,767.73 1776.92,767.807 1779.01,767.884 
  1781.1,767.961 1783.18,768.037 1785.27,768.113 1787.35,768.188 1789.44,768.263 1791.52,768.338 1793.61,768.412 1795.69,768.486 1797.78,768.559 1799.87,768.633 
  1801.95,768.705 1804.04,768.778 1806.12,768.85 1808.21,768.922 1810.29,768.993 1812.38,769.064 1814.46,769.135 1816.55,769.205 1818.64,769.275 1820.72,769.344 
  1822.81,769.414 1824.89,769.483 1826.98,769.551 1829.06,769.619 1831.15,769.687 1833.23,769.755 1835.32,769.822 1837.41,769.889 1839.49,769.955 1841.58,770.022 
  1843.66,770.088 1845.75,770.153 1847.83,770.218 1849.92,770.283 1852,770.348 1854.09,770.412 1856.18,770.476 1858.26,770.54 1860.35,770.603 1862.43,770.666 
  1864.52,770.729 1866.6,770.791 1868.69,770.853 1870.77,770.915 1872.86,770.977 1874.95,771.038 1877.03,771.099 1879.12,771.159 1881.2,771.22 1883.29,771.28 
  1885.37,771.339 1887.46,771.399 1889.55,771.458 1891.63,771.517 1893.72,771.575 1895.8,771.634 1897.89,771.692 1899.97,771.749 1902.06,771.807 1904.14,771.864 
  1906.23,771.921 1908.32,771.977 1910.4,772.034 1912.49,772.09 1914.57,772.145 1916.66,772.201 1918.74,772.256 1920.83,772.311 1922.91,772.365 1925,772.42 
  1927.09,772.474 1929.17,772.528 1931.26,772.581 1933.34,772.635 1935.43,772.688 1937.51,772.74 1939.6,772.793 1941.68,772.845 1943.77,772.897 1945.86,772.949 
  1947.94,773 1950.03,773.051 1952.11,773.102 1954.2,773.153 1956.28,773.203 1958.37,773.254 1960.45,773.304 1962.54,773.353 1964.63,773.403 1966.71,773.452 
  1968.8,773.501 1970.88,773.55 1972.97,773.598 1975.05,773.646 1977.14,773.694 1979.23,773.742 1981.31,773.789 1983.4,773.837 1985.48,773.884 1987.57,773.93 
  1989.65,773.977 1991.74,774.023 1993.82,774.069 1995.91,774.115 1998,774.161 2000.08,774.206 2002.17,774.251 2004.25,774.296 2006.34,774.341 2008.42,774.386 
  2010.51,774.43 2012.59,774.474 2014.68,774.518 2016.77,774.561 2018.85,774.605 2020.94,774.648 2023.02,774.691 2025.11,774.733 2027.19,774.776 2029.28,774.818 
  2031.36,774.86 2033.45,774.902 2035.54,774.944 2037.62,774.985 2039.71,775.026 2041.79,775.067 2043.88,775.108 2045.96,775.149 2048.05,775.189 2050.13,775.229 
  2052.22,775.269 2054.31,775.309 2056.39,775.349 2058.48,775.388 2060.56,775.427 2062.65,775.466 2064.73,775.505 2066.82,775.544 2068.9,775.582 2070.99,775.62 
  2073.08,775.658 2075.16,775.696 2077.25,775.734 2079.33,775.771 2081.42,775.808 2083.5,775.845 2085.59,775.882 2087.68,775.919 2089.76,775.955 2091.85,775.992 
  2093.93,776.028 2096.02,776.064 2098.1,776.099 2100.19,776.135 2102.27,776.17 2104.36,776.206 2106.45,776.241 2108.53,776.276 2110.62,776.31 2112.7,776.345 
  2114.79,776.379 2116.87,776.413 2118.96,776.447 2121.04,776.481 2123.13,776.515 2125.22,776.548 2127.3,776.581 2129.39,776.615 2131.47,776.648 2133.56,776.68 
  2135.64,776.713 2137.73,776.745 2139.81,776.778 2141.9,776.81 2143.99,776.842 2146.07,776.874 2148.16,776.905 2150.24,776.937 2152.33,776.968 2154.41,776.999 
  2156.5,777.03 2158.58,777.061 2160.67,777.092 2162.76,777.123 2164.84,777.153 2166.93,777.183 2169.01,777.213 2171.1,777.243 2173.18,777.273 2175.27,777.303 
  2177.35,777.332 2179.44,777.362 2181.53,777.391 2183.61,777.42 2185.7,777.449 2187.78,777.478 2189.87,777.506 2191.95,777.535 2194.04,777.563 2196.13,777.591 
  2198.21,777.619 2200.3,777.647 2202.38,777.675 2204.47,777.703 2206.55,777.73 2208.64,777.758 2210.72,777.785 2212.81,777.812 2214.9,777.839 2216.98,777.866 
  2219.07,777.892 2221.15,777.919 2223.24,777.945 2225.32,777.972 2227.41,777.998 2229.49,778.024 2231.58,778.05 2233.67,778.076 2235.75,778.101 2237.84,778.127 
  2239.92,778.152 2242.01,778.178 2244.09,778.203 2246.18,778.228 2248.26,778.253 2250.35,778.278 2252.44,778.302 2254.52,778.327 2256.61,778.351 2258.69,778.376 
  2260.78,778.4 2262.86,778.424 2264.95,778.448 2267.03,778.472 2269.12,778.496 2271.21,778.519 2273.29,778.543 2275.38,778.566 2277.46,778.589 2279.55,778.613 
  2281.63,778.636 2283.72,778.659 2285.81,778.681 2287.89,778.704 2289.98,778.727 2292.06,778.749 2294.15,778.772 2296.23,778.794 2298.32,778.816 2300.4,778.838 
  2302.49,778.86 2304.58,778.882 2306.66,778.904 2308.75,778.925 2310.83,778.947 2312.92,778.968 2315,778.99 2317.09,779.011 2319.17,779.032 2321.26,779.053 
  
  "/>
<polygon clip-path="url(#clip1701)" points="
1910.3,390.944 2249.26,390.944 2249.26,209.504 1910.3,209.504 
  " fill="#ffffff" fill-rule="evenodd" fill-opacity="1"/>
<polyline clip-path="url(#clip1701)" style="stroke:#000000; stroke-width:4; stroke-opacity:1; fill:none" points="
  1910.3,390.944 2249.26,390.944 2249.26,209.504 1910.3,209.504 1910.3,390.944 
  "/>
<polyline clip-path="url(#clip1701)" style="stroke:#009af9; stroke-width:12; stroke-opacity:1; fill:none" points="
  1934.3,269.984 2078.3,269.984 
  "/>
<g clip-path="url(#clip1701)">
<text style="fill:#000000; fill-opacity:1; font-family:Arial,Helvetica Neue,Helvetica,sans-serif; font-size:48px; text-anchor:start;" transform="rotate(0, 2102.3, 287.484)" x="2102.3" y="287.484">u1(t)</text>
</g>
<polyline clip-path="url(#clip1701)" style="stroke:#e26f46; stroke-width:12; stroke-opacity:1; fill:none" points="
  1934.3,330.464 2078.3,330.464 
  "/>
<g clip-path="url(#clip1701)">
<text style="fill:#000000; fill-opacity:1; font-family:Arial,Helvetica Neue,Helvetica,sans-serif; font-size:48px; text-anchor:start;" transform="rotate(0, 2102.3, 347.964)" x="2102.3" y="347.964">u2(t)</text>
</g>
</svg>
