<?xml version="1.0" encoding="utf-8"?>
<svg xmlns="http://www.w3.org/2000/svg" xmlns:xlink="http://www.w3.org/1999/xlink" width="600" height="400" viewBox="0 0 2400 1600">
<defs>
  <clipPath id="clip8800">
    <rect x="0" y="0" width="2000" height="2000"/>
  </clipPath>
</defs>
<defs>
  <clipPath id="clip8801">
    <rect x="0" y="0" width="2400" height="1600"/>
  </clipPath>
</defs>
<polygon clip-path="url(#clip8801)" points="
0,1600 2400,1600 2400,0 0,0 
  " fill="#ffffff" fill-rule="evenodd" fill-opacity="1"/>
<defs>
  <clipPath id="clip8802">
    <rect x="480" y="0" width="1681" height="1600"/>
  </clipPath>
</defs>
<polygon clip-path="url(#clip8801)" points="
237.767,1440.48 2321.26,1440.48 2321.26,47.2441 237.767,47.2441 
  " fill="#ffffff" fill-rule="evenodd" fill-opacity="1"/>
<defs>
  <clipPath id="clip8803">
    <rect x="237" y="47" width="2084" height="1394"/>
  </clipPath>
</defs>
<polyline clip-path="url(#clip8803)" style="stroke:#000000; stroke-width:2; stroke-opacity:0.1; fill:none" points="
  237.767,1440.48 237.767,47.2441 
  "/>
<polyline clip-path="url(#clip8803)" style="stroke:#000000; stroke-width:2; stroke-opacity:0.1; fill:none" points="
  654.466,1440.48 654.466,47.2441 
  "/>
<polyline clip-path="url(#clip8803)" style="stroke:#000000; stroke-width:2; stroke-opacity:0.1; fill:none" points="
  1071.16,1440.48 1071.16,47.2441 
  "/>
<polyline clip-path="url(#clip8803)" style="stroke:#000000; stroke-width:2; stroke-opacity:0.1; fill:none" points="
  1487.86,1440.48 1487.86,47.2441 
  "/>
<polyline clip-path="url(#clip8803)" style="stroke:#000000; stroke-width:2; stroke-opacity:0.1; fill:none" points="
  1904.56,1440.48 1904.56,47.2441 
  "/>
<polyline clip-path="url(#clip8803)" style="stroke:#000000; stroke-width:2; stroke-opacity:0.1; fill:none" points="
  2321.26,1440.48 2321.26,47.2441 
  "/>
<polyline clip-path="url(#clip8803)" style="stroke:#000000; stroke-width:2; stroke-opacity:0.1; fill:none" points="
  237.767,1401.05 2321.26,1401.05 
  "/>
<polyline clip-path="url(#clip8803)" style="stroke:#000000; stroke-width:2; stroke-opacity:0.1; fill:none" points="
  237.767,1072.46 2321.26,1072.46 
  "/>
<polyline clip-path="url(#clip8803)" style="stroke:#000000; stroke-width:2; stroke-opacity:0.1; fill:none" points="
  237.767,743.863 2321.26,743.863 
  "/>
<polyline clip-path="url(#clip8803)" style="stroke:#000000; stroke-width:2; stroke-opacity:0.1; fill:none" points="
  237.767,415.269 2321.26,415.269 
  "/>
<polyline clip-path="url(#clip8803)" style="stroke:#000000; stroke-width:2; stroke-opacity:0.1; fill:none" points="
  237.767,86.6754 2321.26,86.6754 
  "/>
<polyline clip-path="url(#clip8801)" style="stroke:#000000; stroke-width:4; stroke-opacity:1; fill:none" points="
  237.767,1440.48 2321.26,1440.48 
  "/>
<polyline clip-path="url(#clip8801)" style="stroke:#000000; stroke-width:4; stroke-opacity:1; fill:none" points="
  237.767,1440.48 237.767,47.2441 
  "/>
<polyline clip-path="url(#clip8801)" style="stroke:#000000; stroke-width:4; stroke-opacity:1; fill:none" points="
  237.767,1440.48 237.767,1419.58 
  "/>
<polyline clip-path="url(#clip8801)" style="stroke:#000000; stroke-width:4; stroke-opacity:1; fill:none" points="
  654.466,1440.48 654.466,1419.58 
  "/>
<polyline clip-path="url(#clip8801)" style="stroke:#000000; stroke-width:4; stroke-opacity:1; fill:none" points="
  1071.16,1440.48 1071.16,1419.58 
  "/>
<polyline clip-path="url(#clip8801)" style="stroke:#000000; stroke-width:4; stroke-opacity:1; fill:none" points="
  1487.86,1440.48 1487.86,1419.58 
  "/>
<polyline clip-path="url(#clip8801)" style="stroke:#000000; stroke-width:4; stroke-opacity:1; fill:none" points="
  1904.56,1440.48 1904.56,1419.58 
  "/>
<polyline clip-path="url(#clip8801)" style="stroke:#000000; stroke-width:4; stroke-opacity:1; fill:none" points="
  2321.26,1440.48 2321.26,1419.58 
  "/>
<polyline clip-path="url(#clip8801)" style="stroke:#000000; stroke-width:4; stroke-opacity:1; fill:none" points="
  237.767,1401.05 269.02,1401.05 
  "/>
<polyline clip-path="url(#clip8801)" style="stroke:#000000; stroke-width:4; stroke-opacity:1; fill:none" points="
  237.767,1072.46 269.02,1072.46 
  "/>
<polyline clip-path="url(#clip8801)" style="stroke:#000000; stroke-width:4; stroke-opacity:1; fill:none" points="
  237.767,743.863 269.02,743.863 
  "/>
<polyline clip-path="url(#clip8801)" style="stroke:#000000; stroke-width:4; stroke-opacity:1; fill:none" points="
  237.767,415.269 269.02,415.269 
  "/>
<polyline clip-path="url(#clip8801)" style="stroke:#000000; stroke-width:4; stroke-opacity:1; fill:none" points="
  237.767,86.6754 269.02,86.6754 
  "/>
<g clip-path="url(#clip8801)">
<text style="fill:#000000; fill-opacity:1; font-family:Arial,Helvetica Neue,Helvetica,sans-serif; font-size:48px; text-anchor:middle;" transform="rotate(0, 237.767, 1494.48)" x="237.767" y="1494.48">0</text>
</g>
<g clip-path="url(#clip8801)">
<text style="fill:#000000; fill-opacity:1; font-family:Arial,Helvetica Neue,Helvetica,sans-serif; font-size:48px; text-anchor:middle;" transform="rotate(0, 654.466, 1494.48)" x="654.466" y="1494.48">10</text>
</g>
<g clip-path="url(#clip8801)">
<text style="fill:#000000; fill-opacity:1; font-family:Arial,Helvetica Neue,Helvetica,sans-serif; font-size:48px; text-anchor:middle;" transform="rotate(0, 1071.16, 1494.48)" x="1071.16" y="1494.48">20</text>
</g>
<g clip-path="url(#clip8801)">
<text style="fill:#000000; fill-opacity:1; font-family:Arial,Helvetica Neue,Helvetica,sans-serif; font-size:48px; text-anchor:middle;" transform="rotate(0, 1487.86, 1494.48)" x="1487.86" y="1494.48">30</text>
</g>
<g clip-path="url(#clip8801)">
<text style="fill:#000000; fill-opacity:1; font-family:Arial,Helvetica Neue,Helvetica,sans-serif; font-size:48px; text-anchor:middle;" transform="rotate(0, 1904.56, 1494.48)" x="1904.56" y="1494.48">40</text>
</g>
<g clip-path="url(#clip8801)">
<text style="fill:#000000; fill-opacity:1; font-family:Arial,Helvetica Neue,Helvetica,sans-serif; font-size:48px; text-anchor:middle;" transform="rotate(0, 2321.26, 1494.48)" x="2321.26" y="1494.48">50</text>
</g>
<g clip-path="url(#clip8801)">
<text style="fill:#000000; fill-opacity:1; font-family:Arial,Helvetica Neue,Helvetica,sans-serif; font-size:48px; text-anchor:end;" transform="rotate(0, 213.767, 1418.55)" x="213.767" y="1418.55">0</text>
</g>
<g clip-path="url(#clip8801)">
<text style="fill:#000000; fill-opacity:1; font-family:Arial,Helvetica Neue,Helvetica,sans-serif; font-size:48px; text-anchor:end;" transform="rotate(0, 213.767, 1089.96)" x="213.767" y="1089.96">25</text>
</g>
<g clip-path="url(#clip8801)">
<text style="fill:#000000; fill-opacity:1; font-family:Arial,Helvetica Neue,Helvetica,sans-serif; font-size:48px; text-anchor:end;" transform="rotate(0, 213.767, 761.363)" x="213.767" y="761.363">50</text>
</g>
<g clip-path="url(#clip8801)">
<text style="fill:#000000; fill-opacity:1; font-family:Arial,Helvetica Neue,Helvetica,sans-serif; font-size:48px; text-anchor:end;" transform="rotate(0, 213.767, 432.769)" x="213.767" y="432.769">75</text>
</g>
<g clip-path="url(#clip8801)">
<text style="fill:#000000; fill-opacity:1; font-family:Arial,Helvetica Neue,Helvetica,sans-serif; font-size:48px; text-anchor:end;" transform="rotate(0, 213.767, 104.175)" x="213.767" y="104.175">100</text>
</g>
<g clip-path="url(#clip8801)">
<text style="fill:#000000; fill-opacity:1; font-family:Arial,Helvetica Neue,Helvetica,sans-serif; font-size:66px; text-anchor:middle;" transform="rotate(0, 1279.51, 1590.4)" x="1279.51" y="1590.4">x (m)</text>
</g>
<g clip-path="url(#clip8801)">
<text style="fill:#000000; fill-opacity:1; font-family:Arial,Helvetica Neue,Helvetica,sans-serif; font-size:66px; text-anchor:middle;" transform="rotate(-90, 57.6, 743.863)" x="57.6" y="743.863">T (°C)</text>
</g>
<polyline clip-path="url(#clip8803)" style="stroke:#009af9; stroke-width:12; stroke-opacity:1; fill:none" points="
  237.767,1401.05 239.853,1397.77 241.938,1394.51 244.024,1391.26 246.11,1388.03 248.195,1384.81 250.281,1381.61 252.366,1378.43 254.452,1375.26 256.538,1372.11 
  258.623,1368.97 260.709,1365.85 262.794,1362.74 264.88,1359.65 266.965,1356.58 269.051,1353.52 271.137,1350.48 273.222,1347.45 275.308,1344.43 277.393,1341.44 
  279.479,1338.45 281.564,1335.48 283.65,1332.53 285.736,1329.59 287.821,1326.67 289.907,1323.76 291.992,1320.86 294.078,1317.98 296.164,1315.12 298.249,1312.26 
  300.335,1309.43 302.42,1306.6 304.506,1303.79 306.591,1301 308.677,1298.22 310.763,1295.45 312.848,1292.69 314.934,1289.95 317.019,1287.23 319.105,1284.51 
  321.19,1281.82 323.276,1279.13 325.362,1276.46 327.447,1273.8 329.533,1271.15 331.618,1268.52 333.704,1265.9 335.79,1263.29 337.875,1260.7 339.961,1258.12 
  342.046,1255.55 344.132,1253 346.217,1250.46 348.303,1247.93 350.389,1245.41 352.474,1242.91 354.56,1240.42 356.645,1237.94 358.731,1235.47 360.816,1233.02 
  362.902,1230.57 364.988,1228.14 367.073,1225.73 369.159,1223.32 371.244,1220.93 373.33,1218.55 375.415,1216.18 377.501,1213.82 379.587,1211.47 381.672,1209.14 
  383.758,1206.81 385.843,1204.5 387.929,1202.2 390.015,1199.91 392.1,1197.64 394.186,1195.37 396.271,1193.12 398.357,1190.87 400.442,1188.64 402.528,1186.42 
  404.614,1184.21 406.699,1182.01 408.785,1179.83 410.87,1177.65 412.956,1175.49 415.041,1173.33 417.127,1171.19 419.213,1169.05 421.298,1166.93 423.384,1164.82 
  425.469,1162.72 427.555,1160.63 429.641,1158.54 431.726,1156.47 433.812,1154.41 435.897,1152.36 437.983,1150.32 440.068,1148.3 442.154,1146.28 444.24,1144.27 
  446.325,1142.27 448.411,1140.28 450.496,1138.3 452.582,1136.33 454.667,1134.37 456.753,1132.42 458.839,1130.48 460.924,1128.55 463.01,1126.63 465.095,1124.72 
  467.181,1122.82 469.267,1120.93 471.352,1119.04 473.438,1117.17 475.523,1115.31 477.609,1113.45 479.694,1111.61 481.78,1109.77 483.866,1107.95 485.951,1106.13 
  488.037,1104.32 490.122,1102.52 492.208,1100.73 494.293,1098.95 496.379,1097.17 498.465,1095.41 500.55,1093.66 502.636,1091.91 504.721,1090.17 506.807,1088.44 
  508.892,1086.72 510.978,1085.01 513.064,1083.31 515.149,1081.61 517.235,1079.93 519.32,1078.25 521.406,1076.58 523.492,1074.92 525.577,1073.27 527.663,1071.62 
  529.748,1069.98 531.834,1068.36 533.919,1066.74 536.005,1065.12 538.091,1063.52 540.176,1061.92 542.262,1060.34 544.347,1058.76 546.433,1057.18 548.518,1055.62 
  550.604,1054.06 552.69,1052.52 554.775,1050.97 556.861,1049.44 558.946,1047.92 561.032,1046.4 563.118,1044.89 565.203,1043.38 567.289,1041.89 569.374,1040.4 
  571.46,1038.92 573.545,1037.45 575.631,1035.98 577.717,1034.52 579.802,1033.07 581.888,1031.63 583.973,1030.19 586.059,1028.76 588.144,1027.34 590.23,1025.92 
  592.316,1024.52 594.401,1023.12 596.487,1021.72 598.572,1020.33 600.658,1018.95 602.743,1017.58 604.829,1016.21 606.915,1014.85 609,1013.5 611.086,1012.15 
  613.171,1010.82 615.257,1009.48 617.343,1008.16 619.428,1006.84 621.514,1005.52 623.599,1004.22 625.685,1002.92 627.77,1001.62 629.856,1000.34 631.942,999.057 
  634.027,997.783 636.113,996.515 638.198,995.254 640.284,993.999 642.369,992.75 644.455,991.507 646.541,990.271 648.626,989.041 650.712,987.817 652.797,986.599 
  654.883,985.387 656.969,984.181 659.054,982.981 661.14,981.787 663.225,980.599 665.311,979.417 667.396,978.241 669.482,977.071 671.568,975.907 673.653,974.748 
  675.739,973.596 677.824,972.449 679.91,971.308 681.995,970.172 684.081,969.042 686.167,967.918 688.252,966.8 690.338,965.687 692.423,964.579 694.509,963.477 
  696.595,962.381 698.68,961.29 700.766,960.204 702.851,959.124 704.937,958.05 707.022,956.98 709.108,955.916 711.194,954.858 713.279,953.804 715.365,952.756 
  717.45,951.713 719.536,950.676 721.621,949.643 723.707,948.616 725.793,947.594 727.878,946.577 729.964,945.565 732.049,944.558 734.135,943.556 736.22,942.559 
  738.306,941.567 740.392,940.58 742.477,939.598 744.563,938.621 746.648,937.648 748.734,936.681 750.82,935.718 752.905,934.76 754.991,933.807 757.076,932.859 
  759.162,931.916 761.247,930.977 763.333,930.043 765.419,929.113 767.504,928.188 769.59,927.268 771.675,926.352 773.761,925.441 775.846,924.535 777.932,923.633 
  780.018,922.735 782.103,921.842 784.189,920.954 786.274,920.069 788.36,919.19 790.446,918.314 792.531,917.443 794.617,916.577 796.702,915.714 798.788,914.856 
  800.873,914.003 802.959,913.153 805.045,912.308 807.13,911.467 809.216,910.63 811.301,909.797 813.387,908.969 815.472,908.144 817.558,907.324 819.644,906.508 
  821.729,905.696 823.815,904.888 825.9,904.084 827.986,903.284 830.072,902.488 832.157,901.696 834.243,900.908 836.328,900.124 838.414,899.344 840.499,898.567 
  842.585,897.795 844.671,897.027 846.756,896.262 848.842,895.501 850.927,894.744 853.013,893.991 855.098,893.241 857.184,892.495 859.27,891.753 861.355,891.015 
  863.441,890.28 865.526,889.549 867.612,888.822 869.697,888.098 871.783,887.378 873.869,886.662 875.954,885.949 878.04,885.239 880.125,884.534 882.211,883.831 
  884.297,883.132 886.382,882.437 888.468,881.745 890.553,881.057 892.639,880.372 894.724,879.691 896.81,879.013 898.896,878.338 900.981,877.667 903.067,876.999 
  905.152,876.334 907.238,875.673 909.323,875.015 911.409,874.36 913.495,873.709 915.58,873.06 917.666,872.415 919.751,871.774 921.837,871.135 923.923,870.5 
  926.008,869.868 928.094,869.239 930.179,868.613 932.265,867.99 934.35,867.37 936.436,866.754 938.522,866.14 940.607,865.53 942.693,864.922 944.778,864.318 
  946.864,863.717 948.949,863.118 951.035,862.523 953.121,861.931 955.206,861.341 957.292,860.755 959.377,860.171 961.463,859.591 963.549,859.013 965.634,858.438 
  967.72,857.866 969.805,857.297 971.891,856.731 973.976,856.167 976.062,855.606 978.148,855.049 980.233,854.494 982.319,853.941 984.404,853.392 986.49,852.845 
  988.575,852.301 990.661,851.759 992.747,851.221 994.832,850.685 996.918,850.151 999.003,849.621 1001.09,849.093 1003.17,848.567 1005.26,848.044 1007.35,847.524 
  1009.43,847.006 1011.52,846.491 1013.6,845.979 1015.69,845.469 1017.77,844.962 1019.86,844.457 1021.94,843.955 1024.03,843.455 1026.12,842.957 1028.2,842.463 
  1030.29,841.97 1032.37,841.48 1034.46,840.993 1036.54,840.508 1038.63,840.025 1040.71,839.545 1042.8,839.067 1044.89,838.592 1046.97,838.119 1049.06,837.648 
  1051.14,837.18 1053.23,836.714 1055.31,836.25 1057.4,835.789 1059.49,835.33 1061.57,834.873 1063.66,834.419 1065.74,833.967 1067.83,833.517 1069.91,833.069 
  1072,832.624 1074.08,832.181 1076.17,831.74 1078.26,831.301 1080.34,830.864 1082.43,830.43 1084.51,829.998 1086.6,829.568 1088.68,829.14 1090.77,828.714 
  1092.85,828.29 1094.94,827.869 1097.03,827.449 1099.11,827.032 1101.2,826.617 1103.28,826.204 1105.37,825.793 1107.45,825.384 1109.54,824.977 1111.62,824.572 
  1113.71,824.169 1115.8,823.768 1117.88,823.369 1119.97,822.972 1122.05,822.577 1124.14,822.184 1126.22,821.793 1128.31,821.404 1130.39,821.017 1132.48,820.632 
  1134.57,820.249 1136.65,819.868 1138.74,819.488 1140.82,819.111 1142.91,818.735 1144.99,818.362 1147.08,817.99 1149.16,817.62 1151.25,817.252 1153.34,816.885 
  1155.42,816.521 1157.51,816.158 1159.59,815.797 1161.68,815.438 1163.76,815.081 1165.85,814.725 1167.94,814.372 1170.02,814.02 1172.11,813.67 1174.19,813.321 
  1176.28,812.974 1178.36,812.63 1180.45,812.286 1182.53,811.945 1184.62,811.605 1186.71,811.267 1188.79,810.93 1190.88,810.596 1192.96,810.262 1195.05,809.931 
  1197.13,809.601 1199.22,809.273 1201.3,808.947 1203.39,808.622 1205.48,808.299 1207.56,807.977 1209.65,807.657 1211.73,807.338 1213.82,807.022 1215.9,806.706 
  1217.99,806.393 1220.07,806.08 1222.16,805.77 1224.25,805.461 1226.33,805.153 1228.42,804.847 1230.5,804.543 1232.59,804.24 1234.67,803.938 1236.76,803.639 
  1238.84,803.34 1240.93,803.043 1243.02,802.748 1245.1,802.454 1247.19,802.161 1249.27,801.87 1251.36,801.58 1253.44,801.292 1255.53,801.005 1257.62,800.72 
  1259.7,800.436 1261.79,800.153 1263.87,799.872 1265.96,799.593 1268.04,799.314 1270.13,799.037 1272.21,798.762 1274.3,798.488 1276.39,798.215 1278.47,797.943 
  1280.56,797.673 1282.64,797.404 1284.73,797.137 1286.81,796.871 1288.9,796.606 1290.98,796.343 1293.07,796.081 1295.16,795.82 1297.24,795.56 1299.33,795.302 
  1301.41,795.045 1303.5,794.789 1305.58,794.535 1307.67,794.282 1309.75,794.03 1311.84,793.78 1313.93,793.53 1316.01,793.282 1318.1,793.035 1320.18,792.79 
  1322.27,792.546 1324.35,792.302 1326.44,792.06 1328.52,791.82 1330.61,791.58 1332.7,791.342 1334.78,791.105 1336.87,790.869 1338.95,790.634 1341.04,790.401 
  1343.12,790.168 1345.21,789.937 1347.29,789.707 1349.38,789.478 1351.47,789.25 1353.55,789.024 1355.64,788.798 1357.72,788.574 1359.81,788.351 1361.89,788.128 
  1363.98,787.907 1366.07,787.688 1368.15,787.469 1370.24,787.251 1372.32,787.034 1374.41,786.819 1376.49,786.604 1378.58,786.391 1380.66,786.179 1382.75,785.968 
  1384.84,785.757 1386.92,785.548 1389.01,785.34 1391.09,785.133 1393.18,784.927 1395.26,784.722 1397.35,784.518 1399.43,784.315 1401.52,784.113 1403.61,783.913 
  1405.69,783.713 1407.78,783.514 1409.86,783.316 1411.95,783.119 1414.03,782.923 1416.12,782.728 1418.2,782.534 1420.29,782.341 1422.38,782.149 1424.46,781.958 
  1426.55,781.768 1428.63,781.579 1430.72,781.391 1432.8,781.203 1434.89,781.017 1436.97,780.832 1439.06,780.647 1441.15,780.464 1443.23,780.281 1445.32,780.099 
  1447.4,779.918 1449.49,779.739 1451.57,779.56 1453.66,779.381 1455.74,779.204 1457.83,779.028 1459.92,778.852 1462,778.678 1464.09,778.504 1466.17,778.331 
  1468.26,778.159 1470.34,777.988 1472.43,777.818 1474.52,777.648 1476.6,777.48 1478.69,777.312 1480.77,777.145 1482.86,776.979 1484.94,776.814 1487.03,776.649 
  1489.11,776.486 1491.2,776.323 1493.29,776.161 1495.37,776 1497.46,775.84 1499.54,775.68 1501.63,775.521 1503.71,775.363 1505.8,775.206 1507.88,775.05 
  1509.97,774.894 1512.06,774.739 1514.14,774.585 1516.23,774.432 1518.31,774.279 1520.4,774.127 1522.48,773.976 1524.57,773.826 1526.65,773.676 1528.74,773.527 
  1530.83,773.379 1532.91,773.232 1535,773.085 1537.08,772.939 1539.17,772.794 1541.25,772.65 1543.34,772.506 1545.42,772.363 1547.51,772.22 1549.6,772.079 
  1551.68,771.938 1553.77,771.798 1555.85,771.658 1557.94,771.519 1560.02,771.381 1562.11,771.244 1564.19,771.107 1566.28,770.971 1568.37,770.835 1570.45,770.7 
  1572.54,770.566 1574.62,770.433 1576.71,770.3 1578.79,770.168 1580.88,770.037 1582.97,769.906 1585.05,769.776 1587.14,769.646 1589.22,769.517 1591.31,769.389 
  1593.39,769.262 1595.48,769.135 1597.56,769.008 1599.65,768.883 1601.74,768.758 1603.82,768.633 1605.91,768.509 1607.99,768.386 1610.08,768.264 1612.16,768.142 
  1614.25,768.02 1616.33,767.9 1618.42,767.78 1620.51,767.66 1622.59,767.541 1624.68,767.423 1626.76,767.305 1628.85,767.188 1630.93,767.071 1633.02,766.955 
  1635.1,766.84 1637.19,766.725 1639.28,766.611 1641.36,766.497 1643.45,766.384 1645.53,766.272 1647.62,766.16 1649.7,766.048 1651.79,765.938 1653.87,765.827 
  1655.96,765.718 1658.05,765.608 1660.13,765.5 1662.22,765.392 1664.3,765.284 1666.39,765.177 1668.47,765.071 1670.56,764.965 1672.65,764.859 1674.73,764.755 
  1676.82,764.65 1678.9,764.546 1680.99,764.443 1683.07,764.34 1685.16,764.238 1687.24,764.136 1689.33,764.035 1691.42,763.935 1693.5,763.834 1695.59,763.735 
  1697.67,763.635 1699.76,763.537 1701.84,763.439 1703.93,763.341 1706.01,763.244 1708.1,763.147 1710.19,763.051 1712.27,762.955 1714.36,762.86 1716.44,762.765 
  1718.53,762.671 1720.61,762.577 1722.7,762.483 1724.78,762.39 1726.87,762.298 1728.96,762.206 1731.04,762.114 1733.13,762.023 1735.21,761.933 1737.3,761.843 
  1739.38,761.753 1741.47,761.664 1743.55,761.575 1745.64,761.487 1747.73,761.399 1749.81,761.311 1751.9,761.224 1753.98,761.138 1756.07,761.052 1758.15,760.966 
  1760.24,760.881 1762.32,760.796 1764.41,760.711 1766.5,760.627 1768.58,760.544 1770.67,760.46 1772.75,760.378 1774.84,760.295 1776.92,760.213 1779.01,760.132 
  1781.1,760.051 1783.18,759.97 1785.27,759.89 1787.35,759.81 1789.44,759.73 1791.52,759.651 1793.61,759.573 1795.69,759.494 1797.78,759.416 1799.87,759.339 
  1801.95,759.262 1804.04,759.185 1806.12,759.109 1808.21,759.032 1810.29,758.957 1812.38,758.882 1814.46,758.807 1816.55,758.732 1818.64,758.658 1820.72,758.584 
  1822.81,758.511 1824.89,758.438 1826.98,758.365 1829.06,758.293 1831.15,758.221 1833.23,758.149 1835.32,758.078 1837.41,758.007 1839.49,757.937 1841.58,757.866 
  1843.66,757.797 1845.75,757.727 1847.83,757.658 1849.92,757.589 1852,757.521 1854.09,757.453 1856.18,757.385 1858.26,757.317 1860.35,757.25 1862.43,757.183 
  1864.52,757.117 1866.6,757.051 1868.69,756.985 1870.77,756.919 1872.86,756.854 1874.95,756.789 1877.03,756.725 1879.12,756.661 1881.2,756.597 1883.29,756.533 
  1885.37,756.47 1887.46,756.407 1889.55,756.344 1891.63,756.282 1893.72,756.22 1895.8,756.158 1897.89,756.097 1899.97,756.035 1902.06,755.975 1904.14,755.914 
  1906.23,755.854 1908.32,755.794 1910.4,755.734 1912.49,755.675 1914.57,755.616 1916.66,755.557 1918.74,755.498 1920.83,755.44 1922.91,755.382 1925,755.325 
  1927.09,755.267 1929.17,755.21 1931.26,755.154 1933.34,755.097 1935.43,755.041 1937.51,754.985 1939.6,754.929 1941.68,754.874 1943.77,754.819 1945.86,754.764 
  1947.94,754.71 1950.03,754.655 1952.11,754.601 1954.2,754.548 1956.28,754.494 1958.37,754.441 1960.45,754.388 1962.54,754.335 1964.63,754.283 1966.71,754.231 
  1968.8,754.179 1970.88,754.127 1972.97,754.076 1975.05,754.025 1977.14,753.974 1979.23,753.923 1981.31,753.873 1983.4,753.823 1985.48,753.773 1987.57,753.724 
  1989.65,753.674 1991.74,753.625 1993.82,753.576 1995.91,753.528 1998,753.479 2000.08,753.431 2002.17,753.383 2004.25,753.336 2006.34,753.288 2008.42,753.241 
  2010.51,753.194 2012.59,753.148 2014.68,753.101 2016.77,753.055 2018.85,753.009 2020.94,752.963 2023.02,752.918 2025.11,752.873 2027.19,752.828 2029.28,752.783 
  2031.36,752.738 2033.45,752.694 2035.54,752.65 2037.62,752.606 2039.71,752.562 2041.79,752.519 2043.88,752.475 2045.96,752.432 2048.05,752.39 2050.13,752.347 
  2052.22,752.305 2054.31,752.262 2056.39,752.22 2058.48,752.179 2060.56,752.137 2062.65,752.096 2064.73,752.055 2066.82,752.014 2068.9,751.973 2070.99,751.933 
  2073.08,751.892 2075.16,751.852 2077.25,751.812 2079.33,751.773 2081.42,751.733 2083.5,751.694 2085.59,751.655 2087.68,751.616 2089.76,751.577 2091.85,751.539 
  2093.93,751.501 2096.02,751.463 2098.1,751.425 2100.19,751.387 2102.27,751.349 2104.36,751.312 2106.45,751.275 2108.53,751.238 2110.62,751.201 2112.7,751.165 
  2114.79,751.128 2116.87,751.092 2118.96,751.056 2121.04,751.02 2123.13,750.985 2125.22,750.949 2127.3,750.914 2129.39,750.879 2131.47,750.844 2133.56,750.809 
  2135.64,750.774 2137.73,750.74 2139.81,750.706 2141.9,750.672 2143.99,750.638 2146.07,750.604 2148.16,750.571 2150.24,750.537 2152.33,750.504 2154.41,750.471 
  2156.5,750.438 2158.58,750.405 2160.67,750.373 2162.76,750.34 2164.84,750.308 2166.93,750.276 2169.01,750.244 2171.1,750.212 2173.18,750.181 2175.27,750.149 
  2177.35,750.118 2179.44,750.087 2181.53,750.056 2183.61,750.025 2185.7,749.995 2187.78,749.964 2189.87,749.934 2191.95,749.903 2194.04,749.873 2196.13,749.844 
  2198.21,749.814 2200.3,749.784 2202.38,749.755 2204.47,749.725 2206.55,749.696 2208.64,749.667 2210.72,749.638 2212.81,749.61 2214.9,749.581 2216.98,749.553 
  2219.07,749.524 2221.15,749.496 2223.24,749.468 2225.32,749.44 2227.41,749.412 2229.49,749.385 2231.58,749.357 2233.67,749.33 2235.75,749.303 2237.84,749.276 
  2239.92,749.249 2242.01,749.222 2244.09,749.195 2246.18,749.169 2248.26,749.142 2250.35,749.116 2252.44,749.09 2254.52,749.064 2256.61,749.038 2258.69,749.012 
  2260.78,748.986 2262.86,748.961 2264.95,748.935 2267.03,748.91 2269.12,748.885 2271.21,748.86 2273.29,748.835 2275.38,748.81 2277.46,748.786 2279.55,748.761 
  2281.63,748.737 2283.72,748.712 2285.81,748.688 2287.89,748.664 2289.98,748.64 2292.06,748.616 2294.15,748.592 2296.23,748.569 2298.32,748.545 2300.4,748.522 
  2302.49,748.499 2304.58,748.475 2306.66,748.452 2308.75,748.43 2310.83,748.407 2312.92,748.384 2315,748.361 2317.09,748.339 2319.17,748.317 2321.26,748.294 
  
  "/>
<polyline clip-path="url(#clip8803)" style="stroke:#e26f46; stroke-width:12; stroke-opacity:1; fill:none" points="
  237.767,86.6754 239.853,89.9564 241.938,93.221 244.024,96.4693 246.11,99.7015 248.195,102.917 250.281,106.117 252.366,109.301 254.452,112.469 256.538,115.622 
  258.623,118.758 260.709,121.879 262.794,124.984 264.88,128.074 266.965,131.148 269.051,134.207 271.137,137.251 273.222,140.279 275.308,143.293 277.393,146.291 
  279.479,149.275 281.564,152.243 283.65,155.197 285.736,158.136 287.821,161.06 289.907,163.97 291.992,166.865 294.078,169.745 296.164,172.612 298.249,175.464 
  300.335,178.301 302.42,181.125 304.506,183.934 306.591,186.73 308.677,189.511 310.763,192.279 312.848,195.033 314.934,197.773 317.019,200.499 319.105,203.212 
  321.19,205.911 323.276,208.597 325.362,211.269 327.447,213.928 329.533,216.574 331.618,219.206 333.704,221.826 335.79,224.432 337.875,227.025 339.961,229.605 
  342.046,232.173 344.132,234.728 346.217,237.269 348.303,239.799 350.389,242.315 352.474,244.819 354.56,247.311 356.645,249.79 358.731,252.256 360.816,254.711 
  362.902,257.153 364.988,259.583 367.073,262 369.159,264.406 371.244,266.8 373.33,269.182 375.415,271.551 377.501,273.909 379.587,276.256 381.672,278.59 
  383.758,280.913 385.843,283.224 387.929,285.524 390.015,287.812 392.1,290.089 394.186,292.355 396.271,294.609 398.357,296.852 400.442,299.083 402.528,301.304 
  404.614,303.514 406.699,305.712 408.785,307.899 410.87,310.076 412.956,312.242 415.041,314.397 417.127,316.541 419.213,318.674 421.298,320.797 423.384,322.909 
  425.469,325.011 427.555,327.102 429.641,329.182 431.726,331.253 433.812,333.313 435.897,335.362 437.983,337.402 440.068,339.431 442.154,341.45 444.24,343.459 
  446.325,345.458 448.411,347.447 450.496,349.426 452.582,351.396 454.667,353.355 456.753,355.305 458.839,357.244 460.924,359.175 463.01,361.095 465.095,363.006 
  467.181,364.908 469.267,366.799 471.352,368.682 473.438,370.555 475.523,372.419 477.609,374.273 479.694,376.118 481.78,377.954 483.866,379.781 485.951,381.599 
  488.037,383.408 490.122,385.207 492.208,386.998 494.293,388.78 496.379,390.552 498.465,392.316 500.55,394.071 502.636,395.818 504.721,397.555 506.807,399.284 
  508.892,401.005 510.978,402.716 513.064,404.42 515.149,406.114 517.235,407.8 519.32,409.478 521.406,411.148 523.492,412.809 525.577,414.462 527.663,416.106 
  529.748,417.742 531.834,419.371 533.919,420.991 536.005,422.602 538.091,424.206 540.176,425.802 542.262,427.39 544.347,428.97 546.433,430.542 548.518,432.106 
  550.604,433.663 552.69,435.212 554.775,436.752 556.861,438.286 558.946,439.811 561.032,441.329 563.118,442.84 565.203,444.342 567.289,445.838 569.374,447.326 
  571.46,448.806 573.545,450.279 575.631,451.745 577.717,453.203 579.802,454.654 581.888,456.098 583.973,457.535 586.059,458.964 588.144,460.387 590.23,461.802 
  592.316,463.21 594.401,464.611 596.487,466.006 598.572,467.393 600.658,468.773 602.743,470.146 604.829,471.513 606.915,472.873 609,474.226 611.086,475.572 
  613.171,476.911 615.257,478.244 617.343,479.57 619.428,480.89 621.514,482.203 623.599,483.509 625.685,484.809 627.77,486.102 629.856,487.389 631.942,488.67 
  634.027,489.944 636.113,491.212 638.198,492.473 640.284,493.728 642.369,494.977 644.455,496.219 646.541,497.456 648.626,498.686 650.712,499.91 652.797,501.128 
  654.883,502.34 656.969,503.546 659.054,504.746 661.14,505.939 663.225,507.127 665.311,508.309 667.396,509.485 669.482,510.655 671.568,511.82 673.653,512.978 
  675.739,514.131 677.824,515.278 679.91,516.419 681.995,517.555 684.081,518.684 686.167,519.809 688.252,520.927 690.338,522.04 692.423,523.148 694.509,524.25 
  696.595,525.346 698.68,526.437 700.766,527.522 702.851,528.602 704.937,529.677 707.022,530.746 709.108,531.81 711.194,532.869 713.279,533.922 715.365,534.97 
  717.45,536.013 719.536,537.051 721.621,538.083 723.707,539.111 725.793,540.133 727.878,541.15 729.964,542.162 732.049,543.169 734.135,544.171 736.22,545.168 
  738.306,546.16 740.392,547.147 742.477,548.129 744.563,549.106 746.648,550.078 748.734,551.046 750.82,552.008 752.905,552.966 754.991,553.919 757.076,554.868 
  759.162,555.811 761.247,556.75 763.333,557.684 765.419,558.614 767.504,559.538 769.59,560.459 771.675,561.374 773.761,562.285 775.846,563.192 777.932,564.094 
  780.018,564.991 782.103,565.885 784.189,566.773 786.274,567.657 788.36,568.537 790.446,569.412 792.531,570.283 794.617,571.15 796.702,572.012 798.788,572.87 
  800.873,573.724 802.959,574.574 805.045,575.419 807.13,576.26 809.216,577.097 811.301,577.929 813.387,578.758 815.472,579.582 817.558,580.402 819.644,581.219 
  821.729,582.031 823.815,582.839 825.9,583.643 827.986,584.443 830.072,585.239 832.157,586.031 834.243,586.819 836.328,587.603 838.414,588.383 840.499,589.159 
  842.585,589.932 844.671,590.7 846.756,591.465 848.842,592.226 850.927,592.983 853.013,593.736 855.098,594.486 857.184,595.231 859.27,595.973 861.355,596.712 
  863.441,597.447 865.526,598.178 867.612,598.905 869.697,599.629 871.783,600.349 873.869,601.065 875.954,601.778 878.04,602.487 880.125,603.193 882.211,603.895 
  884.297,604.594 886.382,605.289 888.468,605.981 890.553,606.67 892.639,607.355 894.724,608.036 896.81,608.714 898.896,609.389 900.981,610.06 903.067,610.728 
  905.152,611.393 907.238,612.054 909.323,612.712 911.409,613.367 913.495,614.018 915.58,614.666 917.666,615.311 919.751,615.953 921.837,616.592 923.923,617.227 
  926.008,617.859 928.094,618.488 930.179,619.114 932.265,619.737 934.35,620.356 936.436,620.973 938.522,621.586 940.607,622.197 942.693,622.804 944.778,623.409 
  946.864,624.01 948.949,624.608 951.035,625.204 953.121,625.796 955.206,626.385 957.292,626.972 959.377,627.555 961.463,628.136 963.549,628.714 965.634,629.289 
  967.72,629.861 969.805,630.43 971.891,630.996 973.976,631.56 976.062,632.12 978.148,632.678 980.233,633.233 982.319,633.785 984.404,634.335 986.49,634.882 
  988.575,635.426 990.661,635.967 992.747,636.506 994.832,637.042 996.918,637.575 999.003,638.106 1001.09,638.634 1003.17,639.16 1005.26,639.682 1007.35,640.203 
  1009.43,640.72 1011.52,641.235 1013.6,641.748 1015.69,642.258 1017.77,642.765 1019.86,643.27 1021.94,643.772 1024.03,644.272 1026.12,644.769 1028.2,645.264 
  1030.29,645.756 1032.37,646.246 1034.46,646.734 1036.54,647.219 1038.63,647.701 1040.71,648.182 1042.8,648.659 1044.89,649.135 1046.97,649.608 1049.06,650.078 
  1051.14,650.547 1053.23,651.013 1055.31,651.476 1057.4,651.938 1059.49,652.397 1061.57,652.853 1063.66,653.308 1065.74,653.76 1067.83,654.21 1069.91,654.658 
  1072,655.103 1074.08,655.546 1076.17,655.987 1078.26,656.426 1080.34,656.862 1082.43,657.297 1084.51,657.729 1086.6,658.159 1088.68,658.587 1090.77,659.013 
  1092.85,659.436 1094.94,659.858 1097.03,660.277 1099.11,660.695 1101.2,661.11 1103.28,661.523 1105.37,661.934 1107.45,662.343 1109.54,662.75 1111.62,663.155 
  1113.71,663.558 1115.8,663.959 1117.88,664.358 1119.97,664.754 1122.05,665.149 1124.14,665.542 1126.22,665.933 1128.31,666.322 1130.39,666.709 1132.48,667.094 
  1134.57,667.478 1136.65,667.859 1138.74,668.238 1140.82,668.616 1142.91,668.991 1144.99,669.365 1147.08,669.737 1149.16,670.107 1151.25,670.475 1153.34,670.842 
  1155.42,671.206 1157.51,671.569 1159.59,671.93 1161.68,672.289 1163.76,672.646 1165.85,673.001 1167.94,673.355 1170.02,673.707 1172.11,674.057 1174.19,674.406 
  1176.28,674.752 1178.36,675.097 1180.45,675.44 1182.53,675.782 1184.62,676.122 1186.71,676.46 1188.79,676.796 1190.88,677.131 1192.96,677.464 1195.05,677.796 
  1197.13,678.125 1199.22,678.454 1201.3,678.78 1203.39,679.105 1205.48,679.428 1207.56,679.75 1209.65,680.07 1211.73,680.388 1213.82,680.705 1215.9,681.02 
  1217.99,681.334 1220.07,681.646 1222.16,681.957 1224.25,682.266 1226.33,682.573 1228.42,682.879 1230.5,683.184 1232.59,683.487 1234.67,683.788 1236.76,684.088 
  1238.84,684.387 1240.93,684.684 1243.02,684.979 1245.1,685.273 1247.19,685.566 1249.27,685.857 1251.36,686.146 1253.44,686.435 1255.53,686.721 1257.62,687.007 
  1259.7,687.291 1261.79,687.573 1263.87,687.854 1265.96,688.134 1268.04,688.412 1270.13,688.689 1272.21,688.965 1274.3,689.239 1276.39,689.512 1278.47,689.783 
  1280.56,690.054 1282.64,690.322 1284.73,690.59 1286.81,690.856 1288.9,691.121 1290.98,691.384 1293.07,691.646 1295.16,691.907 1297.24,692.166 1299.33,692.425 
  1301.41,692.682 1303.5,692.937 1305.58,693.192 1307.67,693.445 1309.75,693.697 1311.84,693.947 1313.93,694.196 1316.01,694.444 1318.1,694.691 1320.18,694.937 
  1322.27,695.181 1324.35,695.424 1326.44,695.666 1328.52,695.907 1330.61,696.146 1332.7,696.385 1334.78,696.622 1336.87,696.858 1338.95,697.093 1341.04,697.326 
  1343.12,697.558 1345.21,697.79 1347.29,698.02 1349.38,698.249 1351.47,698.476 1353.55,698.703 1355.64,698.929 1357.72,699.153 1359.81,699.376 1361.89,699.598 
  1363.98,699.819 1366.07,700.039 1368.15,700.258 1370.24,700.476 1372.32,700.692 1374.41,700.908 1376.49,701.122 1378.58,701.336 1380.66,701.548 1382.75,701.759 
  1384.84,701.969 1386.92,702.178 1389.01,702.387 1391.09,702.594 1393.18,702.8 1395.26,703.005 1397.35,703.208 1399.43,703.411 1401.52,703.613 1403.61,703.814 
  1405.69,704.014 1407.78,704.213 1409.86,704.411 1411.95,704.608 1414.03,704.804 1416.12,704.999 1418.2,705.193 1420.29,705.386 1422.38,705.578 1424.46,705.769 
  1426.55,705.959 1428.63,706.148 1430.72,706.336 1432.8,706.523 1434.89,706.71 1436.97,706.895 1439.06,707.08 1441.15,707.263 1443.23,707.446 1445.32,707.627 
  1447.4,707.808 1449.49,707.988 1451.57,708.167 1453.66,708.345 1455.74,708.522 1457.83,708.699 1459.92,708.874 1462,709.049 1464.09,709.223 1466.17,709.395 
  1468.26,709.567 1470.34,709.739 1472.43,709.909 1474.52,710.078 1476.6,710.247 1478.69,710.415 1480.77,710.581 1482.86,710.748 1484.94,710.913 1487.03,711.077 
  1489.11,711.241 1491.2,711.404 1493.29,711.566 1495.37,711.727 1497.46,711.887 1499.54,712.047 1501.63,712.206 1503.71,712.364 1505.8,712.521 1507.88,712.677 
  1509.97,712.833 1512.06,712.988 1514.14,713.142 1516.23,713.295 1518.31,713.448 1520.4,713.6 1522.48,713.751 1524.57,713.901 1526.65,714.051 1528.74,714.199 
  1530.83,714.348 1532.91,714.495 1535,714.642 1537.08,714.787 1539.17,714.933 1541.25,715.077 1543.34,715.221 1545.42,715.364 1547.51,715.506 1549.6,715.648 
  1551.68,715.789 1553.77,715.929 1555.85,716.069 1557.94,716.208 1560.02,716.346 1562.11,716.483 1564.19,716.62 1566.28,716.756 1568.37,716.892 1570.45,717.026 
  1572.54,717.16 1574.62,717.294 1576.71,717.427 1578.79,717.559 1580.88,717.69 1582.97,717.821 1585.05,717.951 1587.14,718.081 1589.22,718.209 1591.31,718.338 
  1593.39,718.465 1595.48,718.592 1597.56,718.718 1599.65,718.844 1601.74,718.969 1603.82,719.094 1605.91,719.217 1607.99,719.34 1610.08,719.463 1612.16,719.585 
  1614.25,719.706 1616.33,719.827 1618.42,719.947 1620.51,720.067 1622.59,720.186 1624.68,720.304 1626.76,720.422 1628.85,720.539 1630.93,720.655 1633.02,720.771 
  1635.1,720.887 1637.19,721.001 1639.28,721.116 1641.36,721.229 1643.45,721.342 1645.53,721.455 1647.62,721.567 1649.7,721.678 1651.79,721.789 1653.87,721.899 
  1655.96,722.009 1658.05,722.118 1660.13,722.227 1662.22,722.335 1664.3,722.442 1666.39,722.549 1668.47,722.656 1670.56,722.762 1672.65,722.867 1674.73,722.972 
  1676.82,723.076 1678.9,723.18 1680.99,723.283 1683.07,723.386 1685.16,723.488 1687.24,723.59 1689.33,723.691 1691.42,723.792 1693.5,723.892 1695.59,723.992 
  1697.67,724.091 1699.76,724.19 1701.84,724.288 1703.93,724.386 1706.01,724.483 1708.1,724.58 1710.19,724.676 1712.27,724.772 1714.36,724.867 1716.44,724.962 
  1718.53,725.056 1720.61,725.15 1722.7,725.243 1724.78,725.336 1726.87,725.429 1728.96,725.521 1731.04,725.612 1733.13,725.703 1735.21,725.794 1737.3,725.884 
  1739.38,725.974 1741.47,726.063 1743.55,726.152 1745.64,726.24 1747.73,726.328 1749.81,726.415 1751.9,726.502 1753.98,726.589 1756.07,726.675 1758.15,726.761 
  1760.24,726.846 1762.32,726.931 1764.41,727.015 1766.5,727.099 1768.58,727.183 1770.67,727.266 1772.75,727.349 1774.84,727.431 1776.92,727.513 1779.01,727.595 
  1781.1,727.676 1783.18,727.757 1785.27,727.837 1787.35,727.917 1789.44,727.996 1791.52,728.075 1793.61,728.154 1795.69,728.232 1797.78,728.31 1799.87,728.388 
  1801.95,728.465 1804.04,728.542 1806.12,728.618 1808.21,728.694 1810.29,728.77 1812.38,728.845 1814.46,728.92 1816.55,728.994 1818.64,729.069 1820.72,729.142 
  1822.81,729.216 1824.89,729.289 1826.98,729.361 1829.06,729.434 1831.15,729.506 1833.23,729.577 1835.32,729.649 1837.41,729.719 1839.49,729.79 1841.58,729.86 
  1843.66,729.93 1845.75,730 1847.83,730.069 1849.92,730.138 1852,730.206 1854.09,730.274 1856.18,730.342 1858.26,730.409 1860.35,730.477 1862.43,730.543 
  1864.52,730.61 1866.6,730.676 1868.69,730.742 1870.77,730.807 1872.86,730.872 1874.95,730.937 1877.03,731.002 1879.12,731.066 1881.2,731.13 1883.29,731.194 
  1885.37,731.257 1887.46,731.32 1889.55,731.383 1891.63,731.445 1893.72,731.507 1895.8,731.569 1897.89,731.63 1899.97,731.691 1902.06,731.752 1904.14,731.813 
  1906.23,731.873 1908.32,731.933 1910.4,731.993 1912.49,732.052 1914.57,732.111 1916.66,732.17 1918.74,732.228 1920.83,732.286 1922.91,732.344 1925,732.402 
  1927.09,732.459 1929.17,732.516 1931.26,732.573 1933.34,732.63 1935.43,732.686 1937.51,732.742 1939.6,732.797 1941.68,732.853 1943.77,732.908 1945.86,732.963 
  1947.94,733.017 1950.03,733.071 1952.11,733.125 1954.2,733.179 1956.28,733.233 1958.37,733.286 1960.45,733.339 1962.54,733.391 1964.63,733.444 1966.71,733.496 
  1968.8,733.548 1970.88,733.599 1972.97,733.651 1975.05,733.702 1977.14,733.753 1979.23,733.803 1981.31,733.854 1983.4,733.904 1985.48,733.954 1987.57,734.003 
  1989.65,734.052 1991.74,734.102 1993.82,734.15 1995.91,734.199 1998,734.247 2000.08,734.295 2002.17,734.343 2004.25,734.391 2006.34,734.438 2008.42,734.485 
  2010.51,734.532 2012.59,734.579 2014.68,734.625 2016.77,734.672 2018.85,734.718 2020.94,734.763 2023.02,734.809 2025.11,734.854 2027.19,734.899 2029.28,734.944 
  2031.36,734.989 2033.45,735.033 2035.54,735.077 2037.62,735.121 2039.71,735.165 2041.79,735.208 2043.88,735.251 2045.96,735.294 2048.05,735.337 2050.13,735.38 
  2052.22,735.422 2054.31,735.464 2056.39,735.506 2058.48,735.548 2060.56,735.59 2062.65,735.631 2064.73,735.672 2066.82,735.713 2068.9,735.754 2070.99,735.794 
  2073.08,735.834 2075.16,735.874 2077.25,735.914 2079.33,735.954 2081.42,735.993 2083.5,736.033 2085.59,736.072 2087.68,736.111 2089.76,736.149 2091.85,736.188 
  2093.93,736.226 2096.02,736.264 2098.1,736.302 2100.19,736.34 2102.27,736.377 2104.36,736.415 2106.45,736.452 2108.53,736.489 2110.62,736.525 2112.7,736.562 
  2114.79,736.598 2116.87,736.635 2118.96,736.671 2121.04,736.706 2123.13,736.742 2125.22,736.778 2127.3,736.813 2129.39,736.848 2131.47,736.883 2133.56,736.918 
  2135.64,736.952 2137.73,736.987 2139.81,737.021 2141.9,737.055 2143.99,737.089 2146.07,737.123 2148.16,737.156 2150.24,737.19 2152.33,737.223 2154.41,737.256 
  2156.5,737.289 2158.58,737.321 2160.67,737.354 2162.76,737.386 2164.84,737.419 2166.93,737.451 2169.01,737.483 2171.1,737.514 2173.18,737.546 2175.27,737.577 
  2177.35,737.609 2179.44,737.64 2181.53,737.671 2183.61,737.702 2185.7,737.732 2187.78,737.763 2189.87,737.793 2191.95,737.823 2194.04,737.853 2196.13,737.883 
  2198.21,737.913 2200.3,737.942 2202.38,737.972 2204.47,738.001 2206.55,738.03 2208.64,738.059 2210.72,738.088 2212.81,738.117 2214.9,738.146 2216.98,738.174 
  2219.07,738.202 2221.15,738.231 2223.24,738.259 2225.32,738.286 2227.41,738.314 2229.49,738.342 2231.58,738.369 2233.67,738.397 2235.75,738.424 2237.84,738.451 
  2239.92,738.478 2242.01,738.505 2244.09,738.531 2246.18,738.558 2248.26,738.584 2250.35,738.611 2252.44,738.637 2254.52,738.663 2256.61,738.689 2258.69,738.715 
  2260.78,738.74 2262.86,738.766 2264.95,738.791 2267.03,738.816 2269.12,738.842 2271.21,738.867 2273.29,738.892 2275.38,738.916 2277.46,738.941 2279.55,738.966 
  2281.63,738.99 2283.72,739.015 2285.81,739.039 2287.89,739.063 2289.98,739.087 2292.06,739.111 2294.15,739.134 2296.23,739.158 2298.32,739.181 2300.4,739.205 
  2302.49,739.228 2304.58,739.251 2306.66,739.274 2308.75,739.297 2310.83,739.32 2312.92,739.343 2315,739.365 2317.09,739.388 2319.17,739.41 2321.26,739.432 
  
  "/>
<polygon clip-path="url(#clip8801)" points="
1910.3,312.204 2249.26,312.204 2249.26,130.764 1910.3,130.764 
  " fill="#ffffff" fill-rule="evenodd" fill-opacity="1"/>
<polyline clip-path="url(#clip8801)" style="stroke:#000000; stroke-width:4; stroke-opacity:1; fill:none" points="
  1910.3,312.204 2249.26,312.204 2249.26,130.764 1910.3,130.764 1910.3,312.204 
  "/>
<polyline clip-path="url(#clip8801)" style="stroke:#009af9; stroke-width:12; stroke-opacity:1; fill:none" points="
  1934.3,191.244 2078.3,191.244 
  "/>
<g clip-path="url(#clip8801)">
<text style="fill:#000000; fill-opacity:1; font-family:Arial,Helvetica Neue,Helvetica,sans-serif; font-size:48px; text-anchor:start;" transform="rotate(0, 2102.3, 208.744)" x="2102.3" y="208.744">u1(t)</text>
</g>
<polyline clip-path="url(#clip8801)" style="stroke:#e26f46; stroke-width:12; stroke-opacity:1; fill:none" points="
  1934.3,251.724 2078.3,251.724 
  "/>
<g clip-path="url(#clip8801)">
<text style="fill:#000000; fill-opacity:1; font-family:Arial,Helvetica Neue,Helvetica,sans-serif; font-size:48px; text-anchor:start;" transform="rotate(0, 2102.3, 269.224)" x="2102.3" y="269.224">u2(t)</text>
</g>
</svg>
