<?xml version="1.0" encoding="utf-8"?>
<svg xmlns="http://www.w3.org/2000/svg" xmlns:xlink="http://www.w3.org/1999/xlink" width="600" height="400" viewBox="0 0 2400 1600">
<defs>
  <clipPath id="clip1900">
    <rect x="0" y="0" width="2000" height="2000"/>
  </clipPath>
</defs>
<defs>
  <clipPath id="clip1901">
    <rect x="0" y="0" width="2400" height="1600"/>
  </clipPath>
</defs>
<polygon clip-path="url(#clip1901)" points="
0,1600 2400,1600 2400,0 0,0 
  " fill="#ffffff" fill-rule="evenodd" fill-opacity="1"/>
<defs>
  <clipPath id="clip1902">
    <rect x="480" y="0" width="1681" height="1600"/>
  </clipPath>
</defs>
<polygon clip-path="url(#clip1901)" points="
237.767,1440.48 2321.26,1440.48 2321.26,125.984 237.767,125.984 
  " fill="#ffffff" fill-rule="evenodd" fill-opacity="1"/>
<defs>
  <clipPath id="clip1903">
    <rect x="237" y="125" width="2084" height="1315"/>
  </clipPath>
</defs>
<polyline clip-path="url(#clip1903)" style="stroke:#000000; stroke-width:2; stroke-opacity:0.1; fill:none" points="
  237.767,1440.48 237.767,125.984 
  "/>
<polyline clip-path="url(#clip1903)" style="stroke:#000000; stroke-width:2; stroke-opacity:0.1; fill:none" points="
  654.466,1440.48 654.466,125.984 
  "/>
<polyline clip-path="url(#clip1903)" style="stroke:#000000; stroke-width:2; stroke-opacity:0.1; fill:none" points="
  1071.16,1440.48 1071.16,125.984 
  "/>
<polyline clip-path="url(#clip1903)" style="stroke:#000000; stroke-width:2; stroke-opacity:0.1; fill:none" points="
  1487.86,1440.48 1487.86,125.984 
  "/>
<polyline clip-path="url(#clip1903)" style="stroke:#000000; stroke-width:2; stroke-opacity:0.1; fill:none" points="
  1904.56,1440.48 1904.56,125.984 
  "/>
<polyline clip-path="url(#clip1903)" style="stroke:#000000; stroke-width:2; stroke-opacity:0.1; fill:none" points="
  2321.26,1440.48 2321.26,125.984 
  "/>
<polyline clip-path="url(#clip1903)" style="stroke:#000000; stroke-width:2; stroke-opacity:0.1; fill:none" points="
  237.767,1403.28 2321.26,1403.28 
  "/>
<polyline clip-path="url(#clip1903)" style="stroke:#000000; stroke-width:2; stroke-opacity:0.1; fill:none" points="
  237.767,1093.26 2321.26,1093.26 
  "/>
<polyline clip-path="url(#clip1903)" style="stroke:#000000; stroke-width:2; stroke-opacity:0.1; fill:none" points="
  237.767,783.233 2321.26,783.233 
  "/>
<polyline clip-path="url(#clip1903)" style="stroke:#000000; stroke-width:2; stroke-opacity:0.1; fill:none" points="
  237.767,473.21 2321.26,473.21 
  "/>
<polyline clip-path="url(#clip1903)" style="stroke:#000000; stroke-width:2; stroke-opacity:0.1; fill:none" points="
  237.767,163.187 2321.26,163.187 
  "/>
<polyline clip-path="url(#clip1901)" style="stroke:#000000; stroke-width:4; stroke-opacity:1; fill:none" points="
  237.767,1440.48 2321.26,1440.48 
  "/>
<polyline clip-path="url(#clip1901)" style="stroke:#000000; stroke-width:4; stroke-opacity:1; fill:none" points="
  237.767,1440.48 237.767,125.984 
  "/>
<polyline clip-path="url(#clip1901)" style="stroke:#000000; stroke-width:4; stroke-opacity:1; fill:none" points="
  237.767,1440.48 237.767,1420.77 
  "/>
<polyline clip-path="url(#clip1901)" style="stroke:#000000; stroke-width:4; stroke-opacity:1; fill:none" points="
  654.466,1440.48 654.466,1420.77 
  "/>
<polyline clip-path="url(#clip1901)" style="stroke:#000000; stroke-width:4; stroke-opacity:1; fill:none" points="
  1071.16,1440.48 1071.16,1420.77 
  "/>
<polyline clip-path="url(#clip1901)" style="stroke:#000000; stroke-width:4; stroke-opacity:1; fill:none" points="
  1487.86,1440.48 1487.86,1420.77 
  "/>
<polyline clip-path="url(#clip1901)" style="stroke:#000000; stroke-width:4; stroke-opacity:1; fill:none" points="
  1904.56,1440.48 1904.56,1420.77 
  "/>
<polyline clip-path="url(#clip1901)" style="stroke:#000000; stroke-width:4; stroke-opacity:1; fill:none" points="
  2321.26,1440.48 2321.26,1420.77 
  "/>
<polyline clip-path="url(#clip1901)" style="stroke:#000000; stroke-width:4; stroke-opacity:1; fill:none" points="
  237.767,1403.28 269.02,1403.28 
  "/>
<polyline clip-path="url(#clip1901)" style="stroke:#000000; stroke-width:4; stroke-opacity:1; fill:none" points="
  237.767,1093.26 269.02,1093.26 
  "/>
<polyline clip-path="url(#clip1901)" style="stroke:#000000; stroke-width:4; stroke-opacity:1; fill:none" points="
  237.767,783.233 269.02,783.233 
  "/>
<polyline clip-path="url(#clip1901)" style="stroke:#000000; stroke-width:4; stroke-opacity:1; fill:none" points="
  237.767,473.21 269.02,473.21 
  "/>
<polyline clip-path="url(#clip1901)" style="stroke:#000000; stroke-width:4; stroke-opacity:1; fill:none" points="
  237.767,163.187 269.02,163.187 
  "/>
<g clip-path="url(#clip1901)">
<text style="fill:#000000; fill-opacity:1; font-family:Arial,Helvetica Neue,Helvetica,sans-serif; font-size:48px; text-anchor:middle;" transform="rotate(0, 237.767, 1494.48)" x="237.767" y="1494.48">0</text>
</g>
<g clip-path="url(#clip1901)">
<text style="fill:#000000; fill-opacity:1; font-family:Arial,Helvetica Neue,Helvetica,sans-serif; font-size:48px; text-anchor:middle;" transform="rotate(0, 654.466, 1494.48)" x="654.466" y="1494.48">10</text>
</g>
<g clip-path="url(#clip1901)">
<text style="fill:#000000; fill-opacity:1; font-family:Arial,Helvetica Neue,Helvetica,sans-serif; font-size:48px; text-anchor:middle;" transform="rotate(0, 1071.16, 1494.48)" x="1071.16" y="1494.48">20</text>
</g>
<g clip-path="url(#clip1901)">
<text style="fill:#000000; fill-opacity:1; font-family:Arial,Helvetica Neue,Helvetica,sans-serif; font-size:48px; text-anchor:middle;" transform="rotate(0, 1487.86, 1494.48)" x="1487.86" y="1494.48">30</text>
</g>
<g clip-path="url(#clip1901)">
<text style="fill:#000000; fill-opacity:1; font-family:Arial,Helvetica Neue,Helvetica,sans-serif; font-size:48px; text-anchor:middle;" transform="rotate(0, 1904.56, 1494.48)" x="1904.56" y="1494.48">40</text>
</g>
<g clip-path="url(#clip1901)">
<text style="fill:#000000; fill-opacity:1; font-family:Arial,Helvetica Neue,Helvetica,sans-serif; font-size:48px; text-anchor:middle;" transform="rotate(0, 2321.26, 1494.48)" x="2321.26" y="1494.48">50</text>
</g>
<g clip-path="url(#clip1901)">
<text style="fill:#000000; fill-opacity:1; font-family:Arial,Helvetica Neue,Helvetica,sans-serif; font-size:48px; text-anchor:end;" transform="rotate(0, 213.767, 1420.78)" x="213.767" y="1420.78">0</text>
</g>
<g clip-path="url(#clip1901)">
<text style="fill:#000000; fill-opacity:1; font-family:Arial,Helvetica Neue,Helvetica,sans-serif; font-size:48px; text-anchor:end;" transform="rotate(0, 213.767, 1110.76)" x="213.767" y="1110.76">25</text>
</g>
<g clip-path="url(#clip1901)">
<text style="fill:#000000; fill-opacity:1; font-family:Arial,Helvetica Neue,Helvetica,sans-serif; font-size:48px; text-anchor:end;" transform="rotate(0, 213.767, 800.733)" x="213.767" y="800.733">50</text>
</g>
<g clip-path="url(#clip1901)">
<text style="fill:#000000; fill-opacity:1; font-family:Arial,Helvetica Neue,Helvetica,sans-serif; font-size:48px; text-anchor:end;" transform="rotate(0, 213.767, 490.71)" x="213.767" y="490.71">75</text>
</g>
<g clip-path="url(#clip1901)">
<text style="fill:#000000; fill-opacity:1; font-family:Arial,Helvetica Neue,Helvetica,sans-serif; font-size:48px; text-anchor:end;" transform="rotate(0, 213.767, 180.687)" x="213.767" y="180.687">100</text>
</g>
<g clip-path="url(#clip1901)">
<text style="fill:#000000; fill-opacity:1; font-family:Arial,Helvetica Neue,Helvetica,sans-serif; font-size:84px; text-anchor:middle;" transform="rotate(0, 1279.51, 73.2)" x="1279.51" y="73.2">Parallel flow with ratio 5.0</text>
</g>
<g clip-path="url(#clip1901)">
<text style="fill:#000000; fill-opacity:1; font-family:Arial,Helvetica Neue,Helvetica,sans-serif; font-size:66px; text-anchor:middle;" transform="rotate(0, 1279.51, 1590.4)" x="1279.51" y="1590.4">x (m)</text>
</g>
<g clip-path="url(#clip1901)">
<text style="fill:#000000; fill-opacity:1; font-family:Arial,Helvetica Neue,Helvetica,sans-serif; font-size:66px; text-anchor:middle;" transform="rotate(-90, 57.6, 783.233)" x="57.6" y="783.233">T °C</text>
</g>
<polyline clip-path="url(#clip1903)" style="stroke:#009af9; stroke-width:12; stroke-opacity:1; fill:none" points="
  237.767,1403.28 239.853,1400.18 241.938,1397.09 244.024,1394.01 246.11,1390.94 248.195,1387.88 250.281,1384.83 252.366,1381.78 254.452,1378.75 256.538,1375.72 
  258.623,1372.71 260.709,1369.7 262.794,1366.7 264.88,1363.71 266.965,1360.73 269.051,1357.76 271.137,1354.8 273.222,1351.85 275.308,1348.9 277.393,1345.97 
  279.479,1343.04 281.564,1340.12 283.65,1337.21 285.736,1334.31 287.821,1331.42 289.907,1328.54 291.992,1325.66 294.078,1322.8 296.164,1319.94 298.249,1317.09 
  300.335,1314.25 302.42,1311.42 304.506,1308.6 306.591,1305.78 308.677,1302.97 310.763,1300.18 312.848,1297.39 314.934,1294.61 317.019,1291.83 319.105,1289.07 
  321.19,1286.31 323.276,1283.56 325.362,1280.82 327.447,1278.09 329.533,1275.37 331.618,1272.65 333.704,1269.95 335.79,1267.25 337.875,1264.56 339.961,1261.88 
  342.046,1259.2 344.132,1256.53 346.217,1253.88 348.303,1251.22 350.389,1248.58 352.474,1245.95 354.56,1243.32 356.645,1240.7 358.731,1238.09 360.816,1235.49 
  362.902,1232.89 364.988,1230.3 367.073,1227.72 369.159,1225.15 371.244,1222.59 373.33,1220.03 375.415,1217.48 377.501,1214.94 379.587,1212.4 381.672,1209.88 
  383.758,1207.36 385.843,1204.85 387.929,1202.34 390.015,1199.85 392.1,1197.36 394.186,1194.88 396.271,1192.4 398.357,1189.94 400.442,1187.48 402.528,1185.03 
  404.614,1182.58 406.699,1180.15 408.785,1177.72 410.87,1175.29 412.956,1172.88 415.041,1170.47 417.127,1168.07 419.213,1165.68 421.298,1163.29 423.384,1160.91 
  425.469,1158.54 427.555,1156.18 429.641,1153.82 431.726,1151.47 433.812,1149.12 435.897,1146.79 437.983,1144.46 440.068,1142.13 442.154,1139.82 444.24,1137.51 
  446.325,1135.21 448.411,1132.91 450.496,1130.63 452.582,1128.34 454.667,1126.07 456.753,1123.8 458.839,1121.54 460.924,1119.29 463.01,1117.04 465.095,1114.8 
  467.181,1112.57 469.267,1110.34 471.352,1108.12 473.438,1105.91 475.523,1103.7 477.609,1101.5 479.694,1099.3 481.78,1097.12 483.866,1094.94 485.951,1092.76 
  488.037,1090.6 490.122,1088.43 492.208,1086.28 494.293,1084.13 496.379,1081.99 498.465,1079.85 500.55,1077.73 502.636,1075.6 504.721,1073.49 506.807,1071.38 
  508.892,1069.27 510.978,1067.18 513.064,1065.09 515.149,1063 517.235,1060.92 519.32,1058.85 521.406,1056.78 523.492,1054.73 525.577,1052.67 527.663,1050.62 
  529.748,1048.58 531.834,1046.55 533.919,1044.52 536.005,1042.5 538.091,1040.48 540.176,1038.47 542.262,1036.46 544.347,1034.46 546.433,1032.47 548.518,1030.48 
  550.604,1028.5 552.69,1026.53 554.775,1024.56 556.861,1022.6 558.946,1020.64 561.032,1018.69 563.118,1016.74 565.203,1014.8 567.289,1012.87 569.374,1010.94 
  571.46,1009.02 573.545,1007.1 575.631,1005.19 577.717,1003.29 579.802,1001.39 581.888,999.494 583.973,997.606 586.059,995.724 588.144,993.847 590.23,991.976 
  592.316,990.111 594.401,988.251 596.487,986.397 598.572,984.548 600.658,982.705 602.743,980.868 604.829,979.035 606.915,977.209 609,975.388 611.086,973.572 
  613.171,971.762 615.257,969.957 617.343,968.158 619.428,966.364 621.514,964.575 623.599,962.792 625.685,961.014 627.77,959.241 629.856,957.474 631.942,955.712 
  634.027,953.956 636.113,952.204 638.198,950.458 640.284,948.717 642.369,946.981 644.455,945.251 646.541,943.526 648.626,941.805 650.712,940.091 652.797,938.381 
  654.883,936.676 656.969,934.976 659.054,933.282 661.14,931.593 663.225,929.908 665.311,928.229 667.396,926.555 669.482,924.886 671.568,923.221 673.653,921.562 
  675.739,919.908 677.824,918.259 679.91,916.614 681.995,914.975 684.081,913.34 686.167,911.711 688.252,910.086 690.338,908.466 692.423,906.851 694.509,905.241 
  696.595,903.636 698.68,902.035 700.766,900.44 702.851,898.849 704.937,897.263 707.022,895.681 709.108,894.105 711.194,892.533 713.279,890.965 715.365,889.403 
  717.45,887.845 719.536,886.292 721.621,884.744 723.707,883.2 725.793,881.66 727.878,880.126 729.964,878.596 732.049,877.07 734.135,875.55 736.22,874.033 
  738.306,872.522 740.392,871.014 742.477,869.512 744.563,868.014 746.648,866.52 748.734,865.031 750.82,863.546 752.905,862.066 754.991,860.59 757.076,859.118 
  759.162,857.651 761.247,856.189 763.333,854.731 765.419,853.277 767.504,851.827 769.59,850.382 771.675,848.941 773.761,847.505 775.846,846.073 777.932,844.645 
  780.018,843.221 782.103,841.802 784.189,840.387 786.274,838.976 788.36,837.569 790.446,836.167 792.531,834.769 794.617,833.375 796.702,831.985 798.788,830.599 
  800.873,829.218 802.959,827.84 805.045,826.467 807.13,825.098 809.216,823.733 811.301,822.372 813.387,821.015 815.472,819.662 817.558,818.314 819.644,816.969 
  821.729,815.628 823.815,814.292 825.9,812.959 827.986,811.63 830.072,810.306 832.157,808.985 834.243,807.668 836.328,806.355 838.414,805.047 840.499,803.742 
  842.585,802.441 844.671,801.144 846.756,799.85 848.842,798.561 850.927,797.276 853.013,795.994 855.098,794.716 857.184,793.442 859.27,792.172 861.355,790.906 
  863.441,789.643 865.526,788.385 867.612,787.13 869.697,785.879 871.783,784.631 873.869,783.387 875.954,782.147 878.04,780.911 880.125,779.679 882.211,778.45 
  884.297,777.225 886.382,776.003 888.468,774.785 890.553,773.571 892.639,772.361 894.724,771.154 896.81,769.951 898.896,768.751 900.981,767.555 903.067,766.362 
  905.152,765.174 907.238,763.988 909.323,762.806 911.409,761.628 913.495,760.454 915.58,759.282 917.666,758.115 919.751,756.951 921.837,755.79 923.923,754.633 
  926.008,753.479 928.094,752.329 930.179,751.182 932.265,750.039 934.35,748.899 936.436,747.762 938.522,746.629 940.607,745.499 942.693,744.373 944.778,743.25 
  946.864,742.131 948.949,741.014 951.035,739.902 953.121,738.792 955.206,737.686 957.292,736.583 959.377,735.483 961.463,734.387 963.549,733.294 965.634,732.204 
  967.72,731.118 969.805,730.035 971.891,728.955 973.976,727.878 976.062,726.805 978.148,725.735 980.233,724.667 982.319,723.604 984.404,722.543 986.49,721.486 
  988.575,720.431 990.661,719.38 992.747,718.332 994.832,717.287 996.918,716.246 999.003,715.207 1001.09,714.172 1003.17,713.139 1005.26,712.11 1007.35,711.084 
  1009.43,710.061 1011.52,709.041 1013.6,708.024 1015.69,707.01 1017.77,705.999 1019.86,704.991 1021.94,703.986 1024.03,702.984 1026.12,701.985 1028.2,700.99 
  1030.29,699.997 1032.37,699.007 1034.46,698.02 1036.54,697.036 1038.63,696.055 1040.71,695.077 1042.8,694.102 1044.89,693.13 1046.97,692.16 1049.06,691.194 
  1051.14,690.23 1053.23,689.27 1055.31,688.312 1057.4,687.357 1059.49,686.405 1061.57,685.456 1063.66,684.51 1065.74,683.566 1067.83,682.626 1069.91,681.688 
  1072,680.753 1074.08,679.821 1076.17,678.891 1078.26,677.965 1080.34,677.041 1082.43,676.12 1084.51,675.202 1086.6,674.286 1088.68,673.373 1090.77,672.463 
  1092.85,671.556 1094.94,670.651 1097.03,669.749 1099.11,668.85 1101.2,667.953 1103.28,667.06 1105.37,666.168 1107.45,665.28 1109.54,664.394 1111.62,663.511 
  1113.71,662.63 1115.8,661.752 1117.88,660.877 1119.97,660.004 1122.05,659.134 1124.14,658.267 1126.22,657.402 1128.31,656.54 1130.39,655.68 1132.48,654.823 
  1134.57,653.969 1136.65,653.117 1138.74,652.267 1140.82,651.421 1142.91,650.576 1144.99,649.734 1147.08,648.895 1149.16,648.059 1151.25,647.224 1153.34,646.393 
  1155.42,645.563 1157.51,644.737 1159.59,643.912 1161.68,643.091 1163.76,642.271 1165.85,641.455 1167.94,640.64 1170.02,639.828 1172.11,639.019 1174.19,638.212 
  1176.28,637.407 1178.36,636.605 1180.45,635.805 1182.53,635.007 1184.62,634.212 1186.71,633.42 1188.79,632.629 1190.88,631.841 1192.96,631.056 1195.05,630.273 
  1197.13,629.492 1199.22,628.713 1201.3,627.937 1203.39,627.163 1205.48,626.392 1207.56,625.623 1209.65,624.856 1211.73,624.091 1213.82,623.329 1215.9,622.569 
  1217.99,621.811 1220.07,621.056 1222.16,620.303 1224.25,619.552 1226.33,618.803 1228.42,618.057 1230.5,617.312 1232.59,616.571 1234.67,615.831 1236.76,615.093 
  1238.84,614.358 1240.93,613.625 1243.02,612.894 1245.1,612.165 1247.19,611.439 1249.27,610.715 1251.36,609.992 1253.44,609.272 1255.53,608.555 1257.62,607.839 
  1259.7,607.125 1261.79,606.414 1263.87,605.705 1265.96,604.998 1268.04,604.293 1270.13,603.59 1272.21,602.889 1274.3,602.19 1276.39,601.494 1278.47,600.799 
  1280.56,600.107 1282.64,599.417 1284.73,598.728 1286.81,598.042 1288.9,597.358 1290.98,596.676 1293.07,595.996 1295.16,595.318 1297.24,594.642 1299.33,593.968 
  1301.41,593.296 1303.5,592.626 1305.58,591.958 1307.67,591.292 1309.75,590.629 1311.84,589.967 1313.93,589.307 1316.01,588.649 1318.1,587.993 1320.18,587.339 
  1322.27,586.687 1324.35,586.037 1326.44,585.389 1328.52,584.742 1330.61,584.098 1332.7,583.456 1334.78,582.815 1336.87,582.177 1338.95,581.54 1341.04,580.906 
  1343.12,580.273 1345.21,579.642 1347.29,579.013 1349.38,578.386 1351.47,577.761 1353.55,577.138 1355.64,576.516 1357.72,575.897 1359.81,575.279 1361.89,574.663 
  1363.98,574.049 1366.07,573.437 1368.15,572.826 1370.24,572.218 1372.32,571.611 1374.41,571.006 1376.49,570.403 1378.58,569.802 1380.66,569.202 1382.75,568.605 
  1384.84,568.009 1386.92,567.415 1389.01,566.822 1391.09,566.232 1393.18,565.643 1395.26,565.056 1397.35,564.471 1399.43,563.887 1401.52,563.305 1403.61,562.725 
  1405.69,562.147 1407.78,561.571 1409.86,560.996 1411.95,560.423 1414.03,559.851 1416.12,559.282 1418.2,558.714 1420.29,558.147 1422.38,557.583 1424.46,557.02 
  1426.55,556.459 1428.63,555.899 1430.72,555.341 1432.8,554.785 1434.89,554.23 1436.97,553.678 1439.06,553.126 1441.15,552.577 1443.23,552.029 1445.32,551.483 
  1447.4,550.938 1449.49,550.395 1451.57,549.854 1453.66,549.314 1455.74,548.776 1457.83,548.239 1459.92,547.704 1462,547.171 1464.09,546.639 1466.17,546.109 
  1468.26,545.58 1470.34,545.053 1472.43,544.528 1474.52,544.004 1476.6,543.482 1478.69,542.961 1480.77,542.442 1482.86,541.925 1484.94,541.409 1487.03,540.894 
  1489.11,540.381 1491.2,539.87 1493.29,539.36 1495.37,538.852 1497.46,538.345 1499.54,537.84 1501.63,537.336 1503.71,536.834 1505.8,536.333 1507.88,535.834 
  1509.97,535.336 1512.06,534.84 1514.14,534.345 1516.23,533.852 1518.31,533.36 1520.4,532.87 1522.48,532.381 1524.57,531.894 1526.65,531.408 1528.74,530.923 
  1530.83,530.44 1532.91,529.959 1535,529.479 1537.08,529 1539.17,528.523 1541.25,528.047 1543.34,527.573 1545.42,527.1 1547.51,526.628 1549.6,526.158 
  1551.68,525.689 1553.77,525.222 1555.85,524.756 1557.94,524.292 1560.02,523.829 1562.11,523.367 1564.19,522.907 1566.28,522.448 1568.37,521.99 1570.45,521.534 
  1572.54,521.079 1574.62,520.626 1576.71,520.174 1578.79,519.723 1580.88,519.274 1582.97,518.826 1585.05,518.379 1587.14,517.934 1589.22,517.49 1591.31,517.047 
  1593.39,516.606 1595.48,516.166 1597.56,515.727 1599.65,515.29 1601.74,514.854 1603.82,514.419 1605.91,513.986 1607.99,513.554 1610.08,513.123 1612.16,512.693 
  1614.25,512.265 1616.33,511.838 1618.42,511.412 1620.51,510.988 1622.59,510.565 1624.68,510.143 1626.76,509.722 1628.85,509.303 1630.93,508.885 1633.02,508.468 
  1635.1,508.053 1637.19,507.638 1639.28,507.225 1641.36,506.814 1643.45,506.403 1645.53,505.994 1647.62,505.586 1649.7,505.179 1651.79,504.773 1653.87,504.369 
  1655.96,503.965 1658.05,503.563 1660.13,503.163 1662.22,502.763 1664.3,502.364 1666.39,501.967 1668.47,501.571 1670.56,501.176 1672.65,500.783 1674.73,500.39 
  1676.82,499.999 1678.9,499.609 1680.99,499.22 1683.07,498.832 1685.16,498.445 1687.24,498.06 1689.33,497.676 1691.42,497.293 1693.5,496.911 1695.59,496.53 
  1697.67,496.15 1699.76,495.771 1701.84,495.394 1703.93,495.018 1706.01,494.642 1708.1,494.268 1710.19,493.895 1712.27,493.524 1714.36,493.153 1716.44,492.783 
  1718.53,492.415 1720.61,492.048 1722.7,491.681 1724.78,491.316 1726.87,490.952 1728.96,490.589 1731.04,490.227 1733.13,489.866 1735.21,489.507 1737.3,489.148 
  1739.38,488.79 1741.47,488.434 1743.55,488.078 1745.64,487.724 1747.73,487.371 1749.81,487.018 1751.9,486.667 1753.98,486.317 1756.07,485.968 1758.15,485.62 
  1760.24,485.273 1762.32,484.927 1764.41,484.582 1766.5,484.238 1768.58,483.895 1770.67,483.553 1772.75,483.212 1774.84,482.873 1776.92,482.534 1779.01,482.196 
  1781.1,481.859 1783.18,481.523 1785.27,481.189 1787.35,480.855 1789.44,480.522 1791.52,480.19 1793.61,479.86 1795.69,479.53 1797.78,479.201 1799.87,478.873 
  1801.95,478.546 1804.04,478.221 1806.12,477.896 1808.21,477.572 1810.29,477.249 1812.38,476.927 1814.46,476.606 1816.55,476.286 1818.64,475.967 1820.72,475.649 
  1822.81,475.331 1824.89,475.015 1826.98,474.7 1829.06,474.385 1831.15,474.072 1833.23,473.76 1835.32,473.448 1837.41,473.137 1839.49,472.828 1841.58,472.519 
  1843.66,472.211 1845.75,471.904 1847.83,471.598 1849.92,471.293 1852,470.989 1854.09,470.685 1856.18,470.383 1858.26,470.082 1860.35,469.781 1862.43,469.481 
  1864.52,469.183 1866.6,468.885 1868.69,468.588 1870.77,468.292 1872.86,467.996 1874.95,467.702 1877.03,467.408 1879.12,467.116 1881.2,466.824 1883.29,466.533 
  1885.37,466.243 1887.46,465.954 1889.55,465.666 1891.63,465.379 1893.72,465.092 1895.8,464.807 1897.89,464.522 1899.97,464.238 1902.06,463.955 1904.14,463.673 
  1906.23,463.391 1908.32,463.111 1910.4,462.831 1912.49,462.552 1914.57,462.274 1916.66,461.997 1918.74,461.72 1920.83,461.445 1922.91,461.17 1925,460.896 
  1927.09,460.623 1929.17,460.351 1931.26,460.08 1933.34,459.809 1935.43,459.539 1937.51,459.27 1939.6,459.002 1941.68,458.735 1943.77,458.468 1945.86,458.202 
  1947.94,457.937 1950.03,457.673 1952.11,457.41 1954.2,457.147 1956.28,456.885 1958.37,456.624 1960.45,456.364 1962.54,456.105 1964.63,455.846 1966.71,455.588 
  1968.8,455.331 1970.88,455.075 1972.97,454.819 1975.05,454.564 1977.14,454.31 1979.23,454.057 1981.31,453.804 1983.4,453.553 1985.48,453.302 1987.57,453.051 
  1989.65,452.802 1991.74,452.553 1993.82,452.305 1995.91,452.058 1998,451.812 2000.08,451.566 2002.17,451.321 2004.25,451.076 2006.34,450.833 2008.42,450.59 
  2010.51,450.348 2012.59,450.107 2014.68,449.866 2016.77,449.626 2018.85,449.387 2020.94,449.149 2023.02,448.911 2025.11,448.674 2027.19,448.437 2029.28,448.202 
  2031.36,447.967 2033.45,447.733 2035.54,447.499 2037.62,447.267 2039.71,447.034 2041.79,446.803 2043.88,446.572 2045.96,446.342 2048.05,446.113 2050.13,445.884 
  2052.22,445.657 2054.31,445.429 2056.39,445.203 2058.48,444.977 2060.56,444.752 2062.65,444.527 2064.73,444.303 2066.82,444.08 2068.9,443.858 2070.99,443.636 
  2073.08,443.415 2075.16,443.194 2077.25,442.974 2079.33,442.755 2081.42,442.537 2083.5,442.319 2085.59,442.102 2087.68,441.885 2089.76,441.669 2091.85,441.454 
  2093.93,441.24 2096.02,441.026 2098.1,440.812 2100.19,440.6 2102.27,440.388 2104.36,440.176 2106.45,439.965 2108.53,439.755 2110.62,439.546 2112.7,439.337 
  2114.79,439.129 2116.87,438.921 2118.96,438.714 2121.04,438.508 2123.13,438.302 2125.22,438.097 2127.3,437.893 2129.39,437.689 2131.47,437.485 2133.56,437.283 
  2135.64,437.081 2137.73,436.879 2139.81,436.678 2141.9,436.478 2143.99,436.279 2146.07,436.079 2148.16,435.881 2150.24,435.683 2152.33,435.486 2154.41,435.289 
  2156.5,435.093 2158.58,434.898 2160.67,434.703 2162.76,434.509 2164.84,434.315 2166.93,434.122 2169.01,433.929 2171.1,433.737 2173.18,433.546 2175.27,433.355 
  2177.35,433.165 2179.44,432.975 2181.53,432.786 2183.61,432.597 2185.7,432.409 2187.78,432.222 2189.87,432.035 2191.95,431.849 2194.04,431.663 2196.13,431.478 
  2198.21,431.293 2200.3,431.109 2202.38,430.926 2204.47,430.743 2206.55,430.56 2208.64,430.378 2210.72,430.197 2212.81,430.016 2214.9,429.836 2216.98,429.656 
  2219.07,429.477 2221.15,429.298 2223.24,429.12 2225.32,428.943 2227.41,428.766 2229.49,428.589 2231.58,428.413 2233.67,428.238 2235.75,428.063 2237.84,427.888 
  2239.92,427.714 2242.01,427.541 2244.09,427.368 2246.18,427.196 2248.26,427.024 2250.35,426.853 2252.44,426.682 2254.52,426.512 2256.61,426.342 2258.69,426.173 
  2260.78,426.004 2262.86,425.835 2264.95,425.668 2267.03,425.5 2269.12,425.334 2271.21,425.167 2273.29,425.002 2275.38,424.836 2277.46,424.672 2279.55,424.507 
  2281.63,424.344 2283.72,424.18 2285.81,424.017 2287.89,423.855 2289.98,423.693 2292.06,423.532 2294.15,423.371 2296.23,423.21 2298.32,423.051 2300.4,422.891 
  2302.49,422.732 2304.58,422.574 2306.66,422.416 2308.75,422.258 2310.83,422.101 2312.92,421.944 2315,421.788 2317.09,421.632 2319.17,421.477 2321.26,421.323 
  
  "/>
<polyline clip-path="url(#clip1903)" style="stroke:#e26f46; stroke-width:12; stroke-opacity:1; fill:none" points="
  237.767,163.187 239.853,163.807 241.938,164.425 244.024,165.041 246.11,165.655 248.195,166.267 250.281,166.878 252.366,167.486 254.452,168.093 256.538,168.698 
  258.623,169.301 260.709,169.903 262.794,170.502 264.88,171.1 266.965,171.696 269.051,172.29 271.137,172.883 273.222,173.474 275.308,174.062 277.393,174.65 
  279.479,175.235 281.564,175.819 283.65,176.4 285.736,176.981 287.821,177.559 289.907,178.136 291.992,178.71 294.078,179.284 296.164,179.855 298.249,180.425 
  300.335,180.993 302.42,181.559 304.506,182.124 306.591,182.687 308.677,183.248 310.763,183.808 312.848,184.366 314.934,184.922 317.019,185.476 319.105,186.029 
  321.19,186.581 323.276,187.13 325.362,187.678 327.447,188.224 329.533,188.769 331.618,189.312 333.704,189.854 335.79,190.393 337.875,190.931 339.961,191.468 
  342.046,192.003 344.132,192.536 346.217,193.068 348.303,193.598 350.389,194.127 352.474,194.654 354.56,195.179 356.645,195.703 358.731,196.225 360.816,196.746 
  362.902,197.265 364.988,197.782 367.073,198.298 369.159,198.813 371.244,199.326 373.33,199.837 375.415,200.347 377.501,200.855 379.587,201.362 381.672,201.867 
  383.758,202.371 385.843,202.873 387.929,203.374 390.015,203.873 392.1,204.371 394.186,204.867 396.271,205.362 398.357,205.855 400.442,206.347 402.528,206.837 
  404.614,207.326 406.699,207.814 408.785,208.3 410.87,208.784 412.956,209.267 415.041,209.749 417.127,210.229 419.213,210.707 421.298,211.185 423.384,211.661 
  425.469,212.135 427.555,212.608 429.641,213.079 431.726,213.55 433.812,214.018 435.897,214.486 437.983,214.952 440.068,215.416 442.154,215.879 444.24,216.341 
  446.325,216.801 448.411,217.26 450.496,217.718 452.582,218.174 454.667,218.629 456.753,219.082 458.839,219.535 460.924,219.985 463.01,220.435 465.095,220.883 
  467.181,221.33 469.267,221.775 471.352,222.219 473.438,222.662 475.523,223.103 477.609,223.543 479.694,223.982 481.78,224.419 483.866,224.856 485.951,225.29 
  488.037,225.724 490.122,226.156 492.208,226.587 494.293,227.017 496.379,227.445 498.465,227.872 500.55,228.298 502.636,228.722 504.721,229.146 506.807,229.568 
  508.892,229.988 510.978,230.408 513.064,230.826 515.149,231.243 517.235,231.658 519.32,232.073 521.406,232.486 523.492,232.898 525.577,233.309 527.663,233.718 
  529.748,234.126 531.834,234.533 533.919,234.939 536.005,235.344 538.091,235.747 540.176,236.149 542.262,236.55 544.347,236.95 546.433,237.349 548.518,237.746 
  550.604,238.142 552.69,238.537 554.775,238.931 556.861,239.324 558.946,239.715 561.032,240.105 563.118,240.494 565.203,240.882 567.289,241.269 569.374,241.655 
  571.46,242.039 573.545,242.422 575.631,242.805 577.717,243.186 579.802,243.565 581.888,243.944 583.973,244.322 586.059,244.698 588.144,245.074 590.23,245.448 
  592.316,245.821 594.401,246.193 596.487,246.564 598.572,246.933 600.658,247.302 602.743,247.669 604.829,248.036 606.915,248.401 609,248.765 611.086,249.129 
  613.171,249.491 615.257,249.852 617.343,250.211 619.428,250.57 621.514,250.928 623.599,251.285 625.685,251.64 627.77,251.995 629.856,252.348 631.942,252.701 
  634.027,253.052 636.113,253.402 638.198,253.751 640.284,254.1 642.369,254.447 644.455,254.793 646.541,255.138 648.626,255.482 650.712,255.825 652.797,256.167 
  654.883,256.508 656.969,256.848 659.054,257.187 661.14,257.524 663.225,257.861 665.311,258.197 667.396,258.532 669.482,258.866 671.568,259.199 673.653,259.531 
  675.739,259.861 677.824,260.191 679.91,260.52 681.995,260.848 684.081,261.175 686.167,261.501 688.252,261.826 690.338,262.15 692.423,262.473 694.509,262.795 
  696.595,263.116 698.68,263.436 700.766,263.755 702.851,264.073 704.937,264.39 707.022,264.707 709.108,265.022 711.194,265.336 713.279,265.65 715.365,265.962 
  717.45,266.274 719.536,266.585 721.621,266.894 723.707,267.203 725.793,267.511 727.878,267.818 729.964,268.124 732.049,268.429 734.135,268.733 736.22,269.036 
  738.306,269.339 740.392,269.64 742.477,269.941 744.563,270.24 746.648,270.539 748.734,270.837 750.82,271.134 752.905,271.43 754.991,271.725 757.076,272.019 
  759.162,272.313 761.247,272.605 763.333,272.897 765.419,273.188 767.504,273.478 769.59,273.767 771.675,274.055 773.761,274.342 775.846,274.628 777.932,274.914 
  780.018,275.199 782.103,275.483 784.189,275.766 786.274,276.048 788.36,276.329 790.446,276.61 792.531,276.889 794.617,277.168 796.702,277.446 798.788,277.723 
  800.873,277.999 802.959,278.275 805.045,278.55 807.13,278.823 809.216,279.096 811.301,279.369 813.387,279.64 815.472,279.911 817.558,280.18 819.644,280.449 
  821.729,280.717 823.815,280.985 825.9,281.251 827.986,281.517 830.072,281.782 832.157,282.046 834.243,282.309 836.328,282.572 838.414,282.834 840.499,283.095 
  842.585,283.355 844.671,283.614 846.756,283.873 848.842,284.131 850.927,284.388 853.013,284.644 855.098,284.9 857.184,285.155 859.27,285.409 861.355,285.662 
  863.441,285.914 865.526,286.166 867.612,286.417 869.697,286.667 871.783,286.917 873.869,287.166 875.954,287.414 878.04,287.661 880.125,287.907 882.211,288.153 
  884.297,288.398 886.382,288.642 888.468,288.886 890.553,289.129 892.639,289.371 894.724,289.612 896.81,289.853 898.896,290.093 900.981,290.332 903.067,290.571 
  905.152,290.808 907.238,291.045 909.323,291.282 911.409,291.517 913.495,291.752 915.58,291.987 917.666,292.22 919.751,292.453 921.837,292.685 923.923,292.916 
  926.008,293.147 928.094,293.377 930.179,293.607 932.265,293.835 934.35,294.063 936.436,294.291 938.522,294.517 940.607,294.743 942.693,294.968 944.778,295.193 
  946.864,295.417 948.949,295.64 951.035,295.863 953.121,296.085 955.206,296.306 957.292,296.526 959.377,296.746 961.463,296.966 963.549,297.184 965.634,297.402 
  967.72,297.619 969.805,297.836 971.891,298.052 973.976,298.267 976.062,298.482 978.148,298.696 980.233,298.909 982.319,299.122 984.404,299.334 986.49,299.546 
  988.575,299.757 990.661,299.967 992.747,300.177 994.832,300.386 996.918,300.594 999.003,300.802 1001.09,301.009 1003.17,301.215 1005.26,301.421 1007.35,301.626 
  1009.43,301.831 1011.52,302.035 1013.6,302.238 1015.69,302.441 1017.77,302.643 1019.86,302.845 1021.94,303.046 1024.03,303.246 1026.12,303.446 1028.2,303.645 
  1030.29,303.844 1032.37,304.042 1034.46,304.239 1036.54,304.436 1038.63,304.632 1040.71,304.828 1042.8,305.023 1044.89,305.217 1046.97,305.411 1049.06,305.604 
  1051.14,305.797 1053.23,305.989 1055.31,306.181 1057.4,306.372 1059.49,306.562 1061.57,306.752 1063.66,306.941 1065.74,307.13 1067.83,307.318 1069.91,307.505 
  1072,307.692 1074.08,307.879 1076.17,308.065 1078.26,308.25 1080.34,308.435 1082.43,308.619 1084.51,308.803 1086.6,308.986 1088.68,309.168 1090.77,309.35 
  1092.85,309.532 1094.94,309.713 1097.03,309.893 1099.11,310.073 1101.2,310.252 1103.28,310.431 1105.37,310.609 1107.45,310.787 1109.54,310.964 1111.62,311.141 
  1113.71,311.317 1115.8,311.493 1117.88,311.668 1119.97,311.842 1122.05,312.016 1124.14,312.19 1126.22,312.363 1128.31,312.535 1130.39,312.707 1132.48,312.878 
  1134.57,313.049 1136.65,313.22 1138.74,313.39 1140.82,313.559 1142.91,313.728 1144.99,313.896 1147.08,314.064 1149.16,314.231 1151.25,314.398 1153.34,314.564 
  1155.42,314.73 1157.51,314.896 1159.59,315.061 1161.68,315.225 1163.76,315.389 1165.85,315.552 1167.94,315.715 1170.02,315.877 1172.11,316.039 1174.19,316.201 
  1176.28,316.362 1178.36,316.522 1180.45,316.682 1182.53,316.842 1184.62,317.001 1186.71,317.159 1188.79,317.317 1190.88,317.475 1192.96,317.632 1195.05,317.788 
  1197.13,317.945 1199.22,318.1 1201.3,318.256 1203.39,318.41 1205.48,318.565 1207.56,318.718 1209.65,318.872 1211.73,319.025 1213.82,319.177 1215.9,319.329 
  1217.99,319.481 1220.07,319.632 1222.16,319.782 1224.25,319.933 1226.33,320.082 1228.42,320.232 1230.5,320.381 1232.59,320.529 1234.67,320.677 1236.76,320.824 
  1238.84,320.971 1240.93,321.118 1243.02,321.264 1245.1,321.41 1247.19,321.555 1249.27,321.7 1251.36,321.845 1253.44,321.989 1255.53,322.132 1257.62,322.275 
  1259.7,322.418 1261.79,322.56 1263.87,322.702 1265.96,322.843 1268.04,322.984 1270.13,323.125 1272.21,323.265 1274.3,323.405 1276.39,323.544 1278.47,323.683 
  1280.56,323.822 1282.64,323.96 1284.73,324.097 1286.81,324.235 1288.9,324.371 1290.98,324.508 1293.07,324.644 1295.16,324.779 1297.24,324.915 1299.33,325.049 
  1301.41,325.184 1303.5,325.318 1305.58,325.451 1307.67,325.585 1309.75,325.717 1311.84,325.85 1313.93,325.982 1316.01,326.113 1318.1,326.244 1320.18,326.375 
  1322.27,326.506 1324.35,326.636 1326.44,326.765 1328.52,326.895 1330.61,327.023 1332.7,327.152 1334.78,327.28 1336.87,327.408 1338.95,327.535 1341.04,327.662 
  1343.12,327.788 1345.21,327.915 1347.29,328.04 1349.38,328.166 1351.47,328.291 1353.55,328.415 1355.64,328.54 1357.72,328.664 1359.81,328.787 1361.89,328.91 
  1363.98,329.033 1366.07,329.156 1368.15,329.278 1370.24,329.399 1372.32,329.521 1374.41,329.642 1376.49,329.762 1378.58,329.883 1380.66,330.003 1382.75,330.122 
  1384.84,330.241 1386.92,330.36 1389.01,330.479 1391.09,330.597 1393.18,330.714 1395.26,330.832 1397.35,330.949 1399.43,331.066 1401.52,331.182 1403.61,331.298 
  1405.69,331.414 1407.78,331.529 1409.86,331.644 1411.95,331.758 1414.03,331.873 1416.12,331.987 1418.2,332.1 1420.29,332.214 1422.38,332.326 1424.46,332.439 
  1426.55,332.551 1428.63,332.663 1430.72,332.775 1432.8,332.886 1434.89,332.997 1436.97,333.107 1439.06,333.218 1441.15,333.328 1443.23,333.437 1445.32,333.546 
  1447.4,333.655 1449.49,333.764 1451.57,333.872 1453.66,333.98 1455.74,334.088 1457.83,334.195 1459.92,334.302 1462,334.409 1464.09,334.515 1466.17,334.621 
  1468.26,334.727 1470.34,334.832 1472.43,334.937 1474.52,335.042 1476.6,335.147 1478.69,335.251 1480.77,335.355 1482.86,335.458 1484.94,335.561 1487.03,335.664 
  1489.11,335.767 1491.2,335.869 1493.29,335.971 1495.37,336.073 1497.46,336.174 1499.54,336.275 1501.63,336.376 1503.71,336.476 1505.8,336.576 1507.88,336.676 
  1509.97,336.776 1512.06,336.875 1514.14,336.974 1516.23,337.073 1518.31,337.171 1520.4,337.269 1522.48,337.367 1524.57,337.464 1526.65,337.561 1528.74,337.658 
  1530.83,337.755 1532.91,337.851 1535,337.947 1537.08,338.043 1539.17,338.138 1541.25,338.234 1543.34,338.328 1545.42,338.423 1547.51,338.517 1549.6,338.611 
  1551.68,338.705 1553.77,338.799 1555.85,338.892 1557.94,338.985 1560.02,339.077 1562.11,339.17 1564.19,339.262 1566.28,339.353 1568.37,339.445 1570.45,339.536 
  1572.54,339.627 1574.62,339.718 1576.71,339.808 1578.79,339.898 1580.88,339.988 1582.97,340.078 1585.05,340.167 1587.14,340.256 1589.22,340.345 1591.31,340.434 
  1593.39,340.522 1595.48,340.61 1597.56,340.698 1599.65,340.785 1601.74,340.872 1603.82,340.959 1605.91,341.046 1607.99,341.132 1610.08,341.218 1612.16,341.304 
  1614.25,341.39 1616.33,341.475 1618.42,341.561 1620.51,341.645 1622.59,341.73 1624.68,341.814 1626.76,341.898 1628.85,341.982 1630.93,342.066 1633.02,342.149 
  1635.1,342.232 1637.19,342.315 1639.28,342.398 1641.36,342.48 1643.45,342.562 1645.53,342.644 1647.62,342.726 1649.7,342.807 1651.79,342.888 1653.87,342.969 
  1655.96,343.05 1658.05,343.13 1660.13,343.21 1662.22,343.29 1664.3,343.37 1666.39,343.45 1668.47,343.529 1670.56,343.608 1672.65,343.686 1674.73,343.765 
  1676.82,343.843 1678.9,343.921 1680.99,343.999 1683.07,344.077 1685.16,344.154 1687.24,344.231 1689.33,344.308 1691.42,344.384 1693.5,344.461 1695.59,344.537 
  1697.67,344.613 1699.76,344.689 1701.84,344.764 1703.93,344.839 1706.01,344.915 1708.1,344.989 1710.19,345.064 1712.27,345.138 1714.36,345.212 1716.44,345.286 
  1718.53,345.36 1720.61,345.433 1722.7,345.507 1724.78,345.58 1726.87,345.653 1728.96,345.725 1731.04,345.798 1733.13,345.87 1735.21,345.942 1737.3,346.013 
  1739.38,346.085 1741.47,346.156 1743.55,346.227 1745.64,346.298 1747.73,346.369 1749.81,346.439 1751.9,346.51 1753.98,346.58 1756.07,346.649 1758.15,346.719 
  1760.24,346.788 1762.32,346.858 1764.41,346.927 1766.5,346.995 1768.58,347.064 1770.67,347.132 1772.75,347.201 1774.84,347.268 1776.92,347.336 1779.01,347.404 
  1781.1,347.471 1783.18,347.538 1785.27,347.605 1787.35,347.672 1789.44,347.739 1791.52,347.805 1793.61,347.871 1795.69,347.937 1797.78,348.003 1799.87,348.068 
  1801.95,348.134 1804.04,348.199 1806.12,348.264 1808.21,348.329 1810.29,348.393 1812.38,348.458 1814.46,348.522 1816.55,348.586 1818.64,348.65 1820.72,348.713 
  1822.81,348.777 1824.89,348.84 1826.98,348.903 1829.06,348.966 1831.15,349.029 1833.23,349.091 1835.32,349.153 1837.41,349.216 1839.49,349.277 1841.58,349.339 
  1843.66,349.401 1845.75,349.462 1847.83,349.523 1849.92,349.584 1852,349.645 1854.09,349.706 1856.18,349.766 1858.26,349.827 1860.35,349.887 1862.43,349.947 
  1864.52,350.006 1866.6,350.066 1868.69,350.125 1870.77,350.185 1872.86,350.244 1874.95,350.303 1877.03,350.361 1879.12,350.42 1881.2,350.478 1883.29,350.536 
  1885.37,350.594 1887.46,350.652 1889.55,350.71 1891.63,350.767 1893.72,350.825 1895.8,350.882 1897.89,350.939 1899.97,350.995 1902.06,351.052 1904.14,351.108 
  1906.23,351.165 1908.32,351.221 1910.4,351.277 1912.49,351.333 1914.57,351.388 1916.66,351.444 1918.74,351.499 1920.83,351.554 1922.91,351.609 1925,351.664 
  1927.09,351.718 1929.17,351.773 1931.26,351.827 1933.34,351.881 1935.43,351.935 1937.51,351.989 1939.6,352.043 1941.68,352.096 1943.77,352.149 1945.86,352.203 
  1947.94,352.256 1950.03,352.308 1952.11,352.361 1954.2,352.414 1956.28,352.466 1958.37,352.518 1960.45,352.57 1962.54,352.622 1964.63,352.674 1966.71,352.725 
  1968.8,352.777 1970.88,352.828 1972.97,352.879 1975.05,352.93 1977.14,352.981 1979.23,353.032 1981.31,353.082 1983.4,353.132 1985.48,353.183 1987.57,353.233 
  1989.65,353.283 1991.74,353.332 1993.82,353.382 1995.91,353.431 1998,353.481 2000.08,353.53 2002.17,353.579 2004.25,353.628 2006.34,353.676 2008.42,353.725 
  2010.51,353.773 2012.59,353.822 2014.68,353.87 2016.77,353.918 2018.85,353.966 2020.94,354.013 2023.02,354.061 2025.11,354.108 2027.19,354.156 2029.28,354.203 
  2031.36,354.25 2033.45,354.296 2035.54,354.343 2037.62,354.39 2039.71,354.436 2041.79,354.482 2043.88,354.529 2045.96,354.575 2048.05,354.62 2050.13,354.666 
  2052.22,354.712 2054.31,354.757 2056.39,354.802 2058.48,354.848 2060.56,354.893 2062.65,354.938 2064.73,354.982 2066.82,355.027 2068.9,355.071 2070.99,355.116 
  2073.08,355.16 2075.16,355.204 2077.25,355.248 2079.33,355.292 2081.42,355.336 2083.5,355.379 2085.59,355.423 2087.68,355.466 2089.76,355.509 2091.85,355.552 
  2093.93,355.595 2096.02,355.638 2098.1,355.681 2100.19,355.723 2102.27,355.765 2104.36,355.808 2106.45,355.85 2108.53,355.892 2110.62,355.934 2112.7,355.976 
  2114.79,356.017 2116.87,356.059 2118.96,356.1 2121.04,356.141 2123.13,356.183 2125.22,356.224 2127.3,356.264 2129.39,356.305 2131.47,356.346 2133.56,356.386 
  2135.64,356.427 2137.73,356.467 2139.81,356.507 2141.9,356.547 2143.99,356.587 2146.07,356.627 2148.16,356.667 2150.24,356.706 2152.33,356.746 2154.41,356.785 
  2156.5,356.824 2158.58,356.863 2160.67,356.902 2162.76,356.941 2164.84,356.98 2166.93,357.019 2169.01,357.057 2171.1,357.096 2173.18,357.134 2175.27,357.172 
  2177.35,357.21 2179.44,357.248 2181.53,357.286 2183.61,357.324 2185.7,357.361 2187.78,357.399 2189.87,357.436 2191.95,357.473 2194.04,357.51 2196.13,357.547 
  2198.21,357.584 2200.3,357.621 2202.38,357.658 2204.47,357.694 2206.55,357.731 2208.64,357.767 2210.72,357.804 2212.81,357.84 2214.9,357.876 2216.98,357.912 
  2219.07,357.948 2221.15,357.983 2223.24,358.019 2225.32,358.054 2227.41,358.09 2229.49,358.125 2231.58,358.16 2233.67,358.195 2235.75,358.23 2237.84,358.265 
  2239.92,358.3 2242.01,358.335 2244.09,358.369 2246.18,358.404 2248.26,358.438 2250.35,358.472 2252.44,358.507 2254.52,358.541 2256.61,358.575 2258.69,358.608 
  2260.78,358.642 2262.86,358.676 2264.95,358.709 2267.03,358.743 2269.12,358.776 2271.21,358.81 2273.29,358.843 2275.38,358.876 2277.46,358.909 2279.55,358.942 
  2281.63,358.974 2283.72,359.007 2285.81,359.04 2287.89,359.072 2289.98,359.104 2292.06,359.137 2294.15,359.169 2296.23,359.201 2298.32,359.233 2300.4,359.265 
  2302.49,359.297 2304.58,359.328 2306.66,359.36 2308.75,359.391 2310.83,359.423 2312.92,359.454 2315,359.485 2317.09,359.517 2319.17,359.548 2321.26,359.578 
  
  "/>
<polygon clip-path="url(#clip1901)" points="
1910.3,390.944 2249.26,390.944 2249.26,209.504 1910.3,209.504 
  " fill="#ffffff" fill-rule="evenodd" fill-opacity="1"/>
<polyline clip-path="url(#clip1901)" style="stroke:#000000; stroke-width:4; stroke-opacity:1; fill:none" points="
  1910.3,390.944 2249.26,390.944 2249.26,209.504 1910.3,209.504 1910.3,390.944 
  "/>
<polyline clip-path="url(#clip1901)" style="stroke:#009af9; stroke-width:12; stroke-opacity:1; fill:none" points="
  1934.3,269.984 2078.3,269.984 
  "/>
<g clip-path="url(#clip1901)">
<text style="fill:#000000; fill-opacity:1; font-family:Arial,Helvetica Neue,Helvetica,sans-serif; font-size:48px; text-anchor:start;" transform="rotate(0, 2102.3, 287.484)" x="2102.3" y="287.484">u1(t)</text>
</g>
<polyline clip-path="url(#clip1901)" style="stroke:#e26f46; stroke-width:12; stroke-opacity:1; fill:none" points="
  1934.3,330.464 2078.3,330.464 
  "/>
<g clip-path="url(#clip1901)">
<text style="fill:#000000; fill-opacity:1; font-family:Arial,Helvetica Neue,Helvetica,sans-serif; font-size:48px; text-anchor:start;" transform="rotate(0, 2102.3, 347.964)" x="2102.3" y="347.964">u2(t)</text>
</g>
</svg>
