<?xml version="1.0" encoding="utf-8"?>
<svg xmlns="http://www.w3.org/2000/svg" xmlns:xlink="http://www.w3.org/1999/xlink" width="600" height="400" viewBox="0 0 2400 1600">
<defs>
  <clipPath id="clip1200">
    <rect x="0" y="0" width="2000" height="2000"/>
  </clipPath>
</defs>
<defs>
  <clipPath id="clip1201">
    <rect x="0" y="0" width="2400" height="1600"/>
  </clipPath>
</defs>
<polygon clip-path="url(#clip1201)" points="
0,1600 2400,1600 2400,0 0,0 
  " fill="#ffffff" fill-rule="evenodd" fill-opacity="1"/>
<defs>
  <clipPath id="clip1202">
    <rect x="480" y="0" width="1681" height="1600"/>
  </clipPath>
</defs>
<polygon clip-path="url(#clip1201)" points="
174.775,1440.48 2321.26,1440.48 2321.26,47.2441 174.775,47.2441 
  " fill="#ffffff" fill-rule="evenodd" fill-opacity="1"/>
<defs>
  <clipPath id="clip1203">
    <rect x="174" y="47" width="2147" height="1394"/>
  </clipPath>
</defs>
<polyline clip-path="url(#clip1203)" style="stroke:#000000; stroke-width:2; stroke-opacity:0.1; fill:none" points="
  235.525,1440.48 235.525,47.2441 
  "/>
<polyline clip-path="url(#clip1203)" style="stroke:#000000; stroke-width:2; stroke-opacity:0.1; fill:none" points="
  640.522,1440.48 640.522,47.2441 
  "/>
<polyline clip-path="url(#clip1203)" style="stroke:#000000; stroke-width:2; stroke-opacity:0.1; fill:none" points="
  1045.52,1440.48 1045.52,47.2441 
  "/>
<polyline clip-path="url(#clip1203)" style="stroke:#000000; stroke-width:2; stroke-opacity:0.1; fill:none" points="
  1450.52,1440.48 1450.52,47.2441 
  "/>
<polyline clip-path="url(#clip1203)" style="stroke:#000000; stroke-width:2; stroke-opacity:0.1; fill:none" points="
  1855.51,1440.48 1855.51,47.2441 
  "/>
<polyline clip-path="url(#clip1203)" style="stroke:#000000; stroke-width:2; stroke-opacity:0.1; fill:none" points="
  2260.51,1440.48 2260.51,47.2441 
  "/>
<polyline clip-path="url(#clip1203)" style="stroke:#000000; stroke-width:2; stroke-opacity:0.1; fill:none" points="
  174.775,1401.05 2321.26,1401.05 
  "/>
<polyline clip-path="url(#clip1203)" style="stroke:#000000; stroke-width:2; stroke-opacity:0.1; fill:none" points="
  174.775,1072.46 2321.26,1072.46 
  "/>
<polyline clip-path="url(#clip1203)" style="stroke:#000000; stroke-width:2; stroke-opacity:0.1; fill:none" points="
  174.775,743.863 2321.26,743.863 
  "/>
<polyline clip-path="url(#clip1203)" style="stroke:#000000; stroke-width:2; stroke-opacity:0.1; fill:none" points="
  174.775,415.269 2321.26,415.269 
  "/>
<polyline clip-path="url(#clip1203)" style="stroke:#000000; stroke-width:2; stroke-opacity:0.1; fill:none" points="
  174.775,86.6754 2321.26,86.6754 
  "/>
<polyline clip-path="url(#clip1201)" style="stroke:#000000; stroke-width:4; stroke-opacity:1; fill:none" points="
  174.775,1440.48 2321.26,1440.48 
  "/>
<polyline clip-path="url(#clip1201)" style="stroke:#000000; stroke-width:4; stroke-opacity:1; fill:none" points="
  174.775,1440.48 174.775,47.2441 
  "/>
<polyline clip-path="url(#clip1201)" style="stroke:#000000; stroke-width:4; stroke-opacity:1; fill:none" points="
  235.525,1440.48 235.525,1419.58 
  "/>
<polyline clip-path="url(#clip1201)" style="stroke:#000000; stroke-width:4; stroke-opacity:1; fill:none" points="
  640.522,1440.48 640.522,1419.58 
  "/>
<polyline clip-path="url(#clip1201)" style="stroke:#000000; stroke-width:4; stroke-opacity:1; fill:none" points="
  1045.52,1440.48 1045.52,1419.58 
  "/>
<polyline clip-path="url(#clip1201)" style="stroke:#000000; stroke-width:4; stroke-opacity:1; fill:none" points="
  1450.52,1440.48 1450.52,1419.58 
  "/>
<polyline clip-path="url(#clip1201)" style="stroke:#000000; stroke-width:4; stroke-opacity:1; fill:none" points="
  1855.51,1440.48 1855.51,1419.58 
  "/>
<polyline clip-path="url(#clip1201)" style="stroke:#000000; stroke-width:4; stroke-opacity:1; fill:none" points="
  2260.51,1440.48 2260.51,1419.58 
  "/>
<polyline clip-path="url(#clip1201)" style="stroke:#000000; stroke-width:4; stroke-opacity:1; fill:none" points="
  174.775,1401.05 206.972,1401.05 
  "/>
<polyline clip-path="url(#clip1201)" style="stroke:#000000; stroke-width:4; stroke-opacity:1; fill:none" points="
  174.775,1072.46 206.972,1072.46 
  "/>
<polyline clip-path="url(#clip1201)" style="stroke:#000000; stroke-width:4; stroke-opacity:1; fill:none" points="
  174.775,743.863 206.972,743.863 
  "/>
<polyline clip-path="url(#clip1201)" style="stroke:#000000; stroke-width:4; stroke-opacity:1; fill:none" points="
  174.775,415.269 206.972,415.269 
  "/>
<polyline clip-path="url(#clip1201)" style="stroke:#000000; stroke-width:4; stroke-opacity:1; fill:none" points="
  174.775,86.6754 206.972,86.6754 
  "/>
<g clip-path="url(#clip1201)">
<text style="fill:#000000; fill-opacity:1; font-family:Arial,Helvetica Neue,Helvetica,sans-serif; font-size:48px; text-anchor:middle;" transform="rotate(0, 235.525, 1494.48)" x="235.525" y="1494.48">0</text>
</g>
<g clip-path="url(#clip1201)">
<text style="fill:#000000; fill-opacity:1; font-family:Arial,Helvetica Neue,Helvetica,sans-serif; font-size:48px; text-anchor:middle;" transform="rotate(0, 640.522, 1494.48)" x="640.522" y="1494.48">10</text>
</g>
<g clip-path="url(#clip1201)">
<text style="fill:#000000; fill-opacity:1; font-family:Arial,Helvetica Neue,Helvetica,sans-serif; font-size:48px; text-anchor:middle;" transform="rotate(0, 1045.52, 1494.48)" x="1045.52" y="1494.48">20</text>
</g>
<g clip-path="url(#clip1201)">
<text style="fill:#000000; fill-opacity:1; font-family:Arial,Helvetica Neue,Helvetica,sans-serif; font-size:48px; text-anchor:middle;" transform="rotate(0, 1450.52, 1494.48)" x="1450.52" y="1494.48">30</text>
</g>
<g clip-path="url(#clip1201)">
<text style="fill:#000000; fill-opacity:1; font-family:Arial,Helvetica Neue,Helvetica,sans-serif; font-size:48px; text-anchor:middle;" transform="rotate(0, 1855.51, 1494.48)" x="1855.51" y="1494.48">40</text>
</g>
<g clip-path="url(#clip1201)">
<text style="fill:#000000; fill-opacity:1; font-family:Arial,Helvetica Neue,Helvetica,sans-serif; font-size:48px; text-anchor:middle;" transform="rotate(0, 2260.51, 1494.48)" x="2260.51" y="1494.48">50</text>
</g>
<g clip-path="url(#clip1201)">
<text style="fill:#000000; fill-opacity:1; font-family:Arial,Helvetica Neue,Helvetica,sans-serif; font-size:48px; text-anchor:end;" transform="rotate(0, 150.775, 1418.55)" x="150.775" y="1418.55">0</text>
</g>
<g clip-path="url(#clip1201)">
<text style="fill:#000000; fill-opacity:1; font-family:Arial,Helvetica Neue,Helvetica,sans-serif; font-size:48px; text-anchor:end;" transform="rotate(0, 150.775, 1089.96)" x="150.775" y="1089.96">25</text>
</g>
<g clip-path="url(#clip1201)">
<text style="fill:#000000; fill-opacity:1; font-family:Arial,Helvetica Neue,Helvetica,sans-serif; font-size:48px; text-anchor:end;" transform="rotate(0, 150.775, 761.363)" x="150.775" y="761.363">50</text>
</g>
<g clip-path="url(#clip1201)">
<text style="fill:#000000; fill-opacity:1; font-family:Arial,Helvetica Neue,Helvetica,sans-serif; font-size:48px; text-anchor:end;" transform="rotate(0, 150.775, 432.769)" x="150.775" y="432.769">75</text>
</g>
<g clip-path="url(#clip1201)">
<text style="fill:#000000; fill-opacity:1; font-family:Arial,Helvetica Neue,Helvetica,sans-serif; font-size:48px; text-anchor:end;" transform="rotate(0, 150.775, 104.175)" x="150.775" y="104.175">100</text>
</g>
<g clip-path="url(#clip1201)">
<text style="fill:#000000; fill-opacity:1; font-family:Arial,Helvetica Neue,Helvetica,sans-serif; font-size:66px; text-anchor:middle;" transform="rotate(0, 1248.02, 1590.4)" x="1248.02" y="1590.4">x (m)</text>
</g>
<polyline clip-path="url(#clip1203)" style="stroke:#009af9; stroke-width:4; stroke-opacity:1; fill:none" points="
  235.525,1401.05 239.583,1398.85 243.641,1396.66 247.699,1394.46 251.757,1392.26 255.815,1390.06 259.873,1387.86 263.931,1385.67 267.989,1383.47 272.048,1381.27 
  276.106,1379.07 280.164,1376.87 284.222,1374.68 288.28,1372.48 292.338,1370.28 296.396,1368.08 300.454,1365.88 304.512,1363.69 308.57,1361.49 312.628,1359.29 
  316.687,1357.09 320.745,1354.89 324.803,1352.7 328.861,1350.5 332.919,1348.3 336.977,1346.1 341.035,1343.9 345.093,1341.71 349.151,1339.51 353.209,1337.31 
  357.267,1335.11 361.325,1332.91 365.384,1330.72 369.442,1328.52 373.5,1326.32 377.558,1324.12 381.616,1321.93 385.674,1319.73 389.732,1317.53 393.79,1315.33 
  397.848,1313.13 401.906,1310.94 405.964,1308.74 410.023,1306.54 414.081,1304.34 418.139,1302.14 422.197,1299.95 426.255,1297.75 430.313,1295.55 434.371,1293.35 
  438.429,1291.15 442.487,1288.96 446.545,1286.76 450.603,1284.56 454.661,1282.36 458.72,1280.16 462.778,1277.97 466.836,1275.77 470.894,1273.57 474.952,1271.37 
  479.01,1269.17 483.068,1266.98 487.126,1264.78 491.184,1262.58 495.242,1260.38 499.3,1258.18 503.359,1255.99 507.417,1253.79 511.475,1251.59 515.533,1249.39 
  519.591,1247.19 523.649,1245 527.707,1242.8 531.765,1240.6 535.823,1238.4 539.881,1236.2 543.939,1234.01 547.997,1231.81 552.056,1229.61 556.114,1227.41 
  560.172,1225.22 564.23,1223.02 568.288,1220.82 572.346,1218.62 576.404,1216.42 580.462,1214.23 584.52,1212.03 588.578,1209.83 592.636,1207.63 596.695,1205.43 
  600.753,1203.24 604.811,1201.04 608.869,1198.84 612.927,1196.64 616.985,1194.44 621.043,1192.25 625.101,1190.05 629.159,1187.85 633.217,1185.65 637.275,1183.45 
  641.333,1181.26 645.392,1179.06 649.45,1176.86 653.508,1174.66 657.566,1172.46 661.624,1170.27 665.682,1168.07 669.74,1165.87 673.798,1163.67 677.856,1161.47 
  681.914,1159.28 685.972,1157.08 690.031,1154.88 694.089,1152.68 698.147,1150.48 702.205,1148.29 706.263,1146.09 710.321,1143.89 714.379,1141.69 718.437,1139.49 
  722.495,1137.3 726.553,1135.1 730.611,1132.9 734.669,1130.7 738.728,1128.51 742.786,1126.31 746.844,1124.11 750.902,1121.91 754.96,1119.71 759.018,1117.52 
  763.076,1115.32 767.134,1113.12 771.192,1110.92 775.25,1108.72 779.308,1106.53 783.367,1104.33 787.425,1102.13 791.483,1099.93 795.541,1097.73 799.599,1095.54 
  803.657,1093.34 807.715,1091.14 811.773,1088.94 815.831,1086.74 819.889,1084.55 823.947,1082.35 828.006,1080.15 832.064,1077.95 836.122,1075.75 840.18,1073.56 
  844.238,1071.36 848.296,1069.16 852.354,1066.96 856.412,1064.76 860.47,1062.57 864.528,1060.37 868.586,1058.17 872.644,1055.97 876.703,1053.77 880.761,1051.58 
  884.819,1049.38 888.877,1047.18 892.935,1044.98 896.993,1042.78 901.051,1040.59 905.109,1038.39 909.167,1036.19 913.225,1033.99 917.283,1031.8 921.342,1029.6 
  925.4,1027.4 929.458,1025.2 933.516,1023 937.574,1020.81 941.632,1018.61 945.69,1016.41 949.748,1014.21 953.806,1012.01 957.864,1009.82 961.922,1007.62 
  965.98,1005.42 970.039,1003.22 974.097,1001.02 978.155,998.826 982.213,996.628 986.271,994.43 990.329,992.232 994.387,990.034 998.445,987.836 1002.5,985.638 
  1006.56,983.44 1010.62,981.242 1014.68,979.044 1018.74,976.846 1022.79,974.648 1026.85,972.45 1030.91,970.253 1034.97,968.055 1039.03,965.857 1043.08,963.659 
  1047.14,961.461 1051.2,959.263 1055.26,957.065 1059.32,954.867 1063.37,952.669 1067.43,950.471 1071.49,948.273 1075.55,946.075 1079.61,943.877 1083.66,941.679 
  1087.72,939.481 1091.78,937.283 1095.84,935.085 1099.9,932.887 1103.96,930.689 1108.01,928.491 1112.07,926.293 1116.13,924.096 1120.19,921.898 1124.25,919.7 
  1128.3,917.502 1132.36,915.304 1136.42,913.106 1140.48,910.908 1144.54,908.71 1148.59,906.512 1152.65,904.314 1156.71,902.116 1160.77,899.918 1164.83,897.72 
  1168.88,895.522 1172.94,893.324 1177,891.126 1181.06,888.928 1185.12,886.73 1189.18,884.532 1193.23,882.334 1197.29,880.136 1201.35,877.938 1205.41,875.741 
  1209.47,873.543 1213.52,871.345 1217.58,869.147 1221.64,866.949 1225.7,864.751 1229.76,862.553 1233.81,860.355 1237.87,858.157 1241.93,855.959 1245.99,853.761 
  1250.05,851.563 1254.1,849.365 1258.16,847.167 1262.22,844.969 1266.28,842.771 1270.34,840.573 1274.4,838.375 1278.45,836.177 1282.51,833.979 1286.57,831.781 
  1290.63,829.584 1294.69,827.386 1298.74,825.188 1302.8,822.99 1306.86,820.792 1310.92,818.594 1314.98,816.396 1319.03,814.198 1323.09,812 1327.15,809.802 
  1331.21,807.604 1335.27,805.406 1339.32,803.208 1343.38,801.01 1347.44,798.812 1351.5,796.614 1355.56,794.416 1359.61,792.218 1363.67,790.02 1367.73,787.822 
  1371.79,785.624 1375.85,783.427 1379.91,781.229 1383.96,779.031 1388.02,776.833 1392.08,774.635 1396.14,772.437 1400.2,770.239 1404.25,768.041 1408.31,765.843 
  1412.37,763.645 1416.43,761.447 1420.49,759.249 1424.54,757.051 1428.6,754.853 1432.66,752.655 1436.72,750.457 1440.78,748.259 1444.83,746.061 1448.89,743.863 
  1452.95,741.665 1457.01,739.467 1461.07,737.269 1465.13,735.072 1469.18,732.874 1473.24,730.676 1477.3,728.478 1481.36,726.28 1485.42,724.082 1489.47,721.884 
  1493.53,719.686 1497.59,717.488 1501.65,715.29 1505.71,713.092 1509.76,710.894 1513.82,708.696 1517.88,706.498 1521.94,704.3 1526,702.102 1530.05,699.904 
  1534.11,697.706 1538.17,695.508 1542.23,693.31 1546.29,691.112 1550.35,688.915 1554.4,686.717 1558.46,684.519 1562.52,682.321 1566.58,680.123 1570.64,677.925 
  1574.69,675.727 1578.75,673.529 1582.81,671.331 1586.87,669.133 1590.93,666.935 1594.98,664.737 1599.04,662.539 1603.1,660.341 1607.16,658.143 1611.22,655.945 
  1615.27,653.747 1619.33,651.549 1623.39,649.351 1627.45,647.153 1631.51,644.955 1635.56,642.758 1639.62,640.56 1643.68,638.362 1647.74,636.164 1651.8,633.966 
  1655.86,631.768 1659.91,629.57 1663.97,627.372 1668.03,625.174 1672.09,622.976 1676.15,620.778 1680.2,618.58 1684.26,616.382 1688.32,614.184 1692.38,611.986 
  1696.44,609.788 1700.49,607.59 1704.55,605.392 1708.61,603.194 1712.67,600.996 1716.73,598.798 1720.78,596.6 1724.84,594.403 1728.9,592.205 1732.96,590.007 
  1737.02,587.809 1741.08,585.611 1745.13,583.413 1749.19,581.215 1753.25,579.017 1757.31,576.819 1761.37,574.621 1765.42,572.423 1769.48,570.225 1773.54,568.027 
  1777.6,565.829 1781.66,563.631 1785.71,561.433 1789.77,559.235 1793.83,557.037 1797.89,554.839 1801.95,552.641 1806,550.443 1810.06,548.246 1814.12,546.048 
  1818.18,543.85 1822.24,541.652 1826.29,539.454 1830.35,537.256 1834.41,535.058 1838.47,532.86 1842.53,530.662 1846.59,528.464 1850.64,526.266 1854.7,524.068 
  1858.76,521.87 1862.82,519.672 1866.88,517.474 1870.93,515.276 1874.99,513.078 1879.05,510.88 1883.11,508.682 1887.17,506.484 1891.22,504.286 1895.28,502.089 
  1899.34,499.891 1903.4,497.693 1907.46,495.495 1911.51,493.297 1915.57,491.099 1919.63,488.901 1923.69,486.703 1927.75,484.505 1931.81,482.307 1935.86,480.109 
  1939.92,477.911 1943.98,475.713 1948.04,473.515 1952.1,471.317 1956.15,469.119 1960.21,466.921 1964.27,464.723 1968.33,462.525 1972.39,460.327 1976.44,458.129 
  1980.5,455.931 1984.56,453.734 1988.62,451.536 1992.68,449.338 1996.73,447.14 2000.79,444.942 2004.85,442.744 2008.91,440.546 2012.97,438.348 2017.03,436.15 
  2021.08,433.952 2025.14,431.754 2029.2,429.556 2033.26,427.358 2037.32,425.16 2041.37,422.962 2045.43,420.764 2049.49,418.566 2053.55,416.368 2057.61,414.17 
  2061.66,411.972 2065.72,409.774 2069.78,407.577 2073.84,405.379 2077.9,403.181 2081.95,400.983 2086.01,398.785 2090.07,396.587 2094.13,394.389 2098.19,392.191 
  2102.24,389.993 2106.3,387.795 2110.36,385.597 2114.42,383.399 2118.48,381.201 2122.54,379.003 2126.59,376.805 2130.65,374.607 2134.71,372.409 2138.77,370.211 
  2142.83,368.013 2146.88,365.815 2150.94,363.617 2155,361.42 2159.06,359.222 2163.12,357.024 2167.17,354.826 2171.23,352.628 2175.29,350.43 2179.35,348.232 
  2183.41,346.034 2187.46,343.836 2191.52,341.638 2195.58,339.44 2199.64,337.242 2203.7,335.044 2207.76,332.846 2211.81,330.648 2215.87,328.45 2219.93,326.252 
  2223.99,324.054 2228.05,321.856 2232.1,319.658 2236.16,317.46 2240.22,315.262 2244.28,313.065 2248.34,310.867 2252.39,308.669 2256.45,306.471 2260.51,304.273 
  
  "/>
<polyline clip-path="url(#clip1203)" style="stroke:#e26f46; stroke-width:4; stroke-opacity:1; fill:none" points="
  235.525,1183.45 239.583,1181.26 243.641,1179.06 247.699,1176.86 251.757,1174.66 255.815,1172.46 259.873,1170.27 263.931,1168.07 267.989,1165.87 272.048,1163.67 
  276.106,1161.47 280.164,1159.28 284.222,1157.08 288.28,1154.88 292.338,1152.68 296.396,1150.48 300.454,1148.29 304.512,1146.09 308.57,1143.89 312.628,1141.69 
  316.687,1139.49 320.745,1137.3 324.803,1135.1 328.861,1132.9 332.919,1130.7 336.977,1128.51 341.035,1126.31 345.093,1124.11 349.151,1121.91 353.209,1119.71 
  357.267,1117.52 361.325,1115.32 365.384,1113.12 369.442,1110.92 373.5,1108.72 377.558,1106.53 381.616,1104.33 385.674,1102.13 389.732,1099.93 393.79,1097.73 
  397.848,1095.54 401.906,1093.34 405.964,1091.14 410.023,1088.94 414.081,1086.74 418.139,1084.55 422.197,1082.35 426.255,1080.15 430.313,1077.95 434.371,1075.75 
  438.429,1073.56 442.487,1071.36 446.545,1069.16 450.603,1066.96 454.661,1064.76 458.72,1062.57 462.778,1060.37 466.836,1058.17 470.894,1055.97 474.952,1053.77 
  479.01,1051.58 483.068,1049.38 487.126,1047.18 491.184,1044.98 495.242,1042.78 499.3,1040.59 503.359,1038.39 507.417,1036.19 511.475,1033.99 515.533,1031.8 
  519.591,1029.6 523.649,1027.4 527.707,1025.2 531.765,1023 535.823,1020.81 539.881,1018.61 543.939,1016.41 547.997,1014.21 552.056,1012.01 556.114,1009.82 
  560.172,1007.62 564.23,1005.42 568.288,1003.22 572.346,1001.02 576.404,998.826 580.462,996.628 584.52,994.43 588.578,992.232 592.636,990.034 596.695,987.836 
  600.753,985.638 604.811,983.44 608.869,981.242 612.927,979.044 616.985,976.846 621.043,974.648 625.101,972.45 629.159,970.253 633.217,968.055 637.275,965.857 
  641.333,963.659 645.392,961.461 649.45,959.263 653.508,957.065 657.566,954.867 661.624,952.669 665.682,950.471 669.74,948.273 673.798,946.075 677.856,943.877 
  681.914,941.679 685.972,939.481 690.031,937.283 694.089,935.085 698.147,932.887 702.205,930.689 706.263,928.491 710.321,926.293 714.379,924.096 718.437,921.898 
  722.495,919.7 726.553,917.502 730.611,915.304 734.669,913.106 738.728,910.908 742.786,908.71 746.844,906.512 750.902,904.314 754.96,902.116 759.018,899.918 
  763.076,897.72 767.134,895.522 771.192,893.324 775.25,891.126 779.308,888.928 783.367,886.73 787.425,884.532 791.483,882.334 795.541,880.136 799.599,877.938 
  803.657,875.741 807.715,873.543 811.773,871.345 815.831,869.147 819.889,866.949 823.947,864.751 828.006,862.553 832.064,860.355 836.122,858.157 840.18,855.959 
  844.238,853.761 848.296,851.563 852.354,849.365 856.412,847.167 860.47,844.969 864.528,842.771 868.586,840.573 872.644,838.375 876.703,836.177 880.761,833.979 
  884.819,831.781 888.877,829.584 892.935,827.386 896.993,825.188 901.051,822.99 905.109,820.792 909.167,818.594 913.225,816.396 917.283,814.198 921.342,812 
  925.4,809.802 929.458,807.604 933.516,805.406 937.574,803.208 941.632,801.01 945.69,798.812 949.748,796.614 953.806,794.416 957.864,792.218 961.922,790.02 
  965.98,787.822 970.039,785.624 974.097,783.427 978.155,781.229 982.213,779.031 986.271,776.833 990.329,774.635 994.387,772.437 998.445,770.239 1002.5,768.041 
  1006.56,765.843 1010.62,763.645 1014.68,761.447 1018.74,759.249 1022.79,757.051 1026.85,754.853 1030.91,752.655 1034.97,750.457 1039.03,748.259 1043.08,746.061 
  1047.14,743.863 1051.2,741.665 1055.26,739.467 1059.32,737.269 1063.37,735.072 1067.43,732.874 1071.49,730.676 1075.55,728.478 1079.61,726.28 1083.66,724.082 
  1087.72,721.884 1091.78,719.686 1095.84,717.488 1099.9,715.29 1103.96,713.092 1108.01,710.894 1112.07,708.696 1116.13,706.498 1120.19,704.3 1124.25,702.102 
  1128.3,699.904 1132.36,697.706 1136.42,695.508 1140.48,693.31 1144.54,691.112 1148.59,688.915 1152.65,686.717 1156.71,684.519 1160.77,682.321 1164.83,680.123 
  1168.88,677.925 1172.94,675.727 1177,673.529 1181.06,671.331 1185.12,669.133 1189.18,666.935 1193.23,664.737 1197.29,662.539 1201.35,660.341 1205.41,658.143 
  1209.47,655.945 1213.52,653.747 1217.58,651.549 1221.64,649.351 1225.7,647.153 1229.76,644.955 1233.81,642.758 1237.87,640.56 1241.93,638.362 1245.99,636.164 
  1250.05,633.966 1254.1,631.768 1258.16,629.57 1262.22,627.372 1266.28,625.174 1270.34,622.976 1274.4,620.778 1278.45,618.58 1282.51,616.382 1286.57,614.184 
  1290.63,611.986 1294.69,609.788 1298.74,607.59 1302.8,605.392 1306.86,603.194 1310.92,600.996 1314.98,598.798 1319.03,596.6 1323.09,594.403 1327.15,592.205 
  1331.21,590.007 1335.27,587.809 1339.32,585.611 1343.38,583.413 1347.44,581.215 1351.5,579.017 1355.56,576.819 1359.61,574.621 1363.67,572.423 1367.73,570.225 
  1371.79,568.027 1375.85,565.829 1379.91,563.631 1383.96,561.433 1388.02,559.235 1392.08,557.037 1396.14,554.839 1400.2,552.641 1404.25,550.443 1408.31,548.246 
  1412.37,546.048 1416.43,543.85 1420.49,541.652 1424.54,539.454 1428.6,537.256 1432.66,535.058 1436.72,532.86 1440.78,530.662 1444.83,528.464 1448.89,526.266 
  1452.95,524.068 1457.01,521.87 1461.07,519.672 1465.13,517.474 1469.18,515.276 1473.24,513.078 1477.3,510.88 1481.36,508.682 1485.42,506.484 1489.47,504.286 
  1493.53,502.089 1497.59,499.891 1501.65,497.693 1505.71,495.495 1509.76,493.297 1513.82,491.099 1517.88,488.901 1521.94,486.703 1526,484.505 1530.05,482.307 
  1534.11,480.109 1538.17,477.911 1542.23,475.713 1546.29,473.515 1550.35,471.317 1554.4,469.119 1558.46,466.921 1562.52,464.723 1566.58,462.525 1570.64,460.327 
  1574.69,458.129 1578.75,455.931 1582.81,453.734 1586.87,451.536 1590.93,449.338 1594.98,447.14 1599.04,444.942 1603.1,442.744 1607.16,440.546 1611.22,438.348 
  1615.27,436.15 1619.33,433.952 1623.39,431.754 1627.45,429.556 1631.51,427.358 1635.56,425.16 1639.62,422.962 1643.68,420.764 1647.74,418.566 1651.8,416.368 
  1655.86,414.17 1659.91,411.972 1663.97,409.774 1668.03,407.577 1672.09,405.379 1676.15,403.181 1680.2,400.983 1684.26,398.785 1688.32,396.587 1692.38,394.389 
  1696.44,392.191 1700.49,389.993 1704.55,387.795 1708.61,385.597 1712.67,383.399 1716.73,381.201 1720.78,379.003 1724.84,376.805 1728.9,374.607 1732.96,372.409 
  1737.02,370.211 1741.08,368.013 1745.13,365.815 1749.19,363.617 1753.25,361.42 1757.31,359.222 1761.37,357.024 1765.42,354.826 1769.48,352.628 1773.54,350.43 
  1777.6,348.232 1781.66,346.034 1785.71,343.836 1789.77,341.638 1793.83,339.44 1797.89,337.242 1801.95,335.044 1806,332.846 1810.06,330.648 1814.12,328.45 
  1818.18,326.252 1822.24,324.054 1826.29,321.856 1830.35,319.658 1834.41,317.46 1838.47,315.262 1842.53,313.065 1846.59,310.867 1850.64,308.669 1854.7,306.471 
  1858.76,304.273 1862.82,302.075 1866.88,299.877 1870.93,297.679 1874.99,295.481 1879.05,293.283 1883.11,291.085 1887.17,288.887 1891.22,286.689 1895.28,284.491 
  1899.34,282.293 1903.4,280.095 1907.46,277.897 1911.51,275.699 1915.57,273.501 1919.63,271.303 1923.69,269.105 1927.75,266.908 1931.81,264.71 1935.86,262.512 
  1939.92,260.314 1943.98,258.116 1948.04,255.918 1952.1,253.72 1956.15,251.522 1960.21,249.324 1964.27,247.126 1968.33,244.928 1972.39,242.73 1976.44,240.532 
  1980.5,238.334 1984.56,236.136 1988.62,233.938 1992.68,231.74 1996.73,229.542 2000.79,227.344 2004.85,225.146 2008.91,222.948 2012.97,220.751 2017.03,218.553 
  2021.08,216.355 2025.14,214.157 2029.2,211.959 2033.26,209.761 2037.32,207.563 2041.37,205.365 2045.43,203.167 2049.49,200.969 2053.55,198.771 2057.61,196.573 
  2061.66,194.375 2065.72,192.177 2069.78,189.979 2073.84,187.781 2077.9,185.583 2081.95,183.385 2086.01,181.187 2090.07,178.989 2094.13,176.791 2098.19,174.593 
  2102.24,172.396 2106.3,170.198 2110.36,168 2114.42,165.802 2118.48,163.604 2122.54,161.406 2126.59,159.208 2130.65,157.01 2134.71,154.812 2138.77,152.614 
  2142.83,150.416 2146.88,148.218 2150.94,146.02 2155,143.822 2159.06,141.624 2163.12,139.426 2167.17,137.228 2171.23,135.03 2175.29,132.832 2179.35,130.634 
  2183.41,128.436 2187.46,126.239 2191.52,124.041 2195.58,121.843 2199.64,119.645 2203.7,117.447 2207.76,115.249 2211.81,113.051 2215.87,110.853 2219.93,108.655 
  2223.99,106.457 2228.05,104.259 2232.1,102.061 2236.16,99.8631 2240.22,97.6651 2244.28,95.4672 2248.34,93.2692 2252.39,91.0713 2256.45,88.8733 2260.51,86.6754 
  
  "/>
<polyline clip-path="url(#clip1203)" style="stroke:#3da44d; stroke-width:4; stroke-opacity:1; fill:none" points="
  235.525,1401.05 239.583,1389.2 243.641,1377.45 247.699,1365.81 251.757,1354.27 255.815,1342.84 259.873,1331.51 263.931,1320.28 267.989,1309.15 272.048,1298.13 
  276.106,1287.2 280.164,1276.37 284.222,1265.64 288.28,1255.01 292.338,1244.47 296.396,1234.03 300.454,1223.68 304.512,1213.42 308.57,1203.26 312.628,1193.18 
  316.687,1183.2 320.745,1173.31 324.803,1163.51 328.861,1153.79 332.919,1144.17 336.977,1134.63 341.035,1125.17 345.093,1115.8 349.151,1106.52 353.209,1097.32 
  357.267,1088.2 361.325,1079.17 365.384,1070.21 369.442,1061.34 373.5,1052.54 377.558,1043.83 381.616,1035.19 385.674,1026.64 389.732,1018.15 393.79,1009.75 
  397.848,1001.42 401.906,993.167 405.964,984.988 410.023,976.882 414.081,968.849 418.139,960.889 422.197,953 426.255,945.182 430.313,937.435 434.371,929.757 
  438.429,922.149 442.487,914.609 446.545,907.138 450.603,899.733 454.661,892.395 458.72,885.124 462.778,877.917 466.836,870.776 470.894,863.699 474.952,856.686 
  479.01,849.736 483.068,842.849 487.126,836.023 491.184,829.259 495.242,822.557 499.3,815.914 503.359,809.331 507.417,802.808 511.475,796.343 515.533,789.937 
  519.591,783.588 523.649,777.297 527.707,771.062 531.765,764.883 535.823,758.761 539.881,752.693 543.939,746.68 547.997,740.721 552.056,734.815 556.114,728.963 
  560.172,723.164 564.23,717.417 568.288,711.722 572.346,706.078 576.404,700.484 580.462,694.942 584.52,689.449 588.578,684.005 592.636,678.611 596.695,673.265 
  600.753,667.968 604.811,662.718 608.869,657.516 612.927,652.36 616.985,647.251 621.043,642.187 625.101,637.17 629.159,632.197 633.217,627.27 637.275,622.387 
  641.333,617.548 645.392,612.752 649.45,608 653.508,603.29 657.566,598.623 661.624,593.998 665.682,589.414 669.74,584.872 673.798,580.371 677.856,575.91 
  681.914,571.49 685.972,567.109 690.031,562.768 694.089,558.466 698.147,554.203 702.205,549.978 706.263,545.791 710.321,541.642 714.379,537.53 718.437,533.455 
  722.495,529.417 726.553,525.416 730.611,521.45 734.669,517.52 738.728,513.626 742.786,509.766 746.844,505.942 750.902,502.152 754.96,498.396 759.018,494.673 
  763.076,490.985 767.134,487.329 771.192,483.707 775.25,480.117 779.308,476.56 783.367,473.034 787.425,469.541 791.483,466.078 795.541,462.647 799.599,459.247 
  803.657,455.878 807.715,452.539 811.773,449.23 815.831,445.95 819.889,442.701 823.947,439.48 828.006,436.289 832.064,433.126 836.122,429.992 840.18,426.886 
  844.238,423.808 848.296,420.758 852.354,417.735 856.412,414.74 860.47,411.771 864.528,408.83 868.586,405.914 872.644,403.025 876.703,400.163 880.761,397.325 
  884.819,394.514 888.877,391.727 892.935,388.966 896.993,386.23 901.051,383.518 905.109,380.831 909.167,378.168 913.225,375.529 917.283,372.914 921.342,370.322 
  925.4,367.754 929.458,365.209 933.516,362.686 937.574,360.187 941.632,357.71 945.69,355.255 949.748,352.822 953.806,350.412 957.864,348.023 961.922,345.655 
  965.98,343.309 970.039,340.984 974.097,338.68 978.155,336.397 982.213,334.134 986.271,331.892 990.329,329.67 994.387,327.468 998.445,325.285 1002.5,323.123 
  1006.56,320.98 1010.62,318.856 1014.68,316.751 1018.74,314.666 1022.79,312.599 1026.85,310.55 1030.91,308.52 1034.97,306.509 1039.03,304.515 1043.08,302.54 
  1047.14,300.582 1051.2,298.642 1055.26,296.72 1059.32,294.814 1063.37,292.926 1067.43,291.055 1071.49,289.201 1075.55,287.363 1079.61,285.543 1083.66,283.738 
  1087.72,281.95 1091.78,280.177 1095.84,278.421 1099.9,276.681 1103.96,274.956 1108.01,273.247 1112.07,271.553 1116.13,269.875 1120.19,268.211 1124.25,266.563 
  1128.3,264.929 1132.36,263.31 1136.42,261.706 1140.48,260.116 1144.54,258.541 1148.59,256.979 1152.65,255.432 1156.71,253.899 1160.77,252.379 1164.83,250.874 
  1168.88,249.381 1172.94,247.903 1177,246.437 1181.06,244.985 1185.12,243.546 1189.18,242.12 1193.23,240.706 1197.29,239.306 1201.35,237.918 1205.41,236.542 
  1209.47,235.179 1213.52,233.828 1217.58,232.489 1221.64,231.163 1225.7,229.848 1229.76,228.545 1233.81,227.254 1237.87,225.975 1241.93,224.707 1245.99,223.451 
  1250.05,222.205 1254.1,220.971 1258.16,219.749 1262.22,218.537 1266.28,217.336 1270.34,216.146 1274.4,214.966 1278.45,213.798 1282.51,212.639 1286.57,211.492 
  1290.63,210.354 1294.69,209.227 1298.74,208.11 1302.8,207.003 1306.86,205.906 1310.92,204.819 1314.98,203.742 1319.03,202.674 1323.09,201.616 1327.15,200.568 
  1331.21,199.529 1335.27,198.499 1339.32,197.479 1343.38,196.467 1347.44,195.465 1351.5,194.472 1355.56,193.488 1359.61,192.513 1363.67,191.546 1367.73,190.589 
  1371.79,189.64 1375.85,188.699 1379.91,187.767 1383.96,186.843 1388.02,185.928 1392.08,185.021 1396.14,184.122 1400.2,183.231 1404.25,182.348 1408.31,181.473 
  1412.37,180.606 1416.43,179.747 1420.49,178.896 1424.54,178.052 1428.6,177.216 1432.66,176.387 1436.72,175.566 1440.78,174.752 1444.83,173.946 1448.89,173.146 
  1452.95,172.354 1457.01,171.57 1461.07,170.792 1465.13,170.021 1469.18,169.257 1473.24,168.5 1477.3,167.75 1481.36,167.007 1485.42,166.27 1489.47,165.54 
  1493.53,164.817 1497.59,164.1 1501.65,163.389 1505.71,162.685 1509.76,161.987 1513.82,161.296 1517.88,160.611 1521.94,159.932 1526,159.259 1530.05,158.592 
  1534.11,157.931 1538.17,157.276 1542.23,156.627 1546.29,155.984 1550.35,155.347 1554.4,154.715 1558.46,154.089 1562.52,153.469 1566.58,152.854 1570.64,152.245 
  1574.69,151.641 1578.75,151.043 1582.81,150.45 1586.87,149.863 1590.93,149.28 1594.98,148.703 1599.04,148.132 1603.1,147.565 1607.16,147.004 1611.22,146.447 
  1615.27,145.896 1619.33,145.349 1623.39,144.808 1627.45,144.271 1631.51,143.739 1635.56,143.212 1639.62,142.69 1643.68,142.172 1647.74,141.659 1651.8,141.151 
  1655.86,140.647 1659.91,140.148 1663.97,139.653 1668.03,139.163 1672.09,138.677 1676.15,138.196 1680.2,137.719 1684.26,137.246 1688.32,136.777 1692.38,136.313 
  1696.44,135.853 1700.49,135.397 1704.55,134.945 1708.61,134.497 1712.67,134.053 1716.73,133.613 1720.78,133.178 1724.84,132.746 1728.9,132.318 1732.96,131.894 
  1737.02,131.473 1741.08,131.057 1745.13,130.644 1749.19,130.235 1753.25,129.829 1757.31,129.428 1761.37,129.03 1765.42,128.635 1769.48,128.244 1773.54,127.857 
  1777.6,127.473 1781.66,127.092 1785.71,126.715 1789.77,126.341 1793.83,125.971 1797.89,125.604 1801.95,125.24 1806,124.88 1810.06,124.523 1814.12,124.169 
  1818.18,123.818 1822.24,123.471 1826.29,123.126 1830.35,122.785 1834.41,122.447 1838.47,122.111 1842.53,121.779 1846.59,121.45 1850.64,121.124 1854.7,120.8 
  1858.76,120.48 1862.82,120.162 1866.88,119.848 1870.93,119.536 1874.99,119.227 1879.05,118.921 1883.11,118.617 1887.17,118.317 1891.22,118.019 1895.28,117.723 
  1899.34,117.431 1903.4,117.141 1907.46,116.853 1911.51,116.568 1915.57,116.286 1919.63,116.006 1923.69,115.729 1927.75,115.454 1931.81,115.182 1935.86,114.912 
  1939.92,114.645 1943.98,114.38 1948.04,114.118 1952.1,113.857 1956.15,113.6 1960.21,113.344 1964.27,113.091 1968.33,112.84 1972.39,112.591 1976.44,112.345 
  1980.5,112.101 1984.56,111.858 1988.62,111.619 1992.68,111.381 1996.73,111.145 2000.79,110.912 2004.85,110.681 2008.91,110.451 2012.97,110.224 2017.03,109.999 
  2021.08,109.776 2025.14,109.555 2029.2,109.336 2033.26,109.119 2037.32,108.904 2041.37,108.69 2045.43,108.479 2049.49,108.27 2053.55,108.062 2057.61,107.857 
  2061.66,107.653 2065.72,107.451 2069.78,107.251 2073.84,107.052 2077.9,106.856 2081.95,106.661 2086.01,106.468 2090.07,106.277 2094.13,106.087 2098.19,105.899 
  2102.24,105.713 2106.3,105.529 2110.36,105.346 2114.42,105.165 2118.48,104.985 2122.54,104.807 2126.59,104.631 2130.65,104.456 2134.71,104.283 2138.77,104.112 
  2142.83,103.942 2146.88,103.773 2150.94,103.606 2155,103.441 2159.06,103.277 2163.12,103.114 2167.17,102.953 2171.23,102.793 2175.29,102.635 2179.35,102.479 
  2183.41,102.323 2187.46,102.169 2191.52,102.017 2195.58,101.866 2199.64,101.716 2203.7,101.567 2207.76,101.42 2211.81,101.274 2215.87,101.13 2219.93,100.987 
  2223.99,100.845 2228.05,100.704 2232.1,100.565 2236.16,100.427 2240.22,100.29 2244.28,100.154 2248.34,100.02 2252.39,99.8867 2256.45,99.7547 2260.51,99.6239 
  
  "/>
<polyline clip-path="url(#clip1203)" style="stroke:#c271d2; stroke-width:4; stroke-opacity:1; fill:none" points="
  235.525,216.818 239.583,215.633 243.641,214.458 247.699,213.294 251.757,212.14 255.815,210.997 259.873,209.864 263.931,208.741 267.989,207.628 272.048,206.526 
  276.106,205.433 280.164,204.35 284.222,203.277 288.28,202.214 292.338,201.16 296.396,200.116 300.454,199.081 304.512,198.055 308.57,197.039 312.628,196.031 
  316.687,195.033 320.745,194.044 324.803,193.064 328.861,192.092 332.919,191.13 336.977,190.176 341.035,189.23 345.093,188.293 349.151,187.365 353.209,186.445 
  357.267,185.533 361.325,184.63 365.384,183.734 369.442,182.847 373.5,181.967 377.558,181.096 381.616,180.232 385.674,179.377 389.732,178.528 393.79,177.688 
  397.848,176.855 401.906,176.03 405.964,175.212 410.023,174.401 414.081,173.598 418.139,172.802 422.197,172.013 426.255,171.231 430.313,170.456 434.371,169.689 
  438.429,168.928 442.487,168.174 446.545,167.427 450.603,166.686 454.661,165.953 458.72,165.225 462.778,164.505 466.836,163.791 470.894,163.083 474.952,162.382 
  479.01,161.687 483.068,160.998 487.126,160.315 491.184,159.639 495.242,158.969 499.3,158.304 503.359,157.646 507.417,156.994 511.475,156.347 515.533,155.707 
  519.591,155.072 523.649,154.443 527.707,153.819 531.765,153.201 535.823,152.589 539.881,151.982 543.939,151.381 547.997,150.785 552.056,150.195 556.114,149.609 
  560.172,149.029 564.23,148.455 568.288,147.885 572.346,147.321 576.404,146.761 580.462,146.207 584.52,145.658 588.578,145.114 592.636,144.574 596.695,144.04 
  600.753,143.51 604.811,142.985 608.869,142.465 612.927,141.949 616.985,141.438 621.043,140.932 625.101,140.43 629.159,139.933 633.217,139.44 637.275,138.952 
  641.333,138.468 645.392,137.988 649.45,137.513 653.508,137.042 657.566,136.575 661.624,136.113 665.682,135.654 669.74,135.2 673.798,134.75 677.856,134.304 
  681.914,133.862 685.972,133.424 690.031,132.99 694.089,132.56 698.147,132.133 702.205,131.711 706.263,131.292 710.321,130.877 714.379,130.466 718.437,130.058 
  722.495,129.655 726.553,129.255 730.611,128.858 734.669,128.465 738.728,128.076 742.786,127.69 746.844,127.307 750.902,126.928 754.96,126.553 759.018,126.18 
  763.076,125.811 767.134,125.446 771.192,125.084 775.25,124.725 779.308,124.369 783.367,124.016 787.425,123.667 791.483,123.321 795.541,122.978 799.599,122.638 
  803.657,122.301 807.715,121.967 811.773,121.636 815.831,121.308 819.889,120.983 823.947,120.661 828.006,120.342 832.064,120.026 836.122,119.712 840.18,119.402 
  844.238,119.094 848.296,118.789 852.354,118.487 856.412,118.187 860.47,117.89 864.528,117.596 868.586,117.304 872.644,117.016 876.703,116.729 880.761,116.446 
  884.819,116.164 888.877,115.886 892.935,115.61 896.993,115.336 901.051,115.065 905.109,114.796 909.167,114.53 913.225,114.266 917.283,114.004 921.342,113.745 
  925.4,113.488 929.458,113.234 933.516,112.982 937.574,112.732 941.632,112.484 945.69,112.238 949.748,111.995 953.806,111.754 957.864,111.515 961.922,111.279 
  965.98,111.044 970.039,110.811 974.097,110.581 978.155,110.353 982.213,110.126 986.271,109.902 990.329,109.68 994.387,109.46 998.445,109.242 1002.5,109.025 
  1006.56,108.811 1010.62,108.599 1014.68,108.388 1018.74,108.18 1022.79,107.973 1026.85,107.768 1030.91,107.565 1034.97,107.364 1039.03,107.165 1043.08,106.967 
  1047.14,106.771 1051.2,106.577 1055.26,106.385 1059.32,106.194 1063.37,106.006 1067.43,105.819 1071.49,105.633 1075.55,105.449 1079.61,105.267 1083.66,105.087 
  1087.72,104.908 1091.78,104.731 1095.84,104.555 1099.9,104.381 1103.96,104.209 1108.01,104.038 1112.07,103.868 1116.13,103.7 1120.19,103.534 1124.25,103.369 
  1128.3,103.206 1132.36,103.044 1136.42,102.884 1140.48,102.725 1144.54,102.567 1148.59,102.411 1152.65,102.256 1156.71,102.103 1160.77,101.951 1164.83,101.8 
  1168.88,101.651 1172.94,101.503 1177,101.357 1181.06,101.211 1185.12,101.068 1189.18,100.925 1193.23,100.784 1197.29,100.644 1201.35,100.505 1205.41,100.367 
  1209.47,100.231 1213.52,100.096 1217.58,99.9619 1221.64,99.8293 1225.7,99.6978 1229.76,99.5675 1233.81,99.4384 1237.87,99.3105 1241.93,99.1837 1245.99,99.058 
  1250.05,98.9335 1254.1,98.8101 1258.16,98.6878 1262.22,98.5667 1266.28,98.4466 1270.34,98.3276 1274.4,98.2096 1278.45,98.0927 1282.51,97.9769 1286.57,97.8621 
  1290.63,97.7484 1294.69,97.6357 1298.74,97.524 1302.8,97.4133 1306.86,97.3036 1310.92,97.1949 1314.98,97.0871 1319.03,96.9804 1323.09,96.8746 1327.15,96.7697 
  1331.21,96.6658 1335.27,96.5629 1339.32,96.4608 1343.38,96.3597 1347.44,96.2595 1351.5,96.1602 1355.56,96.0618 1359.61,95.9643 1363.67,95.8676 1367.73,95.7718 
  1371.79,95.6769 1375.85,95.5829 1379.91,95.4897 1383.96,95.3973 1388.02,95.3058 1392.08,95.215 1396.14,95.1252 1400.2,95.0361 1404.25,94.9478 1408.31,94.8603 
  1412.37,94.7736 1416.43,94.6877 1420.49,94.6025 1424.54,94.5182 1428.6,94.4345 1432.66,94.3517 1436.72,94.2696 1440.78,94.1882 1444.83,94.1075 1448.89,94.0276 
  1452.95,93.9484 1457.01,93.8699 1461.07,93.7922 1465.13,93.7151 1469.18,93.6387 1473.24,93.563 1477.3,93.488 1481.36,93.4137 1485.42,93.34 1489.47,93.267 
  1493.53,93.1946 1497.59,93.1229 1501.65,93.0519 1505.71,92.9815 1509.76,92.9117 1513.82,92.8426 1517.88,92.7741 1521.94,92.7061 1526,92.6389 1530.05,92.5722 
  1534.11,92.5061 1538.17,92.4406 1542.23,92.3757 1546.29,92.3114 1550.35,92.2476 1554.4,92.1845 1558.46,92.1219 1562.52,92.0599 1566.58,91.9984 1570.64,91.9375 
  1574.69,91.8771 1578.75,91.8173 1582.81,91.758 1586.87,91.6992 1590.93,91.641 1594.98,91.5833 1599.04,91.5261 1603.1,91.4695 1607.16,91.4133 1611.22,91.3577 
  1615.27,91.3025 1619.33,91.2479 1623.39,91.1937 1627.45,91.1401 1631.51,91.0869 1635.56,91.0342 1639.62,90.982 1643.68,90.9302 1647.74,90.8789 1651.8,90.8281 
  1655.86,90.7777 1659.91,90.7278 1663.97,90.6783 1668.03,90.6293 1672.09,90.5807 1676.15,90.5326 1680.2,90.4848 1684.26,90.4376 1688.32,90.3907 1692.38,90.3443 
  1696.44,90.2983 1700.49,90.2527 1704.55,90.2075 1708.61,90.1627 1712.67,90.1183 1716.73,90.0743 1720.78,90.0307 1724.84,89.9876 1728.9,89.9448 1732.96,89.9023 
  1737.02,89.8603 1741.08,89.8187 1745.13,89.7774 1749.19,89.7365 1753.25,89.6959 1757.31,89.6558 1761.37,89.6159 1765.42,89.5765 1769.48,89.5374 1773.54,89.4986 
  1777.6,89.4603 1781.66,89.4222 1785.71,89.3845 1789.77,89.3471 1793.83,89.3101 1797.89,89.2734 1801.95,89.237 1806,89.201 1810.06,89.1653 1814.12,89.1299 
  1818.18,89.0948 1822.24,89.06 1826.29,89.0256 1830.35,88.9915 1834.41,88.9576 1838.47,88.9241 1842.53,88.8909 1846.59,88.858 1850.64,88.8254 1854.7,88.793 
  1858.76,88.761 1862.82,88.7292 1866.88,88.6978 1870.93,88.6666 1874.99,88.6357 1879.05,88.6051 1883.11,88.5747 1887.17,88.5446 1891.22,88.5148 1895.28,88.4853 
  1899.34,88.456 1903.4,88.427 1907.46,88.3983 1911.51,88.3698 1915.57,88.3416 1919.63,88.3136 1923.69,88.2859 1927.75,88.2584 1931.81,88.2312 1935.86,88.2042 
  1939.92,88.1775 1943.98,88.151 1948.04,88.1247 1952.1,88.0987 1956.15,88.0729 1960.21,88.0474 1964.27,88.0221 1968.33,87.997 1972.39,87.9721 1976.44,87.9475 
  1980.5,87.923 1984.56,87.8988 1988.62,87.8748 1992.68,87.8511 1996.73,87.8275 2000.79,87.8042 2004.85,87.7811 2008.91,87.7581 2012.97,87.7354 2017.03,87.7129 
  2021.08,87.6906 2025.14,87.6685 2029.2,87.6466 2033.26,87.6249 2037.32,87.6034 2041.37,87.582 2045.43,87.5609 2049.49,87.54 2053.55,87.5192 2057.61,87.4986 
  2061.66,87.4783 2065.72,87.4581 2069.78,87.4381 2073.84,87.4182 2077.9,87.3986 2081.95,87.3791 2086.01,87.3598 2090.07,87.3407 2094.13,87.3217 2098.19,87.3029 
  2102.24,87.2843 2106.3,87.2659 2110.36,87.2476 2114.42,87.2295 2118.48,87.2115 2122.54,87.1937 2126.59,87.1761 2130.65,87.1586 2134.71,87.1413 2138.77,87.1241 
  2142.83,87.1071 2146.88,87.0903 2150.94,87.0736 2155,87.057 2159.06,87.0406 2163.12,87.0244 2167.17,87.0083 2171.23,86.9923 2175.29,86.9765 2179.35,86.9608 
  2183.41,86.9453 2187.46,86.9299 2191.52,86.9147 2195.58,86.8995 2199.64,86.8846 2203.7,86.8697 2207.76,86.855 2211.81,86.8404 2215.87,86.826 2219.93,86.8116 
  2223.99,86.7975 2228.05,86.7834 2232.1,86.7695 2236.16,86.7557 2240.22,86.742 2244.28,86.7284 2248.34,86.715 2252.39,86.7017 2256.45,86.6885 2260.51,86.6754 
  
  "/>
<polyline clip-path="url(#clip1203)" style="stroke:#ac8d18; stroke-width:4; stroke-opacity:1; fill:none" points="
  235.525,1401.05 239.583,1394.17 243.641,1387.32 247.699,1380.5 251.757,1373.72 255.815,1366.98 259.873,1360.27 263.931,1353.59 267.989,1346.94 272.048,1340.33 
  276.106,1333.75 280.164,1327.21 284.222,1320.69 288.28,1314.21 292.338,1307.77 296.396,1301.35 300.454,1294.97 304.512,1288.62 308.57,1282.3 312.628,1276.01 
  316.687,1269.76 320.745,1263.54 324.803,1257.34 328.861,1251.18 332.919,1245.05 336.977,1238.95 341.035,1232.88 345.093,1226.84 349.151,1220.84 353.209,1214.86 
  357.267,1208.91 361.325,1202.99 365.384,1197.1 369.442,1191.24 373.5,1185.42 377.558,1179.62 381.616,1173.84 385.674,1168.1 389.732,1162.39 393.79,1156.71 
  397.848,1151.05 401.906,1145.42 405.964,1139.82 410.023,1134.25 414.081,1128.71 418.139,1123.2 422.197,1117.71 426.255,1112.25 430.313,1106.82 434.371,1101.41 
  438.429,1096.03 442.487,1090.68 446.545,1085.36 450.603,1080.06 454.661,1074.79 458.72,1069.55 462.778,1064.33 466.836,1059.14 470.894,1053.97 474.952,1048.83 
  479.01,1043.72 483.068,1038.63 487.126,1033.57 491.184,1028.53 495.242,1023.52 499.3,1018.53 503.359,1013.57 507.417,1008.64 511.475,1003.73 515.533,998.838 
  519.591,993.976 523.649,989.138 527.707,984.324 531.765,979.535 535.823,974.77 539.881,970.028 543.939,965.311 547.997,960.617 552.056,955.946 556.114,951.3 
  560.172,946.676 564.23,942.076 568.288,937.499 572.346,932.945 576.404,928.413 580.462,923.905 584.52,919.419 588.578,914.956 592.636,910.515 596.695,906.096 
  600.753,901.7 604.811,897.326 608.869,892.974 612.927,888.643 616.985,884.335 621.043,880.048 625.101,875.782 629.159,871.538 633.217,867.316 637.275,863.114 
  641.333,858.934 645.392,854.774 649.45,850.636 653.508,846.518 657.566,842.421 661.624,838.345 665.682,834.289 669.74,830.254 673.798,826.239 677.856,822.244 
  681.914,818.269 685.972,814.314 690.031,810.379 694.089,806.463 698.147,802.568 702.205,798.691 706.263,794.835 710.321,790.998 714.379,787.18 718.437,783.381 
  722.495,779.601 726.553,775.841 730.611,772.099 734.669,768.376 738.728,764.672 742.786,760.986 746.844,757.319 750.902,753.67 754.96,750.04 759.018,746.428 
  763.076,742.834 767.134,739.258 771.192,735.7 775.25,732.16 779.308,728.638 783.367,725.133 787.425,721.646 791.483,718.177 795.541,714.725 799.599,711.29 
  803.657,707.873 807.715,704.472 811.773,701.089 815.831,697.723 819.889,694.374 823.947,691.041 828.006,687.726 832.064,684.427 836.122,681.144 840.18,677.878 
  844.238,674.629 848.296,671.396 852.354,668.179 856.412,664.978 860.47,661.793 864.528,658.625 868.586,655.472 872.644,652.335 876.703,649.214 880.761,646.109 
  884.819,643.019 888.877,639.944 892.935,636.885 896.993,633.842 901.051,630.814 905.109,627.801 909.167,624.803 913.225,621.82 917.283,618.852 921.342,615.899 
  925.4,612.961 929.458,610.038 933.516,607.13 937.574,604.236 941.632,601.356 945.69,598.491 949.748,595.641 953.806,592.804 957.864,589.982 961.922,587.175 
  965.98,584.381 970.039,581.601 974.097,578.835 978.155,576.084 982.213,573.346 986.271,570.622 990.329,567.911 994.387,565.214 998.445,562.531 1002.5,559.861 
  1006.56,557.204 1010.62,554.561 1014.68,551.932 1018.74,549.315 1022.79,546.711 1026.85,544.121 1030.91,541.544 1034.97,538.979 1039.03,536.428 1043.08,533.889 
  1047.14,531.363 1051.2,528.85 1055.26,526.349 1059.32,523.861 1063.37,521.386 1067.43,518.923 1071.49,516.472 1075.55,514.034 1079.61,511.607 1083.66,509.193 
  1087.72,506.792 1091.78,504.402 1095.84,502.024 1099.9,499.658 1103.96,497.304 1108.01,494.962 1112.07,492.632 1116.13,490.313 1120.19,488.006 1124.25,485.711 
  1128.3,483.427 1132.36,481.155 1136.42,478.894 1140.48,476.644 1144.54,474.406 1148.59,472.179 1152.65,469.963 1156.71,467.758 1160.77,465.565 1164.83,463.382 
  1168.88,461.211 1172.94,459.05 1177,456.9 1181.06,454.761 1185.12,452.633 1189.18,450.515 1193.23,448.408 1197.29,446.312 1201.35,444.226 1205.41,442.151 
  1209.47,440.086 1213.52,438.031 1217.58,435.987 1221.64,433.953 1225.7,431.929 1229.76,429.915 1233.81,427.912 1237.87,425.919 1241.93,423.935 1245.99,421.962 
  1250.05,419.998 1254.1,418.045 1258.16,416.101 1262.22,414.167 1266.28,412.243 1270.34,410.328 1274.4,408.423 1278.45,406.528 1282.51,404.642 1286.57,402.765 
  1290.63,400.898 1294.69,399.04 1298.74,397.192 1302.8,395.353 1306.86,393.523 1310.92,391.703 1314.98,389.891 1319.03,388.089 1323.09,386.296 1327.15,384.512 
  1331.21,382.736 1335.27,380.97 1339.32,379.212 1343.38,377.464 1347.44,375.724 1351.5,373.993 1355.56,372.27 1359.61,370.556 1363.67,368.851 1367.73,367.155 
  1371.79,365.467 1375.85,363.787 1379.91,362.116 1383.96,360.453 1388.02,358.799 1392.08,357.153 1396.14,355.515 1400.2,353.885 1404.25,352.264 1408.31,350.651 
  1412.37,349.045 1416.43,347.448 1420.49,345.859 1424.54,344.278 1428.6,342.705 1432.66,341.14 1436.72,339.583 1440.78,338.033 1444.83,336.491 1448.89,334.957 
  1452.95,333.431 1457.01,331.913 1461.07,330.402 1465.13,328.898 1469.18,327.402 1473.24,325.914 1477.3,324.433 1481.36,322.96 1485.42,321.494 1489.47,320.035 
  1493.53,318.584 1497.59,317.14 1501.65,315.703 1505.71,314.274 1509.76,312.851 1513.82,311.436 1517.88,310.028 1521.94,308.627 1526,307.233 1530.05,305.846 
  1534.11,304.466 1538.17,303.093 1542.23,301.727 1546.29,300.368 1550.35,299.015 1554.4,297.669 1558.46,296.331 1562.52,294.998 1566.58,293.673 1570.64,292.354 
  1574.69,291.042 1578.75,289.736 1582.81,288.437 1586.87,287.145 1590.93,285.859 1594.98,284.579 1599.04,283.306 1603.1,282.039 1607.16,280.779 1611.22,279.525 
  1615.27,278.277 1619.33,277.036 1623.39,275.801 1627.45,274.572 1631.51,273.349 1635.56,272.132 1639.62,270.922 1643.68,269.717 1647.74,268.519 1651.8,267.326 
  1655.86,266.14 1659.91,264.959 1663.97,263.785 1668.03,262.616 1672.09,261.453 1676.15,260.296 1680.2,259.145 1684.26,258 1688.32,256.861 1692.38,255.727 
  1696.44,254.599 1700.49,253.476 1704.55,252.359 1708.61,251.248 1712.67,250.142 1716.73,249.042 1720.78,247.948 1724.84,246.859 1728.9,245.775 1732.96,244.697 
  1737.02,243.624 1741.08,242.557 1745.13,241.495 1749.19,240.438 1753.25,239.387 1757.31,238.341 1761.37,237.3 1765.42,236.265 1769.48,235.234 1773.54,234.209 
  1777.6,233.189 1781.66,232.174 1785.71,231.165 1789.77,230.16 1793.83,229.16 1797.89,228.166 1801.95,227.176 1806,226.191 1810.06,225.212 1814.12,224.237 
  1818.18,223.267 1822.24,222.302 1826.29,221.342 1830.35,220.386 1834.41,219.436 1838.47,218.49 1842.53,217.549 1846.59,216.613 1850.64,215.681 1854.7,214.754 
  1858.76,213.832 1862.82,212.914 1866.88,212.002 1870.93,211.093 1874.99,210.189 1879.05,209.29 1883.11,208.395 1887.17,207.505 1891.22,206.619 1895.28,205.738 
  1899.34,204.861 1903.4,203.988 1907.46,203.12 1911.51,202.256 1915.57,201.397 1919.63,200.542 1923.69,199.691 1927.75,198.844 1931.81,198.002 1935.86,197.164 
  1939.92,196.33 1943.98,195.501 1948.04,194.675 1952.1,193.854 1956.15,193.037 1960.21,192.223 1964.27,191.414 1968.33,190.609 1972.39,189.809 1976.44,189.012 
  1980.5,188.219 1984.56,187.43 1988.62,186.645 1992.68,185.864 1996.73,185.087 2000.79,184.314 2004.85,183.544 2008.91,182.779 2012.97,182.017 2017.03,181.26 
  2021.08,180.506 2025.14,179.756 2029.2,179.009 2033.26,178.267 2037.32,177.528 2041.37,176.793 2045.43,176.061 2049.49,175.333 2053.55,174.609 2057.61,173.889 
  2061.66,173.172 2065.72,172.458 2069.78,171.749 2073.84,171.043 2077.9,170.34 2081.95,169.641 2086.01,168.945 2090.07,168.253 2094.13,167.565 2098.19,166.88 
  2102.24,166.198 2106.3,165.52 2110.36,164.845 2114.42,164.174 2118.48,163.506 2122.54,162.841 2126.59,162.179 2130.65,161.521 2134.71,160.867 2138.77,160.215 
  2142.83,159.567 2146.88,158.922 2150.94,158.28 2155,157.642 2159.06,157.007 2163.12,156.375 2167.17,155.746 2171.23,155.12 2175.29,154.498 2179.35,153.878 
  2183.41,153.262 2187.46,152.648 2191.52,152.038 2195.58,151.431 2199.64,150.827 2203.7,150.226 2207.76,149.628 2211.81,149.033 2215.87,148.441 2219.93,147.852 
  2223.99,147.266 2228.05,146.683 2232.1,146.103 2236.16,145.526 2240.22,144.951 2244.28,144.38 2248.34,143.811 2252.39,143.246 2256.45,142.683 2260.51,142.123 
  
  "/>
<polyline clip-path="url(#clip1203)" style="stroke:#00a9ad; stroke-width:4; stroke-opacity:1; fill:none" points="
  235.525,716.14 239.583,712.698 243.641,709.274 247.699,705.866 251.757,702.476 255.815,699.103 259.873,695.747 263.931,692.408 267.989,689.085 272.048,685.779 
  276.106,682.49 280.164,679.217 284.222,675.961 288.28,672.721 292.338,669.498 296.396,666.29 300.454,663.099 304.512,659.924 308.57,656.765 312.628,653.621 
  316.687,650.494 320.745,647.382 324.803,644.285 328.861,641.205 332.919,638.14 336.977,635.09 341.035,632.055 345.093,629.036 349.151,626.032 353.209,623.043 
  357.267,620.069 361.325,617.11 365.384,614.166 369.442,611.237 373.5,608.322 377.558,605.422 381.616,602.537 385.674,599.666 389.732,596.809 393.79,593.967 
  397.848,591.139 401.906,588.326 405.964,585.526 410.023,582.741 414.081,579.969 418.139,577.212 422.197,574.468 426.255,571.738 430.313,569.022 434.371,566.32 
  438.429,563.631 442.487,560.955 446.545,558.293 450.603,555.645 454.661,553.01 458.72,550.388 462.778,547.779 466.836,545.183 470.894,542.6 474.952,540.031 
  479.01,537.474 483.068,534.93 487.126,532.399 491.184,529.88 495.242,527.375 499.3,524.881 503.359,522.401 507.417,519.932 511.475,517.477 515.533,515.033 
  519.591,512.602 523.649,510.183 527.707,507.776 531.765,505.382 535.823,502.999 539.881,500.628 543.939,498.269 547.997,495.922 552.056,493.587 556.114,491.264 
  560.172,488.952 564.23,486.652 568.288,484.363 572.346,482.086 576.404,479.821 580.462,477.567 584.52,475.324 588.578,473.092 592.636,470.872 596.695,468.662 
  600.753,466.464 604.811,464.277 608.869,462.101 612.927,459.936 616.985,457.781 621.043,455.638 625.101,453.505 629.159,451.383 633.217,449.272 637.275,447.171 
  641.333,445.081 645.392,443.001 649.45,440.932 653.508,438.873 657.566,436.825 661.624,434.787 665.682,432.759 669.74,430.741 673.798,428.733 677.856,426.736 
  681.914,424.748 685.972,422.771 690.031,420.803 694.089,418.846 698.147,416.898 702.205,414.96 706.263,413.032 710.321,411.113 714.379,409.204 718.437,407.305 
  722.495,405.415 726.553,403.534 730.611,401.664 734.669,399.802 738.728,397.95 742.786,396.107 746.844,394.274 750.902,392.449 754.96,390.634 759.018,388.828 
  763.076,387.031 767.134,385.243 771.192,383.464 775.25,381.694 779.308,379.933 783.367,378.181 787.425,376.437 791.483,374.702 795.541,372.976 799.599,371.259 
  803.657,369.55 807.715,367.85 811.773,366.159 815.831,364.476 819.889,362.801 823.947,361.135 828.006,359.477 832.064,357.827 836.122,356.186 840.18,354.553 
  844.238,352.929 848.296,351.312 852.354,349.704 856.412,348.103 860.47,346.511 864.528,344.926 868.586,343.35 872.644,341.782 876.703,340.221 880.761,338.668 
  884.819,337.123 888.877,335.586 892.935,334.057 896.993,332.535 901.051,331.021 905.109,329.514 909.167,328.016 913.225,326.524 917.283,325.04 921.342,323.564 
  925.4,322.095 929.458,320.633 933.516,319.179 937.574,317.732 941.632,316.292 945.69,314.86 949.748,313.434 953.806,312.016 957.864,310.605 961.922,309.201 
  965.98,307.805 970.039,306.415 974.097,305.032 978.155,303.656 982.213,302.287 986.271,300.925 990.329,299.57 994.387,298.221 998.445,296.879 1002.5,295.545 
  1006.56,294.216 1010.62,292.895 1014.68,291.58 1018.74,290.272 1022.79,288.97 1026.85,287.675 1030.91,286.386 1034.97,285.104 1039.03,283.828 1043.08,282.559 
  1047.14,281.296 1051.2,280.039 1055.26,278.789 1059.32,277.545 1063.37,276.307 1067.43,275.075 1071.49,273.85 1075.55,272.631 1079.61,271.418 1083.66,270.211 
  1087.72,269.01 1091.78,267.815 1095.84,266.626 1099.9,265.443 1103.96,264.266 1108.01,263.095 1112.07,261.93 1116.13,260.771 1120.19,259.617 1124.25,258.47 
  1128.3,257.328 1132.36,256.192 1136.42,255.061 1140.48,253.936 1144.54,252.817 1148.59,251.704 1152.65,250.596 1156.71,249.493 1160.77,248.397 1164.83,247.305 
  1168.88,246.219 1172.94,245.139 1177,244.064 1181.06,242.995 1185.12,241.93 1189.18,240.872 1193.23,239.818 1197.29,238.77 1201.35,237.727 1205.41,236.689 
  1209.47,235.657 1213.52,234.63 1217.58,233.607 1221.64,232.591 1225.7,231.579 1229.76,230.572 1233.81,229.57 1237.87,228.573 1241.93,227.582 1245.99,226.595 
  1250.05,225.613 1254.1,224.636 1258.16,223.665 1262.22,222.698 1266.28,221.735 1270.34,220.778 1274.4,219.826 1278.45,218.878 1282.51,217.935 1286.57,216.997 
  1290.63,216.063 1294.69,215.134 1298.74,214.21 1302.8,213.291 1306.86,212.376 1310.92,211.466 1314.98,210.56 1319.03,209.659 1323.09,208.762 1327.15,207.87 
  1331.21,206.982 1335.27,206.099 1339.32,205.22 1343.38,204.346 1347.44,203.476 1351.5,202.61 1355.56,201.749 1359.61,200.892 1363.67,200.04 1367.73,199.191 
  1371.79,198.347 1375.85,197.508 1379.91,196.672 1383.96,195.841 1388.02,195.013 1392.08,194.19 1396.14,193.372 1400.2,192.557 1404.25,191.746 1408.31,190.939 
  1412.37,190.137 1416.43,189.338 1420.49,188.544 1424.54,187.753 1428.6,186.967 1432.66,186.184 1436.72,185.405 1440.78,184.631 1444.83,183.86 1448.89,183.093 
  1452.95,182.33 1457.01,181.57 1461.07,180.815 1465.13,180.063 1469.18,179.315 1473.24,178.571 1477.3,177.831 1481.36,177.094 1485.42,176.361 1489.47,175.632 
  1493.53,174.906 1497.59,174.184 1501.65,173.466 1505.71,172.751 1509.76,172.04 1513.82,171.332 1517.88,170.628 1521.94,169.928 1526,169.231 1530.05,168.537 
  1534.11,167.847 1538.17,167.161 1542.23,166.478 1546.29,165.798 1550.35,165.122 1554.4,164.449 1558.46,163.779 1562.52,163.113 1566.58,162.451 1570.64,161.791 
  1574.69,161.135 1578.75,160.482 1582.81,159.833 1586.87,159.186 1590.93,158.543 1594.98,157.904 1599.04,157.267 1603.1,156.634 1607.16,156.004 1611.22,155.377 
  1615.27,154.753 1619.33,154.132 1623.39,153.514 1627.45,152.9 1631.51,152.288 1635.56,151.68 1639.62,151.075 1643.68,150.473 1647.74,149.873 1651.8,149.277 
  1655.86,148.684 1659.91,148.094 1663.97,147.506 1668.03,146.922 1672.09,146.341 1676.15,145.762 1680.2,145.187 1684.26,144.614 1688.32,144.044 1692.38,143.477 
  1696.44,142.913 1700.49,142.352 1704.55,141.794 1708.61,141.238 1712.67,140.685 1716.73,140.135 1720.78,139.588 1724.84,139.043 1728.9,138.502 1732.96,137.963 
  1737.02,137.426 1741.08,136.893 1745.13,136.362 1749.19,135.833 1753.25,135.308 1757.31,134.785 1761.37,134.264 1765.42,133.747 1769.48,133.231 1773.54,132.719 
  1777.6,132.209 1781.66,131.701 1785.71,131.196 1789.77,130.694 1793.83,130.194 1797.89,129.697 1801.95,129.202 1806,128.71 1810.06,128.22 1814.12,127.733 
  1818.18,127.248 1822.24,126.765 1826.29,126.285 1830.35,125.807 1834.41,125.332 1838.47,124.859 1842.53,124.389 1846.59,123.921 1850.64,123.455 1854.7,122.991 
  1858.76,122.53 1862.82,122.071 1866.88,121.615 1870.93,121.161 1874.99,120.709 1879.05,120.259 1883.11,119.812 1887.17,119.367 1891.22,118.924 1895.28,118.483 
  1899.34,118.044 1903.4,117.608 1907.46,117.174 1911.51,116.742 1915.57,116.313 1919.63,115.885 1923.69,115.46 1927.75,115.036 1931.81,114.615 1935.86,114.196 
  1939.92,113.779 1943.98,113.364 1948.04,112.952 1952.1,112.541 1956.15,112.132 1960.21,111.726 1964.27,111.321 1968.33,110.919 1972.39,110.518 1976.44,110.12 
  1980.5,109.723 1984.56,109.329 1988.62,108.937 1992.68,108.546 1996.73,108.158 2000.79,107.771 2004.85,107.386 2008.91,107.004 2012.97,106.623 2017.03,106.244 
  2021.08,105.867 2025.14,105.492 2029.2,105.119 2033.26,104.747 2037.32,104.378 2041.37,104.01 2045.43,103.645 2049.49,103.281 2053.55,102.919 2057.61,102.558 
  2061.66,102.2 2065.72,101.843 2069.78,101.489 2073.84,101.135 2077.9,100.784 2081.95,100.435 2086.01,100.087 2090.07,99.7408 2094.13,99.3965 2098.19,99.054 
  2102.24,98.7132 2106.3,98.374 2110.36,98.0366 2114.42,97.7009 2118.48,97.3669 2122.54,97.0345 2126.59,96.7038 2130.65,96.3748 2134.71,96.0474 2138.77,95.7217 
  2142.83,95.3976 2146.88,95.0752 2150.94,94.7543 2155,94.4351 2159.06,94.1175 2163.12,93.8014 2167.17,93.487 2171.23,93.1741 2175.29,92.8629 2179.35,92.5531 
  2183.41,92.245 2187.46,91.9384 2191.52,91.6333 2195.58,91.3297 2199.64,91.0277 2203.7,90.7272 2207.76,90.4282 2211.81,90.1307 2215.87,89.8347 2219.93,89.5402 
  2223.99,89.2472 2228.05,88.9557 2232.1,88.6656 2236.16,88.3769 2240.22,88.0898 2244.28,87.804 2248.34,87.5197 2252.39,87.2369 2256.45,86.9554 2260.51,86.6754 
  
  "/>
<polygon clip-path="url(#clip1201)" points="
1768.45,1296.48 2249.26,1296.48 2249.26,873.123 1768.45,873.123 
  " fill="#ffffff" fill-rule="evenodd" fill-opacity="1"/>
<polyline clip-path="url(#clip1201)" style="stroke:#000000; stroke-width:4; stroke-opacity:1; fill:none" points="
  1768.45,1296.48 2249.26,1296.48 2249.26,873.123 1768.45,873.123 1768.45,1296.48 
  "/>
<polyline clip-path="url(#clip1201)" style="stroke:#009af9; stroke-width:4; stroke-opacity:1; fill:none" points="
  1792.45,933.603 1936.45,933.603 
  "/>
<g clip-path="url(#clip1201)">
<text style="fill:#000000; fill-opacity:1; font-family:Arial,Helvetica Neue,Helvetica,sans-serif; font-size:48px; text-anchor:start;" transform="rotate(0, 1960.45, 951.103)" x="1960.45" y="951.103">u1 ratio 1.0</text>
</g>
<polyline clip-path="url(#clip1201)" style="stroke:#e26f46; stroke-width:4; stroke-opacity:1; fill:none" points="
  1792.45,994.083 1936.45,994.083 
  "/>
<g clip-path="url(#clip1201)">
<text style="fill:#000000; fill-opacity:1; font-family:Arial,Helvetica Neue,Helvetica,sans-serif; font-size:48px; text-anchor:start;" transform="rotate(0, 1960.45, 1011.58)" x="1960.45" y="1011.58">u2 ratio 1.0</text>
</g>
<polyline clip-path="url(#clip1201)" style="stroke:#3da44d; stroke-width:4; stroke-opacity:1; fill:none" points="
  1792.45,1054.56 1936.45,1054.56 
  "/>
<g clip-path="url(#clip1201)">
<text style="fill:#000000; fill-opacity:1; font-family:Arial,Helvetica Neue,Helvetica,sans-serif; font-size:48px; text-anchor:start;" transform="rotate(0, 1960.45, 1072.06)" x="1960.45" y="1072.06">u1 ratio 0.1</text>
</g>
<polyline clip-path="url(#clip1201)" style="stroke:#c271d2; stroke-width:4; stroke-opacity:1; fill:none" points="
  1792.45,1115.04 1936.45,1115.04 
  "/>
<g clip-path="url(#clip1201)">
<text style="fill:#000000; fill-opacity:1; font-family:Arial,Helvetica Neue,Helvetica,sans-serif; font-size:48px; text-anchor:start;" transform="rotate(0, 1960.45, 1132.54)" x="1960.45" y="1132.54">u2 ratio 0.1</text>
</g>
<polyline clip-path="url(#clip1201)" style="stroke:#ac8d18; stroke-width:4; stroke-opacity:1; fill:none" points="
  1792.45,1175.52 1936.45,1175.52 
  "/>
<g clip-path="url(#clip1201)">
<text style="fill:#000000; fill-opacity:1; font-family:Arial,Helvetica Neue,Helvetica,sans-serif; font-size:48px; text-anchor:start;" transform="rotate(0, 1960.45, 1193.02)" x="1960.45" y="1193.02">u1 ratio 0.5</text>
</g>
<polyline clip-path="url(#clip1201)" style="stroke:#00a9ad; stroke-width:4; stroke-opacity:1; fill:none" points="
  1792.45,1236 1936.45,1236 
  "/>
<g clip-path="url(#clip1201)">
<text style="fill:#000000; fill-opacity:1; font-family:Arial,Helvetica Neue,Helvetica,sans-serif; font-size:48px; text-anchor:start;" transform="rotate(0, 1960.45, 1253.5)" x="1960.45" y="1253.5">u2 ratio 0.5</text>
</g>
</svg>
