<?xml version="1.0" encoding="utf-8"?>
<svg xmlns="http://www.w3.org/2000/svg" xmlns:xlink="http://www.w3.org/1999/xlink" width="600" height="400" viewBox="0 0 2400 1600">
<defs>
  <clipPath id="clip0700">
    <rect x="0" y="0" width="2000" height="2000"/>
  </clipPath>
</defs>
<defs>
  <clipPath id="clip0701">
    <rect x="0" y="0" width="2400" height="1600"/>
  </clipPath>
</defs>
<polygon clip-path="url(#clip0701)" points="
0,1600 2400,1600 2400,0 0,0 
  " fill="#ffffff" fill-rule="evenodd" fill-opacity="1"/>
<defs>
  <clipPath id="clip0702">
    <rect x="480" y="0" width="1681" height="1600"/>
  </clipPath>
</defs>
<polygon clip-path="url(#clip0701)" points="
174.775,1503.47 2321.26,1503.47 2321.26,47.2441 174.775,47.2441 
  " fill="#ffffff" fill-rule="evenodd" fill-opacity="1"/>
<defs>
  <clipPath id="clip0703">
    <rect x="174" y="47" width="2147" height="1457"/>
  </clipPath>
</defs>
<polyline clip-path="url(#clip0703)" style="stroke:#000000; stroke-width:2; stroke-opacity:0.1; fill:none" points="
  235.525,1503.47 235.525,47.2441 
  "/>
<polyline clip-path="url(#clip0703)" style="stroke:#000000; stroke-width:2; stroke-opacity:0.1; fill:none" points="
  640.522,1503.47 640.522,47.2441 
  "/>
<polyline clip-path="url(#clip0703)" style="stroke:#000000; stroke-width:2; stroke-opacity:0.1; fill:none" points="
  1045.52,1503.47 1045.52,47.2441 
  "/>
<polyline clip-path="url(#clip0703)" style="stroke:#000000; stroke-width:2; stroke-opacity:0.1; fill:none" points="
  1450.52,1503.47 1450.52,47.2441 
  "/>
<polyline clip-path="url(#clip0703)" style="stroke:#000000; stroke-width:2; stroke-opacity:0.1; fill:none" points="
  1855.51,1503.47 1855.51,47.2441 
  "/>
<polyline clip-path="url(#clip0703)" style="stroke:#000000; stroke-width:2; stroke-opacity:0.1; fill:none" points="
  2260.51,1503.47 2260.51,47.2441 
  "/>
<polyline clip-path="url(#clip0703)" style="stroke:#000000; stroke-width:2; stroke-opacity:0.1; fill:none" points="
  174.775,1462.26 2321.26,1462.26 
  "/>
<polyline clip-path="url(#clip0703)" style="stroke:#000000; stroke-width:2; stroke-opacity:0.1; fill:none" points="
  174.775,1118.81 2321.26,1118.81 
  "/>
<polyline clip-path="url(#clip0703)" style="stroke:#000000; stroke-width:2; stroke-opacity:0.1; fill:none" points="
  174.775,775.359 2321.26,775.359 
  "/>
<polyline clip-path="url(#clip0703)" style="stroke:#000000; stroke-width:2; stroke-opacity:0.1; fill:none" points="
  174.775,431.909 2321.26,431.909 
  "/>
<polyline clip-path="url(#clip0703)" style="stroke:#000000; stroke-width:2; stroke-opacity:0.1; fill:none" points="
  174.775,88.4582 2321.26,88.4582 
  "/>
<polyline clip-path="url(#clip0701)" style="stroke:#000000; stroke-width:4; stroke-opacity:1; fill:none" points="
  174.775,1503.47 2321.26,1503.47 
  "/>
<polyline clip-path="url(#clip0701)" style="stroke:#000000; stroke-width:4; stroke-opacity:1; fill:none" points="
  174.775,1503.47 174.775,47.2441 
  "/>
<polyline clip-path="url(#clip0701)" style="stroke:#000000; stroke-width:4; stroke-opacity:1; fill:none" points="
  235.525,1503.47 235.525,1481.63 
  "/>
<polyline clip-path="url(#clip0701)" style="stroke:#000000; stroke-width:4; stroke-opacity:1; fill:none" points="
  640.522,1503.47 640.522,1481.63 
  "/>
<polyline clip-path="url(#clip0701)" style="stroke:#000000; stroke-width:4; stroke-opacity:1; fill:none" points="
  1045.52,1503.47 1045.52,1481.63 
  "/>
<polyline clip-path="url(#clip0701)" style="stroke:#000000; stroke-width:4; stroke-opacity:1; fill:none" points="
  1450.52,1503.47 1450.52,1481.63 
  "/>
<polyline clip-path="url(#clip0701)" style="stroke:#000000; stroke-width:4; stroke-opacity:1; fill:none" points="
  1855.51,1503.47 1855.51,1481.63 
  "/>
<polyline clip-path="url(#clip0701)" style="stroke:#000000; stroke-width:4; stroke-opacity:1; fill:none" points="
  2260.51,1503.47 2260.51,1481.63 
  "/>
<polyline clip-path="url(#clip0701)" style="stroke:#000000; stroke-width:4; stroke-opacity:1; fill:none" points="
  174.775,1462.26 206.972,1462.26 
  "/>
<polyline clip-path="url(#clip0701)" style="stroke:#000000; stroke-width:4; stroke-opacity:1; fill:none" points="
  174.775,1118.81 206.972,1118.81 
  "/>
<polyline clip-path="url(#clip0701)" style="stroke:#000000; stroke-width:4; stroke-opacity:1; fill:none" points="
  174.775,775.359 206.972,775.359 
  "/>
<polyline clip-path="url(#clip0701)" style="stroke:#000000; stroke-width:4; stroke-opacity:1; fill:none" points="
  174.775,431.909 206.972,431.909 
  "/>
<polyline clip-path="url(#clip0701)" style="stroke:#000000; stroke-width:4; stroke-opacity:1; fill:none" points="
  174.775,88.4582 206.972,88.4582 
  "/>
<g clip-path="url(#clip0701)">
<text style="fill:#000000; fill-opacity:1; font-family:Arial,Helvetica Neue,Helvetica,sans-serif; font-size:48px; text-anchor:middle;" transform="rotate(0, 235.525, 1557.47)" x="235.525" y="1557.47">0</text>
</g>
<g clip-path="url(#clip0701)">
<text style="fill:#000000; fill-opacity:1; font-family:Arial,Helvetica Neue,Helvetica,sans-serif; font-size:48px; text-anchor:middle;" transform="rotate(0, 640.522, 1557.47)" x="640.522" y="1557.47">10</text>
</g>
<g clip-path="url(#clip0701)">
<text style="fill:#000000; fill-opacity:1; font-family:Arial,Helvetica Neue,Helvetica,sans-serif; font-size:48px; text-anchor:middle;" transform="rotate(0, 1045.52, 1557.47)" x="1045.52" y="1557.47">20</text>
</g>
<g clip-path="url(#clip0701)">
<text style="fill:#000000; fill-opacity:1; font-family:Arial,Helvetica Neue,Helvetica,sans-serif; font-size:48px; text-anchor:middle;" transform="rotate(0, 1450.52, 1557.47)" x="1450.52" y="1557.47">30</text>
</g>
<g clip-path="url(#clip0701)">
<text style="fill:#000000; fill-opacity:1; font-family:Arial,Helvetica Neue,Helvetica,sans-serif; font-size:48px; text-anchor:middle;" transform="rotate(0, 1855.51, 1557.47)" x="1855.51" y="1557.47">40</text>
</g>
<g clip-path="url(#clip0701)">
<text style="fill:#000000; fill-opacity:1; font-family:Arial,Helvetica Neue,Helvetica,sans-serif; font-size:48px; text-anchor:middle;" transform="rotate(0, 2260.51, 1557.47)" x="2260.51" y="1557.47">50</text>
</g>
<g clip-path="url(#clip0701)">
<text style="fill:#000000; fill-opacity:1; font-family:Arial,Helvetica Neue,Helvetica,sans-serif; font-size:48px; text-anchor:end;" transform="rotate(0, 150.775, 1479.76)" x="150.775" y="1479.76">0</text>
</g>
<g clip-path="url(#clip0701)">
<text style="fill:#000000; fill-opacity:1; font-family:Arial,Helvetica Neue,Helvetica,sans-serif; font-size:48px; text-anchor:end;" transform="rotate(0, 150.775, 1136.31)" x="150.775" y="1136.31">25</text>
</g>
<g clip-path="url(#clip0701)">
<text style="fill:#000000; fill-opacity:1; font-family:Arial,Helvetica Neue,Helvetica,sans-serif; font-size:48px; text-anchor:end;" transform="rotate(0, 150.775, 792.859)" x="150.775" y="792.859">50</text>
</g>
<g clip-path="url(#clip0701)">
<text style="fill:#000000; fill-opacity:1; font-family:Arial,Helvetica Neue,Helvetica,sans-serif; font-size:48px; text-anchor:end;" transform="rotate(0, 150.775, 449.409)" x="150.775" y="449.409">75</text>
</g>
<g clip-path="url(#clip0701)">
<text style="fill:#000000; fill-opacity:1; font-family:Arial,Helvetica Neue,Helvetica,sans-serif; font-size:48px; text-anchor:end;" transform="rotate(0, 150.775, 105.958)" x="150.775" y="105.958">100</text>
</g>
<polyline clip-path="url(#clip0703)" style="stroke:#009af9; stroke-width:4; stroke-opacity:1; fill:none" points="
  235.525,1462.26 239.583,1459.96 243.641,1457.67 247.699,1455.37 251.757,1453.07 255.815,1450.77 259.873,1448.48 263.931,1446.18 267.989,1443.88 272.048,1441.58 
  276.106,1439.29 280.164,1436.99 284.222,1434.69 288.28,1432.4 292.338,1430.1 296.396,1427.8 300.454,1425.5 304.512,1423.21 308.57,1420.91 312.628,1418.61 
  316.687,1416.31 320.745,1414.02 324.803,1411.72 328.861,1409.42 332.919,1407.12 336.977,1404.83 341.035,1402.53 345.093,1400.23 349.151,1397.94 353.209,1395.64 
  357.267,1393.34 361.325,1391.04 365.384,1388.75 369.442,1386.45 373.5,1384.15 377.558,1381.85 381.616,1379.56 385.674,1377.26 389.732,1374.96 393.79,1372.66 
  397.848,1370.37 401.906,1368.07 405.964,1365.77 410.023,1363.48 414.081,1361.18 418.139,1358.88 422.197,1356.58 426.255,1354.29 430.313,1351.99 434.371,1349.69 
  438.429,1347.39 442.487,1345.1 446.545,1342.8 450.603,1340.5 454.661,1338.2 458.72,1335.91 462.778,1333.61 466.836,1331.31 470.894,1329.02 474.952,1326.72 
  479.01,1324.42 483.068,1322.12 487.126,1319.83 491.184,1317.53 495.242,1315.23 499.3,1312.93 503.359,1310.64 507.417,1308.34 511.475,1306.04 515.533,1303.74 
  519.591,1301.45 523.649,1299.15 527.707,1296.85 531.765,1294.56 535.823,1292.26 539.881,1289.96 543.939,1287.66 547.997,1285.37 552.056,1283.07 556.114,1280.77 
  560.172,1278.47 564.23,1276.18 568.288,1273.88 572.346,1271.58 576.404,1269.29 580.462,1266.99 584.52,1264.69 588.578,1262.39 592.636,1260.1 596.695,1257.8 
  600.753,1255.5 604.811,1253.2 608.869,1250.91 612.927,1248.61 616.985,1246.31 621.043,1244.01 625.101,1241.72 629.159,1239.42 633.217,1237.12 637.275,1234.83 
  641.333,1232.53 645.392,1230.23 649.45,1227.93 653.508,1225.64 657.566,1223.34 661.624,1221.04 665.682,1218.74 669.74,1216.45 673.798,1214.15 677.856,1211.85 
  681.914,1209.55 685.972,1207.26 690.031,1204.96 694.089,1202.66 698.147,1200.37 702.205,1198.07 706.263,1195.77 710.321,1193.47 714.379,1191.18 718.437,1188.88 
  722.495,1186.58 726.553,1184.28 730.611,1181.99 734.669,1179.69 738.728,1177.39 742.786,1175.09 746.844,1172.8 750.902,1170.5 754.96,1168.2 759.018,1165.91 
  763.076,1163.61 767.134,1161.31 771.192,1159.01 775.25,1156.72 779.308,1154.42 783.367,1152.12 787.425,1149.82 791.483,1147.53 795.541,1145.23 799.599,1142.93 
  803.657,1140.63 807.715,1138.34 811.773,1136.04 815.831,1133.74 819.889,1131.45 823.947,1129.15 828.006,1126.85 832.064,1124.55 836.122,1122.26 840.18,1119.96 
  844.238,1117.66 848.296,1115.36 852.354,1113.07 856.412,1110.77 860.47,1108.47 864.528,1106.17 868.586,1103.88 872.644,1101.58 876.703,1099.28 880.761,1096.99 
  884.819,1094.69 888.877,1092.39 892.935,1090.09 896.993,1087.8 901.051,1085.5 905.109,1083.2 909.167,1080.9 913.225,1078.61 917.283,1076.31 921.342,1074.01 
  925.4,1071.71 929.458,1069.42 933.516,1067.12 937.574,1064.82 941.632,1062.53 945.69,1060.23 949.748,1057.93 953.806,1055.63 957.864,1053.34 961.922,1051.04 
  965.98,1048.74 970.039,1046.44 974.097,1044.15 978.155,1041.85 982.213,1039.55 986.271,1037.25 990.329,1034.96 994.387,1032.66 998.445,1030.36 1002.5,1028.07 
  1006.56,1025.77 1010.62,1023.47 1014.68,1021.17 1018.74,1018.88 1022.79,1016.58 1026.85,1014.28 1030.91,1011.98 1034.97,1009.69 1039.03,1007.39 1043.08,1005.09 
  1047.14,1002.79 1051.2,1000.5 1055.26,998.2 1059.32,995.903 1063.37,993.606 1067.43,991.308 1071.49,989.011 1075.55,986.714 1079.61,984.416 1083.66,982.119 
  1087.72,979.822 1091.78,977.524 1095.84,975.227 1099.9,972.93 1103.96,970.632 1108.01,968.335 1112.07,966.038 1116.13,963.74 1120.19,961.443 1124.25,959.146 
  1128.3,956.848 1132.36,954.551 1136.42,952.254 1140.48,949.956 1144.54,947.659 1148.59,945.362 1152.65,943.064 1156.71,940.767 1160.77,938.47 1164.83,936.172 
  1168.88,933.875 1172.94,931.578 1177,929.28 1181.06,926.983 1185.12,924.686 1189.18,922.388 1193.23,920.091 1197.29,917.794 1201.35,915.496 1205.41,913.199 
  1209.47,910.902 1213.52,908.604 1217.58,906.307 1221.64,904.01 1225.7,901.712 1229.76,899.415 1233.81,897.118 1237.87,894.82 1241.93,892.523 1245.99,890.226 
  1250.05,887.929 1254.1,885.631 1258.16,883.334 1262.22,881.037 1266.28,878.739 1270.34,876.442 1274.4,874.145 1278.45,871.847 1282.51,869.55 1286.57,867.253 
  1290.63,864.955 1294.69,862.658 1298.74,860.361 1302.8,858.063 1306.86,855.766 1310.92,853.469 1314.98,851.171 1319.03,848.874 1323.09,846.577 1327.15,844.279 
  1331.21,841.982 1335.27,839.685 1339.32,837.387 1343.38,835.09 1347.44,832.793 1351.5,830.495 1355.56,828.198 1359.61,825.901 1363.67,823.603 1367.73,821.306 
  1371.79,819.009 1375.85,816.711 1379.91,814.414 1383.96,812.117 1388.02,809.819 1392.08,807.522 1396.14,805.225 1400.2,802.927 1404.25,800.63 1408.31,798.333 
  1412.37,796.035 1416.43,793.738 1420.49,791.441 1424.54,789.143 1428.6,786.846 1432.66,784.549 1436.72,782.251 1440.78,779.954 1444.83,777.657 1448.89,775.359 
  1452.95,773.062 1457.01,770.765 1461.07,768.467 1465.13,766.17 1469.18,763.873 1473.24,761.575 1477.3,759.278 1481.36,756.981 1485.42,754.683 1489.47,752.386 
  1493.53,750.089 1497.59,747.791 1501.65,745.494 1505.71,743.197 1509.76,740.899 1513.82,738.602 1517.88,736.305 1521.94,734.007 1526,731.71 1530.05,729.413 
  1534.11,727.116 1538.17,724.818 1542.23,722.521 1546.29,720.224 1550.35,717.926 1554.4,715.629 1558.46,713.332 1562.52,711.034 1566.58,708.737 1570.64,706.44 
  1574.69,704.142 1578.75,701.845 1582.81,699.548 1586.87,697.25 1590.93,694.953 1594.98,692.656 1599.04,690.358 1603.1,688.061 1607.16,685.764 1611.22,683.466 
  1615.27,681.169 1619.33,678.872 1623.39,676.574 1627.45,674.277 1631.51,671.98 1635.56,669.682 1639.62,667.385 1643.68,665.088 1647.74,662.79 1651.8,660.493 
  1655.86,658.196 1659.91,655.898 1663.97,653.601 1668.03,651.304 1672.09,649.006 1676.15,646.709 1680.2,644.412 1684.26,642.114 1688.32,639.817 1692.38,637.52 
  1696.44,635.222 1700.49,632.925 1704.55,630.628 1708.61,628.33 1712.67,626.033 1716.73,623.736 1720.78,621.438 1724.84,619.141 1728.9,616.844 1732.96,614.546 
  1737.02,612.249 1741.08,609.952 1745.13,607.654 1749.19,605.357 1753.25,603.06 1757.31,600.762 1761.37,598.465 1765.42,596.168 1769.48,593.87 1773.54,591.573 
  1777.6,589.276 1781.66,586.978 1785.71,584.681 1789.77,582.384 1793.83,580.086 1797.89,577.789 1801.95,575.492 1806,573.194 1810.06,570.897 1814.12,568.6 
  1818.18,566.303 1822.24,564.005 1826.29,561.708 1830.35,559.411 1834.41,557.113 1838.47,554.816 1842.53,552.519 1846.59,550.221 1850.64,547.924 1854.7,545.627 
  1858.76,543.329 1862.82,541.032 1866.88,538.735 1870.93,536.437 1874.99,534.14 1879.05,531.843 1883.11,529.545 1887.17,527.248 1891.22,524.951 1895.28,522.653 
  1899.34,520.356 1903.4,518.059 1907.46,515.761 1911.51,513.464 1915.57,511.167 1919.63,508.869 1923.69,506.572 1927.75,504.275 1931.81,501.977 1935.86,499.68 
  1939.92,497.383 1943.98,495.085 1948.04,492.788 1952.1,490.491 1956.15,488.193 1960.21,485.896 1964.27,483.599 1968.33,481.301 1972.39,479.004 1976.44,476.707 
  1980.5,474.409 1984.56,472.112 1988.62,469.815 1992.68,467.517 1996.73,465.22 2000.79,462.923 2004.85,460.625 2008.91,458.328 2012.97,456.031 2017.03,453.733 
  2021.08,451.436 2025.14,449.139 2029.2,446.841 2033.26,444.544 2037.32,442.247 2041.37,439.949 2045.43,437.652 2049.49,435.355 2053.55,433.057 2057.61,430.76 
  2061.66,428.463 2065.72,426.165 2069.78,423.868 2073.84,421.571 2077.9,419.273 2081.95,416.976 2086.01,414.679 2090.07,412.381 2094.13,410.084 2098.19,407.787 
  2102.24,405.49 2106.3,403.192 2110.36,400.895 2114.42,398.598 2118.48,396.3 2122.54,394.003 2126.59,391.706 2130.65,389.408 2134.71,387.111 2138.77,384.814 
  2142.83,382.516 2146.88,380.219 2150.94,377.922 2155,375.624 2159.06,373.327 2163.12,371.03 2167.17,368.732 2171.23,366.435 2175.29,364.138 2179.35,361.84 
  2183.41,359.543 2187.46,357.246 2191.52,354.948 2195.58,352.651 2199.64,350.354 2203.7,348.056 2207.76,345.759 2211.81,343.462 2215.87,341.164 2219.93,338.867 
  2223.99,336.57 2228.05,334.272 2232.1,331.975 2236.16,329.678 2240.22,327.38 2244.28,325.083 2248.34,322.786 2252.39,320.488 2256.45,318.191 2260.51,315.894 
  
  "/>
<polyline clip-path="url(#clip0703)" style="stroke:#e26f46; stroke-width:4; stroke-opacity:1; fill:none" points="
  235.525,1234.83 239.583,1232.53 243.641,1230.23 247.699,1227.93 251.757,1225.64 255.815,1223.34 259.873,1221.04 263.931,1218.74 267.989,1216.45 272.048,1214.15 
  276.106,1211.85 280.164,1209.55 284.222,1207.26 288.28,1204.96 292.338,1202.66 296.396,1200.37 300.454,1198.07 304.512,1195.77 308.57,1193.47 312.628,1191.18 
  316.687,1188.88 320.745,1186.58 324.803,1184.28 328.861,1181.99 332.919,1179.69 336.977,1177.39 341.035,1175.09 345.093,1172.8 349.151,1170.5 353.209,1168.2 
  357.267,1165.91 361.325,1163.61 365.384,1161.31 369.442,1159.01 373.5,1156.72 377.558,1154.42 381.616,1152.12 385.674,1149.82 389.732,1147.53 393.79,1145.23 
  397.848,1142.93 401.906,1140.63 405.964,1138.34 410.023,1136.04 414.081,1133.74 418.139,1131.45 422.197,1129.15 426.255,1126.85 430.313,1124.55 434.371,1122.26 
  438.429,1119.96 442.487,1117.66 446.545,1115.36 450.603,1113.07 454.661,1110.77 458.72,1108.47 462.778,1106.17 466.836,1103.88 470.894,1101.58 474.952,1099.28 
  479.01,1096.99 483.068,1094.69 487.126,1092.39 491.184,1090.09 495.242,1087.8 499.3,1085.5 503.359,1083.2 507.417,1080.9 511.475,1078.61 515.533,1076.31 
  519.591,1074.01 523.649,1071.71 527.707,1069.42 531.765,1067.12 535.823,1064.82 539.881,1062.53 543.939,1060.23 547.997,1057.93 552.056,1055.63 556.114,1053.34 
  560.172,1051.04 564.23,1048.74 568.288,1046.44 572.346,1044.15 576.404,1041.85 580.462,1039.55 584.52,1037.25 588.578,1034.96 592.636,1032.66 596.695,1030.36 
  600.753,1028.07 604.811,1025.77 608.869,1023.47 612.927,1021.17 616.985,1018.88 621.043,1016.58 625.101,1014.28 629.159,1011.98 633.217,1009.69 637.275,1007.39 
  641.333,1005.09 645.392,1002.79 649.45,1000.5 653.508,998.2 657.566,995.903 661.624,993.606 665.682,991.308 669.74,989.011 673.798,986.714 677.856,984.416 
  681.914,982.119 685.972,979.822 690.031,977.524 694.089,975.227 698.147,972.93 702.205,970.632 706.263,968.335 710.321,966.038 714.379,963.74 718.437,961.443 
  722.495,959.146 726.553,956.848 730.611,954.551 734.669,952.254 738.728,949.956 742.786,947.659 746.844,945.362 750.902,943.064 754.96,940.767 759.018,938.47 
  763.076,936.172 767.134,933.875 771.192,931.578 775.25,929.28 779.308,926.983 783.367,924.686 787.425,922.388 791.483,920.091 795.541,917.794 799.599,915.496 
  803.657,913.199 807.715,910.902 811.773,908.604 815.831,906.307 819.889,904.01 823.947,901.712 828.006,899.415 832.064,897.118 836.122,894.82 840.18,892.523 
  844.238,890.226 848.296,887.929 852.354,885.631 856.412,883.334 860.47,881.037 864.528,878.739 868.586,876.442 872.644,874.145 876.703,871.847 880.761,869.55 
  884.819,867.253 888.877,864.955 892.935,862.658 896.993,860.361 901.051,858.063 905.109,855.766 909.167,853.469 913.225,851.171 917.283,848.874 921.342,846.577 
  925.4,844.279 929.458,841.982 933.516,839.685 937.574,837.387 941.632,835.09 945.69,832.793 949.748,830.495 953.806,828.198 957.864,825.901 961.922,823.603 
  965.98,821.306 970.039,819.009 974.097,816.711 978.155,814.414 982.213,812.117 986.271,809.819 990.329,807.522 994.387,805.225 998.445,802.927 1002.5,800.63 
  1006.56,798.333 1010.62,796.035 1014.68,793.738 1018.74,791.441 1022.79,789.143 1026.85,786.846 1030.91,784.549 1034.97,782.251 1039.03,779.954 1043.08,777.657 
  1047.14,775.359 1051.2,773.062 1055.26,770.765 1059.32,768.467 1063.37,766.17 1067.43,763.873 1071.49,761.575 1075.55,759.278 1079.61,756.981 1083.66,754.683 
  1087.72,752.386 1091.78,750.089 1095.84,747.791 1099.9,745.494 1103.96,743.197 1108.01,740.899 1112.07,738.602 1116.13,736.305 1120.19,734.007 1124.25,731.71 
  1128.3,729.413 1132.36,727.116 1136.42,724.818 1140.48,722.521 1144.54,720.224 1148.59,717.926 1152.65,715.629 1156.71,713.332 1160.77,711.034 1164.83,708.737 
  1168.88,706.44 1172.94,704.142 1177,701.845 1181.06,699.548 1185.12,697.25 1189.18,694.953 1193.23,692.656 1197.29,690.358 1201.35,688.061 1205.41,685.764 
  1209.47,683.466 1213.52,681.169 1217.58,678.872 1221.64,676.574 1225.7,674.277 1229.76,671.98 1233.81,669.682 1237.87,667.385 1241.93,665.088 1245.99,662.79 
  1250.05,660.493 1254.1,658.196 1258.16,655.898 1262.22,653.601 1266.28,651.304 1270.34,649.006 1274.4,646.709 1278.45,644.412 1282.51,642.114 1286.57,639.817 
  1290.63,637.52 1294.69,635.222 1298.74,632.925 1302.8,630.628 1306.86,628.33 1310.92,626.033 1314.98,623.736 1319.03,621.438 1323.09,619.141 1327.15,616.844 
  1331.21,614.546 1335.27,612.249 1339.32,609.952 1343.38,607.654 1347.44,605.357 1351.5,603.06 1355.56,600.762 1359.61,598.465 1363.67,596.168 1367.73,593.87 
  1371.79,591.573 1375.85,589.276 1379.91,586.978 1383.96,584.681 1388.02,582.384 1392.08,580.086 1396.14,577.789 1400.2,575.492 1404.25,573.194 1408.31,570.897 
  1412.37,568.6 1416.43,566.303 1420.49,564.005 1424.54,561.708 1428.6,559.411 1432.66,557.113 1436.72,554.816 1440.78,552.519 1444.83,550.221 1448.89,547.924 
  1452.95,545.627 1457.01,543.329 1461.07,541.032 1465.13,538.735 1469.18,536.437 1473.24,534.14 1477.3,531.843 1481.36,529.545 1485.42,527.248 1489.47,524.951 
  1493.53,522.653 1497.59,520.356 1501.65,518.059 1505.71,515.761 1509.76,513.464 1513.82,511.167 1517.88,508.869 1521.94,506.572 1526,504.275 1530.05,501.977 
  1534.11,499.68 1538.17,497.383 1542.23,495.085 1546.29,492.788 1550.35,490.491 1554.4,488.193 1558.46,485.896 1562.52,483.599 1566.58,481.301 1570.64,479.004 
  1574.69,476.707 1578.75,474.409 1582.81,472.112 1586.87,469.815 1590.93,467.517 1594.98,465.22 1599.04,462.923 1603.1,460.625 1607.16,458.328 1611.22,456.031 
  1615.27,453.733 1619.33,451.436 1623.39,449.139 1627.45,446.841 1631.51,444.544 1635.56,442.247 1639.62,439.949 1643.68,437.652 1647.74,435.355 1651.8,433.057 
  1655.86,430.76 1659.91,428.463 1663.97,426.165 1668.03,423.868 1672.09,421.571 1676.15,419.273 1680.2,416.976 1684.26,414.679 1688.32,412.381 1692.38,410.084 
  1696.44,407.787 1700.49,405.49 1704.55,403.192 1708.61,400.895 1712.67,398.598 1716.73,396.3 1720.78,394.003 1724.84,391.706 1728.9,389.408 1732.96,387.111 
  1737.02,384.814 1741.08,382.516 1745.13,380.219 1749.19,377.922 1753.25,375.624 1757.31,373.327 1761.37,371.03 1765.42,368.732 1769.48,366.435 1773.54,364.138 
  1777.6,361.84 1781.66,359.543 1785.71,357.246 1789.77,354.948 1793.83,352.651 1797.89,350.354 1801.95,348.056 1806,345.759 1810.06,343.462 1814.12,341.164 
  1818.18,338.867 1822.24,336.57 1826.29,334.272 1830.35,331.975 1834.41,329.678 1838.47,327.38 1842.53,325.083 1846.59,322.786 1850.64,320.488 1854.7,318.191 
  1858.76,315.894 1862.82,313.596 1866.88,311.299 1870.93,309.002 1874.99,306.704 1879.05,304.407 1883.11,302.11 1887.17,299.812 1891.22,297.515 1895.28,295.218 
  1899.34,292.92 1903.4,290.623 1907.46,288.326 1911.51,286.028 1915.57,283.731 1919.63,281.434 1923.69,279.136 1927.75,276.839 1931.81,274.542 1935.86,272.244 
  1939.92,269.947 1943.98,267.65 1948.04,265.352 1952.1,263.055 1956.15,260.758 1960.21,258.46 1964.27,256.163 1968.33,253.866 1972.39,251.568 1976.44,249.271 
  1980.5,246.974 1984.56,244.677 1988.62,242.379 1992.68,240.082 1996.73,237.785 2000.79,235.487 2004.85,233.19 2008.91,230.893 2012.97,228.595 2017.03,226.298 
  2021.08,224.001 2025.14,221.703 2029.2,219.406 2033.26,217.109 2037.32,214.811 2041.37,212.514 2045.43,210.217 2049.49,207.919 2053.55,205.622 2057.61,203.325 
  2061.66,201.027 2065.72,198.73 2069.78,196.433 2073.84,194.135 2077.9,191.838 2081.95,189.541 2086.01,187.243 2090.07,184.946 2094.13,182.649 2098.19,180.351 
  2102.24,178.054 2106.3,175.757 2110.36,173.459 2114.42,171.162 2118.48,168.865 2122.54,166.567 2126.59,164.27 2130.65,161.973 2134.71,159.675 2138.77,157.378 
  2142.83,155.081 2146.88,152.783 2150.94,150.486 2155,148.189 2159.06,145.891 2163.12,143.594 2167.17,141.297 2171.23,138.999 2175.29,136.702 2179.35,134.405 
  2183.41,132.107 2187.46,129.81 2191.52,127.513 2195.58,125.215 2199.64,122.918 2203.7,120.621 2207.76,118.323 2211.81,116.026 2215.87,113.729 2219.93,111.431 
  2223.99,109.134 2228.05,106.837 2232.1,104.539 2236.16,102.242 2240.22,99.9448 2244.28,97.6475 2248.34,95.3502 2252.39,93.0528 2256.45,90.7555 2260.51,88.4582 
  
  "/>
<polyline clip-path="url(#clip0703)" style="stroke:#3da44d; stroke-width:4; stroke-opacity:1; fill:none" points="
  235.525,1462.26 239.583,1449.87 243.641,1437.59 247.699,1425.42 251.757,1413.37 255.815,1401.42 259.873,1389.57 263.931,1377.84 267.989,1366.21 272.048,1354.68 
  276.106,1343.26 280.164,1331.95 284.222,1320.73 288.28,1309.61 292.338,1298.6 296.396,1287.68 300.454,1276.87 304.512,1266.15 308.57,1255.52 312.628,1245 
  316.687,1234.56 320.745,1224.22 324.803,1213.98 328.861,1203.82 332.919,1193.76 336.977,1183.79 341.035,1173.91 345.093,1164.12 349.151,1154.41 353.209,1144.8 
  357.267,1135.27 361.325,1125.82 365.384,1116.46 369.442,1107.19 373.5,1098 377.558,1088.89 381.616,1079.86 385.674,1070.92 389.732,1062.05 393.79,1053.27 
  397.848,1044.56 401.906,1035.94 405.964,1027.39 410.023,1018.91 414.081,1010.52 418.139,1002.2 422.197,993.952 426.255,985.78 430.313,977.683 434.371,969.658 
  438.429,961.706 442.487,953.825 446.545,946.016 450.603,938.276 454.661,930.607 458.72,923.006 462.778,915.474 466.836,908.01 470.894,900.613 474.952,893.283 
  479.01,886.019 483.068,878.82 487.126,871.686 491.184,864.616 495.242,857.611 499.3,850.668 503.359,843.787 507.417,836.969 511.475,830.212 515.533,823.516 
  519.591,816.88 523.649,810.305 527.707,803.788 531.765,797.33 535.823,790.93 539.881,784.588 543.939,778.303 547.997,772.075 552.056,765.902 556.114,759.786 
  560.172,753.724 564.23,747.717 568.288,741.764 572.346,735.865 576.404,730.019 580.462,724.226 584.52,718.485 588.578,712.795 592.636,707.157 596.695,701.57 
  600.753,696.033 604.811,690.545 608.869,685.108 612.927,679.719 616.985,674.379 621.043,669.086 625.101,663.842 629.159,658.645 633.217,653.494 637.275,648.391 
  641.333,643.333 645.392,638.32 649.45,633.353 653.508,628.43 657.566,623.552 661.624,618.718 665.682,613.927 669.74,609.18 673.798,604.475 677.856,599.813 
  681.914,595.192 685.972,590.614 690.031,586.076 694.089,581.58 698.147,577.124 702.205,572.708 706.263,568.331 710.321,563.995 714.379,559.697 718.437,555.438 
  722.495,551.218 726.553,547.035 730.611,542.89 734.669,538.783 738.728,534.712 742.786,530.678 746.844,526.681 750.902,522.719 754.96,518.793 759.018,514.903 
  763.076,511.048 767.134,507.227 771.192,503.441 775.25,499.689 779.308,495.97 783.367,492.285 787.425,488.634 791.483,485.015 795.541,481.429 799.599,477.875 
  803.657,474.353 807.715,470.863 811.773,467.405 815.831,463.977 819.889,460.58 823.947,457.214 828.006,453.879 832.064,450.573 836.122,447.297 840.18,444.051 
  844.238,440.834 848.296,437.646 852.354,434.486 856.412,431.355 860.47,428.253 864.528,425.178 868.586,422.131 872.644,419.111 876.703,416.119 880.761,413.153 
  884.819,410.215 888.877,407.302 892.935,404.416 896.993,401.556 901.051,398.722 905.109,395.913 909.167,393.13 913.225,390.372 917.283,387.638 921.342,384.929 
  925.4,382.245 929.458,379.585 933.516,376.948 937.574,374.336 941.632,371.747 945.69,369.181 949.748,366.638 953.806,364.119 957.864,361.622 961.922,359.147 
  965.98,356.695 970.039,354.265 974.097,351.857 978.155,349.47 982.213,347.105 986.271,344.762 990.329,342.439 994.387,340.137 998.445,337.856 1002.5,335.596 
  1006.56,333.356 1010.62,331.136 1014.68,328.936 1018.74,326.756 1022.79,324.596 1026.85,322.455 1030.91,320.333 1034.97,318.231 1039.03,316.147 1043.08,314.083 
  1047.14,312.036 1051.2,310.009 1055.26,307.999 1059.32,306.008 1063.37,304.034 1067.43,302.079 1071.49,300.141 1075.55,298.22 1079.61,296.317 1083.66,294.43 
  1087.72,292.561 1091.78,290.709 1095.84,288.873 1099.9,287.054 1103.96,285.252 1108.01,283.465 1112.07,281.695 1116.13,279.94 1120.19,278.202 1124.25,276.479 
  1128.3,274.771 1132.36,273.079 1136.42,271.403 1140.48,269.741 1144.54,268.094 1148.59,266.462 1152.65,264.845 1156.71,263.242 1160.77,261.654 1164.83,260.08 
  1168.88,258.521 1172.94,256.975 1177,255.443 1181.06,253.925 1185.12,252.421 1189.18,250.93 1193.23,249.453 1197.29,247.989 1201.35,246.538 1205.41,245.101 
  1209.47,243.676 1213.52,242.264 1217.58,240.865 1221.64,239.478 1225.7,238.104 1229.76,236.743 1233.81,235.393 1237.87,234.056 1241.93,232.731 1245.99,231.417 
  1250.05,230.116 1254.1,228.826 1258.16,227.548 1262.22,226.281 1266.28,225.026 1270.34,223.782 1274.4,222.55 1278.45,221.328 1282.51,220.117 1286.57,218.918 
  1290.63,217.729 1294.69,216.551 1298.74,215.383 1302.8,214.226 1306.86,213.08 1310.92,211.943 1314.98,210.817 1319.03,209.701 1323.09,208.596 1327.15,207.5 
  1331.21,206.414 1335.27,205.338 1339.32,204.271 1343.38,203.214 1347.44,202.167 1351.5,201.129 1355.56,200.1 1359.61,199.081 1363.67,198.071 1367.73,197.07 
  1371.79,196.078 1375.85,195.095 1379.91,194.12 1383.96,193.155 1388.02,192.198 1392.08,191.25 1396.14,190.31 1400.2,189.379 1404.25,188.456 1408.31,187.542 
  1412.37,186.636 1416.43,185.738 1420.49,184.848 1424.54,183.966 1428.6,183.092 1432.66,182.226 1436.72,181.368 1440.78,180.517 1444.83,179.674 1448.89,178.839 
  1452.95,178.011 1457.01,177.191 1461.07,176.378 1465.13,175.572 1469.18,174.774 1473.24,173.983 1477.3,173.199 1481.36,172.422 1485.42,171.652 1489.47,170.889 
  1493.53,170.132 1497.59,169.383 1501.65,168.64 1505.71,167.905 1509.76,167.175 1513.82,166.453 1517.88,165.736 1521.94,165.027 1526,164.323 1530.05,163.626 
  1534.11,162.935 1538.17,162.251 1542.23,161.573 1546.29,160.9 1550.35,160.234 1554.4,159.574 1558.46,158.92 1562.52,158.271 1566.58,157.629 1570.64,156.992 
  1574.69,156.361 1578.75,155.736 1582.81,155.116 1586.87,154.502 1590.93,153.894 1594.98,153.291 1599.04,152.693 1603.1,152.101 1607.16,151.514 1611.22,150.932 
  1615.27,150.356 1619.33,149.785 1623.39,149.219 1627.45,148.658 1631.51,148.102 1635.56,147.551 1639.62,147.005 1643.68,146.464 1647.74,145.928 1651.8,145.397 
  1655.86,144.87 1659.91,144.348 1663.97,143.831 1668.03,143.319 1672.09,142.811 1676.15,142.308 1680.2,141.809 1684.26,141.315 1688.32,140.825 1692.38,140.34 
  1696.44,139.859 1700.49,139.382 1704.55,138.91 1708.61,138.442 1712.67,137.978 1716.73,137.518 1720.78,137.063 1724.84,136.612 1728.9,136.164 1732.96,135.721 
  1737.02,135.281 1741.08,134.846 1745.13,134.415 1749.19,133.987 1753.25,133.563 1757.31,133.143 1761.37,132.727 1765.42,132.315 1769.48,131.906 1773.54,131.501 
  1777.6,131.1 1781.66,130.702 1785.71,130.308 1789.77,129.918 1793.83,129.531 1797.89,129.147 1801.95,128.767 1806,128.39 1810.06,128.017 1814.12,127.647 
  1818.18,127.28 1822.24,126.917 1826.29,126.557 1830.35,126.2 1834.41,125.847 1838.47,125.496 1842.53,125.149 1846.59,124.805 1850.64,124.464 1854.7,124.126 
  1858.76,123.791 1862.82,123.459 1866.88,123.13 1870.93,122.805 1874.99,122.482 1879.05,122.162 1883.11,121.844 1887.17,121.53 1891.22,121.219 1895.28,120.91 
  1899.34,120.604 1903.4,120.301 1907.46,120 1911.51,119.703 1915.57,119.408 1919.63,119.115 1923.69,118.826 1927.75,118.538 1931.81,118.254 1935.86,117.972 
  1939.92,117.692 1943.98,117.416 1948.04,117.141 1952.1,116.869 1956.15,116.6 1960.21,116.333 1964.27,116.068 1968.33,115.806 1972.39,115.546 1976.44,115.288 
  1980.5,115.033 1984.56,114.78 1988.62,114.529 1992.68,114.281 1996.73,114.035 2000.79,113.791 2004.85,113.549 2008.91,113.309 2012.97,113.072 2017.03,112.837 
  2021.08,112.603 2025.14,112.372 2029.2,112.143 2033.26,111.916 2037.32,111.692 2041.37,111.469 2045.43,111.248 2049.49,111.029 2053.55,110.812 2057.61,110.597 
  2061.66,110.384 2065.72,110.173 2069.78,109.964 2073.84,109.757 2077.9,109.551 2081.95,109.348 2086.01,109.146 2090.07,108.946 2094.13,108.748 2098.19,108.551 
  2102.24,108.357 2106.3,108.164 2110.36,107.973 2114.42,107.784 2118.48,107.596 2122.54,107.41 2126.59,107.226 2130.65,107.043 2134.71,106.862 2138.77,106.683 
  2142.83,106.505 2146.88,106.329 2150.94,106.154 2155,105.981 2159.06,105.81 2163.12,105.64 2167.17,105.472 2171.23,105.305 2175.29,105.14 2179.35,104.976 
  2183.41,104.813 2187.46,104.653 2191.52,104.493 2195.58,104.335 2199.64,104.179 2203.7,104.023 2207.76,103.87 2211.81,103.717 2215.87,103.566 2219.93,103.417 
  2223.99,103.268 2228.05,103.121 2232.1,102.976 2236.16,102.831 2240.22,102.688 2244.28,102.546 2248.34,102.406 2252.39,102.267 2256.45,102.129 2260.51,101.992 
  
  "/>
<polyline clip-path="url(#clip0703)" style="stroke:#c271d2; stroke-width:4; stroke-opacity:1; fill:none" points="
  235.525,224.485 239.583,223.246 243.641,222.018 247.699,220.801 251.757,219.596 255.815,218.401 259.873,217.216 263.931,216.043 267.989,214.88 272.048,213.727 
  276.106,212.585 280.164,211.453 284.222,210.332 288.28,209.22 292.338,208.119 296.396,207.027 300.454,205.946 304.512,204.874 308.57,203.811 312.628,202.758 
  316.687,201.715 320.745,200.681 324.803,199.657 328.861,198.641 332.919,197.635 336.977,196.638 341.035,195.65 345.093,194.671 349.151,193.7 353.209,192.739 
  357.267,191.786 361.325,190.841 365.384,189.905 369.442,188.978 373.5,188.059 377.558,187.148 381.616,186.245 385.674,185.351 389.732,184.464 393.79,183.586 
  397.848,182.715 401.906,181.852 405.964,180.998 410.023,180.15 414.081,179.311 418.139,178.479 422.197,177.654 426.255,176.837 430.313,176.027 434.371,175.225 
  438.429,174.43 442.487,173.641 446.545,172.861 450.603,172.087 454.661,171.32 458.72,170.56 462.778,169.806 466.836,169.06 470.894,168.32 474.952,167.587 
  479.01,166.861 483.068,166.141 487.126,165.428 491.184,164.721 495.242,164.02 499.3,163.326 503.359,162.638 507.417,161.956 511.475,161.28 515.533,160.611 
  519.591,159.947 523.649,159.289 527.707,158.638 531.765,157.992 535.823,157.352 539.881,156.718 543.939,156.089 547.997,155.466 552.056,154.849 556.114,154.238 
  560.172,153.631 564.23,153.031 568.288,152.435 572.346,151.845 576.404,151.261 580.462,150.682 584.52,150.107 588.578,149.538 592.636,148.975 596.695,148.416 
  600.753,147.862 604.811,147.313 608.869,146.77 612.927,146.231 616.985,145.697 621.043,145.168 625.101,144.643 629.159,144.123 633.217,143.608 637.275,143.098 
  641.333,142.592 645.392,142.091 649.45,141.594 653.508,141.102 657.566,140.614 661.624,140.131 665.682,139.652 669.74,139.177 673.798,138.706 677.856,138.24 
  681.914,137.778 685.972,137.32 690.031,136.867 694.089,136.417 698.147,135.971 702.205,135.53 706.263,135.092 710.321,134.658 714.379,134.229 718.437,133.803 
  722.495,133.381 726.553,132.962 730.611,132.548 734.669,132.137 738.728,131.73 742.786,131.327 746.844,130.927 750.902,130.531 754.96,130.138 759.018,129.749 
  763.076,129.364 767.134,128.982 771.192,128.603 775.25,128.228 779.308,127.856 783.367,127.487 787.425,127.122 791.483,126.76 795.541,126.402 799.599,126.046 
  803.657,125.694 807.715,125.345 811.773,124.999 815.831,124.657 819.889,124.317 823.947,123.98 828.006,123.647 832.064,123.316 836.122,122.989 840.18,122.664 
  844.238,122.342 848.296,122.024 852.354,121.708 856.412,121.395 860.47,121.084 864.528,120.777 868.586,120.472 872.644,120.17 876.703,119.871 880.761,119.574 
  884.819,119.28 888.877,118.989 892.935,118.701 896.993,118.415 901.051,118.131 905.109,117.85 909.167,117.572 913.225,117.296 917.283,117.023 921.342,116.752 
  925.4,116.483 929.458,116.217 933.516,115.954 937.574,115.693 941.632,115.434 945.69,115.177 949.748,114.923 953.806,114.671 957.864,114.421 961.922,114.174 
  965.98,113.928 970.039,113.685 974.097,113.445 978.155,113.206 982.213,112.969 986.271,112.735 990.329,112.503 994.387,112.273 998.445,112.045 1002.5,111.819 
  1006.56,111.595 1010.62,111.373 1014.68,111.153 1018.74,110.935 1022.79,110.719 1026.85,110.504 1030.91,110.292 1034.97,110.082 1039.03,109.874 1043.08,109.667 
  1047.14,109.463 1051.2,109.26 1055.26,109.059 1059.32,108.86 1063.37,108.662 1067.43,108.467 1071.49,108.273 1075.55,108.081 1079.61,107.891 1083.66,107.702 
  1087.72,107.515 1091.78,107.33 1095.84,107.146 1099.9,106.964 1103.96,106.784 1108.01,106.605 1112.07,106.428 1116.13,106.253 1120.19,106.079 1124.25,105.907 
  1128.3,105.736 1132.36,105.567 1136.42,105.399 1140.48,105.233 1144.54,105.068 1148.59,104.905 1152.65,104.743 1156.71,104.583 1160.77,104.424 1164.83,104.267 
  1168.88,104.111 1172.94,103.956 1177,103.803 1181.06,103.651 1185.12,103.501 1189.18,103.352 1193.23,103.204 1197.29,103.058 1201.35,102.913 1205.41,102.769 
  1209.47,102.627 1213.52,102.485 1217.58,102.345 1221.64,102.207 1225.7,102.069 1229.76,101.933 1233.81,101.798 1237.87,101.665 1241.93,101.532 1245.99,101.401 
  1250.05,101.271 1254.1,101.142 1258.16,101.014 1262.22,100.887 1266.28,100.762 1270.34,100.637 1274.4,100.514 1278.45,100.392 1282.51,100.271 1286.57,100.151 
  1290.63,100.032 1294.69,99.914 1298.74,99.7973 1302.8,99.6816 1306.86,99.5669 1310.92,99.4533 1314.98,99.3407 1319.03,99.2291 1323.09,99.1185 1327.15,99.0089 
  1331.21,98.9003 1335.27,98.7927 1339.32,98.6861 1343.38,98.5804 1347.44,98.4756 1351.5,98.3718 1355.56,98.269 1359.61,98.167 1363.67,98.066 1367.73,97.9659 
  1371.79,97.8667 1375.85,97.7684 1379.91,97.671 1383.96,97.5744 1388.02,97.4788 1392.08,97.3839 1396.14,97.29 1400.2,97.1969 1404.25,97.1046 1408.31,97.0132 
  1412.37,96.9225 1416.43,96.8327 1420.49,96.7437 1424.54,96.6555 1428.6,96.5681 1432.66,96.4815 1436.72,96.3957 1440.78,96.3107 1444.83,96.2264 1448.89,96.1428 
  1452.95,96.0601 1457.01,95.978 1461.07,95.8967 1465.13,95.8162 1469.18,95.7363 1473.24,95.6572 1477.3,95.5788 1481.36,95.5011 1485.42,95.4241 1489.47,95.3478 
  1493.53,95.2722 1497.59,95.1973 1501.65,95.123 1505.71,95.0494 1509.76,94.9765 1513.82,94.9042 1517.88,94.8326 1521.94,94.7616 1526,94.6913 1530.05,94.6216 
  1534.11,94.5525 1538.17,94.4841 1542.23,94.4162 1546.29,94.349 1550.35,94.2824 1554.4,94.2164 1558.46,94.1509 1562.52,94.0861 1566.58,94.0218 1570.64,93.9582 
  1574.69,93.8951 1578.75,93.8326 1582.81,93.7706 1586.87,93.7092 1590.93,93.6483 1594.98,93.588 1599.04,93.5283 1603.1,93.469 1607.16,93.4103 1611.22,93.3522 
  1615.27,93.2945 1619.33,93.2374 1623.39,93.1808 1627.45,93.1247 1631.51,93.0691 1635.56,93.0141 1639.62,92.9595 1643.68,92.9054 1647.74,92.8517 1651.8,92.7986 
  1655.86,92.746 1659.91,92.6938 1663.97,92.6421 1668.03,92.5908 1672.09,92.5401 1676.15,92.4897 1680.2,92.4399 1684.26,92.3905 1688.32,92.3415 1692.38,92.293 
  1696.44,92.2449 1700.49,92.1972 1704.55,92.15 1708.61,92.1032 1712.67,92.0568 1716.73,92.0108 1720.78,91.9653 1724.84,91.9201 1728.9,91.8754 1732.96,91.831 
  1737.02,91.7871 1741.08,91.7436 1745.13,91.7004 1749.19,91.6577 1753.25,91.6153 1757.31,91.5733 1761.37,91.5317 1765.42,91.4905 1769.48,91.4496 1773.54,91.4091 
  1777.6,91.369 1781.66,91.3292 1785.71,91.2898 1789.77,91.2507 1793.83,91.212 1797.89,91.1737 1801.95,91.1356 1806,91.098 1810.06,91.0606 1814.12,91.0237 
  1818.18,90.987 1822.24,90.9507 1826.29,90.9147 1830.35,90.879 1834.41,90.8436 1838.47,90.8086 1842.53,90.7739 1846.59,90.7395 1850.64,90.7054 1854.7,90.6716 
  1858.76,90.6381 1862.82,90.6049 1866.88,90.572 1870.93,90.5394 1874.99,90.5071 1879.05,90.4751 1883.11,90.4434 1887.17,90.412 1891.22,90.3808 1895.28,90.3499 
  1899.34,90.3193 1903.4,90.289 1907.46,90.259 1911.51,90.2292 1915.57,90.1997 1919.63,90.1705 1923.69,90.1415 1927.75,90.1128 1931.81,90.0843 1935.86,90.0561 
  1939.92,90.0282 1943.98,90.0005 1948.04,89.9731 1952.1,89.9459 1956.15,89.9189 1960.21,89.8922 1964.27,89.8657 1968.33,89.8395 1972.39,89.8135 1976.44,89.7878 
  1980.5,89.7622 1984.56,89.7369 1988.62,89.7119 1992.68,89.687 1996.73,89.6624 2000.79,89.638 2004.85,89.6138 2008.91,89.5899 2012.97,89.5661 2017.03,89.5426 
  2021.08,89.5193 2025.14,89.4962 2029.2,89.4733 2033.26,89.4506 2037.32,89.4281 2041.37,89.4058 2045.43,89.3837 2049.49,89.3618 2053.55,89.3402 2057.61,89.3187 
  2061.66,89.2974 2065.72,89.2763 2069.78,89.2553 2073.84,89.2346 2077.9,89.2141 2081.95,89.1937 2086.01,89.1735 2090.07,89.1535 2094.13,89.1337 2098.19,89.1141 
  2102.24,89.0946 2106.3,89.0754 2110.36,89.0563 2114.42,89.0373 2118.48,89.0186 2122.54,89 2126.59,88.9815 2130.65,88.9633 2134.71,88.9452 2138.77,88.9272 
  2142.83,88.9095 2146.88,88.8918 2150.94,88.8744 2155,88.8571 2159.06,88.84 2163.12,88.823 2167.17,88.8061 2171.23,88.7894 2175.29,88.7729 2179.35,88.7565 
  2183.41,88.7403 2187.46,88.7242 2191.52,88.7083 2195.58,88.6925 2199.64,88.6768 2203.7,88.6613 2207.76,88.6459 2211.81,88.6307 2215.87,88.6156 2219.93,88.6006 
  2223.99,88.5858 2228.05,88.5711 2232.1,88.5565 2236.16,88.5421 2240.22,88.5278 2244.28,88.5136 2248.34,88.4996 2252.39,88.4856 2256.45,88.4718 2260.51,88.4582 
  
  "/>
<polyline clip-path="url(#clip0703)" style="stroke:#ac8d18; stroke-width:4; stroke-opacity:1; fill:none" points="
  235.525,1462.26 239.583,1455.07 243.641,1447.91 247.699,1440.78 251.757,1433.7 255.815,1426.65 259.873,1419.63 263.931,1412.65 267.989,1405.7 272.048,1398.79 
  276.106,1391.92 280.164,1385.08 284.222,1378.27 288.28,1371.5 292.338,1364.76 296.396,1358.05 300.454,1351.38 304.512,1344.75 308.57,1338.14 312.628,1331.57 
  316.687,1325.03 320.745,1318.53 324.803,1312.05 328.861,1305.61 332.919,1299.21 336.977,1292.83 341.035,1286.49 345.093,1280.18 349.151,1273.9 353.209,1267.65 
  357.267,1261.43 361.325,1255.25 365.384,1249.09 369.442,1242.97 373.5,1236.88 377.558,1230.81 381.616,1224.78 385.674,1218.78 389.732,1212.81 393.79,1206.87 
  397.848,1200.96 401.906,1195.07 405.964,1189.22 410.023,1183.4 414.081,1177.61 418.139,1171.84 422.197,1166.11 426.255,1160.4 430.313,1154.72 434.371,1149.07 
  438.429,1143.45 442.487,1137.86 446.545,1132.29 450.603,1126.76 454.661,1121.25 458.72,1115.77 462.778,1110.31 466.836,1104.89 470.894,1099.49 474.952,1094.12 
  479.01,1088.77 483.068,1083.46 487.126,1078.16 491.184,1072.9 495.242,1067.66 499.3,1062.45 503.359,1057.26 507.417,1052.1 511.475,1046.97 515.533,1041.86 
  519.591,1036.78 523.649,1031.72 527.707,1026.69 531.765,1021.69 535.823,1016.71 539.881,1011.75 543.939,1006.82 547.997,1001.91 552.056,997.031 556.114,992.174 
  560.172,987.342 564.23,982.534 568.288,977.75 572.346,972.989 576.404,968.253 580.462,963.541 584.52,958.852 588.578,954.187 592.636,949.546 596.695,944.927 
  600.753,940.332 604.811,935.76 608.869,931.211 612.927,926.685 616.985,922.182 621.043,917.701 625.101,913.243 629.159,908.807 633.217,904.393 637.275,900.002 
  641.333,895.632 645.392,891.285 649.45,886.96 653.508,882.656 657.566,878.374 661.624,874.113 665.682,869.874 669.74,865.656 673.798,861.459 677.856,857.283 
  681.914,853.129 685.972,848.995 690.031,844.882 694.089,840.79 698.147,836.718 702.205,832.666 706.263,828.635 710.321,824.625 714.379,820.634 718.437,816.664 
  722.495,812.713 726.553,808.782 730.611,804.872 734.669,800.98 738.728,797.108 742.786,793.256 746.844,789.423 750.902,785.61 754.96,781.815 759.018,778.04 
  763.076,774.283 767.134,770.546 771.192,766.827 775.25,763.127 779.308,759.445 783.367,755.782 787.425,752.138 791.483,748.511 795.541,744.903 799.599,741.313 
  803.657,737.741 807.715,734.187 811.773,730.651 815.831,727.133 819.889,723.632 823.947,720.149 828.006,716.684 832.064,713.236 836.122,709.805 840.18,706.391 
  844.238,702.995 848.296,699.615 852.354,696.253 856.412,692.908 860.47,689.579 864.528,686.267 868.586,682.972 872.644,679.693 876.703,676.431 880.761,673.185 
  884.819,669.955 888.877,666.742 892.935,663.545 896.993,660.364 901.051,657.199 905.109,654.049 909.167,650.916 913.225,647.798 917.283,644.696 921.342,641.61 
  925.4,638.539 929.458,635.484 933.516,632.443 937.574,629.419 941.632,626.409 945.69,623.415 949.748,620.435 953.806,617.471 957.864,614.521 961.922,611.586 
  965.98,608.666 970.039,605.761 974.097,602.87 978.155,599.994 982.213,597.132 986.271,594.285 990.329,591.452 994.387,588.633 998.445,585.828 1002.5,583.038 
  1006.56,580.261 1010.62,577.499 1014.68,574.75 1018.74,572.015 1022.79,569.294 1026.85,566.586 1030.91,563.892 1034.97,561.212 1039.03,558.545 1043.08,555.892 
  1047.14,553.252 1051.2,550.625 1055.26,548.011 1059.32,545.41 1063.37,542.823 1067.43,540.249 1071.49,537.687 1075.55,535.138 1079.61,532.603 1083.66,530.079 
  1087.72,527.569 1091.78,525.071 1095.84,522.586 1099.9,520.113 1103.96,517.653 1108.01,515.205 1112.07,512.769 1116.13,510.346 1120.19,507.934 1124.25,505.535 
  1128.3,503.148 1132.36,500.773 1136.42,498.41 1140.48,496.059 1144.54,493.719 1148.59,491.391 1152.65,489.075 1156.71,486.771 1160.77,484.478 1164.83,482.197 
  1168.88,479.927 1172.94,477.669 1177,475.422 1181.06,473.186 1185.12,470.961 1189.18,468.748 1193.23,466.546 1197.29,464.355 1201.35,462.175 1205.41,460.005 
  1209.47,457.847 1213.52,455.7 1217.58,453.563 1221.64,451.437 1225.7,449.322 1229.76,447.217 1233.81,445.123 1237.87,443.04 1241.93,440.967 1245.99,438.904 
  1250.05,436.852 1254.1,434.81 1258.16,432.778 1262.22,430.757 1266.28,428.745 1270.34,426.744 1274.4,424.753 1278.45,422.772 1282.51,420.801 1286.57,418.839 
  1290.63,416.888 1294.69,414.946 1298.74,413.014 1302.8,411.092 1306.86,409.18 1310.92,407.277 1314.98,405.383 1319.03,403.5 1323.09,401.625 1327.15,399.76 
  1331.21,397.905 1335.27,396.059 1339.32,394.222 1343.38,392.394 1347.44,390.575 1351.5,388.766 1355.56,386.966 1359.61,385.174 1363.67,383.392 1367.73,381.619 
  1371.79,379.854 1375.85,378.099 1379.91,376.352 1383.96,374.614 1388.02,372.885 1392.08,371.164 1396.14,369.453 1400.2,367.749 1404.25,366.055 1408.31,364.368 
  1412.37,362.691 1416.43,361.021 1420.49,359.361 1424.54,357.708 1428.6,356.064 1432.66,354.428 1436.72,352.8 1440.78,351.18 1444.83,349.569 1448.89,347.966 
  1452.95,346.37 1457.01,344.783 1461.07,343.204 1465.13,341.633 1469.18,340.069 1473.24,338.513 1477.3,336.966 1481.36,335.426 1485.42,333.893 1489.47,332.369 
  1493.53,330.852 1497.59,329.343 1501.65,327.841 1505.71,326.347 1509.76,324.86 1513.82,323.381 1517.88,321.909 1521.94,320.445 1526,318.988 1530.05,317.538 
  1534.11,316.096 1538.17,314.661 1542.23,313.233 1546.29,311.812 1550.35,310.398 1554.4,308.992 1558.46,307.592 1562.52,306.2 1566.58,304.815 1570.64,303.436 
  1574.69,302.065 1578.75,300.7 1582.81,299.342 1586.87,297.991 1590.93,296.647 1594.98,295.31 1599.04,293.979 1603.1,292.655 1607.16,291.338 1611.22,290.027 
  1615.27,288.723 1619.33,287.425 1623.39,286.134 1627.45,284.85 1631.51,283.572 1635.56,282.3 1639.62,281.035 1643.68,279.776 1647.74,278.523 1651.8,277.277 
  1655.86,276.037 1659.91,274.803 1663.97,273.575 1668.03,272.354 1672.09,271.138 1676.15,269.929 1680.2,268.726 1684.26,267.529 1688.32,266.338 1692.38,265.153 
  1696.44,263.974 1700.49,262.8 1704.55,261.633 1708.61,260.472 1712.67,259.316 1716.73,258.166 1720.78,257.022 1724.84,255.884 1728.9,254.751 1732.96,253.624 
  1737.02,252.503 1741.08,251.388 1745.13,250.278 1749.19,249.173 1753.25,248.074 1757.31,246.981 1761.37,245.893 1765.42,244.811 1769.48,243.734 1773.54,242.663 
  1777.6,241.596 1781.66,240.536 1785.71,239.48 1789.77,238.43 1793.83,237.385 1797.89,236.346 1801.95,235.311 1806,234.282 1810.06,233.258 1814.12,232.239 
  1818.18,231.225 1822.24,230.217 1826.29,229.213 1830.35,228.215 1834.41,227.221 1838.47,226.233 1842.53,225.249 1846.59,224.27 1850.64,223.297 1854.7,222.328 
  1858.76,221.364 1862.82,220.405 1866.88,219.451 1870.93,218.501 1874.99,217.556 1879.05,216.616 1883.11,215.681 1887.17,214.751 1891.22,213.825 1895.28,212.904 
  1899.34,211.987 1903.4,211.075 1907.46,210.168 1911.51,209.265 1915.57,208.367 1919.63,207.473 1923.69,206.583 1927.75,205.699 1931.81,204.818 1935.86,203.942 
  1939.92,203.071 1943.98,202.204 1948.04,201.341 1952.1,200.482 1956.15,199.628 1960.21,198.778 1964.27,197.933 1968.33,197.091 1972.39,196.254 1976.44,195.421 
  1980.5,194.593 1984.56,193.768 1988.62,192.948 1992.68,192.131 1996.73,191.319 2000.79,190.511 2004.85,189.707 2008.91,188.907 2012.97,188.111 2017.03,187.319 
  2021.08,186.531 2025.14,185.747 2029.2,184.967 2033.26,184.191 2037.32,183.418 2041.37,182.65 2045.43,181.885 2049.49,181.125 2053.55,180.368 2057.61,179.615 
  2061.66,178.865 2065.72,178.12 2069.78,177.378 2073.84,176.64 2077.9,175.906 2081.95,175.175 2086.01,174.448 2090.07,173.725 2094.13,173.005 2098.19,172.289 
  2102.24,171.576 2106.3,170.867 2110.36,170.162 2114.42,169.46 2118.48,168.762 2122.54,168.067 2126.59,167.376 2130.65,166.688 2134.71,166.004 2138.77,165.323 
  2142.83,164.645 2146.88,163.971 2150.94,163.301 2155,162.633 2159.06,161.969 2163.12,161.309 2167.17,160.651 2171.23,159.997 2175.29,159.347 2179.35,158.699 
  2183.41,158.055 2187.46,157.414 2191.52,156.776 2195.58,156.142 2199.64,155.511 2203.7,154.882 2207.76,154.257 2211.81,153.635 2215.87,153.017 2219.93,152.401 
  2223.99,151.788 2228.05,151.179 2232.1,150.573 2236.16,149.969 2240.22,149.369 2244.28,148.772 2248.34,148.177 2252.39,147.586 2256.45,146.998 2260.51,146.412 
  
  "/>
<polyline clip-path="url(#clip0703)" style="stroke:#00a9ad; stroke-width:4; stroke-opacity:1; fill:none" points="
  235.525,746.382 239.583,742.785 243.641,739.206 247.699,735.644 251.757,732.101 255.815,728.575 259.873,725.067 263.931,721.577 267.989,718.104 272.048,714.649 
  276.106,711.211 280.164,707.791 284.222,704.387 288.28,701.001 292.338,697.631 296.396,694.279 300.454,690.944 304.512,687.625 308.57,684.323 312.628,681.037 
  316.687,677.768 320.745,674.516 324.803,671.279 328.861,668.059 332.919,664.856 336.977,661.668 341.035,658.496 345.093,655.34 349.151,652.201 353.209,649.076 
  357.267,645.968 361.325,642.875 365.384,639.798 369.442,636.736 373.5,633.69 377.558,630.659 381.616,627.643 385.674,624.642 389.732,621.657 393.79,618.686 
  397.848,615.73 401.906,612.789 405.964,609.863 410.023,606.952 414.081,604.055 418.139,601.173 422.197,598.305 426.255,595.452 430.313,592.613 434.371,589.789 
  438.429,586.978 442.487,584.182 446.545,581.399 450.603,578.631 454.661,575.877 458.72,573.136 462.778,570.409 466.836,567.696 470.894,564.997 474.952,562.311 
  479.01,559.639 483.068,556.98 487.126,554.334 491.184,551.702 495.242,549.083 499.3,546.477 503.359,543.884 507.417,541.304 511.475,538.737 515.533,536.183 
  519.591,533.642 523.649,531.114 527.707,528.598 531.765,526.095 535.823,523.605 539.881,521.127 543.939,518.661 547.997,516.208 552.056,513.768 556.114,511.339 
  560.172,508.923 564.23,506.519 568.288,504.127 572.346,501.747 576.404,499.379 580.462,497.023 584.52,494.678 588.578,492.346 592.636,490.025 596.695,487.716 
  600.753,485.418 604.811,483.132 608.869,480.858 612.927,478.595 616.985,476.343 621.043,474.103 625.101,471.873 629.159,469.655 633.217,467.449 637.275,465.253 
  641.333,463.068 645.392,460.895 649.45,458.732 653.508,456.58 657.566,454.439 661.624,452.309 665.682,450.189 669.74,448.08 673.798,445.982 677.856,443.894 
  681.914,441.816 685.972,439.75 690.031,437.693 694.089,435.647 698.147,433.611 702.205,431.585 706.263,429.57 710.321,427.564 714.379,425.569 718.437,423.584 
  722.495,421.609 726.553,419.643 730.611,417.688 734.669,415.742 738.728,413.806 742.786,411.88 746.844,409.964 750.902,408.057 754.96,406.16 759.018,404.272 
  763.076,402.394 767.134,400.525 771.192,398.665 775.25,396.815 779.308,394.975 783.367,393.143 787.425,391.321 791.483,389.508 795.541,387.704 799.599,385.909 
  803.657,384.123 807.715,382.346 811.773,380.578 815.831,378.819 819.889,377.068 823.947,375.327 828.006,373.594 832.064,371.87 836.122,370.154 840.18,368.448 
  844.238,366.749 848.296,365.06 852.354,363.379 856.412,361.706 860.47,360.041 864.528,358.386 868.586,356.738 872.644,355.099 876.703,353.467 880.761,351.844 
  884.819,350.23 888.877,348.623 892.935,347.024 896.993,345.434 901.051,343.851 905.109,342.277 909.167,340.71 913.225,339.151 917.283,337.6 921.342,336.057 
  925.4,334.522 929.458,332.994 933.516,331.474 937.574,329.961 941.632,328.457 945.69,326.959 949.748,325.47 953.806,323.987 957.864,322.513 961.922,321.045 
  965.98,319.585 970.039,318.133 974.097,316.687 978.155,315.249 982.213,313.818 986.271,312.394 990.329,310.978 994.387,309.569 998.445,308.166 1002.5,306.771 
  1006.56,305.383 1010.62,304.001 1014.68,302.627 1018.74,301.26 1022.79,299.899 1026.85,298.545 1030.91,297.198 1034.97,295.858 1039.03,294.525 1043.08,293.198 
  1047.14,291.878 1051.2,290.564 1055.26,289.258 1059.32,287.957 1063.37,286.664 1067.43,285.376 1071.49,284.096 1075.55,282.821 1079.61,281.553 1083.66,280.292 
  1087.72,279.037 1091.78,277.788 1095.84,276.545 1099.9,275.309 1103.96,274.078 1108.01,272.854 1112.07,271.637 1116.13,270.425 1120.19,269.219 1124.25,268.02 
  1128.3,266.826 1132.36,265.639 1136.42,264.457 1140.48,263.281 1144.54,262.112 1148.59,260.948 1152.65,259.79 1156.71,258.638 1160.77,257.491 1164.83,256.351 
  1168.88,255.216 1172.94,254.086 1177,252.963 1181.06,251.845 1185.12,250.733 1189.18,249.626 1193.23,248.525 1197.29,247.429 1201.35,246.339 1205.41,245.255 
  1209.47,244.176 1213.52,243.102 1217.58,242.033 1221.64,240.971 1225.7,239.913 1229.76,238.861 1233.81,237.814 1237.87,236.772 1241.93,235.735 1245.99,234.704 
  1250.05,233.678 1254.1,232.657 1258.16,231.641 1262.22,230.63 1266.28,229.625 1270.34,228.624 1274.4,227.628 1278.45,226.638 1282.51,225.652 1286.57,224.672 
  1290.63,223.696 1294.69,222.725 1298.74,221.759 1302.8,220.798 1306.86,219.842 1310.92,218.89 1314.98,217.944 1319.03,217.002 1323.09,216.065 1327.15,215.132 
  1331.21,214.204 1335.27,213.281 1339.32,212.363 1343.38,211.449 1347.44,210.54 1351.5,209.635 1355.56,208.735 1359.61,207.839 1363.67,206.948 1367.73,206.061 
  1371.79,205.179 1375.85,204.301 1379.91,203.428 1383.96,202.559 1388.02,201.695 1392.08,200.834 1396.14,199.978 1400.2,199.127 1404.25,198.279 1408.31,197.436 
  1412.37,196.597 1416.43,195.763 1420.49,194.932 1424.54,194.106 1428.6,193.284 1432.66,192.466 1436.72,191.652 1440.78,190.842 1444.83,190.037 1448.89,189.235 
  1452.95,188.437 1457.01,187.644 1461.07,186.854 1465.13,186.068 1469.18,185.287 1473.24,184.509 1477.3,183.735 1481.36,182.965 1485.42,182.199 1489.47,181.436 
  1493.53,180.678 1497.59,179.923 1501.65,179.173 1505.71,178.425 1509.76,177.682 1513.82,176.943 1517.88,176.207 1521.94,175.474 1526,174.746 1530.05,174.021 
  1534.11,173.3 1538.17,172.582 1542.23,171.868 1546.29,171.158 1550.35,170.451 1554.4,169.748 1558.46,169.048 1562.52,168.352 1566.58,167.659 1570.64,166.97 
  1574.69,166.284 1578.75,165.602 1582.81,164.923 1586.87,164.248 1590.93,163.576 1594.98,162.907 1599.04,162.242 1603.1,161.58 1607.16,160.921 1611.22,160.266 
  1615.27,159.614 1619.33,158.965 1623.39,158.319 1627.45,157.677 1631.51,157.038 1635.56,156.402 1639.62,155.769 1643.68,155.14 1647.74,154.514 1651.8,153.89 
  1655.86,153.27 1659.91,152.653 1663.97,152.04 1668.03,151.429 1672.09,150.821 1676.15,150.217 1680.2,149.615 1684.26,149.017 1688.32,148.421 1692.38,147.828 
  1696.44,147.239 1700.49,146.652 1704.55,146.069 1708.61,145.488 1712.67,144.91 1716.73,144.335 1720.78,143.763 1724.84,143.194 1728.9,142.628 1732.96,142.064 
  1737.02,141.504 1741.08,140.946 1745.13,140.391 1749.19,139.839 1753.25,139.289 1757.31,138.743 1761.37,138.199 1765.42,137.658 1769.48,137.119 1773.54,136.583 
  1777.6,136.05 1781.66,135.52 1785.71,134.992 1789.77,134.467 1793.83,133.945 1797.89,133.425 1801.95,132.908 1806,132.393 1810.06,131.881 1814.12,131.372 
  1818.18,130.865 1822.24,130.36 1826.29,129.859 1830.35,129.359 1834.41,128.863 1838.47,128.368 1842.53,127.877 1846.59,127.387 1850.64,126.9 1854.7,126.416 
  1858.76,125.934 1862.82,125.455 1866.88,124.977 1870.93,124.503 1874.99,124.03 1879.05,123.56 1883.11,123.093 1887.17,122.627 1891.22,122.164 1895.28,121.704 
  1899.34,121.246 1903.4,120.79 1907.46,120.336 1911.51,119.884 1915.57,119.435 1919.63,118.988 1923.69,118.544 1927.75,118.101 1931.81,117.661 1935.86,117.223 
  1939.92,116.787 1943.98,116.354 1948.04,115.922 1952.1,115.493 1956.15,115.066 1960.21,114.641 1964.27,114.218 1968.33,113.798 1972.39,113.379 1976.44,112.963 
  1980.5,112.548 1984.56,112.136 1988.62,111.726 1992.68,111.318 1996.73,110.912 2000.79,110.508 2004.85,110.106 2008.91,109.706 2012.97,109.308 2017.03,108.912 
  2021.08,108.518 2025.14,108.125 2029.2,107.735 2033.26,107.347 2037.32,106.961 2041.37,106.577 2045.43,106.195 2049.49,105.814 2053.55,105.436 2057.61,105.059 
  2061.66,104.685 2065.72,104.312 2069.78,103.941 2073.84,103.572 2077.9,103.205 2081.95,102.84 2086.01,102.476 2090.07,102.114 2094.13,101.754 2098.19,101.396 
  2102.24,101.04 2106.3,100.686 2110.36,100.333 2114.42,99.9822 2118.48,99.633 2122.54,99.2857 2126.59,98.94 2130.65,98.5961 2134.71,98.254 2138.77,97.9135 
  2142.83,97.5748 2146.88,97.2377 2150.94,96.9024 2155,96.5687 2159.06,96.2367 2163.12,95.9064 2167.17,95.5778 2171.23,95.2508 2175.29,94.9254 2179.35,94.6017 
  2183.41,94.2796 2187.46,93.9591 2191.52,93.6402 2195.58,93.323 2199.64,93.0073 2203.7,92.6932 2207.76,92.3807 2211.81,92.0698 2215.87,91.7604 2219.93,91.4526 
  2223.99,91.1463 2228.05,90.8416 2232.1,90.5384 2236.16,90.2367 2240.22,89.9365 2244.28,89.6379 2248.34,89.3407 2252.39,89.045 2256.45,88.7509 2260.51,88.4582 
  
  "/>
<polygon clip-path="url(#clip0701)" points="
1768.45,1359.47 2249.26,1359.47 2249.26,936.115 1768.45,936.115 
  " fill="#ffffff" fill-rule="evenodd" fill-opacity="1"/>
<polyline clip-path="url(#clip0701)" style="stroke:#000000; stroke-width:4; stroke-opacity:1; fill:none" points="
  1768.45,1359.47 2249.26,1359.47 2249.26,936.115 1768.45,936.115 1768.45,1359.47 
  "/>
<polyline clip-path="url(#clip0701)" style="stroke:#009af9; stroke-width:4; stroke-opacity:1; fill:none" points="
  1792.45,996.595 1936.45,996.595 
  "/>
<g clip-path="url(#clip0701)">
<text style="fill:#000000; fill-opacity:1; font-family:Arial,Helvetica Neue,Helvetica,sans-serif; font-size:48px; text-anchor:start;" transform="rotate(0, 1960.45, 1014.09)" x="1960.45" y="1014.09">u1 ratio 1.0</text>
</g>
<polyline clip-path="url(#clip0701)" style="stroke:#e26f46; stroke-width:4; stroke-opacity:1; fill:none" points="
  1792.45,1057.07 1936.45,1057.07 
  "/>
<g clip-path="url(#clip0701)">
<text style="fill:#000000; fill-opacity:1; font-family:Arial,Helvetica Neue,Helvetica,sans-serif; font-size:48px; text-anchor:start;" transform="rotate(0, 1960.45, 1074.57)" x="1960.45" y="1074.57">u2 ratio 1.0</text>
</g>
<polyline clip-path="url(#clip0701)" style="stroke:#3da44d; stroke-width:4; stroke-opacity:1; fill:none" points="
  1792.45,1117.55 1936.45,1117.55 
  "/>
<g clip-path="url(#clip0701)">
<text style="fill:#000000; fill-opacity:1; font-family:Arial,Helvetica Neue,Helvetica,sans-serif; font-size:48px; text-anchor:start;" transform="rotate(0, 1960.45, 1135.05)" x="1960.45" y="1135.05">u1 ratio 0.1</text>
</g>
<polyline clip-path="url(#clip0701)" style="stroke:#c271d2; stroke-width:4; stroke-opacity:1; fill:none" points="
  1792.45,1178.03 1936.45,1178.03 
  "/>
<g clip-path="url(#clip0701)">
<text style="fill:#000000; fill-opacity:1; font-family:Arial,Helvetica Neue,Helvetica,sans-serif; font-size:48px; text-anchor:start;" transform="rotate(0, 1960.45, 1195.53)" x="1960.45" y="1195.53">u2 ratio 0.1</text>
</g>
<polyline clip-path="url(#clip0701)" style="stroke:#ac8d18; stroke-width:4; stroke-opacity:1; fill:none" points="
  1792.45,1238.51 1936.45,1238.51 
  "/>
<g clip-path="url(#clip0701)">
<text style="fill:#000000; fill-opacity:1; font-family:Arial,Helvetica Neue,Helvetica,sans-serif; font-size:48px; text-anchor:start;" transform="rotate(0, 1960.45, 1256.01)" x="1960.45" y="1256.01">u1 ratio 0.5</text>
</g>
<polyline clip-path="url(#clip0701)" style="stroke:#00a9ad; stroke-width:4; stroke-opacity:1; fill:none" points="
  1792.45,1298.99 1936.45,1298.99 
  "/>
<g clip-path="url(#clip0701)">
<text style="fill:#000000; fill-opacity:1; font-family:Arial,Helvetica Neue,Helvetica,sans-serif; font-size:48px; text-anchor:start;" transform="rotate(0, 1960.45, 1316.49)" x="1960.45" y="1316.49">u2 ratio 0.5</text>
</g>
</svg>
